<?xml version="1.0" standalone="no"?>
<!DOCTYPE svg PUBLIC "-//W3C//DTD SVG 1.1//EN" "http://www.w3.org/Graphics/SVG/1.1/DTD/svg11.dtd" >
<svg xmlns="http://www.w3.org/2000/svg">
<metadata>
<json>
<![CDATA[
{
	 "fontFamily": "eventlabicons",
	 "majorVersion": 1,
	 "minorVersion": 0,
	 "copyright": "Bespired",
	 "designer": "",
	 "description": "Icon Library for eventlab UI Libraries",
	 "license": "MIT",
	 "licenseURL": "https://opensource.org/licenses/MIT",
	 "version": "Version 1.0",
	 "fontId": "eventlabicons",
	 "psName": "eventlabicons",
	 "subFamily": "Regular",
	 "fullName": "eventlabicons"
}
]]>
</json>
</metadata>
<defs>
<font id="eventlabicons" horiz-adv-x="1024">
<font-face units-per-em="1024" ascent="960" descent="-64" />
<missing-glyph horiz-adv-x="1024" />
<glyph unicode="&#x20;" horiz-adv-x="512" d="" />
<glyph unicode="&#xe900;" glyph-name="add-box" d="M208,887C185,887 166,879 150,863C133,846 125,827 125,804L125,220C125,197 133,178 150,161C166,145 185,137 208,137L792,137C815,137 834,145 851,161C867,178 875,197 875,220L875,804C875,827 867,846 851,863C834,879 815,887 792,887L208,887ZM208,804L792,804L792,220L208,220L208,804ZM458.34,553.66L320.179,553.66C297.172,553.66 278.519,535.007 278.519,512C278.519,488.993 297.169,470.34 320.179,470.34L458.34,470.34L458.34,332.179C458.34,309.172 476.993,290.519 500,290.519C523.007,290.519 541.66,309.169 541.66,332.179L541.66,470.34L681.244,470.34C704.251,470.34 722.904,488.993 722.904,512C722.904,535.007 704.254,553.66 681.244,553.66L541.66,553.66L541.66,693.244C541.66,716.251 523.007,734.904 500,734.904C476.993,734.904 458.34,716.254 458.34,693.244L458.34,553.66Z" />
<glyph unicode="&#xe901;" glyph-name="align-center" d="M804.558,438.861L219.441,438.861C195.205,438.861 175.557,419.213 175.557,394.977C175.557,370.741 195.205,351.093 219.441,351.093L804.558,351.093C828.794,351.093 848.442,370.741 848.442,394.977C848.442,419.213 828.794,438.861 804.558,438.861M980.093,204.814L43.906,204.814C19.67,204.814 0.022,185.166 0.022,160.93C0.022,136.694 19.67,117.046 43.906,117.046L980.093,117.046C1004.33,117.046 1023.98,136.694 1023.98,160.93C1023.98,185.166 1004.33,204.814 980.093,204.814M980.093,672.907L43.906,672.907C19.67,672.907 0.022,653.259 0.022,629.023C0.022,604.787 19.67,585.139 43.906,585.139L980.093,585.139C1004.33,585.139 1023.98,604.787 1023.98,629.023C1023.98,653.259 1004.33,672.907 980.093,672.907M804.558,906.954L219.441,906.954C195.205,906.954 175.557,887.306 175.557,863.07C175.557,838.834 195.205,819.186 219.441,819.186L804.558,819.186C828.794,819.186 848.442,838.834 848.442,863.07C848.442,887.306 828.794,906.954 804.558,906.954" />
<glyph unicode="&#xe902;" glyph-name="align-justify" d="M980.093 438.861H43.906c-24.236 0-43.884-19.648-43.884-43.884s19.648-43.884 43.884-43.884h936.187c24.236 0 43.884 19.648 43.884 43.884s-19.648 43.884-43.884 43.884m0-234.047H43.906C19.67 204.814.022 185.166.022 160.93s19.648-43.884 43.884-43.884h936.187c24.236 0 43.884 19.648 43.884 43.884s-19.648 43.884-43.884 43.884m0 468.093H43.906c-24.236 0-43.884-19.648-43.884-43.884s19.648-43.884 43.884-43.884h936.187c24.236 0 43.884 19.648 43.884 43.884s-19.648 43.884-43.884 43.884m0 234.047H43.906C19.67 906.954.022 887.306.022 863.07s19.648-43.884 43.884-43.884h936.187c24.236 0 43.884 19.648 43.884 43.884s-19.648 43.884-43.884 43.884" />
<glyph unicode="&#xe903;" glyph-name="align-left" d="M631.151,438.861L43.906,438.861C19.67,438.861 0.022,419.213 0.022,394.977C0.022,370.741 19.67,351.093 43.906,351.093L631.151,351.093C655.387,351.093 675.035,370.741 675.035,394.977C675.035,419.213 655.387,438.861 631.151,438.861M980.093,204.814L43.906,204.814C19.67,204.814 0.022,185.166 0.022,160.93C0.022,136.694 19.67,117.046 43.906,117.046L980.093,117.046C1004.33,117.046 1023.98,136.694 1023.98,160.93C1023.98,185.166 1004.33,204.814 980.093,204.814M980.093,672.907L43.906,672.907C19.67,672.907 0.022,653.259 0.022,629.023C0.022,604.787 19.67,585.139 43.906,585.139L980.093,585.139C1004.33,585.139 1023.98,604.787 1023.98,629.023C1023.98,653.259 1004.33,672.907 980.093,672.907M631.093,906.954L43.906,906.954C19.67,906.954 0.022,887.306 0.022,863.07C0.022,838.834 19.67,819.186 43.906,819.186L631.093,819.186C655.329,819.186 674.977,838.834 674.977,863.07C674.977,887.306 655.329,906.954 631.093,906.954" />
<glyph unicode="&#xe904;" glyph-name="align-right" d="M980.093,438.861L394.976,438.861C370.74,438.861 351.092,419.213 351.092,394.977C351.092,370.741 370.74,351.093 394.976,351.093L980.093,351.093C1004.33,351.093 1023.98,370.741 1023.98,394.977C1023.98,419.213 1004.33,438.861 980.093,438.861M984.189,204.814L48.002,204.814C23.766,204.814 4.118,185.166 4.118,160.93C4.118,136.694 23.766,117.046 48.002,117.046L984.189,117.046C1008.43,117.046 1028.07,136.694 1028.07,160.93C1028.07,185.166 1008.43,204.814 984.189,204.814M984.189,672.907L48.002,672.907C23.766,672.907 4.118,653.259 4.118,629.023C4.118,604.787 23.766,585.139 48.002,585.139L984.189,585.139C1008.43,585.139 1028.07,604.787 1028.07,629.023C1028.07,653.259 1008.43,672.907 984.189,672.907M980.093,906.954L394.976,906.954C370.74,906.954 351.092,887.306 351.092,863.07C351.092,838.834 370.74,819.186 394.976,819.186L980.093,819.186C1004.33,819.186 1023.98,838.834 1023.98,863.07C1023.98,887.306 1004.33,906.954 980.093,906.954" />
<glyph unicode="&#xe905;" glyph-name="angle-double-right" d="M587.102 831.182h-.259c-15.47 0-29.463-6.321-39.534-16.519l-.004-.004c-10.173-10.194-16.472-24.266-16.472-39.803s6.29-29.611 16.472-39.809l225.304-225.304-225.304-225.304c-3.536-7.161-5.605-15.588-5.605-24.492 0-31.111 25.217-56.325 56.325-56.325 10.665 0 20.638 2.967 29.14 8.115l-.251-.143 262.858 262.858c10.173 10.194 16.472 24.266 16.472 39.803s-6.29 29.611-16.472 39.809l-262.858 258.35c-9.83 11.106-23.933 18.225-39.711 18.775l-.094.004zm-413.06 0c-15.029-1.181-28.228-8.178-37.495-18.716l-.053-.063c-8.9-9.92-14.342-23.099-14.342-37.554s5.442-27.63 14.391-37.603l-.045.053 225.304-225.304-225.304-225.304c-3.467-7.105-5.497-15.45-5.497-24.276 0-31.111 25.217-56.325 56.325-56.325 8.82 0 17.176 2.028 24.609 5.644l-.339-.145 262.858 262.858c10.173 10.194 16.472 24.266 16.472 39.803s-6.29 29.611-16.472 39.809l-262.858 258.35c-9.32 10.596-22.521 17.598-37.357 18.765l-.192.014z" />
<glyph unicode="&#xe906;" glyph-name="angle-down" d="M512 724.21h-.293c-17.487 0-33.3-7.139-44.687-18.671l-.006-.006-294.549-297.097c-6.421-9.779-10.246-21.757-10.246-34.639 0-35.163 28.506-63.662 63.662-63.662 11.573 0 22.424 3.091 31.773 8.485l-.306-.164 254.656 254.656L766.66 318.456c9.044-5.23 19.894-8.318 31.469-8.318 35.163 0 63.662 28.506 63.662 63.662 0 12.88-3.82 24.863-10.395 34.879l.149-.244-297.097 297.097c-10.874 11.029-25.782 18.05-42.325 18.671l-.112.002z" />
<glyph unicode="&#xe907;" glyph-name="angle-left" d="M645.785 836.904h-.264c-15.744 0-29.987-6.434-40.247-16.814l-267.57-267.57c-10.36-10.374-16.768-24.697-16.768-40.517s6.404-30.147 16.768-40.517l267.566-265.27c8.804-5.784 19.594-9.224 31.197-9.224 31.667 0 57.335 25.671 57.335 57.335 0 10.424-2.782 20.194-7.64 28.617l.144-.274-229.343 229.343 229.343 229.343c10.36 10.374 16.768 24.697 16.768 40.517s-6.404 30.147-16.768 40.517c-9.987 9.044-23.307 14.584-37.917 14.584q-1.37-.001-2.732-.064l.124.004z" />
<glyph unicode="&#xe908;" glyph-name="angle-right" d="M377.809 837.894c-16.204-.566-30.605-7.836-40.589-19.11l-.054-.059c-10.396-10.404-16.822-24.776-16.822-40.643s6.424-30.235 16.822-40.645L567.21 507.393 337.166 277.349c-2.746-6.474-4.334-14.004-4.334-21.905 0-31.765 25.748-57.513 57.513-57.513 10.324 0 20.016 2.723 28.392 7.484l-.286-.149L686.835 473.65c10.396 10.406 16.822 24.773 16.822 40.643s-6.424 30.236-16.822 40.645L418.451 818.721c-10.036 11.334-24.433 18.607-40.543 19.164l-.096.006z" />
<glyph unicode="&#xe909;" glyph-name="angle-up" d="M804.999 721.286h-.29c-17.244 0-32.838-7.04-44.069-18.415L509.491 451.722 258.348 702.865c-7.978 3.94-17.369 6.249-27.304 6.249-34.676 0-62.787-28.109-62.787-62.787 0-11.887 3.305-23 9.042-32.478l-.157.277 292.999-292.999c11.357-11.344 27.043-18.363 44.37-18.363s33.008 7.014 44.37 18.363L851.88 614.126c11.344 11.357 18.363 27.043 18.363 44.37s-7.014 33.008-18.363 44.37c-11.24 11.41-26.866 18.481-44.134 18.481q-1.448 0-2.88-.07l.133.002z" />
<glyph unicode="&#xe90a;" glyph-name="archive-box" d="M292,720L583,720L583,637L292,637L292,720ZM292,554L708,554L708,470L292,470L292,554ZM292,387L708,387L708,304L292,304L292,387ZM208,887C185,887 166,879 150,863C133,846 125,827 125,804L125,220C125,197 133,178 150,161C166,145 185,137 208,137L792,137C815,137 834,145 851,161C867,178 875,197 875,220L875,804C875,827 867,846 851,863C834,879 815,887 792,887L208,887ZM208,804L792,804L792,220L208,220L208,804ZM208,220L208,804L208,220Z" />
<glyph unicode="&#xe90b;" glyph-name="archive" d="M500,762L667,595L608,537L542,604L542,429L458,429L458,604L392,537L333,595L500,762ZM208,345L208,804L792,804L792,345L208,345ZM208,887C185,887 166,879 150,863C133,846 125,827 125,804L125,284C125,274 127,265 130,256C133,247 138,238 144,231L196,167C204,157 213,150 225,145C236,140 248,137 260,137L740,137C752,137 764,140 776,145C787,150 797,157 804,167L856,231C863,238 867,247 870,256C874,265 875,274 875,284L875,804C875,827 867,846 851,863C834,879 815,887 792,887L208,887ZM225,262L775,262L740,220L260,220L225,262Z" />
<glyph unicode="&#xe90c;" glyph-name="assignment" d="M218.4 901.95c-24.15 0-44.1-8.4-60.9-25.2-17.85-17.85-26.25-37.8-26.25-61.95V201.6c0-24.15 8.4-44.1 26.25-61.95 16.8-16.8 36.75-25.2 60.9-25.2h183.75c9.45-26.25 26.25-47.25 48.3-63C472.5 34.65 497.7 27.3 525 27.3s52.5 7.35 74.55 24.15c23.1 15.75 38.85 36.75 48.3 63H831.6c24.15 0 44.1 8.4 61.95 25.2 16.8 17.85 25.2 37.8 25.2 61.95v613.2c0 24.15-8.4 44.1-25.2 61.95-17.85 16.8-37.8 25.2-61.95 25.2zm0-87.15h613.2V201.6H218.4zm88.2-88.2h305.55v-87.15H306.6zm0-174.3h436.8v-88.2H306.6zm0-175.35h436.8V289.8H306.6zM525 169.05c9.45 0 17.85-3.15 23.1-9.45 6.3-6.3 9.45-13.65 9.45-23.1s-3.15-17.85-9.45-24.15c-5.25-6.3-13.65-8.4-23.1-8.4s-16.8 2.1-23.1 8.4-9.45 14.7-9.45 24.15 3.15 16.8 9.45 23.1 13.65 9.45 23.1 9.45M218.4 814.8V201.6z" />
<glyph unicode="&#xe90d;" glyph-name="asterisk" d="M561.548 49.548C561.548 22.183 539.365 0 512 0s-49.548 22.184-49.548 49.548V426.18L136.279 237.864C112.58 224.181 82.277 232.301 68.594 256s-5.563 54.002 18.136 67.684L412.902 512 86.73 700.316C63.031 713.998 54.911 744.302 68.594 768s43.986 31.817 67.685 18.139l326.173-188.32v376.634c0 27.363 22.183 49.547 49.548 49.547s49.548-22.184 49.548-49.547V597.821L887.721 786.14c23.698 13.678 54.001 5.559 67.686-18.139 13.678-23.698 5.559-54.002-18.139-67.684L611.095 512.001l326.173-188.316c23.698-13.682 31.817-43.986 18.139-67.684-13.685-23.698-43.988-31.819-67.686-18.136L561.548 426.18z" />
<glyph unicode="&#xe90e;" glyph-name="bell-slash" d="M512 27.679c114.283 0 204.872 38.151 266.401 107.33 60.877 68.442 88.956 162.349 88.956 266.292 0 189.216 38.422 275 69.091 312.925 15.119 18.695 28.994 26.639 37.383 30.098 4.33 1.785 7.534 2.516 9.15 2.801.366.066.651.102.848.132l.124.015c22.25.775 40.046 19.054 40.046 41.487 0 22.93-18.586 41.516-41.516 41.516h-93.506l39.834 39.834c16.216 16.216 16.216 42.496 0 58.712-16.208 16.208-42.496 16.208-58.704 0L95.185 153.899c-16.212-16.212-16.212-42.497 0-58.709s42.497-16.212 58.709 0l72.006 72.006c15.689-24.207 39.13-55.116 68.741-76.374C352.197 49.501 425.457 27.68 511.999 27.68zM293.626 215.391a376 376 0 0 0-7.379 12.15l519.706 519.708h51.902c-41.209-62.24-73.531-167.521-73.531-345.949 0-89.787-24.225-161.935-67.964-211.114-43.086-48.443-109.417-79.481-204.362-79.481-72.414 0-127.92 18.114-168.938 47.561-18.127 13.014-35.604 35.308-49.436 57.125zM239.672 401.3c0-22.927-18.586-41.514-41.514-41.514s-41.514 18.586-41.514 41.514c0 77.698-6.487 138.204-16.361 185.191-18.977 90.295-50.069 129.193-70.542 145.851-10.409 8.47-19.157 12.112-24.325 13.692-2.632.812-4.442 1.112-5.186 1.214l-.186.022C17.797 748.045 0 766.324 0 788.757c0 22.93 18.586 41.516 41.514 41.516h267.054C327.75 925.125 411.411 996.329 512 996.329c74.664 0 140.026-39.27 176.551-98.231 12.074-19.493 6.061-45.078-13.429-57.154s-45.079-6.064-57.152 13.429c-21.963 35.46-61.126 58.924-105.969 58.924-54.389 0-100.459-34.582-117.497-83.024h172.848c22.927 0 41.513-18.586 41.513-41.516 0-22.923-18.586-41.509-41.513-41.509H166.144c22.293-33.701 42.028-80.101 55.39-143.681 11.29-53.722 18.137-120.101 18.137-202.268z" />
<glyph unicode="&#xe90f;" glyph-name="bell" d="M983.875 747.107c-4.979 0-116.724-19.915-116.724-345.747 0-230.128-133.873-373.406-355.151-373.406S156.849 171.232 156.849 401.36c0 331.917-115.617 345.747-115.065 345.747-22.914 0-41.49 18.576-41.49 41.49s18.576 41.49 41.49 41.49h267.193C328.288 925.955 411.831 997.14 512 997.14s183.711-71.186 202.798-165.727l.223-1.325h267.746c22.914 0 41.49-18.576 41.49-41.49s-18.576-41.49-41.49-41.49zM512 913.065c-53.673-.105-99.33-34.318-116.453-82.114l-.271-.865h233.448c-17.395 48.661-63.05 82.874-116.711 82.979zM166.807 747.107c39.83-60.299 73.022-165.958 73.022-345.747s99.575-290.427 272.172-290.427 272.172 105.66 272.172 290.427 33.192 285.448 73.022 345.747z" />
<glyph unicode="&#xe910;" glyph-name="book" d="M921.533.085H204.851a144 144 0 0 0-4.171-.062c-76.892 0-139.525 61.042-142.084 137.312l-.005.236v725.456c3.196 89.572 76.578 160.974 166.638 160.974q2.83 0 5.636-.094l-.273.005h690.939c24.1-.324 43.553-19.777 43.877-43.845V43.965c-.324-24.1-19.777-43.553-43.845-43.877h-.032zm-43.881 936.073H230.593c-1.635.122-3.546.19-5.469.19-41.629 0-75.733-32.206-78.764-73.058l-.015-.26c3.043-41.116 37.15-73.322 78.779-73.322 1.923 0 3.834.068 5.723.205l-.254-.015h647.059zm0-234.017H230.593c-30.908.035-59.934 8.052-85.138 22.102l.893-.458V137.571c2.714-28.081 26.19-49.857 54.753-49.857q1.981 0 3.925.14l-.175-.011h672.802zM321.859 321.859h380.277c24.235 0 43.877-19.646 43.877-43.877s-19.646-43.877-43.877-43.877H321.859c-24.235 0-43.877 19.646-43.877 43.877s19.646 43.877 43.877 43.877m0 204.767h380.277c24.235 0 43.877-19.646 43.877-43.877s-19.646-43.877-43.877-43.877H321.859c-24.235 0-43.877 19.646-43.877 43.877s19.646 43.877 43.877 43.877" />
<glyph unicode="&#xe911;" glyph-name="bookmark-fill" d="M731.351.181H292.649c-88.839 0-160.857 72.018-160.857 160.857v818.91l-.001.324c0 24.229 19.642 43.87 43.87 43.87a43.67 43.67 0 0 0 25.291-8.02l-.137.092 311.186-217.011 311.186 217.011c6.914 4.763 15.47 7.606 24.689 7.606q.244 0 .488-.003h-.025c7.45-.092 14.477-1.807 20.773-4.808l-.3.129c13.96-7.76 23.279-22.374 23.398-39.173V161.038C892.21 72.199 820.192.181 731.353.181z" />
<glyph unicode="&#xe912;" glyph-name="bookmark" d="M848.457 1024c-9.363-.189-18.033-2.998-25.352-7.723l.191.115L512 799.304l-311.296 217.088c-6.501 4.018-14.382 6.4-22.821 6.4s-16.32-2.381-23.01-6.509l.189.108c-13.4-7.013-22.574-20.486-23.401-36.171l-.004-.107v-819.2c0-88.87 72.044-160.914 160.914-160.914h438.857c88.87 0 160.914 72.044 160.914 160.914v819.359c0 16.646-9.393 31.099-23.169 38.347l-.237.114c-5.911 3.304-12.965 5.254-20.477 5.266h-.004zM512 702.172c.137-.001.3-.003.464-.003a43.7 43.7 0 0 1 24.846 7.706l-.148-.096 267.411 186.075V160.915c0-40.395-32.747-73.142-73.142-73.142H292.574c-40.395 0-73.142 32.747-73.142 73.142v734.939l267.411-186.075c6.916-4.764 15.475-7.609 24.698-7.609q.244 0 .488.003h-.025z" />
<glyph unicode="&#xe913;" glyph-name="broken-image" d="M208,887C185,887 166,879 150,863C133,846 125,827 125,804L125,220C125,197 133,178 150,161C166,145 185,137 208,137L792,137C815,137 834,145 851,161C867,178 875,197 875,220L875,804C875,827 867,846 851,863C834,879 815,887 792,887L208,887ZM250,536L417,369L583,536L750,369L792,411L792,220L208,220L208,494L250,536ZM208,804L792,804L792,529L750,487L583,654L417,487L250,654L208,612L208,804ZM208,804L208,529L208,612L208,220L208,804Z" />
<glyph unicode="&#xe914;" glyph-name="brush" d="M250 887c-31 0-62-8-93-23-30-15-55-35-74-60 18 0 37-8 56-22 18-14 28-35 28-62 0-34 12-64 36-88 24-25 54-37 89-37 34 0 64 12 88 37 25 24 37 54 37 88 0 46-17 85-49 118-33 33-72 49-118 49m0-83c23 0 43-9 59-25s24-36 24-59c0-12-4-21-12-29s-17-12-29-12q-18 0-30 12c-8 8-12 17-12 29 0 16-2 31-6 44-3 13-9 26-15 38 4 1 7 2 11 2zm240-167L375 522l373-373c8-7 17-11 29-12 11 0 21 4 29 12l57 57c8 8 12 18 12 29s-4 21-12 29z" />
<glyph unicode="&#xe915;" glyph-name="building-columns" d="M518.376 136.724a13.13 13.13 0 0 0-12.751 0L58.518 385.116c-19.014 10.563-42.991 3.713-53.554-15.301s-3.713-42.991 15.301-53.554L467.372 67.868a91.9 91.9 0 0 1 89.257 0l447.103 248.393c19.017 10.563 25.871 34.54 15.301 53.554-10.562 19.013-34.538 25.864-53.548 15.301zM367.592 350.689c0-21.751 17.633-39.385 39.384-39.385h210.049c21.751 0 39.384 17.633 39.384 39.385s-17.633 39.384-39.384 39.384H406.976c-21.751 0-39.384-17.633-39.384-39.384M196.928 468.841c21.751 0 39.385 17.633 39.385 39.384v262.562c0 21.753-17.633 39.38-39.385 39.38s-39.384-17.627-39.384-39.38V508.225c0-21.751 17.633-39.384 39.384-39.384m210.048 0c21.751 0 39.384 17.633 39.384 39.384v262.562c0 21.753-17.633 39.38-39.384 39.38s-39.385-17.627-39.385-39.38V508.225c0-21.751 17.633-39.384 39.385-39.384m210.048 0c21.751 0 39.385 17.633 39.385 39.384v262.562c0 21.753-17.633 39.38-39.385 39.38s-39.384-17.627-39.384-39.38V508.225c0-21.751 17.633-39.384 39.384-39.384m210.046 0c21.753 0 39.387 17.633 39.387 39.384v262.562c0 21.753-17.635 39.38-39.387 39.38-21.745 0-39.38-17.627-39.38-39.38V508.225c0-21.751 17.635-39.384 39.38-39.384M105.032 928.322c0-21.753 17.633-39.387 39.384-39.387h735.171c21.753 0 39.38 17.635 39.38 39.387s-17.627 39.38-39.38 39.38H144.416c-21.751 0-39.384-17.627-39.384-39.38" />
<glyph unicode="&#xe916;" glyph-name="bullseye" d="M512 85.33C276.356 85.33 85.33 276.356 85.33 512S276.356 938.672 512 938.672 938.672 747.645 938.672 512 747.645 85.33 512 85.33M0 512C0 229.23 229.23 0 512 0s512 229.23 512 512-229.23 512-512 512S0 794.77 0 512m511.977-248.901c-137.452 0-248.878 111.427-248.878 248.878s111.427 248.877 248.878 248.877c137.452 0 248.877-111.425 248.877-248.877S649.429 263.099 511.977 263.099M177.77 511.977c0-184.577 149.63-334.207 334.207-334.207S846.182 327.4 846.182 511.977 696.554 846.182 511.977 846.182 177.77 696.554 177.77 511.977m263.099 0c0-39.272 31.836-71.108 71.108-71.108s71.108 31.836 71.108 71.108-31.836 71.108-71.108 71.108-71.108-31.836-71.108-71.108m71.108-156.437c-86.398 0-156.437 70.039-156.437 156.437s70.039 156.437 156.437 156.437 156.437-70.039 156.437-156.437S598.375 355.54 511.977 355.54" />
<glyph unicode="&#xe917;" glyph-name="calculator" d="M695.789 315.083H328.21c-14.704 0-26.255-11.553-26.255-26.255v-78.767c0-14.704 11.553-26.255 26.255-26.255h367.579c14.704 0 26.255 11.553 26.255 26.255v78.767c0 14.704-11.553 26.255-26.255 26.255m26.256 157.534v-52.512c0-14.704-11.553-26.255-26.255-26.255h-52.512c-14.704 0-26.255 11.553-26.255 26.255v52.512c0 14.704 11.553 26.255 26.255 26.255h52.512c14.704 0 26.255-11.553 26.255-26.255m-315.067 0v-52.512c0-14.704-11.553-26.255-26.255-26.255h-52.512c-14.704 0-26.255 11.553-26.255 26.255v52.512c0 14.704 11.553 26.255 26.255 26.255h52.512c14.704 0 26.255-11.553 26.255-26.255m157.534 0v-52.512c0-14.704-11.553-26.255-26.255-26.255h-52.512c-14.704 0-26.255 11.553-26.255 26.255v52.512c0 14.704 11.553 26.255 26.255 26.255h52.512c14.704 0 26.255-11.553 26.255-26.255m157.533 170.661v-52.512c0-14.704-11.553-26.255-26.255-26.255h-52.512c-14.704 0-26.255 11.553-26.255 26.255v52.512c0 14.704 11.553 26.255 26.255 26.255h52.512c14.704 0 26.255-11.553 26.255-26.255m-315.067 0v-52.512c0-14.704-11.553-26.255-26.255-26.255h-52.512c-14.704 0-26.255 11.553-26.255 26.255v52.512c0 14.704 11.553 26.255 26.255 26.255h52.512c14.704 0 26.255-11.553 26.255-26.255m157.534 0v-52.512c0-14.704-11.553-26.255-26.255-26.255h-52.512c-14.704 0-26.255 11.553-26.255 26.255v52.512c0 14.704 11.553 26.255 26.255 26.255h52.512c14.704 0 26.255-11.553 26.255-26.255m157.533 170.661v-52.512c0-14.704-11.553-26.255-26.255-26.255h-52.512c-14.704 0-26.255 11.553-26.255 26.255v52.512c0 14.704 11.553 26.255 26.255 26.255h52.512c14.704 0 26.255-11.553 26.255-26.255m-157.533 0v-52.512c0-14.704-11.553-26.255-26.255-26.255H328.212c-14.704 0-26.255 11.553-26.255 26.255v52.512c0 14.704 11.553 26.255 26.255 26.255h210.045c14.704 0 26.255-11.553 26.255-26.255m328.194 91.895V118.166c0-65.114-53.036-118.15-118.15-118.15H249.443c-65.114 0-118.15 53.036-118.15 118.15v787.668c0 65.114 53.036 118.15 118.15 118.15h525.113c65.114 0 118.15-53.036 118.15-118.15M774.556 78.782c21.529 0 39.383 17.854 39.383 39.383v787.668c0 21.529-17.854 39.383-39.383 39.383H249.443c-21.529 0-39.383-17.854-39.383-39.383V118.165c0-21.529 17.854-39.383 39.383-39.383z" />
<glyph unicode="&#xe918;" glyph-name="calendar" d="M788.745 110.712h-69.186V41.526c0-22.926-18.586-41.512-41.512-41.512S636.535 18.6 636.535 41.526v69.186H387.464V41.526c0-22.926-18.586-41.512-41.512-41.512S304.44 18.6 304.44 41.526v69.186h-69.186c-84.063 0-152.209 68.147-152.209 152.209V871.76c0 84.063 68.147 152.209 152.209 152.209h553.491c84.063 0 152.209-68.147 152.209-152.209V262.921c0-84.063-68.147-152.209-152.209-152.209m-553.49 83.023h69.186v69.186c0 22.926 18.586 41.512 41.512 41.512s41.512-18.586 41.512-41.512v-69.186h249.071v69.186c0 22.926 18.586 41.512 41.512 41.512s41.512-18.586 41.512-41.512v-69.186h69.186c38.21 0 69.186 30.976 69.186 69.186V415.13H166.07V262.921c0-38.21 30.976-69.186 69.186-69.186zm553.49 747.212H235.254c-38.21 0-69.186-30.976-69.186-69.186V498.155H857.93v373.606c0 38.21-30.976 69.186-69.186 69.186z" />
<glyph unicode="&#xe919;" glyph-name="chart-bar" d="M46.545 1024C20.978 1023.655.344 1003.021 0 977.488V46.545C0 20.839 20.839 0 46.545 0S93.09 20.839 93.09 46.545v930.909c-.345 25.567-20.979 46.201-46.512 46.545zm930.91 0H46.546C20.84 1024 .001 1003.161.001 977.455S20.84 930.91 46.546 930.91h930.909c25.706 0 46.545 20.839 46.545 46.545S1003.161 1024 977.455 1024M263.757 806.788c-25.567-.345-46.201-20.979-46.545-46.512V512c0-25.706 20.839-46.545 46.545-46.545s46.545 20.839 46.545 46.545v248.243c-.345 25.567-20.979 46.201-46.512 46.545zm217.213 0c-25.567-.345-46.201-20.979-46.545-46.512V263.758c0-25.706 20.839-46.545 46.545-46.545s46.545 20.839 46.545 46.545v496.484c-.345 25.567-20.979 46.201-46.512 46.545zm217.212 0c-25.567-.345-46.201-20.979-46.545-46.512V512c0-25.706 20.839-46.545 46.545-46.545s46.545 20.839 46.545 46.545v248.243c-.345 25.567-20.979 46.201-46.512 46.545zm217.211 0c-25.567-.345-46.201-20.979-46.545-46.512V263.758c0-25.706 20.839-46.545 46.545-46.545s46.545 20.839 46.545 46.545v496.484c-.345 25.567-20.979 46.201-46.512 46.545z" />
<glyph unicode="&#xe91a;" glyph-name="chart-line" d="M46.545 1024C20.978 1023.655.344 1003.021 0 977.488V46.545C0 20.839 20.839 0 46.545 0S93.09 20.839 93.09 46.545v930.909c-.345 25.567-20.979 46.201-46.512 46.545zm930.91 0H46.546C20.84 1024 .001 1003.161.001 977.455S20.84 930.91 46.546 930.91h930.909c25.706 0 46.545 20.839 46.545 46.545S1003.161 1024 977.455 1024M636.121 682.666h-.217c-12.783 0-24.345-5.222-32.671-13.649L449.938 515.722l-153.29 153.29a46.36 46.36 0 0 1-31.731 12.492c-25.706 0-46.545-20.839-46.545-46.545 0-12.276 4.752-23.441 12.518-31.759l-.025.028 186.182-186.182c8.42-8.41 20.049-13.613 32.892-13.613s24.471 5.201 32.893 13.613l153.29 153.29 215.35-215.35a46.36 46.36 0 0 1 31.731-12.492c25.706 0 46.545 20.839 46.545 46.545 0 12.276-4.752 23.441-12.518 31.759l.025-.028-248.243 248.243c-8.33 8.432-19.892 13.654-32.675 13.654h-.228zm279.272-56.474c-25.567-.345-46.201-20.979-46.545-46.512V403.395H698.182c-25.706 0-46.545-20.839-46.545-46.545s20.839-46.545 46.545-46.545h217.212c25.567.345 46.201 20.979 46.545 46.512v222.831c-.345 25.567-20.979 46.201-46.512 46.545z" />
<glyph unicode="&#xe91b;" glyph-name="chart-pie" d="M589.605 64.373V46.369C589.26 20.793 568.618.151 543.075-.194h-.033C242.669 1.6-.137 245.514-.137 546.137c0 98.823 26.237 191.517 72.126 271.496l-1.409-2.663c8.24 13.842 23.126 22.972 40.145 22.972h.221-.012a45.73 45.73 0 0 0 23.186-6.325l-.215.116 18.004-9.313c88.223 122.529 230.468 201.375 391.129 201.375 265.391 0 480.531-215.14 480.531-480.531 0-248.992-189.376-453.753-431.953-478.105l-2.014-.163zm-93.127 31.043v420.93L130.802 726.19c-24.009-53.406-37.995-115.765-37.995-181.391 0-232.603 175.709-424.166 401.636-449.201l2.036-.183zm46.564 835.652c-126.56-.365-238.867-61.07-309.71-154.848l-.712-.982 333.392-191.84c14.165-7.849 23.596-22.711 23.596-39.775q0-.305-.004-.611v.031-384.921c192.214 25.131 339.099 187.876 339.099 384.928 0 213.47-172.379 386.677-385.534 388.018h-.128z" />
<glyph unicode="&#xe91c;" glyph-name="check-square" d="M863.086 1024H160.915C72.045 1024 .001 951.956.001 863.086V160.915C.001 72.045 72.045.001 160.915.001h518.437c24.237 0 43.886 19.648 43.886 43.886s-19.648 43.886-43.886 43.886H160.915c-40.395 0-73.142 32.747-73.142 73.142v702.171c0 40.395 32.747 73.142 73.142 73.142h702.171c40.395 0 73.142-32.747 73.142-73.142V411.941c0-24.237 19.648-43.886 43.886-43.886S1024 387.703 1024 411.941v451.145c0 88.87-72.044 160.914-160.914 160.914M424.229 702.172c-11.709-.922-21.992-6.372-29.216-14.581l-.041-.048L219.429 512c-2.703-5.532-4.284-12.038-4.284-18.913 0-24.237 19.648-43.886 43.886-43.886a43.7 43.7 0 0 1 19.174 4.4l-.261-.114 144.531 144.531 499.127-495.616c5.532-2.703 12.038-4.284 18.913-4.284 24.237 0 43.886 19.648 43.886 43.886a43.7 43.7 0 0 1-4.4 19.174l.114-.261-526.629 526.629c-7.264 8.256-17.547 13.707-29.107 14.619l-.151.01z" />
<glyph unicode="&#xe91d;" glyph-name="chevron-circle-down" d="M512 1024C229.231 1024 0 794.769 0 512S229.231 0 512 0s512 229.231 512 512-229.231 512-512 512m0-938.667C276.359 85.333 85.333 276.358 85.333 512S276.358 938.667 512 938.667 938.667 747.642 938.667 512 747.642 85.333 512 85.333m0 583.111h-.199c-11.717 0-22.316-4.787-29.948-12.512l-227.56-227.56a42.5 42.5 0 0 1-11.451-29.087c0-23.564 19.103-42.667 42.667-42.667 11.253 0 21.488 4.356 29.112 11.475l-.025-.023L512 565.474 709.404 368.07a42.5 42.5 0 0 1 29.087-11.451c23.564 0 42.667 19.103 42.667 42.667 0 11.253-4.356 21.488-11.475 29.112l.023-.025L542.15 655.929c-7.636 7.729-18.235 12.516-29.952 12.516h-.209.011z" />
<glyph unicode="&#xe91e;" glyph-name="chevron-circle-left" d="M512 1024C229.231 1024 0 794.769 0 512S229.231 0 512 0s512 229.231 512 512-229.231 512-512 512m0-938.667C276.359 85.333 85.333 276.358 85.333 512S276.358 938.667 512 938.667 938.667 747.642 938.667 512 747.642 85.333 512 85.333m113.777 696.89h-.199c-11.717 0-22.316-4.787-29.948-12.512l-227.56-227.56c-7.709-7.719-12.479-18.379-12.479-30.151s4.768-22.432 12.479-30.152l227.556-227.556a42.5 42.5 0 0 1 29.087-11.451c23.564 0 42.667 19.103 42.667 42.667 0 11.253-4.356 21.488-11.475 29.112l.023-.025-197.404 197.404 197.404 197.404c7.709 7.719 12.479 18.379 12.479 30.151s-4.768 22.432-12.479 30.152c-7.636 7.729-18.235 12.516-29.952 12.516h-.209.011z" />
<glyph unicode="&#xe91f;" glyph-name="chevron-circle-right" d="M512 1024C229.231 1024 0 794.769 0 512S229.231 0 512 0s512 229.231 512 512-229.231 512-512 512m0-938.667C276.359 85.333 85.333 276.358 85.333 512S276.358 938.667 512 938.667 938.667 747.642 938.667 512 747.642 85.333 512 85.333m-113.777 696.89h-.199c-11.717 0-22.316-4.787-29.948-12.512l-.004-.004c-7.709-7.719-12.479-18.379-12.479-30.151s4.768-22.432 12.479-30.152L565.476 512 368.072 314.596a42.5 42.5 0 0 1-11.451-29.087c0-23.564 19.103-42.667 42.667-42.667 11.253 0 21.488 4.356 29.112 11.475l-.025-.023L655.931 481.85c7.709 7.719 12.479 18.379 12.479 30.151s-4.768 22.432-12.479 30.152L428.375 769.709c-7.636 7.729-18.235 12.516-29.952 12.516h-.209.011z" />
<glyph unicode="&#xe920;" glyph-name="chevron-circle-up" d="M512 1024C229.231 1024 0 794.769 0 512S229.231 0 512 0s512 229.231 512 512-229.231 512-512 512m0-938.667C276.359 85.333 85.333 276.358 85.333 512S276.358 938.667 512 938.667 938.667 747.642 938.667 512 747.642 85.333 512 85.333m227.556 583.111h-.199c-11.717 0-22.316-4.787-29.948-12.512L512.001 458.524 314.597 655.928a42.5 42.5 0 0 1-29.087 11.451c-23.564 0-42.667-19.103-42.667-42.667 0-11.253 4.356-21.488 11.475-29.112l-.023.025 227.556-227.556c7.719-7.709 18.379-12.479 30.151-12.479s22.432 4.768 30.152 12.479L769.71 595.625c7.709 7.719 12.479 18.379 12.479 30.151s-4.768 22.432-12.479 30.152c-7.636 7.729-18.235 12.516-29.952 12.516h-.209.011z" />
<glyph unicode="&#xe921;" glyph-name="chevron-down" d="M512 774.266h-.282c-16.621 0-31.655-6.79-42.481-17.748l-403.49-403.49c-6.608-9.557-10.557-21.395-10.557-34.153 0-33.426 27.098-60.522 60.522-60.522 13.37 0 25.728 4.335 35.742 11.677l-.17-.119 360.715 358.295 360.715-358.295c9.294-6.106 20.686-9.741 32.927-9.741 33.426 0 60.522 27.098 60.522 60.522 0 11.002-2.935 21.318-8.065 30.207l.155-.294L554.768 754.09c-10.561 11.928-25.717 19.583-42.668 20.171l-.102.002z" />
<glyph unicode="&#xe922;" glyph-name="chevron-left" d="M679.213 992.738h-.292c-17.22 0-32.796-7.035-44.013-18.388L216.869 556.311c-11.33-11.344-18.339-27.01-18.339-44.311s7.007-32.967 18.339-44.313L634.902 49.654a62.46 62.46 0 0 1 42.747-16.828c34.631 0 62.705 28.074 62.705 62.705 0 16.538-6.402 31.58-16.864 42.785l.034-.037-373.722 373.722 373.722 373.722c11.33 11.344 18.339 27.01 18.339 44.311s-7.007 32.967-18.339 44.313c-11.222 11.36-26.798 18.394-44.019 18.394h-.307.016z" />
<glyph unicode="&#xe923;" glyph-name="chevron-right" d="M344.779 992.761h-.292c-17.221 0-32.798-7.035-44.016-18.389l-.006-.006c-11.331-11.345-18.34-27.011-18.34-44.313s7.008-32.969 18.34-44.315l373.739-373.739L300.465 138.26a62.46 62.46 0 0 1-16.829-42.749c0-34.632 28.075-62.708 62.708-62.708 16.539 0 31.582 6.402 42.787 16.865l-.037-.034 418.053 418.053c11.331 11.345 18.34 27.011 18.34 44.313s-7.008 32.969-18.34 44.315L389.094 974.368c-11.223 11.36-26.8 18.395-44.021 18.395h-.307.016z" />
<glyph unicode="&#xe924;" glyph-name="chevron-up" d="M912.529 772.345h-.279c-16.5 0-31.424-6.74-42.17-17.619L512.001 396.647 153.927 752.318c-9.226 6.061-20.534 9.669-32.685 9.669-33.181 0-60.08-26.899-60.08-60.08 0-10.921 2.914-21.161 8.005-29.985l-.154.291 400.529-400.529c10.869-10.856 25.879-17.571 42.456-17.571s31.587 6.714 42.457 17.571l400.529 400.529c10.856 10.869 17.571 25.879 17.571 42.456s-6.714 31.587-17.571 42.457c-10.467 9.481-24.421 15.283-39.728 15.283q-1.44 0-2.862-.068z" />
<glyph unicode="&#xe925;" glyph-name="clipboard" d="M466.54 87.771c-31.446 0-56.939 25.492-56.939 56.939v85.746h204.8V144.71c0-31.446-25.492-56.939-56.94-56.939h-90.922zm228.858 13.054h50.659c88.869 0 160.914 72.044 160.914 160.914v601.347c0 88.869-72.046 160.914-160.914 160.914H277.943c-88.871 0-160.914-72.046-160.914-160.914V261.739c0-88.87 72.044-160.914 160.914-160.914h50.659C347.188 42.359 401.916 0 466.538 0h90.922c64.622 0 119.352 42.358 137.936 100.825zm6.774 87.771v79.895c0 27.469-22.268 49.737-49.737 49.737H371.566c-27.47 0-49.737-22.268-49.737-49.737v-79.895h-43.886c-40.396 0-73.143 32.748-73.143 73.143v601.347c0 40.397 32.747 73.143 73.143 73.143h468.114c40.397 0 73.143-32.746 73.143-73.143V261.739c0-40.395-32.746-73.143-73.143-73.143z" />
<glyph unicode="&#xe926;" glyph-name="clone" d="M629.028 789.943H160.914C72.044 789.943 0 717.899 0 629.029V160.915C0 72.045 72.044.001 160.914.001h468.114c88.87 0 160.914 72.044 160.914 160.914v468.114c0 88.87-72.044 160.914-160.914 160.914M160.914 87.772c-40.395 0-73.142 32.747-73.142 73.142v468.114c0 40.395 32.747 73.142 73.142 73.142h468.114c40.395 0 73.142-32.747 73.142-73.142V160.914c0-40.395-32.747-73.142-73.142-73.142zM863.086 1024H394.972c-88.87 0-160.914-72.044-160.914-160.914V746.058h87.771v117.028c0 40.395 32.747 73.142 73.142 73.142h468.114c40.395 0 73.142-32.747 73.142-73.142V394.972c0-40.395-32.747-73.142-73.142-73.142H746.057v-87.771h117.028c88.87 0 160.914 72.044 160.914 160.914v468.114c0 88.87-72.044 160.914-160.914 160.914z" />
<glyph unicode="&#xe927;" glyph-name="cog" d="M512 683.439c-94.683 0-171.439-76.755-171.439-171.439S417.316 340.561 512 340.561 683.439 417.316 683.439 512 606.684 683.439 512 683.439m0-255.11c-46.211 0-83.671 37.462-83.671 83.671s37.462 83.671 83.671 83.671c46.211 0 83.671-37.462 83.671-83.671 0-46.211-37.462-83.671-83.671-83.671m3.511 595.648c-71.489-.329-129.316-58.359-129.316-129.895q0-.617.005-1.234v.063c-.496-11.009-7.26-20.325-16.788-24.505l-.181-.07c-3.653-1.718-7.933-2.721-12.448-2.721a29.74 29.74 0 0 0-20.337 8.003l.018-.016c-23.441 23.268-55.642 37.739-91.222 38.032h-.056c-.252.001-.55.003-.848.003-35.579 0-67.876-14.051-91.644-36.906l.043.041c-23.515-23.508-38.058-55.987-38.058-91.864s14.545-68.356 38.058-91.864c5.876-5.37 9.547-13.066 9.547-21.622 0-3.145-.496-6.173-1.414-9.011l.058.207c-5.723-9.782-16.134-16.274-28.071-16.384h-.015C61.15 643.943 2.876 586.899.611 515.716l-.005-.208c.332-71.488 58.36-129.312 129.895-129.312l.618.001h-.032c11.009-.496 20.325-7.26 24.505-16.788l.07-.181c1.718-3.653 2.721-7.933 2.721-12.448a29.74 29.74 0 0 0-8.003-20.337l.016.018c-23.268-23.441-37.739-55.642-38.032-91.222v-.056c-.012-.671-.019-1.462-.019-2.255 0-35.137 14.077-66.986 36.901-90.213l-.018.019c23.508-23.515 55.987-38.058 91.864-38.058s68.356 14.545 91.864 38.058a33.8 33.8 0 0 0 23.391 9.35c3.125 0 6.153-.422 9.028-1.214l-.239.056c10.177-5.653 17.174-15.957 18.131-27.962l.008-.123v-.063c0-71.915 57.154-130.481 128.518-132.752l.208-.005c71.237.66 128.732 58.56 128.732 129.89q0 .62-.005 1.238v-.063c.477 11.185 6.924 20.76 16.218 25.665l.166.08c2.998 1.135 6.465 1.792 10.084 1.792a29.16 29.16 0 0 0 20.35-8.236l-.008.007c23.441-23.268 55.642-37.739 91.222-38.032h.056c1.163-.038 2.53-.062 3.903-.062 34.624 0 65.95 14.12 88.535 36.914l.01.01c23.515 23.508 38.058 55.987 38.058 91.864s-14.545 68.356-38.058 91.864a33.76 33.76 0 0 0-8.027 21.916c0 3.667.581 7.197 1.657 10.505l-.067-.24c5.653 10.177 15.957 17.174 27.962 18.131l.123.008c71.192.937 128.814 57.74 131.062 128.518l.005.208c-.66 71.237-58.56 128.732-129.89 128.732q-.62 0-1.238-.005h.063c-11.185.477-20.76 6.924-25.665 16.218l-.08.166c-1.135 2.998-1.792 6.465-1.792 10.084a29.16 29.16 0 0 0 8.236 20.35l-.007-.008c23.268 23.441 37.739 55.642 38.032 91.222v.056c.012.671.019 1.462.019 2.255 0 35.137-14.077 66.986-36.901 90.213l.018-.019c-23.508 23.515-55.987 38.058-91.864 38.058s-68.356-14.545-91.864-38.058a29.15 29.15 0 0 0-20.341-8.23c-3.62 0-7.086.657-10.287 1.86l.202-.066c-9.782 5.723-16.274 16.134-16.384 28.071v.015c-.937 71.192-57.74 128.814-128.518 131.062l-.208.005zM356.944 777.643c.372-.004.812-.007 1.252-.007 15.867 0 30.927 3.45 44.471 9.643l-.669-.274c41.82 17.762 70.846 58.017 71.967 105.181l.003.14a40 40 0 0 0-.004.62c0 23.297 18.4 42.297 41.461 43.26l.088.003c23.005-1.873 40.964-21.005 40.964-44.331q0-.382-.007-.761v.038c.3-47.575 28.116-88.582 68.322-107.933l.723-.313c13.278-5.676 28.727-8.976 44.947-8.976 32.246 0 61.445 13.042 82.611 34.139l-.003-.003c7.488 7.488 17.831 12.119 29.255 12.119 22.85 0 41.374-18.524 41.374-41.374 0-11.425-4.631-21.769-12.119-29.255-20.848-21.12-33.725-50.154-33.725-82.193 0-16.378 3.364-31.971 9.44-46.123l-.291.761c18.745-40.97 59.339-68.943 106.478-69.044h.014c.185.003.403.004.621.004 22.975 0 41.712-18.138 42.674-40.875l.003-.088c-1.57-22.953-20.575-40.976-43.788-40.976q-.668 0-1.332.019l.064-.001c-47.872-1.343-88.773-29.867-107.929-70.632l-.317-.752c-5.566-13.342-8.8-28.841-8.8-45.097 0-32.536 12.954-62.046 33.987-83.655l-.026.027c7.488-7.488 12.119-17.831 12.119-29.255 0-22.85-18.524-41.374-41.374-41.374-11.425 0-21.769 4.631-29.255 12.119-20.824 19.383-48.841 31.278-79.638 31.278-63.284 0-114.836-50.233-116.956-113.001l-.005-.195c.003-.185.004-.403.004-.621 0-22.975-18.138-41.712-40.875-42.674l-.088-.003c-22.953 1.57-40.976 20.575-40.976 43.788q0 .668.019 1.332l-.001-.064c-1.343 47.872-29.867 88.773-70.632 107.929l-.752.317c-13.342 5.566-28.841 8.8-45.097 8.8-32.536 0-62.046-12.954-83.655-33.987l.027.026c-7.488-7.488-17.831-12.119-29.255-12.119-22.85 0-41.374 18.524-41.374 41.374 0 11.425 4.631 21.769 12.119 29.255 20.603 21.075 33.316 49.942 33.316 81.777 0 16.537-3.43 32.274-9.617 46.535l.292-.757c-17.762 41.82-58.017 70.846-105.181 71.967l-.14.003a40 40 0 0 0-.62-.004c-23.297 0-42.297 18.4-43.26 41.461l-.003.088c1.873 23.005 21.005 40.964 44.331 40.964q.382 0 .761-.007h-.038c47.575.3 88.582 28.116 107.933 68.322l.313.723c5.676 13.278 8.976 28.727 8.976 44.947 0 32.246-13.042 61.445-34.139 82.611l.003-.003c-7.488 7.488-12.119 17.831-12.119 29.255 0 22.85 18.524 41.374 41.374 41.374 11.425 0 21.769-4.631 29.255-12.119 21.423-20.481 50.464-33.15 82.462-33.352h.04zm468.094-138.088" />
<glyph unicode="&#xe928;" glyph-name="compass" d="M736.143 262.827 458.526 376.604c-38.623 15.541-68.655 45.573-83.837 83.191l-.359 1.004-113.777 277.617c-.848 2.097-1.341 4.529-1.341 7.076 0 8.091 4.968 15.023 12.02 17.908l.129.047c2.113.807 4.557 1.275 7.111 1.275s4.997-.467 7.252-1.321l-.141.047L563.2 649.671c38.623-15.541 68.655-45.573 83.837-83.191l.359-1.004 113.777-277.617c.848-2.097 1.341-4.529 1.341-7.076 0-8.091-4.968-15.023-12.02-17.908l-.129-.047c-2.113-.807-4.557-1.275-7.111-1.275s-4.997.467-7.252 1.321zM512 568.889c-31.419 0-56.889-25.471-56.889-56.889s25.471-56.889 56.889-56.889 56.889 25.471 56.889 56.889-25.471 56.889-56.889 56.889M512 1024C229.231 1024 0 794.769 0 512S229.231 0 512 0s512 229.231 512 512-229.231 512-512 512m0-938.667C276.359 85.333 85.333 276.358 85.333 512S276.358 938.667 512 938.667 938.667 747.642 938.667 512 747.642 85.333 512 85.333" />
<glyph unicode="&#xe929;" glyph-name="container" d="M814.898,683.444L814.938,683.42L814.964,683.404C835.298,671.463 860.983,678.686 872.889,699.672L922.805,791.706L960.794,721.157C972.715,700.144 998.4,692.92 1018.71,704.845L1018.73,704.861C1038.75,717.374 1045.64,744.334 1034.27,765.649L972.859,876.216L968.61,883.941C963.095,893.968 953.495,902.82 943.75,908.004C942.389,908.728 941.009,909.395 939.606,910.005L939.559,909.919L939.514,910.061C938.31,911.031 937.07,911.952 935.791,912.827C926.642,919.093 914.539,923.393 903.508,923.393L895.009,923.393L773.075,923.936C749.808,923.606 731.005,903.87 730.691,879.416L730.691,879.384C731.005,854.962 749.808,835.226 773.106,834.896L850.309,835.639L799.331,744.248C787.97,722.932 794.852,695.973 814.872,683.46L814.898,683.444ZM680.544,439.027L680.459,438.872L743.005,325.214C754.926,304.201 780.612,296.978 800.919,308.903L800.945,308.919C820.965,321.432 827.847,348.391 816.485,369.706L752.863,482.749L796.482,560.764C807.859,582.107 800.977,609.067 780.984,621.564L780.958,621.58C780.942,621.589 780.926,621.598 780.911,621.607C780.896,621.616 780.88,621.626 780.865,621.636L780.839,621.652C760.531,633.577 734.846,626.353 722.925,605.34L680.367,526.682L555.286,527.994C532.019,527.664 513.216,507.928 512.902,483.474L512.902,483.442C513.216,459.02 532.019,439.284 555.317,438.954L680.367,438.928L680.544,439.027ZM460.361,38.732L460.3,38.622C468.437,33.475 477.444,30.963 486.103,31.557C486.484,31.549 486.865,31.545 487.248,31.545L630.43,31.511C653.727,31.841 672.53,51.577 672.845,75.999L672.845,76.031C672.53,100.485 653.727,120.221 630.46,120.551L504.672,119.291L504.644,119.24L504.58,119.346L442.726,234.318C430.82,255.303 405.135,262.527 384.801,250.586L384.775,250.57C364.782,238.073 357.9,211.113 369.276,189.77L440.895,59.634C441.087,59.287 441.281,58.942 441.478,58.6C445.317,50.432 451.893,43.5 460.209,38.678L460.361,38.732ZM844.312,31.416L844.312,31.377L924.574,31.339C947.007,31.339 966.759,52.553 977.976,72.945L1038.68,183.3C1050.05,204.642 1043.17,231.602 1023.18,244.099L1023.15,244.115C1002.82,256.056 977.133,248.832 965.227,227.847L930.983,163.02L910.465,200.322C898.544,221.335 872.859,228.559 852.552,216.633L852.525,216.617C832.506,204.105 825.624,177.145 836.985,155.83L856.442,120.456L817.528,120.456C794.261,120.126 775.458,100.39 775.144,75.936L775.144,75.904C775.458,51.482 794.261,31.746 817.559,31.416L844.312,31.416ZM1180.84,498.104L1127.68,595.23C1115.76,616.242 1090.08,623.466 1069.77,611.541L1069.75,611.525C1049.73,599.012 1042.84,572.052 1054.2,550.737L1099.8,469.929L1046.4,375.415C1035.02,354.072 1041.9,327.112 1061.89,314.616L1061.92,314.6C1082.26,302.658 1107.94,309.882 1119.85,330.867L1173.41,428.255C1189.56,457.603 1192.2,477.452 1180.84,498.104ZM262.257,384.143L275.634,359.824C287.555,338.812 313.24,331.588 333.548,343.513L333.574,343.529C353.593,356.042 360.476,383.002 349.114,404.317L329.657,439.69L368.571,439.69C391.839,440.02 410.642,459.756 410.956,484.21L410.956,484.242C410.642,508.664 391.839,528.4 368.541,528.73L327.505,528.73L363.871,592.271C375.232,613.586 368.35,640.546 348.33,653.059L348.304,653.075C327.997,665 302.312,657.776 290.391,636.764L229.69,526.409C218.473,506.017 210.846,477.455 222.063,457.063L262.225,384.124L262.257,384.143ZM479.047,923.393C456.327,923.393 441.272,911.067 425.129,881.719L371.56,784.331C360.199,763.016 367.081,736.056 387.101,723.544L387.127,723.528C407.434,711.602 433.119,718.826 445.041,739.839L496.321,835.639L585.791,834.598C609.058,834.928 627.861,854.664 628.176,879.118L628.176,879.15C627.861,903.572 609.058,923.308 585.761,923.638L479.047,923.393Z" />
<glyph unicode="&#xe92a;" glyph-name="crown" d="M405.716 365.683 512 195.63l106.284 170.053c15.364 24.584 48.35 30.986 71.796 13.934l228.244-165.994-87.669 460.255a14.71 14.71 0 0 1-14.446 11.952H207.791a14.704 14.704 0 0 1-14.444-11.952l-87.668-460.255 228.242 165.994c23.445 17.051 56.431 10.65 71.796-13.934zM554.392 97.005c-19.58-31.328-65.205-31.328-84.784 0L352.642 284.15 79.456 85.47C42.818 58.824-7.532 90.75.945 135.253l105.739 555.132c9.247 48.541 51.689 83.664 101.105 83.664h608.418c49.415 0 91.86-35.123 101.105-83.664l105.743-555.132c8.477-44.503-41.874-76.43-78.512-49.783L671.356 284.15 554.39 97.005zm-395.27 765.262c-24.361 0-44.11 19.749-44.11 44.112s19.749 44.112 44.11 44.112h705.756c24.364 0 44.112-19.749 44.112-44.112s-19.749-44.112-44.112-44.112z" />
<glyph unicode="&#xe92b;" glyph-name="database" d="M926.005 99.103C804.844 41.144 663.228 5.155 513.769.077L512 .029C360.772 5.154 219.157 41.145 91.575 101.852l6.42-2.75c-32.977 15.76-55.351 48.848-55.351 87.164q0 .443.004.885v-.045 649.789c-.003.249-.004.545-.004.839 0 38.315 22.376 71.404 54.773 86.914l.58.25c121.161 57.959 262.777 93.948 412.236 99.026l1.769.048c151.228-5.125 292.843-41.116 420.425-101.823l-6.42 2.75c32.977-15.76 55.351-48.848 55.351-87.164q0-.443-.004-.885v.045-649.789c.003-.249.004-.545.004-.839 0-38.315-22.376-71.404-54.773-86.914zm-26.567 442.785c-113.2 55.308-245.67 89.857-385.631 95.145l-1.807.054c-141.767-5.341-274.238-39.89-393.276-97.76l5.838 2.561V328.244c113.851 51.38 246.465 82.977 386.006 86.865l1.431.031c140.973-3.92 273.587-35.517 393.967-89.515l-6.53 2.618zM132.864 174.375c110.92-53.263 240.582-86.42 377.448-91.277L512 83.05c138.75 5.006 268.584 38.151 385.604 93.859l-5.915-2.535c4.63 2.445 7.734 7.224 7.748 12.728v48.156c-113.2 55.308-245.67 89.857-385.631 95.145l-1.807.054c-141.767-5.341-274.238-39.89-393.276-97.76l5.838 2.561v-49.813a13.87 13.87 0 0 1 8.213-11.035zm758.272 675.25c-110.92 53.263-240.582 86.42-377.448 91.277l-1.688.048c-138.75-5.006-268.584-38.151-385.604-93.859l5.915 2.535c-4.63-2.445-7.734-7.224-7.748-12.728V632.66c113.851 51.38 246.465 82.977 386.006 86.865l1.431.031c140.973-3.92 273.587-35.517 393.967-89.515l-6.53 2.618v204.283c0 5.64-3.374 10.492-8.214 12.647l-.088.035z" />
<glyph unicode="&#xe92c;" glyph-name="delete-left" d="M799.19 390.096 677.286 512 799.19 633.904c15.924 15.924 15.924 42.282 0 58.207-8.237 8.237-18.67 12.081-29.103 12.081s-20.866-3.844-29.103-12.081L619.08 570.207 497.176 692.111c-8.237 8.237-18.67 12.081-29.103 12.081s-20.866-3.844-29.103-12.081c-15.924-15.924-15.924-42.282 0-58.207L560.874 512 438.97 390.096c-15.924-15.924-15.924-42.282 0-58.207s42.282-15.924 58.207 0l121.904 121.904 121.904-121.904c15.924-15.924 42.282-15.924 58.207 0s15.924 42.282 0 58.207zm224.588-152.655V786.56c0 52.715-42.831 96.096-96.096 96.096H272.584c-33.497 0-63.697-17.023-81.27-45.028L10.654 548.243c-13.728-21.965-13.728-50.518 0-73.033l180.66-288.837c17.571-28.005 48.323-45.028 81.27-45.028h655.648c52.715 0 96.096 43.381 96.096 96.096zm-82.368 0c0-7.687-6.04-13.728-13.728-13.728H272.584c-4.942 0-9.335 2.197-11.531 6.589L84.786 512l176.267 281.698c2.745 3.844 7.139 6.589 11.531 6.589h655.648c7.687 0 13.728-6.04 13.728-13.728V237.44z" />
<glyph unicode="&#xe92d;" glyph-name="delete" d="M306.6 901.95c-24.15 0-45.15-8.4-61.95-25.2-16.8-17.85-26.25-37.8-26.25-61.95V245.7h-43.05v-87.15h218.4v-44.1h262.5v44.1h218.4v87.15H831.6v569.1c0 24.15-8.4 44.1-26.25 61.95-16.8 16.8-37.8 25.2-61.95 25.2zM743.4 245.7H306.6v569.1h436.8zM393.75 726.6h87.15V332.85h-87.15zm175.35 0h87.15V332.85H569.1zM306.6 245.7v569.1z" />
<glyph unicode="&#xe92e;" glyph-name="deployed-code" d="M480.9 832.65V533.4L218.4 381.15v300.3zm88.2 0 262.5-151.2v-300.3L569.1 533.4zM525 457.8l259.35-150.15L525 158.55l-259.35 149.1zM175.35 757.05c-13.65-7.35-25.2-17.85-32.55-31.5-7.35-12.6-11.55-27.3-11.55-43.05V333.9c0-15.75 4.2-30.45 11.55-43.05 7.35-13.65 18.9-24.15 32.55-32.55L480.9 82.95c14.7-8.4 28.35-12.6 44.1-12.6q23.625 0 44.1 12.6L874.65 258.3c14.7 8.4 25.2 18.9 32.55 32.55 7.35 12.6 11.55 27.3 11.55 43.05v348.6c0 15.75-4.2 30.45-11.55 43.05-7.35 13.65-17.85 24.15-32.55 31.5L569.1 933.45q-20.475 12.6-44.1 12.6c-15.75 0-29.4-4.2-44.1-12.6z" />
<glyph unicode="&#xe92f;" glyph-name="desktop" d="M921.582 789.931H102.419C46.001 789.601.354 743.955.023 687.567V102.418C.353 46 45.999.353 102.387.022h819.194c56.418.33 102.065 45.976 102.396 102.364v585.149c-.33 56.418-45.976 102.065-102.364 102.396h-.032zM102.418 87.791c-8.079 0-14.628 6.55-14.628 14.628v585.117c0 8.079 6.55 14.628 14.628 14.628h819.163c8.079 0 14.628-6.55 14.628-14.628V102.419c0-8.079-6.55-14.628-14.628-14.628zm585.117 936.186H512c-24.105-.325-43.559-19.779-43.884-43.852V746.046c0-24.236 19.648-43.884 43.884-43.884s43.884 19.648 43.884 43.884v190.163h131.651c24.236 0 43.884 19.648 43.884 43.884s-19.648 43.884-43.884 43.884m-175.535 0H336.465c-24.236 0-43.884-19.648-43.884-43.884s19.648-43.884 43.884-43.884H512c24.236 0 43.884 19.648 43.884 43.884s-19.648 43.884-43.884 43.884" />
<glyph unicode="&#xe930;" glyph-name="download" d="M875.959 1024H148.042C65.479 1020.528-.138 952.752-.138 869.651q0-3.464.151-6.89l-.011.325V687.543c0-24.237 19.648-43.886 43.886-43.886s43.886 19.648 43.886 43.886v175.543a66 66 0 0 0-.255 5.881c0 34.276 25.406 62.617 58.412 67.222l.357.041h729.673c33.364-4.645 58.77-32.987 58.77-67.263a69 69 0 0 0-.274-6.141l.019.261V687.544c0-24.237 19.648-43.886 43.886-43.886s43.886 19.648 43.886 43.886v175.543c.091 1.983.143 4.309.143 6.646 0 82.485-64.648 149.87-146.039 154.251l-.389.016zM512 731.429h-.204c-12.052 0-22.954-4.923-30.804-12.869L246.93 484.498a43.71 43.71 0 0 1-11.778-29.918c0-24.237 19.648-43.886 43.886-43.886 11.575 0 22.102 4.48 29.944 11.803l-.026-.023L512 625.518l203.044-203.044a43.71 43.71 0 0 1 29.918-11.778c24.237 0 43.886 19.648 43.886 43.886 0 11.575-4.48 22.102-11.803 29.944l.023-.026L543.01 718.558c-7.854 7.95-18.756 12.874-30.808 12.874h-.215.011zm0 0c-24.106-.325-43.561-19.78-43.886-43.854V43.887C468.114 19.65 487.762.001 512 .001s43.886 19.648 43.886 43.886v643.657c-.325 24.106-19.78 43.561-43.854 43.886z" />
<glyph unicode="&#xe931;" glyph-name="ellipsis-h" d="M614.379 512c0 56.54-45.835 102.379-102.379 102.379S409.621 568.544 409.621 512c0-56.54 45.835-102.379 102.379-102.379S614.379 455.456 614.379 512m409.507 0c0 56.54-45.835 102.379-102.379 102.379S819.128 568.544 819.128 512c0-56.54 45.835-102.379 102.379-102.379S1023.886 455.456 1023.886 512m-819.018 0c0 56.54-45.835 102.379-102.379 102.379S.11 568.544.11 512c0-56.54 45.835-102.379 102.379-102.379S204.868 455.456 204.868 512" />
<glyph unicode="&#xe932;" glyph-name="ellipsis-v" d="M614.393 512c0 56.549-45.842 102.393-102.393 102.393S409.607 568.551 409.607 512c0-56.549 45.842-102.393 102.393-102.393S614.393 455.449 614.393 512m0-409.569c0 56.549-45.842 102.393-102.393 102.393s-102.393-45.842-102.393-102.393C409.607 45.882 455.449.038 512 .038S614.393 45.88 614.393 102.431m0 819.138c0 56.549-45.842 102.393-102.393 102.393S409.607 978.12 409.607 921.569c0-56.549 45.842-102.393 102.393-102.393s102.393 45.842 102.393 102.393" />
<glyph unicode="&#xe933;" glyph-name="envelope" d="M921.588 58.527H102.413C45.994 58.858.346 104.504.016 160.893v702.182c.331 56.419 45.977 102.067 102.366 102.397h819.207c56.419-.331 102.067-45.977 102.397-102.366V160.924c-.331-56.419-45.977-102.067-102.366-102.397zm-819.176 87.769h819.175c8.079 0 14.629 6.55 14.629 14.629v90.11L512.001 462.85 87.786 251.035v-90.11c0-8.079 6.55-14.629 14.629-14.629zm819.176 731.408H102.413c-8.079 0-14.629-6.55-14.629-14.629V348.75l404.322 202.454c5.795 2.962 12.643 4.698 19.895 4.698s14.098-1.736 20.147-4.815l-.252.117L936.218 348.75v514.325c0 8.079-6.55 14.629-14.629 14.629z" />
<glyph unicode="&#xe934;" glyph-name="exclamation-triangle" d="M980.247 964.701H43.751c-16.088-.051-30.159-8.633-37.933-21.458l-.111-.198c-3.59-6.323-5.705-13.888-5.705-21.949s2.115-15.627 5.823-22.173l-.117.224L473.955 79.714c8.296-12.379 22.232-20.419 38.044-20.419s29.748 8.039 37.942 20.254l.104.165 468.247 819.433c3.59 6.323 5.705 13.888 5.705 21.949s-2.115 15.627-5.823 22.173l.117-.224c-7.885 13.022-21.958 21.606-38.038 21.657h-.007zm-860.99-87.796h785.486L512 189.751zM512 642.78c-24.113-.325-43.573-19.786-43.898-43.866v-204.89c0-24.244 19.654-43.898 43.898-43.898s43.898 19.654 43.898 43.898v204.858c-.325 24.113-19.786 43.573-43.866 43.898zm0 175.593c-24.113-.325-43.573-19.786-43.898-43.866V745.21c0-24.244 19.654-43.898 43.898-43.898s43.898 19.654 43.898 43.898v29.265c-.325 24.113-19.786 43.573-43.866 43.898z" />
<glyph unicode="&#xe935;" glyph-name="expand" d="M160.914 87.771c-40.395 0-73.143 32.748-73.143 73.143v175.543c0 24.237-19.648 43.886-43.886 43.886S-.001 360.695-.001 336.457V160.914C-.001 72.044 72.043 0 160.913 0h175.543c24.237 0 43.886 19.648 43.886 43.886s-19.648 43.886-43.886 43.886H160.913zm482.743-43.885C643.657 19.649 663.305 0 687.543 0h175.543C951.955 0 1024 72.044 1024 160.914v175.543c0 24.237-19.646 43.886-43.886 43.886s-43.886-19.648-43.886-43.886V160.914c0-40.395-32.746-73.143-73.143-73.143H687.542c-24.237 0-43.886-19.648-43.886-43.886zM43.886 643.657c24.237 0 43.886 19.648 43.886 43.886v175.543c0 40.397 32.748 73.143 73.143 73.143h175.543c24.237 0 43.886 19.646 43.886 43.886s-19.648 43.886-43.886 43.886H160.915c-88.87 0-160.914-72.046-160.914-160.914V687.544c0-24.237 19.648-43.886 43.886-43.886zm936.228 0c24.24 0 43.886 19.648 43.886 43.886v175.543C1024 951.955 951.954 1024 863.086 1024H687.543c-24.237 0-43.886-19.646-43.886-43.886s19.648-43.886 43.886-43.886h175.543c40.397 0 73.143-32.746 73.143-73.143V687.542c0-24.237 19.646-43.886 43.886-43.886z" />
<glyph unicode="&#xe936;" glyph-name="eye-slash" d="M1020.3 494.452c-7.019-15.208-167.289-377.277-508.3-377.277h-.472c-34.241 0-67.586 3.836-99.63 11.102l3.004-.573c-18.045 5.713-30.896 22.309-30.896 41.908 0 24.228 19.641 43.869 43.869 43.869 2.026 0 4.02-.137 5.972-.403l-.228.025c23.536-5.148 50.592-8.127 78.334-8.188h.045c244.499 0 384.881 239.819 419.391 307.086-23.064 44.686-47.534 82.99-75.058 118.824l1.357-1.84c-5.75 7.348-9.221 16.722-9.221 26.907 0 24.18 19.562 43.79 43.724 43.869h.007c13.993-.045 26.437-6.635 34.437-16.866l.073-.096c34.924-43.997 66.128-93.737 91.55-146.775l2.039-4.721c2.455-5.422 3.887-11.757 3.887-18.425s-1.431-13.003-4.002-18.713l.117.288zM192.045 130.044a43.7 43.7 0 0 0-29.907-11.773c-24.228 0-43.869 19.641-43.869 43.869 0 11.571 4.479 22.094 11.798 29.933l-.023-.026 53.813 53.813C109.158 314.735 48.464 397.519 5.676 490.262l-1.975 4.776C1.498 500.131.216 506.063.216 512.294s1.282 12.161 3.596 17.545l-.111-.289c7.019 15.208 167.289 377.277 508.3 377.277.681.004 1.487.005 2.294.005 94.711 0 182.793-28.386 256.201-77.116l-1.714 1.069 63.172 63.172c7.936 7.927 18.897 12.83 31.001 12.83s23.064-4.902 31.002-12.83c7.927-7.936 12.83-18.897 12.83-31.001s-4.902-23.064-12.83-31.002zm224.028 350.955 129.268 129.853c-9.942 3.409-21.397 5.378-33.312 5.378-28.107 0-53.656-10.952-72.612-28.824l.052.049c-18.724-18.468-30.323-44.118-30.323-72.478 0-13.277 2.543-25.962 7.167-37.592l-.241.688zM512 819.086c-245.083 0-384.881-240.404-419.391-307.086 39.962-79.399 91.284-146.975 152.768-203.701l.481-.439 104.701 104.701c-17.797 28.341-28.353 62.795-28.353 99.714 0 104.667 84.849 189.516 189.516 189.516 36.919 0 71.373-10.557 100.508-28.817l-.792.463 94.173 94.173c-54.756 32.362-120.666 51.482-191.042 51.482q-1.354 0-2.708-.01l.138.001z" />
<glyph unicode="&#xe937;" glyph-name="eye" d="M512 906.971c-341.139 0-501.467-362.204-508.489-377.417C1.291 524.369 0 518.334 0 512s1.291-12.369 3.623-17.853l-.112.299C10.533 479.233 170.862 117.029 512 117.029s501.467 362.204 508.489 377.417c2.22 5.185 3.511 11.22 3.511 17.554s-1.291 12.369-3.623 17.853l.112-.299C1013.467 544.767 853.138 906.971 512 906.971M92.453 512C126.976 579.292 267.996 819.2 512 819.2S897.024 579.292 931.547 512C897.024 444.708 756.004 204.8 512 204.8S126.976 444.708 92.453 512M512 702.172c-105.028 0-190.172-85.142-190.172-190.172S406.97 321.828 512 321.828c105.028 0 190.172 85.142 190.172 190.172-.332 104.895-85.277 189.84-190.139 190.172zm0-292.572c-56.554 0-102.4 45.845-102.4 102.4S455.445 614.4 512 614.4c56.554 0 102.4-45.845 102.4-102.4-.331-56.421-45.979-102.07-102.369-102.4h-.032z" />
<glyph unicode="&#xe938;" glyph-name="face" d="M393.75 606.9c-15.75 0-28.35-5.25-38.85-15.75S339.15 567 339.15 552.3c0-15.75 5.25-28.35 15.75-38.85s23.1-15.75 38.85-15.75 28.35 5.25 38.85 15.75 15.75 23.1 15.75 38.85c0 14.7-5.25 28.35-15.75 38.85s-23.1 15.75-38.85 15.75m262.5 0c-15.75 0-28.35-5.25-38.85-15.75S601.65 567 601.65 552.3c0-15.75 5.25-28.35 15.75-38.85s23.1-15.75 38.85-15.75 28.35 5.25 38.85 15.75 15.75 23.1 15.75 38.85c0 14.7-5.25 28.35-15.75 38.85S672 606.9 656.25 606.9M525 857.85c97.65 0 180.6-33.6 248.85-101.85 67.2-67.2 100.8-150.15 100.8-247.8 0-17.85-1.05-34.65-3.15-51.45-2.1-15.75-6.3-31.5-11.55-47.25-15.75 4.2-30.45 6.3-46.2 8.4s-31.5 3.15-48.3 3.15c-66.15 0-129.15-14.7-187.95-43.05q-88.2-42.525-151.2-119.7c-23.1 57.75-56.7 107.1-99.75 149.1q-64.575 63-151.2 94.5v6.3c0 97.65 33.6 180.6 101.85 247.8 67.2 68.25 150.15 101.85 247.8 101.85m0 88.2q-91.35 0-170.1-34.65c-53.55-23.1-99.75-54.6-139.65-93.45-38.85-39.9-70.35-86.1-93.45-139.65q-34.65-78.75-34.65-170.1c0-60.9 11.55-117.6 34.65-171.15 23.1-52.5 54.6-98.7 93.45-138.6 39.9-38.85 86.1-70.35 139.65-93.45Q433.65 70.35 525 70.35c60.9 0 117.6 11.55 171.15 34.65 52.5 23.1 98.7 54.6 138.6 93.45 38.85 39.9 70.35 86.1 93.45 138.6 23.1 53.55 34.65 110.25 34.65 171.15q0 91.35-34.65 170.1c-23.1 53.55-54.6 99.75-93.45 139.65-39.9 38.85-86.1 70.35-138.6 93.45C642.6 934.5 585.9 946.05 525 946.05M466.2 163.8c30.45 50.4 72.45 91.35 124.95 122.85s110.25 46.2 174.3 46.2c10.5 0 19.95 0 29.4-1.05s19.95-3.15 29.4-4.2c-30.45-51.45-71.4-92.4-123.9-122.85-52.5-31.5-111.3-46.2-175.35-46.2-10.5 0-19.95 0-29.4 1.05s-18.9 2.1-29.4 4.2m-273 234.15q56.7-31.5 97.65-81.9c28.35-33.6 48.3-71.4 63-113.4q-56.7 31.5-97.65 81.9c-28.35 33.6-48.3 71.4-63 113.4" />
<glyph unicode="&#xe939;" glyph-name="filter-list" d="M437.85 770.7v-87.15h174.3v87.15zM262.5 552.3v-88.2h525v88.2zM131.25 332.85V245.7h787.5v87.15z" />
<glyph unicode="&#xe93a;" glyph-name="folder-full" d="M175.35,857.85C151.2,857.85 130.2,849.45 113.4,832.65C96.6,814.8 87.15,794.85 87.15,770.7L87.15,245.7C87.15,221.55 96.6,200.55 113.4,183.75C130.2,166.95 151.2,158.55 175.35,158.55L437.85,158.55L525,245.7L874.65,245.7C898.8,245.7 919.8,254.1 936.6,270.9C954.45,288.75 962.85,308.7 962.85,332.85L962.85,770.7C962.85,794.85 954.45,814.8 936.6,832.65C919.8,849.45 898.8,857.85 874.65,857.85L175.35,857.85ZM175.35,383.7L874.65,383.7L874.65,337.85L175.35,337.7L175.35,383.7ZM175.35,383.7L175.35,337.7L175.35,383.7Z" />
<glyph unicode="&#xe93b;" glyph-name="folder-new" d="M612.15 683.55h88.2v-88.2h87.15V508.2h-87.15v-87.15h-88.2v87.15H525v87.15h87.15zm-436.8 174.3c-24.15 0-45.15-8.4-61.95-25.2-16.8-17.85-26.25-37.8-26.25-61.95v-525c0-24.15 9.45-45.15 26.25-61.95s37.8-25.2 61.95-25.2h262.5L525 245.7h349.65c24.15 0 45.15 8.4 61.95 25.2 17.85 17.85 26.25 37.8 26.25 61.95V770.7c0 24.15-8.4 44.1-26.25 61.95-16.8 16.8-37.8 25.2-61.95 25.2zm0-87.15h699.3V332.85H489.3l-88.2-87.15H175.35zm0 0v-525z" />
<glyph unicode="&#xe93c;" glyph-name="folder-open" d="M175.35 857.85c-24.15 0-45.15-8.4-61.95-25.2-16.8-17.85-26.25-37.8-26.25-61.95v-525c0-24.15 9.45-45.15 26.25-61.95s37.8-25.2 61.95-25.2h262.5L525 245.7h349.65c24.15 0 45.15 8.4 61.95 25.2 17.85 17.85 26.25 37.8 26.25 61.95H489.3l-88.2-87.15H175.35v525l105-349.65h747.6L915.6 795.9c-6.3 18.9-16.8 33.6-32.55 45.15s-32.55 16.8-51.45 16.8zm91.35-87.15h564.9l78.75-262.5h-564.9zm0 0 78.75-262.5zm-91.35-437.85V245.7z" />
<glyph unicode="&#xe93d;" glyph-name="folder-plus" d="M93.091 232.729c0-42.56 35.015-77.575 77.575-77.575H304.41l172.25 200.958A46.54 46.54 0 0 0 512 372.366h341.336c42.555 0 77.575 35.016 77.575 77.576v341.333c0 42.562-35.021 77.575-77.575 77.575H170.667c-42.56 0-77.575-35.013-77.575-77.575V232.73zm77.575-170.666C76.694 62.063 0 138.757 0 232.729v558.545c0 93.974 76.694 170.664 170.666 170.664h682.669c93.974 0 170.664-76.69 170.664-170.664V449.941c0-93.973-76.69-170.666-170.664-170.666H533.407L361.157 78.316a46.55 46.55 0 0 0-35.34-16.254H170.665zM512 434.426c25.706 0 46.545 20.839 46.545 46.545v77.576h77.576c25.706 0 46.545 20.839 46.545 46.545s-20.839 46.546-46.545 46.546h-77.576v77.575c0 25.708-20.839 46.547-46.545 46.547s-46.545-20.838-46.545-46.547v-77.575h-77.576c-25.706 0-46.545-20.839-46.545-46.546s20.839-46.545 46.545-46.545h77.576v-77.576c0-25.706 20.839-46.545 46.545-46.545" />
<glyph unicode="&#xe93e;" glyph-name="folder-zip" d="M700.35 508.2v-87.15h87.15v87.15zm0 87.15h-88.2V508.2h88.2zm0 88.2v-88.2h87.15v88.2zM489.3 332.85l-88.2-87.15H175.35v525h436.8v-87.15h88.2v87.15h174.3V332.85h-174.3v88.2h-88.2v-88.2zm-313.95 525c-24.15 0-45.15-8.4-61.95-25.2-16.8-17.85-26.25-37.8-26.25-61.95v-525c0-24.15 9.45-45.15 26.25-61.95s37.8-25.2 61.95-25.2h262.5L525 245.7h349.65c24.15 0 45.15 8.4 61.95 25.2 17.85 17.85 26.25 37.8 26.25 61.95V770.7c0 24.15-8.4 44.1-26.25 61.95-16.8 16.8-37.8 25.2-61.95 25.2zm0-87.15v-525z" />
<glyph unicode="&#xe93f;" glyph-name="folder" d="M175.35 857.85c-24.15 0-45.15-8.4-61.95-25.2-16.8-17.85-26.25-37.8-26.25-61.95v-525c0-24.15 9.45-45.15 26.25-61.95s37.8-25.2 61.95-25.2h262.5L525 245.7h349.65c24.15 0 45.15 8.4 61.95 25.2 17.85 17.85 26.25 37.8 26.25 61.95V770.7c0 24.15-8.4 44.1-26.25 61.95-16.8 16.8-37.8 25.2-61.95 25.2zm0-87.15h699.3V332.85H489.3l-88.2-87.15H175.35zm0 0v-525z" />
<glyph unicode="&#xe940;" glyph-name="gauge" d="M257.285 305.786c52.726-36.03 122.418-62.445 215.33-68.273v90.689c0 21.752 17.633 39.385 39.385 39.385s39.385-17.633 39.385-39.385v-90.689c91.282 5.729 159.941 31.318 212 66.023a386 386 0 0 1 3.818 2.584l-73 73.002c-15.381 15.381-15.381 40.318 0 55.698s40.32 15.381 55.695 0l76.968-76.965c26.602 28.86 47.309 60.712 63.444 92.986 27.282 54.559 41.121 109.594 48.069 151.322a570 570 0 0 1 3.964 27.987h-89.008c-21.753 0-39.387 17.633-39.387 39.385s17.635 39.385 39.387 39.385h91.897v65.641c0 7.248-5.881 13.129-13.129 13.129H397.032l221.586-221.587c15.381-15.381 15.381-40.318 0-55.698s-40.317-15.381-55.698 0L285.635 787.69H91.897c-7.251 0-13.128-5.881-13.128-13.129V708.92h91.897c21.752 0 39.385-17.633 39.385-39.385s-17.633-39.385-39.385-39.385H81.658c2.49-21.484 7.104-50.065 15.624-82.056 16.235-60.957 46.035-132.041 100.27-190.689l76.391 77.257c15.293 15.468 40.23 15.608 55.697.314s15.608-40.23.315-55.697l-72.67-73.494zm727.328 363.75c39.387 0 39.387-.021 39.387-.044v-.611l-.022-1.336a238 238 0 0 0-.117-4.629 445 445 0 0 0-.885-16.494c-.995-13.97-2.977-33.671-6.897-57.207-7.812-46.887-23.515-110.005-55.311-173.6-31.876-63.749-80.311-128.696-153.688-177.618-73.633-49.086-170.034-80.461-295.08-80.461-152.822 0-262.455 46.882-339.874 114.805-87.351 76.637-129.989 176.742-150.96 255.482-10.549 39.608-15.823 74.569-18.47 99.74C1.37 640.171.697 650.388.355 657.581c-.171 3.598-.26 6.445-.306 8.463a220 220 0 0 0-.042 2.396l-.006.714-.001.233v.085c0 .015 0 .064 39.385.064H0v105.025c0 50.754 41.144 91.897 91.897 91.897h840.206c50.754 0 91.897-41.143 91.897-91.897V669.492z" />
<glyph unicode="&#xe941;" glyph-name="globe" d="M512 0C229.231 0 0 229.231 0 512s229.231 512 512 512 512-229.231 512-512S794.769 0 512 0m424.391 469.333H779.378c-21.309-143.377-80.98-269.999-168.128-372.54l.875 1.056c174.421 43.539 304.877 189.937 324.104 369.605l.163 1.879zm-605.867 85.334h362.951c-28.064 140.685-92.065 263.297-182.001 361.829l.527-.585c-89.411-97.947-153.411-220.56-180.673-356.452l-.803-4.792zm0-85.334c28.064-140.685 92.065-263.297 182.001-361.829l-.527.585c89.411 97.947 153.411 220.56 180.673 356.452l.803 4.792zm81.352-371.484c-86.273 101.485-145.944 228.107-166.755 367.427l-.499 4.057H87.609c19.389-181.548 149.845-327.945 321.319-370.86zM87.609 552.96h157.013c21.309 143.377 80.98 269.999 168.128 372.54l-.875-1.056c-173.937-43.335-304.18-188.936-324.092-367.845l-.175-1.933zm524.515 371.484c86.273-101.485 145.944-228.107 166.755-367.427l.499-4.057h157.013c-18.688 182.253-149.359 329.449-321.317 372.565l-2.949.627z" />
<glyph unicode="&#xe942;" glyph-name="handshake" d="M519.75 857.85c3.15 0 5.25 0 8.4-2.1 3.15-1.05 5.25-3.15 6.3-4.2l359.1-359.1c8.4-8.4 15.75-17.85 18.9-29.4 4.2-10.5 6.3-22.05 6.3-32.55 0-11.55-2.1-23.1-6.3-33.6-3.15-10.5-10.5-19.95-18.9-27.3L707.7 183.75c-8.4-9.45-16.8-15.75-28.35-19.95-10.5-3.15-21-5.25-32.55-5.25s-22.05 2.1-33.6 5.25c-10.5 4.2-19.95 10.5-29.4 19.95l-11.55 11.55 80.85 81.9c10.5 10.5 18.9 22.05 24.15 34.65 5.25 13.65 7.35 27.3 7.35 42 0 30.45-10.5 56.7-31.5 77.7C633.15 451.5 606.9 462 576.45 462c-14.7 0-28.35-2.1-42-7.35s-25.2-12.6-35.7-23.1l-81.9-80.85-191.1 191.1c-2.1 2.1-4.2 5.25-5.25 7.35s-2.1 5.25-2.1 8.4c0 5.25 2.1 10.5 7.35 15.75 4.2 4.2 9.45 7.35 14.7 7.35 3.15 0 6.3-1.05 9.45-2.1 2.1-2.1 4.2-3.15 6.3-5.25l148.05-148.05 61.95 60.9-148.05 149.1c-2.1 2.1-3.15 4.2-4.2 7.35-2.1 2.1-2.1 5.25-2.1 7.35q0 9.45 6.3 15.75t15.75 6.3c3.15 0 5.25-1.05 8.4-2.1s5.25-3.15 6.3-4.2l149.1-148.05 60.9 61.95-147 148.05c-2.1 2.1-4.2 4.2-5.25 7.35-1.05 2.1-2.1 5.25-2.1 8.4 0 5.25 3.15 10.5 7.35 14.7 4.2 5.25 9.45 7.35 14.7 7.35 3.15 0 6.3-1.05 8.4-2.1 3.15-1.05 5.25-2.1 7.35-5.25l149.1-147 60.9 60.9-149.1 149.1c-2.1 2.1-3.15 4.2-4.2 7.35-1.05 2.1-2.1 5.25-2.1 7.35 0 6.3 2.1 11.55 7.35 15.75q6.3 6.3 15.75 6.3m-1.05 88.2c-27.3 0-51.45-9.45-71.4-27.3-21-17.85-33.6-39.9-36.75-67.2-25.2-3.15-46.2-13.65-63-30.45s-26.25-37.8-30.45-63c-24.15-3.15-45.15-13.65-61.95-30.45-15.75-17.85-26.25-37.8-29.4-61.95-28.35-4.2-50.4-15.75-68.25-35.7-17.85-21-26.25-45.15-26.25-72.45 0-14.7 3.15-28.35 8.4-42s13.65-25.2 23.1-35.7l254.1-253.05 142.8 143.85c2.1 2.1 4.2 3.15 7.35 4.2 2.1 1.05 5.25 2.1 8.4 2.1 6.3 0 11.55-2.1 16.8-6.3q6.3-6.3 6.3-15.75c0-3.15-1.05-5.25-2.1-8.4s-2.1-5.25-4.2-6.3L435.75 183.75c-8.4-9.45-17.85-15.75-28.35-19.95-10.5-3.15-22.05-5.25-33.6-5.25-10.5 0-22.05 2.1-32.55 5.25-10.5 4.2-21 10.5-29.4 19.95L157.5 338.1c-6.3 7.35-11.55 14.7-16.8 23.1-4.2 9.45-7.35 17.85-8.4 26.25-1.05 9.45-1.05 17.85 0 27.3s4.2 17.85 8.4 25.2L77.7 504c-12.6-16.8-21-35.7-27.3-55.65s-8.4-39.9-6.3-60.9c1.05-19.95 6.3-39.9 14.7-58.8 9.45-19.95 21-36.75 36.75-52.5L249.9 121.8c16.8-16.8 36.75-29.4 57.75-37.8 22.05-9.45 44.1-13.65 66.15-13.65 23.1 0 45.15 4.2 66.15 13.65 22.05 8.4 40.95 21 57.75 37.8l11.55 12.6 12.6-12.6C539.7 105 558.6 92.4 580.65 84c21-9.45 43.05-13.65 66.15-13.65 22.05 0 44.1 4.2 66.15 13.65q31.5 12.6 56.7 37.8l184.8 184.8c16.8 16.8 30.45 36.75 38.85 57.75 8.4 22.05 12.6 44.1 12.6 67.2q0 34.65-12.6 66.15c-8.4 22.05-22.05 40.95-38.85 57.75l-358.05 357c-10.5 10.5-22.05 18.9-35.7 24.15-13.65 6.3-27.3 9.45-42 9.45" />
<glyph unicode="&#xe943;" glyph-name="heart" d="M512 966.541c-12.142-.011-23.132-4.94-31.084-12.902L83.853 555.402C32.017 502.549.025 430.074.025 350.126s31.993-152.425 83.874-205.324l-.045.047c52.537-52.531 125.112-85.022 205.276-85.022s152.739 32.491 205.277 85.023l17.595 15.249 16.423-16.423c52.328-52.883 124.914-85.631 205.15-85.631l.752.001h-.038c.384-.001.839-.003 1.294-.003 79.947 0 152.3 32.511 204.559 85.034l.012.012c51.836 52.853 83.828 125.328 83.828 205.276s-31.993 152.425-83.874 205.324l.045-.047L543.09 951.879c-7.714 8.616-18.706 14.16-30.998 14.66l-.087.003zM289.714 145.434c-.436-.003-.953-.005-1.468-.005-55.496 0-105.759 22.406-142.235 58.666l.01-.01c-36.735 36.902-59.445 87.793-59.445 143.987s22.71 107.086 59.452 143.994l-.007-.007L512 860.384l365.392-367.151c36.877-36.837 59.687-87.747 59.687-143.987s-22.81-107.15-59.686-143.985l-.001-.001c-36.111-36.238-86.066-58.659-141.257-58.659q-.975 0-1.949.01l.099-.001c-.436-.003-.953-.005-1.468-.005-55.496 0-105.759 22.406-142.235 58.666l-47.497 47.497c-8.08 7.677-19.03 12.4-31.084 12.4s-23.006-4.723-31.104-12.418l.019.018-47.507-47.507c-36.581-36.947-87.314-59.823-143.391-59.823h-.32.016z" />
<glyph unicode="&#xe944;" glyph-name="history" d="M876.353 155.475C784.993 64.491 658.979 8.242 519.828 8.242s-265.163 56.249-356.542 147.25l-72.854 72.854V53.095c0-24.945-20.222-45.168-45.168-45.168S.096 28.149.096 53.095V338.56c0 25.067 20.15 45.426 45.135 45.766h286.096c24.945 0 45.168-20.222 45.168-45.168s-20.222-45.168-45.168-45.168H150.656l76.485-74.678C302.093 144.507 405.558 98.25 519.829 98.25s217.736 46.257 292.695 121.07l-.007-.007c372.786 402.897-180.671 958.161-585.375 585.375-8.171-8.161-19.456-13.21-31.918-13.21s-23.747 5.048-31.92 13.21c-8.309 8.103-13.464 19.409-13.464 31.918s5.155 23.815 13.454 31.91l.01.008c91.243 91.243 217.293 147.678 356.525 147.678 278.462 0 504.201-225.739 504.201-504.201 0-139.231-56.434-265.282-147.678-356.525zM512 256.049c-24.81.335-44.833 20.358-45.168 45.135v210.815c.011 12.468 5.073 23.753 13.248 31.918L632.447 692.67c8.084 8.182 19.304 13.25 31.708 13.25h.222-.011c21.988-3.292 38.658-22.048 38.658-44.696 0-10.97-3.91-21.026-10.413-28.851l.059.073-137.31-137.31V301.215c-.294-24.201-19.326-43.864-43.245-45.162l-.116-.006z" />
<glyph unicode="&#xe945;" glyph-name="home" d="M980.714 497.352h-.195a43.16 43.16 0 0 1-26.275-8.867l.106.077-442.349-331.615L69.652 488.562c-7.252 5.487-16.423 8.788-26.365 8.788-24.268 0-43.942-19.674-43.942-43.942 0-14.326 6.856-27.052 17.467-35.074l.11-.08L485.636 66.718c7.252-5.487 16.423-8.788 26.365-8.788s19.113 3.301 26.475 8.868l-.11-.08 468.714 351.536c9.942 8.121 16.239 20.379 16.239 34.109a43.74 43.74 0 0 1-7.548 24.634l.099-.154c-7.474 11.934-20.322 19.902-35.068 20.503l-.085.003zM863.536 966.067H160.465c-24.136-.325-43.617-19.805-43.942-43.91V365.528c0-24.268 19.674-43.942 43.942-43.942s43.942 19.674 43.942 43.942v512.656h615.187V365.528c0-24.268 19.674-43.942 43.942-43.942s43.942 19.674 43.942 43.942v556.598c-.325 24.136-19.805 43.617-43.91 43.942zm-234.358 0c-24.136-.325-43.617-19.805-43.942-43.91V555.942H438.762v366.183c0 24.268-19.674 43.942-43.942 43.942s-43.942-19.674-43.942-43.942V512c.325-24.136 19.805-43.617 43.91-43.942h234.389c24.136.325 43.617 19.805 43.942 43.91v410.157c-.325 24.136-19.805 43.617-43.91 43.942z" />
<glyph unicode="&#xe946;" glyph-name="hourglass" d="M877.707 936.219h-38.619C816.854 856.641 748.393 658.868 581.631 512 748.393 365.133 816.853 167.358 839.088 87.781h38.619c23.99 0 43.885-19.895 43.885-43.885S901.697.011 877.707.011H146.295c-23.99 0-43.885 19.895-43.885 43.885s19.895 43.885 43.885 43.885h38.619C207.148 167.359 275.609 365.132 442.371 512 275.609 658.867 207.149 856.642 184.914 936.219h-38.619c-23.99 0-43.885 19.895-43.885 43.885s19.895 43.885 43.885 43.885h731.412c23.99 0 43.885-19.895 43.885-43.885s-19.895-43.885-43.885-43.885M276.778 87.781h469.859c-26.331 83.089-93.621 248.679-235.222 367.462C369.814 335.877 302.524 170.87 276.193 87.781zM512 568.758C653.601 688.124 720.891 853.131 747.222 936.22H276.778C303.109 853.131 370.399 687.539 512 568.758" />
<glyph unicode="&#xe947;" glyph-name="hub" d="M262.5,989.1C225.75,989.1 195.3,976.5 170.1,951.3C143.85,926.1 131.25,894.6 131.25,857.85C131.25,822.15 143.85,790.65 170.1,765.45C195.3,739.2 225.75,726.6 262.5,726.6C273,726.6 282.45,727.65 290.85,729.75C299.25,731.85 307.65,735 316.05,739.2L378,661.5C358.05,638.4 343.35,613.2 336,584.85C327.6,556.5 325.5,528.15 330.75,499.8L241.5,469.35C228.9,488.25 214.2,502.95 194.25,513.45C175.35,525 154.35,530.25 131.25,530.25C94.5,530.25 64.05,517.65 38.85,491.4C12.6,466.2 0,434.7 0,399C0,362.25 12.6,331.8 38.85,305.55C64.05,280.35 94.5,267.75 131.25,267.75C168,267.75 198.45,280.35 224.7,305.55C249.9,331.8 262.5,362.25 262.5,399L262.5,407.4L350.7,437.85C365.4,411.6 385.35,389.55 409.5,371.7C433.65,352.8 462,341.25 492.45,336L492.45,241.5C464.1,233.1 439.95,217.35 422.1,195.3C403.2,172.2 393.75,144.9 393.75,114.45C393.75,77.7 406.35,47.25 432.6,21C457.8,-4.2 488.25,-16.8 525,-16.8C561.75,-16.8 592.2,-4.2 618.45,21C643.65,47.25 656.25,77.7 656.25,114.45C656.25,144.9 646.8,172.2 627.9,195.3C609,217.35 585.9,233.1 557.55,241.5L557.55,336C588,341.25 616.35,352.8 640.5,371.7C664.65,389.55 684.6,411.6 699.3,437.85L787.5,407.4L787.5,399C787.5,362.25 800.1,331.8 826.35,305.55C851.55,280.35 882,267.75 918.75,267.75C955.5,267.75 985.95,280.35 1012.2,305.55C1037.4,331.8 1050,362.25 1050,399C1050,434.7 1037.4,466.2 1012.2,491.4C985.95,517.65 955.5,530.25 918.75,530.25C895.65,530.25 874.65,525 854.7,513.45C835.8,502.95 820.05,488.25 808.5,469.35L719.25,499.8C724.5,528.15 722.4,556.5 714,583.8C706.65,612.15 691.95,638.4 672,661.5L733.95,738.15C742.35,733.95 750.75,731.85 759.15,729.75C767.55,727.65 777,726.6 787.5,726.6C824.25,726.6 854.7,739.2 880.95,765.45C906.15,790.65 918.75,822.15 918.75,857.85C918.75,894.6 906.15,926.1 880.95,951.3C854.7,976.5 824.25,989.1 787.5,989.1C750.75,989.1 720.3,976.5 695.1,951.3C668.85,926.1 656.25,894.6 656.25,857.85C656.25,843.15 658.35,829.5 663.6,815.85C667.8,802.2 674.1,790.65 682.5,779.1L620.55,701.4C590.1,718.2 558.6,726.6 525,726.6C490.35,726.6 458.85,718.2 428.4,701.4L367.5,779.1C375.9,790.65 382.2,802.2 386.4,815.85C391.65,829.5 393.75,843.15 393.75,857.85C393.75,894.6 381.15,926.1 355.95,951.3C329.7,976.5 299.25,989.1 262.5,989.1M131.25,442.05C143.85,442.05 154.35,437.85 162.75,429.45C171.15,421.05 175.35,411.6 175.35,399C175.35,386.4 171.15,375.9 162.75,367.5C154.35,359.1 143.85,354.9 131.25,354.9C118.65,354.9 108.15,359.1 99.75,367.5C91.35,375.9 87.15,386.4 87.15,399C87.15,411.6 91.35,421.05 99.75,429.45C108.15,437.85 118.65,442.05 131.25,442.05M262.5,901.95C275.1,901.95 285.6,897.75 294,889.35C302.4,880.95 306.6,870.45 306.6,857.85C306.6,845.25 302.4,835.8 294,827.4C285.6,819 275.1,814.8 262.5,814.8C249.9,814.8 239.4,819 231,827.4C222.6,835.8 218.4,845.25 218.4,857.85C218.4,870.45 222.6,880.95 231,889.35C239.4,897.75 249.9,901.95 262.5,901.95M525,158.55C537.6,158.55 548.1,154.35 556.5,145.95C564.9,137.55 569.1,127.05 569.1,114.45C569.1,101.85 564.9,91.35 556.5,82.95C548.1,74.55 537.6,70.35 525,70.35C512.4,70.35 501.9,74.55 493.5,82.95C485.1,91.35 480.9,101.85 480.9,114.45C480.9,127.05 485.1,137.55 493.5,145.95C501.9,154.35 512.4,158.55 525,158.55M525,639.45C555.45,639.45 581.7,628.95 602.7,607.95C623.7,586.95 634.2,560.7 634.2,530.25C634.2,499.8 623.7,473.55 602.7,452.55C581.7,431.55 555.45,421.05 525,421.05C494.55,421.05 468.3,431.55 447.3,452.55C426.3,473.55 415.8,499.8 415.8,530.25C415.8,560.7 426.3,586.95 447.3,607.95C468.3,628.95 494.55,639.45 525,639.45M787.5,901.95C800.1,901.95 810.6,897.75 819,889.35C827.4,880.95 831.6,870.45 831.6,857.85C831.6,845.25 827.4,835.8 819,827.4C810.6,819 800.1,814.8 787.5,814.8C774.9,814.8 764.4,819 756,827.4C747.6,835.8 743.4,845.25 743.4,857.85C743.4,870.45 747.6,880.95 756,889.35C764.4,897.75 774.9,901.95 787.5,901.95M918.75,442.05C931.35,442.05 941.85,437.85 950.25,429.45C958.65,421.05 962.85,411.6 962.85,399C962.85,386.4 958.65,375.9 950.25,367.5C941.85,359.1 931.35,354.9 918.75,354.9C906.15,354.9 895.65,359.1 887.25,367.5C878.85,375.9 874.65,386.4 874.65,399C874.65,411.6 878.85,421.05 887.25,429.45C895.65,437.85 906.15,442.05 918.75,442.05" />
<glyph unicode="&#xe948;" glyph-name="image-search" d="M218.4 901.95c-24.15 0-44.1-8.4-60.9-25.2-17.85-17.85-26.25-37.8-26.25-61.95V201.6c0-24.15 8.4-44.1 26.25-61.95 16.8-16.8 36.75-25.2 60.9-25.2h219.45v87.15H218.4v613.2h613.2V580.65l87.15 87.15v147c0 24.15-8.4 44.1-25.2 61.95-17.85 16.8-37.8 25.2-61.95 25.2zm44.1-175.35 131.25-174.3 98.7 131.25L623.7 508.2l163.8 218.4zm680.4-157.5L807.45 433.65c-15.75 10.5-31.5 17.85-49.35 23.1s-35.7 7.35-55.65 7.35c-54.6 0-99.75-18.9-137.55-56.7-38.85-38.85-57.75-85.05-57.75-139.65S527.1 165.9 564.9 128.1c38.85-38.85 85.05-57.75 139.65-57.75s100.8 18.9 139.65 57.75c37.8 37.8 56.7 85.05 56.7 139.65 0 19.95-2.1 38.85-8.4 56.7q-7.875 26.775-22.05 50.4L1003.8 508.2zM704.55 376.95c30.45 0 56.7-10.5 77.7-31.5s31.5-47.25 31.5-77.7-10.5-56.7-31.5-77.7-47.25-31.5-77.7-31.5-56.7 10.5-77.7 31.5-31.5 47.25-31.5 77.7 10.5 56.7 31.5 77.7 47.25 31.5 77.7 31.5" />
<glyph unicode="&#xe949;" glyph-name="image" d="M218.4 901.95c-24.15 0-44.1-8.4-60.9-25.2-17.85-17.85-26.25-37.8-26.25-61.95V201.6c0-24.15 8.4-44.1 26.25-61.95 16.8-16.8 36.75-25.2 60.9-25.2h613.2c24.15 0 44.1 8.4 61.95 25.2 16.8 17.85 25.2 37.8 25.2 61.95v613.2c0 24.15-8.4 44.1-25.2 61.95-17.85 16.8-37.8 25.2-61.95 25.2zm0-87.15h613.2V201.6H218.4zm44.1-88.2h525L623.7 508.2 492.45 683.55l-98.7-131.25zm-44.1 88.2V201.6z" />
<glyph unicode="&#xe94a;" glyph-name="imagesmode" d="M218.4 901.95c-24.15 0-44.1-8.4-60.9-25.2-17.85-17.85-26.25-37.8-26.25-61.95V201.6c0-24.15 8.4-44.1 26.25-61.95 16.8-16.8 36.75-25.2 60.9-25.2h613.2c24.15 0 44.1 8.4 61.95 25.2 16.8 17.85 25.2 37.8 25.2 61.95v613.2c0 24.15-8.4 44.1-25.2 61.95-17.85 16.8-37.8 25.2-61.95 25.2zm0-87.15h613.2V201.6H218.4zm44.1-88.2h525L623.7 508.2 492.45 683.55l-98.7-131.25zm-44.1 88.2V201.6zm153.3-393.75c18.9 0 33.6-6.3 47.25-19.95 12.6-12.6 18.9-28.35 18.9-46.2s-6.3-33.6-19.95-46.2c-12.6-12.6-27.3-18.9-46.2-18.9-17.85 0-33.6 6.3-46.2 18.9s-18.9 28.35-18.9 46.2 6.3 33.6 18.9 46.2c12.6 13.65 28.35 19.95 46.2 19.95" />
<glyph unicode="&#xe94b;" glyph-name="inbox" d="M862.966 979.954H161.035C72.195 979.954.176 907.935.176 819.095V468.129c0-24.229 19.642-43.871 43.871-43.871s43.871 19.642 43.871 43.871v350.966a68 68 0 0 0-.021 1.755c0 40.382 32.736 73.117 73.117 73.117h701.952c40.382 0 73.117-32.736 73.117-73.117V469.884c0-24.229 19.642-43.871 43.871-43.871s43.871 19.642 43.871 43.871V820.85c-.991 88.083-72.627 159.104-160.849 159.104h-.011zM512 702.107h-.13c-110.716 0-202.222-82.245-216.757-188.973l-.126-1.134H44.047l-.326.001c-24.229 0-43.871-19.642-43.871-43.871 0-8.677 2.52-16.767 6.867-23.575l-.106.177L224.795 93.766c17.362-29.96 49.275-49.789 85.818-49.789q1.94 0 3.862.074l-.185-.005h395.422c40.382.115 75.22 23.729 91.572 57.882l.265.613 215.844 347.456c2.498 5.344 3.955 11.604 3.955 18.204 0 23.357-18.253 42.45-41.273 43.795l-.119.005h-250.94c-14.66 107.862-106.167 190.107-216.883 190.107h-.138.007zM123.014 426.013h213.504c24.229 0 43.871 19.642 43.871 43.871v12.869c0 72.687 58.925 131.612 131.612 131.612s131.612-58.925 131.612-131.612v-12.869c0-24.229 19.642-43.871 43.871-43.871h213.504L725.505 141.731c-4.679-8.189-9.36-11.698-15.208-11.698H314.291a15.8 15.8 0 0 0-13.412 8.109l-.041.081z" />
<glyph unicode="&#xe94c;" glyph-name="key" d="M306.6 595.35c-24.15 0-45.15-8.4-61.95-25.2-16.8-17.85-26.25-37.8-26.25-61.95s9.45-45.15 26.25-61.95 37.8-25.2 61.95-25.2 44.1 8.4 61.95 25.2c16.8 16.8 25.2 37.8 25.2 61.95s-8.4 44.1-25.2 61.95c-17.85 16.8-37.8 25.2-61.95 25.2m0 175.35c-73.5 0-135.45-25.2-185.85-76.65C69.3 642.6 44.1 580.65 44.1 508.2c0-73.5 25.2-135.45 76.65-185.85 50.4-51.45 112.35-76.65 185.85-76.65 48.3 0 92.4 11.55 132.3 35.7s71.4 55.65 94.5 95.55h385.35L1050 508.2 853.65 704.55l-88.2-65.1-87.15 65.1-93.45-65.1H533.4c-23.1 38.85-54.6 71.4-94.5 95.55-39.9 23.1-84 35.7-132.3 35.7m0-87.15q61.425 0 107.1-37.8c31.5-24.15 51.45-55.65 61.95-93.45h136.5l64.05 44.1 89.25-66.15 77.7 59.85 81.9-81.9L882 464.1H475.65c-10.5-37.8-30.45-69.3-61.95-93.45q-45.675-37.8-107.1-37.8c-48.3 0-89.25 17.85-123.9 51.45-34.65 34.65-51.45 75.6-51.45 123.9s16.8 89.25 51.45 123.9c34.65 33.6 75.6 51.45 123.9 51.45" />
<glyph unicode="&#xe94d;" glyph-name="link" d="M480.9 726.6H306.6c-60.9 0-112.35-21-155.4-64.05-42-42-64.05-93.45-64.05-154.35s22.05-112.35 64.05-154.35c43.05-43.05 94.5-64.05 155.4-64.05h174.3v87.15H306.6c-36.75 0-68.25 12.6-93.45 37.8-25.2 26.25-37.8 56.7-37.8 93.45s12.6 67.2 37.8 92.4c25.2 26.25 56.7 38.85 93.45 38.85h174.3zM349.65 552.3v-88.2h350.7v88.2zM569.1 726.6v-87.15h174.3c36.75 0 68.25-12.6 93.45-38.85 25.2-25.2 37.8-55.65 37.8-92.4s-12.6-67.2-37.8-93.45c-25.2-25.2-56.7-37.8-93.45-37.8H569.1V289.8h174.3c60.9 0 112.35 21 155.4 64.05 42 42 64.05 93.45 64.05 154.35S940.8 620.55 898.8 662.55c-43.05 43.05-94.5 64.05-155.4 64.05z" />
<glyph unicode="&#xe94e;" glyph-name="list" d="M967.082 560.759H251.955c-26.929 0-48.759-21.83-48.759-48.759s21.83-48.759 48.759-48.759h715.127c26.929 0 48.759 21.83 48.759 48.759s-21.83 48.759-48.759 48.759m0-292.552H251.955c-26.929 0-48.759-21.83-48.759-48.759s21.83-48.759 48.759-48.759h715.127c26.929 0 48.759 21.83 48.759 48.759s-21.83 48.759-48.759 48.759m0 585.104H251.955c-26.929 0-48.759-21.83-48.759-48.759s21.83-48.759 48.759-48.759h715.127c26.929 0 48.759 21.83 48.759 48.759s-21.83 48.759-48.759 48.759M56.918 284.46a64.842 64.842 0 0 1-25.141-4.706l.436.155c-8.191-4.021-15.246-8.79-21.551-14.388l.098.085C-.893 253.86-8.094 237.683-8.094 219.823q0-.199.002-.396v.02c.258-17.936 7.392-34.155 18.879-46.185l-.024.026a60.5 60.5 0 0 1 21.038-13.514l.416-.139c7.303-3.084 15.795-4.877 24.704-4.877s17.401 1.792 25.134 5.036l-.428-.16c8.326 3.279 15.455 7.903 21.477 13.674l-.023-.021c11.461 12.002 18.595 28.224 18.853 46.107v.05l.002.376c0 17.859-7.201 34.037-18.859 45.786l.005-.005a94.8 94.8 0 0 1-20.899 14.055l-.555.248c-7.082 2.883-15.3 4.556-23.909 4.556q-.42 0-.84-.005h.043zm0 292.552c-8.949-.111-17.424-2.014-25.124-5.363l.419.163c-8.262-3.501-15.357-8.097-21.513-13.706l.059.053C-.894 546.413-8.095 530.236-8.095 512.376q0-.199.002-.396v.02c.258-17.936 7.392-34.155 18.879-46.185l-.024.026a74.7 74.7 0 0 1 20.966-13.467l.488-.186c8.019-3.808 17.424-6.032 27.348-6.032 3.658 0 7.245.302 10.739.882l-.379-.052 11.702 3.901 11.702 5.851a103 103 0 0 1 9.837 7.878l-.085-.076c11.672 12.226 18.854 28.826 18.854 47.102q0 .188-.002.376v-.02c0 35.905-29.107 65.012-65.012 65.012zm0 292.552a64.842 64.842 0 0 1-25.141-4.706l.436.155c-8.191-4.021-15.246-8.79-21.551-14.388l.098.085a74.7 74.7 0 0 1-13.467-20.966l-.186-.488c-3.296-7.27-5.216-15.763-5.216-24.704s1.92-17.436 5.371-25.089l-.155.385c3.501-8.262 8.097-15.357 13.706-21.513l-.053.059c11.733-11.582 27.863-18.736 45.663-18.736 9.098 0 17.76 1.87 25.624 5.245l-.424-.162c8.326 3.279 15.455 7.903 21.477 13.674l-.023-.021a74.7 74.7 0 0 1 13.467 20.966l.186.488c3.296 7.27 5.216 15.763 5.216 24.704s-1.92 17.436-5.371 25.089l.155-.385c-3.501 8.262-8.097 15.357-13.706 21.513l.053-.059c-11.746 11.653-27.923 18.854-45.783 18.854q-.199 0-.396-.002h.02z" />
<glyph unicode="&#xe94f;" glyph-name="lock-open" d="M393.75,332.85L507.9,332.85C532.05,332.85 553.05,341.25 569.85,359.1C586.65,375.9 595.05,396.9 595.05,421.05L595.05,857.85C595.05,882 586.65,903 569.85,919.8C553.05,937.65 532.05,946.05 507.9,946.05L-17.1,946.05C-41.25,946.05 -61.2,937.65 -79.05,919.8C-95.85,903 -104.25,882 -104.25,857.85L-104.25,421.05C-104.25,396.9 -95.85,375.9 -79.05,359.1C-61.2,341.25 -41.25,332.85 -17.1,332.85L306.6,332.85L306.6,245.7C306.6,184.8 327.6,133.35 370.65,91.35C412.65,48.3 464.1,27.3 525,27.3C585.9,27.3 637.35,48.3 679.35,91.35C722.4,133.35 743.4,184.8 743.4,245.7L743.4,332.85L656.25,332.85L656.25,245.7C656.25,208.95 643.65,178.5 618.45,152.25C592.2,127.05 561.75,114.45 525,114.45C488.25,114.45 457.8,127.05 432.6,152.25C406.35,178.5 393.75,208.95 393.75,245.7L393.75,332.85ZM-17.1,857.85L507.9,857.85L507.9,421.05L-17.1,421.05L-17.1,857.85ZM245.4,726.6C221.25,726.6 201.3,718.2 183.45,701.4C166.65,683.55 158.25,663.6 158.25,639.45C158.25,615.3 166.65,594.3 183.45,577.5C201.3,560.7 221.25,552.3 245.4,552.3C269.55,552.3 290.55,560.7 307.35,577.5C324.15,594.3 332.55,615.3 332.55,639.45C332.55,663.6 324.15,683.55 307.35,701.4C290.55,718.2 269.55,726.6 245.4,726.6Z" />
<glyph unicode="&#xe950;" glyph-name="lock" d="M262.5 946.05c-24.15 0-44.1-8.4-61.95-26.25-16.8-16.8-25.2-37.8-25.2-61.95v-436.8c0-24.15 8.4-45.15 25.2-61.95 17.85-17.85 37.8-26.25 61.95-26.25h44.1V245.7c0-60.9 21-112.35 64.05-154.35C412.65 48.3 464.1 27.3 525 27.3s112.35 21 154.35 64.05c43.05 42 64.05 93.45 64.05 154.35v87.15h44.1c24.15 0 45.15 8.4 61.95 26.25 16.8 16.8 25.2 37.8 25.2 61.95v436.8c0 24.15-8.4 45.15-25.2 61.95-16.8 17.85-37.8 26.25-61.95 26.25zm0-88.2h525v-436.8h-525zM525 726.6c24.15 0 45.15-8.4 61.95-25.2 16.8-17.85 25.2-37.8 25.2-61.95s-8.4-45.15-25.2-61.95-37.8-25.2-61.95-25.2-44.1 8.4-61.95 25.2c-16.8 16.8-25.2 37.8-25.2 61.95s8.4 44.1 25.2 61.95c17.85 16.8 37.8 25.2 61.95 25.2M393.75 332.85h262.5V245.7c0-36.75-12.6-67.2-37.8-93.45-26.25-25.2-56.7-37.8-93.45-37.8s-67.2 12.6-92.4 37.8c-26.25 26.25-38.85 56.7-38.85 93.45zm-131.25 525v-436.8z" />
<glyph unicode="&#xe951;" glyph-name="microchip" d="M277.943 0c24.237 0 43.886 19.648 43.886 43.886v73.143h146.286V43.886C468.115 19.649 487.763 0 512.001 0s43.886 19.648 43.886 43.886v73.143h146.286V43.886C702.173 19.649 721.821 0 746.059 0c24.24 0 43.886 19.648 43.886 43.886v73.143h14.629c56.554 0 102.4 45.846 102.4 102.4v14.629h73.143c24.24 0 43.886 19.648 43.886 43.886s-19.646 43.886-43.886 43.886h-73.143v146.286h73.143c24.24 0 43.886 19.648 43.886 43.886s-19.646 43.886-43.886 43.886h-73.143v146.286h73.143c24.24 0 43.886 19.648 43.886 43.886 0 24.24-19.646 43.886-43.886 43.886h-73.143v14.629c0 56.554-45.846 102.4-102.4 102.4h-14.629v73.143c0 24.24-19.646 43.886-43.886 43.886-24.237 0-43.886-19.646-43.886-43.886v-73.143H555.887v73.143c0 24.24-19.648 43.886-43.886 43.886s-43.886-19.646-43.886-43.886v-73.143H321.829v73.143c0 24.24-19.648 43.886-43.886 43.886s-43.886-19.646-43.886-43.886v-73.143h-14.629c-56.554 0-102.4-45.846-102.4-102.4v-14.629H43.885c-24.237 0-43.886-19.646-43.886-43.886 0-24.237 19.648-43.886 43.886-43.886h73.143V555.888H43.885c-24.237 0-43.886-19.648-43.886-43.886s19.648-43.886 43.886-43.886h73.143V321.83H43.885c-24.237 0-43.886-19.648-43.886-43.886s19.648-43.886 43.886-43.886h73.143v-14.629c0-56.554 45.846-102.4 102.4-102.4h14.629V43.886C234.057 19.649 253.705 0 277.943 0m-58.514 204.8c-8.079 0-14.629 6.549-14.629 14.629v585.143c0 8.082 6.549 14.629 14.629 14.629h585.143c8.082 0 14.629-6.546 14.629-14.629V219.429c0-8.079-6.546-14.629-14.629-14.629z" />
<glyph unicode="&#xe952;" glyph-name="mobile" d="M746.047.023H277.954c-56.418.33-102.065 45.976-102.396 102.364v819.195c.33 56.418 45.976 102.065 102.364 102.396h468.125c56.418-.33 102.065-45.976 102.396-102.364V102.419C848.113 46.001 802.467.354 746.079.023zm14.627 921.559c0 8.079-6.55 14.628-14.628 14.628H277.953c-8.079 0-14.628-6.55-14.628-14.628V102.419c0-8.079 6.55-14.628 14.628-14.628h468.093c8.079 0 14.628 6.55 14.628 14.628zM512 658.28c-48.472 0-87.768 39.295-87.768 87.768s39.295 87.768 87.768 87.768 87.768-39.295 87.768-87.768S560.473 658.28 512 658.28m0 87.767" />
<glyph unicode="&#xe953;" glyph-name="moon" d="M517.309 1022.789a517 517 0 0 1-66.885-4.41l2.595.278C219.439 987.378 36.618 804.558 5.632 573.643l-.291-2.662C2.482 550.627.851 527.112.851 503.22c0-246.048 172.971-451.698 403.948-501.981l3.392-.62c4.828-1.146 10.369-1.803 16.065-1.803 24.13 0 45.508 11.78 58.7 29.904l.144.209c8.716 12.084 13.937 27.19 13.937 43.519 0 14.447-4.091 27.937-11.173 39.378l.187-.321c-26.726 45.102-42.523 99.41-42.523 157.408a315 315 0 0 0 3.823 49.03l-.228-1.77c21.13 133.311 125.031 237.216 256.587 258.114l1.758.228c14.358 2.386 30.902 3.749 47.766 3.749 57.921 0 112.086-16.086 158.27-44.036l-1.366.768c10.914-6.566 24.086-10.453 38.167-10.453 16.715 0 32.146 5.473 44.609 14.724l-.202-.143c18.334 13.09 30.142 34.293 30.142 58.257 0 5.696-.669 11.235-1.926 16.546l.097-.484c-49.878 235.319-255.888 409.342-502.54 409.342l-1.235-.001h.064zM394.034 99.12C215.098 152.927 86.978 316.198 86.978 509.395c0 236.171 191.454 427.623 427.623 427.623 193.197 0 356.468-128.116 409.491-304.027l.784-3.028c-50.869 25.361-110.807 40.205-174.212 40.205-197.518 0-361.392-144.047-392.301-332.818l-.31-2.3c-2.962-18.244-4.655-39.278-4.655-60.703 0-63.794 15.005-124.084 41.678-177.535l-1.042 2.307z" />
<glyph unicode="&#xe954;" glyph-name="more-horiz" d="M262.5 595.35c-24.15 0-44.1-8.4-61.95-25.2-16.8-17.85-25.2-37.8-25.2-61.95s8.4-45.15 25.2-61.95c17.85-16.8 37.8-25.2 61.95-25.2s45.15 8.4 61.95 25.2 25.2 37.8 25.2 61.95-8.4 44.1-25.2 61.95c-16.8 16.8-37.8 25.2-61.95 25.2m262.5 0c-24.15 0-44.1-8.4-61.95-25.2-16.8-17.85-25.2-37.8-25.2-61.95s8.4-45.15 25.2-61.95c17.85-16.8 37.8-25.2 61.95-25.2s45.15 8.4 61.95 25.2 25.2 37.8 25.2 61.95-8.4 44.1-25.2 61.95c-16.8 16.8-37.8 25.2-61.95 25.2m262.5 0c-24.15 0-44.1-8.4-61.95-25.2-16.8-17.85-25.2-37.8-25.2-61.95s8.4-45.15 25.2-61.95c17.85-16.8 37.8-25.2 61.95-25.2s45.15 8.4 61.95 25.2 25.2 37.8 25.2 61.95-8.4 44.1-25.2 61.95c-16.8 16.8-37.8 25.2-61.95 25.2" />
<glyph unicode="&#xe955;" glyph-name="more-vert" d="M525 857.85c-24.15 0-44.1-8.4-61.95-25.2-16.8-17.85-25.2-37.8-25.2-61.95s8.4-45.15 25.2-61.95c17.85-16.8 37.8-25.2 61.95-25.2s45.15 8.4 61.95 25.2 25.2 37.8 25.2 61.95-8.4 44.1-25.2 61.95c-16.8 16.8-37.8 25.2-61.95 25.2m0-262.5c-24.15 0-44.1-8.4-61.95-25.2-16.8-17.85-25.2-37.8-25.2-61.95s8.4-45.15 25.2-61.95c17.85-16.8 37.8-25.2 61.95-25.2s45.15 8.4 61.95 25.2 25.2 37.8 25.2 61.95-8.4 44.1-25.2 61.95c-16.8 16.8-37.8 25.2-61.95 25.2m0-262.5c-24.15 0-44.1-8.4-61.95-25.2-16.8-17.85-25.2-37.8-25.2-61.95s8.4-45.15 25.2-61.95c17.85-16.8 37.8-25.2 61.95-25.2s45.15 8.4 61.95 25.2 25.2 37.8 25.2 61.95-8.4 44.1-25.2 61.95c-16.8 16.8-37.8 25.2-61.95 25.2" />
<glyph unicode="&#xe956;" glyph-name="package-box" d="M910.141,915.045L493.078,915.045C480.372,915.045 442.246,912.617 425.22,881.664C425.22,881.664 222.724,513.058 221.897,510.663C212.83,495.87 212.675,474.241 223.02,455.433L440.444,60.155C450.926,41.099 469.18,30.396 486.103,31.557C486.484,31.549 486.865,31.545 487.248,31.545L924.574,31.339C947.007,31.339 966.759,52.553 977.976,72.945L1173.41,428.255C1189.56,457.603 1192.2,477.452 1180.84,498.104L968.61,883.941C963.095,893.968 953.495,902.82 943.75,908.004C934.005,913.188 923.296,915.423 910.141,915.045ZM504.455,119.291L328.668,438.872L680.459,438.872L856.336,119.125L504.455,119.291ZM680.459,526.626L326.47,526.626L491.858,827.304C492.264,827.295 845.84,827.291 845.84,827.291L680.459,526.626ZM922.805,791.706L1099.8,469.929L929.857,160.972L752.863,482.749L922.805,791.706ZM831.657,518.579C820.114,497.594 826.965,470.757 846.957,458.642C866.95,446.526 892.516,453.714 904.06,474.702L947.951,554.495C959.493,575.48 952.642,602.317 932.65,614.432C912.658,626.548 887.091,619.36 875.547,598.372L831.657,518.579ZM901.523,375.799C889.98,354.814 896.831,327.977 916.823,315.862C936.816,303.746 962.382,310.934 973.926,331.922L1017.82,411.715C1029.36,432.7 1022.51,459.537 1002.52,471.652C982.524,483.768 956.957,476.58 945.413,455.592L901.523,375.799Z" />
<glyph unicode="&#xe957;" glyph-name="package" d="M480.9 832.65V533.4L218.4 381.15v300.3zm88.2 0 262.5-151.2v-300.3L569.1 533.4zm-88.2 100.8-305.55-176.4c-13.65-7.35-25.2-17.85-32.55-31.5-7.35-12.6-11.55-27.3-11.55-43.05V333.9c0-15.75 4.2-30.45 11.55-43.05 7.35-13.65 18.9-24.15 32.55-32.55L480.9 82.95c14.7-8.4 28.35-12.6 44.1-12.6q23.625 0 44.1 12.6L874.65 258.3c14.7 8.4 25.2 18.9 32.55 32.55 7.35 12.6 11.55 27.3 11.55 43.05v348.6c0 15.75-4.2 30.45-11.55 43.05-7.35 13.65-17.85 24.15-32.55 31.5L569.1 933.45q-20.475 12.6-44.1 12.6c-15.75 0-29.4-4.2-44.1-12.6m219.45-577.5 84-48.3L525 158.55l-85.05 48.3zM525 457.8l85.05-49.35L350.7 258.3l-85.05 49.35z" />
<glyph unicode="&#xe958;" glyph-name="palette" d="M516.624.063h-7.266C259.004.063 41.019 184.36 1.385 432.071c-5.284 33.028 3.963 67.377 26.423 93.139 21.799 25.762 52.844 40.295 85.874 40.295h3.963c114.938 0 201.471 28.405 256.958 83.892 56.148 56.148 83.892 144.002 83.231 260.922 0 33.028 14.533 64.075 39.634 85.874 21.137 18.496 48.222 28.405 75.304 27.744 5.945 0 11.89 0 17.835-1.321 250.354-40.295 435.971-261.583 432.669-515.239C1019.313 231.922 792.08 4.028 515.964.065zm58.79 924.789c-3.963 0-9.247-.661-13.211-3.963-1.982-1.982-5.284-5.284-5.284-9.908.661-144.663-36.991-256.299-112.295-331.603-74.643-74.643-184.958-112.956-326.978-112.956h-3.963c-5.284 0-8.588-3.302-10.57-5.284-1.321-1.982-5.284-6.606-3.963-13.211C131.518 248.438 307.227 99.15 509.359 99.15h5.945c218.647 3.302 406.246 190.242 409.548 409.548 2.643 204.775-147.306 383.786-348.777 416.154zm-199.489-609.7c0 36.331-29.725 66.716-66.716 66.716s-66.716-29.725-66.716-66.716 29.725-66.716 66.716-66.716 66.716 29.725 66.716 66.716m199.489-83.231c0 36.331-29.725 66.716-66.716 66.716s-66.716-29.725-66.716-66.716 29.725-66.716 66.716-66.716 66.716 29.725 66.716 66.716m66.716 83.231c0-36.331 29.725-66.716 66.716-66.716s66.716 29.725 66.716 66.716-29.725 66.716-66.716 66.716-66.716-29.725-66.716-66.716m216.004 199.491c0 36.331-29.725 66.716-66.716 66.716s-66.716-29.725-66.716-66.716 29.725-66.716 66.716-66.716 66.716 29.725 66.716 66.716m-83.231 199.489c0 36.331-29.725 66.716-66.716 66.716s-66.716-29.725-66.716-66.716 29.725-66.716 66.716-66.716 66.716 29.725 66.716 66.716" />
<glyph unicode="&#xe959;" glyph-name="pencil" d="M45.313 1022.421c-.136.001-.296.003-.456.003-11.964 0-22.806-4.803-30.702-12.588l.006.006C5.913 1001.693.805 990.381.805 977.876q.001-2.102.19-4.155l-.013.176 18.572-230.049c.852-11.108 5.734-20.935 13.169-28.147l662.6-662.6c34.079-31.973 80.059-51.615 130.628-51.615q3.145 0 6.267.101l-.303-.008c52.335.418 99.758 21.108 134.873 54.592l-.079-.074c34.783 35.688 56.235 84.513 56.235 138.348 0 50.427-18.822 96.457-49.825 131.448l.181-.208L310.112 991.27c-7.185 7.16-16.72 11.966-27.348 13.161l-.211.02-233.044 20.968zm59.907-255.21-12.581 164.15 164.15-14.978 653.004-654.202c15.132-17.82 24.333-41.087 24.333-66.503 0-56.908-46.133-103.043-103.043-103.043q-.511 0-1.021.006h.052a93 93 0 0 0-6.112-.194c-25.163 0-48.075 9.635-65.249 25.419l.069-.063zM727.071 84.852" />
<glyph unicode="&#xe95a;" glyph-name="plus-circle" d="M512 1024C229.231 1024 0 794.769 0 512S229.231 0 512 0s512 229.231 512 512-229.231 512-512 512m0-938.667C276.359 85.333 85.333 276.358 85.333 512S276.358 938.667 512 938.667 938.667 747.642 938.667 512 747.642 85.333 512 85.333m0 696.89c-23.436-.316-42.351-19.231-42.667-42.636V284.446c0-23.564 19.103-42.667 42.667-42.667s42.667 19.103 42.667 42.667v455.111c-.316 23.436-19.231 42.351-42.636 42.667H512zm227.556-227.556H284.445c-23.564 0-42.667-19.103-42.667-42.667s19.103-42.667 42.667-42.667h455.111c23.564 0 42.667 19.103 42.667 42.667s-19.103 42.667-42.667 42.667" />
<glyph unicode="&#xe95b;" glyph-name="plus" d="M559.485 464.515V68.82c0-26.223-21.257-47.485-47.485-47.485s-47.485 21.257-47.485 47.485v395.695H68.82c-26.223 0-47.485 21.257-47.485 47.485s21.257 47.485 47.485 47.485h395.695V955.18c.352 26.082 21.403 47.133 47.447 47.485h.033c26.223 0 47.485-21.257 47.485-47.485V559.485h395.695c26.223 0 47.485-21.257 47.485-47.485-.352-26.082-21.403-47.133-47.447-47.485h-.033z" />
<glyph unicode="&#xe95c;" glyph-name="publish" d="M480.9 857.85V501.9L367.5 615.3l-60.9-63L525 332.85 743.4 552.3l-60.9 63-113.4-113.4v355.95zm-305.55-480.9V245.7c0-24.15 8.4-45.15 25.2-61.95 17.85-16.8 37.8-25.2 61.95-25.2h525c24.15 0 45.15 8.4 61.95 25.2s25.2 37.8 25.2 61.95v131.25H787.5V245.7h-525v131.25z" />
<glyph unicode="&#xe95d;" glyph-name="puzzle-piece" d="M754.558,1238L581.863,1238C553.746,1238 530.519,1228.22 509.737,1207.44C490.178,1187.88 480.398,1164.65 480.398,1136.53L480.398,1046.63C372.343,1031.26 289.143,938.271 289.143,826C289.143,713.729 372.343,620.737 480.398,605.371L480.398,515.466C480.398,487.349 490.178,464.122 509.737,443.34C530.519,423.78 553.746,414 581.863,414L656.386,414C678.741,314.547 767.665,240.156 873.826,240.156C979.988,240.156 1068.91,314.547 1091.27,414L1202.93,414C1231.05,414 1254.28,423.78 1275.06,443.34C1294.62,464.122 1304.4,487.349 1304.4,515.466L1304.4,714.951C1284.7,702.929 1261.56,696 1236.81,696C1165.06,696 1106.81,754.251 1106.81,826C1106.81,897.749 1165.06,956 1236.81,956C1261.56,956 1284.7,949.071 1304.4,937.049L1304.4,1136.53C1304.4,1164.65 1294.62,1187.88 1275.06,1207.44C1254.28,1228.22 1231.05,1238 1202.93,1238L995.416,1238C1001.59,1222.87 1004.99,1206.32 1004.99,1188.99C1004.99,1117.24 946.736,1058.99 874.987,1058.99C803.238,1058.99 744.987,1117.24 744.987,1188.99C744.987,1206.32 748.388,1222.87 754.558,1238ZM581.863,935.626L581.863,1136.53L658.349,1136.53C681.961,1038.81 770.053,966.13 874.987,966.13C979.921,966.13 1068.01,1038.81 1091.62,1136.53L1202.93,1136.53L1202.93,1046.29C1095.99,1029.95 1013.96,937.481 1013.96,826C1013.96,714.519 1095.99,622.047 1202.93,605.707L1202.93,515.466L992.794,515.466C999.886,499.419 1003.83,481.673 1003.83,463.013C1003.83,391.264 945.575,333.013 873.826,333.013C802.077,333.013 743.826,391.264 743.826,463.013C743.826,481.673 747.766,499.419 754.858,515.466L581.863,515.466L581.863,716.374C561.68,703.478 537.707,696 512,696C440.251,696 382,754.251 382,826C382,897.749 440.251,956 512,956C537.707,956 561.68,948.522 581.863,935.626Z" />
<glyph unicode="&#xe95e;" glyph-name="qrcode" d="M561.547.023v462.433h462.433V.023zm363.34 363.339H660.64V99.115h264.247zM.023 462.454h462.433V.021H.023zM99.116 99.116h264.247v264.247H99.116zM.023 1023.98h462.433V561.547H.023zm99.093-363.34h264.247v264.247H99.116zm462.431-99.093h115.609v115.609H561.547zm231.217 0h115.609v115.609H792.764zM677.156 677.156h115.609v115.609H677.156zm231.215 0h115.609v115.609H908.371zM561.547 792.764h115.609v115.609H561.547zm231.217 0h115.609v115.609H792.764zM677.156 908.371h115.609v115.609H677.156zm231.215 0h115.609v115.609H908.371z" />
<glyph unicode="&#xe95f;" glyph-name="radio-checked" d="M525 946.05q-91.35 0-170.1-34.65c-53.55-23.1-99.75-54.6-139.65-93.45-38.85-39.9-70.35-86.1-93.45-139.65q-34.65-78.75-34.65-170.1c0-60.9 11.55-117.6 34.65-171.15 23.1-52.5 54.6-98.7 93.45-138.6 39.9-38.85 86.1-70.35 139.65-93.45Q433.65 70.35 525 70.35c60.9 0 117.6 11.55 171.15 34.65 52.5 23.1 98.7 54.6 138.6 93.45 38.85 39.9 70.35 86.1 93.45 138.6 23.1 53.55 34.65 110.25 34.65 171.15q0 91.35-34.65 170.1c-23.1 53.55-54.6 99.75-93.45 139.65-39.9 38.85-86.1 70.35-138.6 93.45C642.6 934.5 585.9 946.05 525 946.05m0-88.2c97.65 0 180.6-33.6 248.85-101.85 67.2-67.2 100.8-150.15 100.8-247.8q0-146.475-100.8-248.85Q671.475 158.55 525 158.55c-97.65 0-180.6 33.6-247.8 100.8-68.25 68.25-101.85 151.2-101.85 248.85S208.95 688.8 277.2 756c67.2 68.25 150.15 101.85 247.8 101.85m0-612.15c144.9 0 262.5 117.6 262.5 262.5S669.9 770.7 525 770.7 262.5 653.1 262.5 508.2 380.1 245.7 525 245.7" />
<glyph unicode="&#xe960;" glyph-name="radio-unchecked" d="M525 946.05q-91.35 0-170.1-34.65c-53.55-23.1-99.75-54.6-139.65-93.45-38.85-39.9-70.35-86.1-93.45-139.65q-34.65-78.75-34.65-170.1c0-60.9 11.55-117.6 34.65-171.15 23.1-52.5 54.6-98.7 93.45-138.6 39.9-38.85 86.1-70.35 139.65-93.45Q433.65 70.35 525 70.35c60.9 0 117.6 11.55 171.15 34.65 52.5 23.1 98.7 54.6 138.6 93.45 38.85 39.9 70.35 86.1 93.45 138.6 23.1 53.55 34.65 110.25 34.65 171.15q0 91.35-34.65 170.1c-23.1 53.55-54.6 99.75-93.45 139.65-39.9 38.85-86.1 70.35-138.6 93.45C642.6 934.5 585.9 946.05 525 946.05m0-88.2c97.65 0 180.6-33.6 248.85-101.85 67.2-67.2 100.8-150.15 100.8-247.8q0-146.475-100.8-248.85Q671.475 158.55 525 158.55c-97.65 0-180.6 33.6-247.8 100.8-68.25 68.25-101.85 151.2-101.85 248.85S208.95 688.8 277.2 756c67.2 68.25 150.15 101.85 247.8 101.85" />
<glyph unicode="&#xe961;" glyph-name="rightpanel-close" d="M328.65 332.85v350.7l174.3-175.35zM218.4 901.95c-24.15 0-44.1-8.4-60.9-25.2-17.85-17.85-26.25-37.8-26.25-61.95V201.6c0-24.15 8.4-44.1 26.25-61.95 16.8-16.8 36.75-25.2 60.9-25.2h613.2c24.15 0 44.1 8.4 61.95 25.2 16.8 17.85 25.2 37.8 25.2 61.95v613.2c0 24.15-8.4 44.1-25.2 61.95-17.85 16.8-37.8 25.2-61.95 25.2zm481.95-87.15H831.6V201.6H700.35zm-88.2 0V201.6H218.4v613.2zm88.2 0H831.6z" />
<glyph unicode="&#xe962;" glyph-name="rightpanel-open" d="M502.95 683.55v-350.7L328.65 508.2zM218.4 901.95c-24.15 0-44.1-8.4-60.9-25.2-17.85-17.85-26.25-37.8-26.25-61.95V201.6c0-24.15 8.4-44.1 26.25-61.95 16.8-16.8 36.75-25.2 60.9-25.2h613.2c24.15 0 44.1 8.4 61.95 25.2 16.8 17.85 25.2 37.8 25.2 61.95v613.2c0 24.15-8.4 44.1-25.2 61.95-17.85 16.8-37.8 25.2-61.95 25.2zm481.95-87.15H831.6V201.6H700.35zm-88.2 0V201.6H218.4v613.2zm88.2 0H831.6z" />
<glyph unicode="&#xe963;" glyph-name="rocket-launch" d="m246.75 422.1 86.1 35.7c9.45-19.95 21-39.9 31.5-58.8s23.1-37.8 35.7-56.7l-60.9-12.6zm155.4 90.3L527.1 636.3c30.45-11.55 64.05-29.4 98.7-53.55s67.2-51.45 98.7-81.9q75.6-77.175 119.7-170.1c28.35-63 40.95-119.7 37.8-172.2q-78.75-6.3-173.25 37.8-94.5 42.525-170.1 119.7c-31.5 30.45-58.8 63-82.95 97.65-23.1 35.7-40.95 68.25-53.55 98.7m195.3-71.4c-16.8-16.8-25.2-36.75-25.2-60.9 0-25.2 8.4-45.15 25.2-61.95s37.8-25.2 61.95-25.2q37.8 0 63 25.2c16.8 16.8 25.2 36.75 25.2 61.95 0 24.15-8.4 44.1-25.2 60.9q-25.2 25.2-63 25.2c-24.15 0-45.15-8.4-61.95-25.2m21 351.75 91.35-92.4-11.55-60.9c-18.9 12.6-37.8 25.2-57.75 35.7-18.9 10.5-37.8 21-58.8 30.45zm342.3-714C974.4 166.95 966 252 934.5 336c-30.45 82.95-84 162.75-159.6 238.35l21 109.2c3.15 13.65 2.1 28.35-2.1 42s-11.55 26.25-22.05 36.75L588 946.05l-91.35-216.3-186.9-186.9L94.5 451.5l182.7-183.75c9.45-10.5 22.05-17.85 36.75-22.05 13.65-4.2 28.35-5.25 43.05-2.1l108.15 22.05C540.75 189 620.55 135.45 703.5 105c82.95-31.5 169.05-40.95 257.25-26.25M172.2 682.5c25.2-26.25 56.7-38.85 93.45-38.85 36.75-1.05 67.2 11.55 93.45 37.8 25.2 25.2 37.8 56.7 37.8 93.45-1.05 36.75-13.65 67.2-38.85 93.45q-28.35 26.775-91.35 47.25c-43.05 12.6-101.85 24.15-177.45 34.65 10.5-75.6 22.05-134.4 35.7-176.4q18.9-64.575 47.25-91.35m61.95 60.9c-7.35 7.35-14.7 21-22.05 39.9s-12.6 38.85-14.7 58.8c18.9-3.15 38.85-8.4 57.75-14.7 19.95-7.35 32.55-14.7 39.9-22.05 9.45-8.4 13.65-18.9 14.7-31.5q1.575-18.9-12.6-31.5-12.6-12.6-31.5-12.6c-12.6 0-23.1 5.25-31.5 13.65" />
<glyph unicode="&#xe964;" glyph-name="science" d="M218.4 901.95c-36.75 0-63-16.8-78.75-49.35-15.75-33.6-11.55-64.05 11.55-92.4l242.55-296.1V201.6h-44.1c-11.55 0-22.05-4.2-30.45-12.6s-12.6-18.9-12.6-30.45q0-18.9 12.6-31.5c8.4-8.4 18.9-12.6 30.45-12.6h350.7c12.6 0 22.05 4.2 30.45 12.6q12.6 12.6 12.6 31.5c0 11.55-4.2 22.05-12.6 30.45s-17.85 12.6-30.45 12.6h-44.1v262.5L898.8 760.2c24.15 28.35 27.3 58.8 11.55 92.4-15.75 32.55-42 49.35-78.75 49.35zm0-87.15h613.2L569.1 494.55V201.6h-88.2v292.95z" />
<glyph unicode="&#xe965;" glyph-name="search-minus" d="M440.071 880.415C196.876 880.415-.273 683.266-.273 440.071S196.876-.273 440.071-.273s440.344 197.149 440.344 440.344c-.332 243.061-197.282 440.011-440.311 440.344zm0-792.384c-193.781 0-350.872 157.09-350.872 350.872s157.09 350.872 350.872 350.872c193.781 0 350.872-157.09 350.872-350.872 0-193.781-157.09-350.872-350.872-350.872m539.757 935.656h-.204c-12.045 0-22.94-4.92-30.785-12.862l-241.52-241.52a43.69 43.69 0 0 1-11.771-29.899c0-24.222 19.636-43.859 43.859-43.859 11.568 0 22.088 4.478 29.926 11.795l-.026-.023 241.516 241.516c7.925 7.934 12.827 18.892 12.827 30.993s-4.901 23.059-12.827 30.995c-7.849 7.945-18.744 12.866-30.789 12.866h-.215.011zm-394.73-540.926H292.705c-24.222 0-43.859-19.636-43.859-43.859s19.636-43.859 43.859-43.859h292.393c24.222 0 43.859 19.636 43.859 43.859s-19.636 43.859-43.859 43.859" />
</font>
</defs>
</svg>
