<?xml version="1.0" encoding="UTF-8" standalone="no"?>
<!DOCTYPE svg PUBLIC "-//W3C//DTD SVG 1.1//EN" "http://www.w3.org/Graphics/SVG/1.1/DTD/svg11.dtd">
<svg width="100%" height="100%" viewBox="0 0 1024 1024" version="1.1" xmlns="http://www.w3.org/2000/svg" xmlns:xlink="http://www.w3.org/1999/xlink" xml:space="preserve" xmlns:serif="http://www.serif.com/" style="fill-rule:evenodd;clip-rule:evenodd;stroke-linejoin:round;stroke-miterlimit:2;">
    <g transform="matrix(1.05321,0,0,1.05321,-14.605,-27.2439)">
        <path d="M208,887C185,887 166,879 150,863C133,846 125,827 125,804L125,220C125,197 133,178 150,161C166,145 185,137 208,137L792,137C815,137 834,145 851,161C867,178 875,197 875,220L875,804C875,827 867,846 851,863C834,879 815,887 792,887L208,887ZM208,804L792,804L792,220L208,220L208,804ZM458.34,553.66L320.179,553.66C297.172,553.66 278.519,535.007 278.519,512C278.519,488.993 297.169,470.34 320.179,470.34L458.34,470.34L458.34,332.179C458.34,309.172 476.993,290.519 500,290.519C523.007,290.519 541.66,309.169 541.66,332.179L541.66,470.34L681.244,470.34C704.251,470.34 722.904,488.993 722.904,512C722.904,535.007 704.254,553.66 681.244,553.66L541.66,553.66L541.66,693.244C541.66,716.251 523.007,734.904 500,734.904C476.993,734.904 458.34,716.254 458.34,693.244L458.34,553.66Z"/>
    </g>
</svg>
