<svg xmlns="http://www.w3.org/2000/svg" viewBox="0 0 1024 1024"><path fill="currentColor" d="M980.093 438.861H394.976c-24.236 0-43.884-19.648-43.884-43.884s19.648-43.884 43.884-43.884h585.117c24.236 0 43.884 19.648 43.884 43.884s-19.648 43.884-43.884 43.884m4.096-234.047H48.002c-24.236 0-43.884-19.648-43.884-43.884s19.648-43.884 43.884-43.884h936.187c24.236 0 43.884 19.648 43.884 43.884s-19.648 43.884-43.884 43.884m0 468.093H48.002c-24.236 0-43.884-19.648-43.884-43.884s19.648-43.884 43.884-43.884h936.187c24.236 0 43.884 19.648 43.884 43.884s-19.648 43.884-43.884 43.884m-4.096 234.047H394.976c-24.236 0-43.884-19.648-43.884-43.884s19.648-43.884 43.884-43.884h585.117c24.236 0 43.884 19.648 43.884 43.884s-19.648 43.884-43.884 43.884"/></svg>