<?xml version="1.0" encoding="UTF-8" standalone="no"?>
<!DOCTYPE svg PUBLIC "-//W3C//DTD SVG 1.1//EN" "http://www.w3.org/Graphics/SVG/1.1/DTD/svg11.dtd">
<svg width="100%" height="100%" viewBox="0 0 1024 1024" version="1.1" xmlns="http://www.w3.org/2000/svg" xmlns:xlink="http://www.w3.org/1999/xlink" xml:space="preserve" xmlns:serif="http://www.serif.com/" style="fill-rule:evenodd;clip-rule:evenodd;stroke-linejoin:round;stroke-miterlimit:2;">
    <path d="M631.151,438.861L43.906,438.861C19.67,438.861 0.022,419.213 0.022,394.977C0.022,370.741 19.67,351.093 43.906,351.093L631.151,351.093C655.387,351.093 675.035,370.741 675.035,394.977C675.035,419.213 655.387,438.861 631.151,438.861M980.093,204.814L43.906,204.814C19.67,204.814 0.022,185.166 0.022,160.93C0.022,136.694 19.67,117.046 43.906,117.046L980.093,117.046C1004.33,117.046 1023.98,136.694 1023.98,160.93C1023.98,185.166 1004.33,204.814 980.093,204.814M980.093,672.907L43.906,672.907C19.67,672.907 0.022,653.259 0.022,629.023C0.022,604.787 19.67,585.139 43.906,585.139L980.093,585.139C1004.33,585.139 1023.98,604.787 1023.98,629.023C1023.98,653.259 1004.33,672.907 980.093,672.907M631.093,906.954L43.906,906.954C19.67,906.954 0.022,887.306 0.022,863.07C0.022,838.834 19.67,819.186 43.906,819.186L631.093,819.186C655.329,819.186 674.977,838.834 674.977,863.07C674.977,887.306 655.329,906.954 631.093,906.954" style="fill-rule:nonzero;"/>
</svg>
