<svg xmlns="http://www.w3.org/2000/svg" viewBox="0 0 1024 1024"><path fill="currentColor" d="M804.558 438.861H219.441c-24.236 0-43.884-19.648-43.884-43.884s19.648-43.884 43.884-43.884h585.117c24.236 0 43.884 19.648 43.884 43.884s-19.648 43.884-43.884 43.884m175.535-234.047H43.906C19.67 204.814.022 185.166.022 160.93s19.648-43.884 43.884-43.884h936.187c24.236 0 43.884 19.648 43.884 43.884s-19.648 43.884-43.884 43.884m0 468.093H43.906c-24.236 0-43.884-19.648-43.884-43.884s19.648-43.884 43.884-43.884h936.187c24.236 0 43.884 19.648 43.884 43.884s-19.648 43.884-43.884 43.884M804.558 906.954H219.441c-24.236 0-43.884-19.648-43.884-43.884s19.648-43.884 43.884-43.884h585.117c24.236 0 43.884 19.648 43.884 43.884s-19.648 43.884-43.884 43.884"/></svg>