<svg xmlns="http://www.w3.org/2000/svg" viewBox="0 0 1024 1024"><path fill="currentColor" d="M980.093 438.861H43.906c-24.236 0-43.884-19.648-43.884-43.884s19.648-43.884 43.884-43.884h936.187c24.236 0 43.884 19.648 43.884 43.884s-19.648 43.884-43.884 43.884m0-234.047H43.906C19.67 204.814.022 185.166.022 160.93s19.648-43.884 43.884-43.884h936.187c24.236 0 43.884 19.648 43.884 43.884s-19.648 43.884-43.884 43.884m0 468.093H43.906c-24.236 0-43.884-19.648-43.884-43.884s19.648-43.884 43.884-43.884h936.187c24.236 0 43.884 19.648 43.884 43.884s-19.648 43.884-43.884 43.884m0 234.047H43.906C19.67 906.954.022 887.306.022 863.07s19.648-43.884 43.884-43.884h936.187c24.236 0 43.884 19.648 43.884 43.884s-19.648 43.884-43.884 43.884"/></svg>