<svg xmlns="http://www.w3.org/2000/svg" viewBox="0 0 1024 1024"><path fill="currentColor" d="M624.033 453.952H43.554C19.51 453.952.018 434.46.018 410.416S19.51 366.88 43.554 366.88h580.479c24.044 0 43.536 19.492 43.536 43.536s-19.492 43.536-43.536 43.536m356.413-232.191H51.68c-24.044 0-43.536-19.492-43.536-43.536s19.492-43.536 43.536-43.536h928.766c24.044 0 43.536 19.492 43.536 43.536s-19.492 43.536-43.536 43.536m0 464.382H51.68c-24.044 0-43.536-19.492-43.536-43.536s19.492-43.536 43.536-43.536h928.766c24.044 0 43.536 19.492 43.536 43.536s-19.492 43.536-43.536 43.536M624.033 918.335H43.554c-24.044 0-43.536-19.492-43.536-43.536s19.492-43.536 43.536-43.536h580.479c24.044 0 43.536 19.492 43.536 43.536s-19.492 43.536-43.536 43.536"/></svg>