<svg xmlns="http://www.w3.org/2000/svg" viewBox="0 0 1024 1024"><path fill="currentColor" d="M587.102 831.182h-.259c-15.47 0-29.463-6.321-39.534-16.519l-.004-.004c-10.173-10.194-16.472-24.266-16.472-39.803s6.29-29.611 16.472-39.809l225.304-225.304-225.304-225.304c-3.536-7.161-5.605-15.588-5.605-24.492 0-31.111 25.217-56.325 56.325-56.325 10.665 0 20.638 2.967 29.14 8.115l-.251-.143 262.858 262.858c10.173 10.194 16.472 24.266 16.472 39.803s-6.29 29.611-16.472 39.809l-262.858 258.35c-9.83 11.106-23.933 18.225-39.711 18.775l-.094.004zm-413.06 0c-15.029-1.181-28.228-8.178-37.495-18.716l-.053-.063c-8.9-9.92-14.342-23.099-14.342-37.554s5.442-27.63 14.391-37.603l-.045.053 225.304-225.304-225.304-225.304c-3.467-7.105-5.497-15.45-5.497-24.276 0-31.111 25.217-56.325 56.325-56.325 8.82 0 17.176 2.028 24.609 5.644l-.339-.145 262.858 262.858c10.173 10.194 16.472 24.266 16.472 39.803s-6.29 29.611-16.472 39.809l-262.858 258.35c-9.32 10.596-22.521 17.598-37.357 18.765l-.192.014z"/></svg>