<svg xmlns="http://www.w3.org/2000/svg" viewBox="0 0 1024 1024"><path fill="currentColor" d="M804.999 721.286h-.29c-17.244 0-32.838-7.04-44.069-18.415L509.491 451.722 258.348 702.865c-7.978 3.94-17.369 6.249-27.304 6.249-34.676 0-62.787-28.109-62.787-62.787 0-11.887 3.305-23 9.042-32.478l-.157.277 292.999-292.999c11.357-11.344 27.043-18.363 44.37-18.363s33.008 7.014 44.37 18.363L851.88 614.126c11.344 11.357 18.363 27.043 18.363 44.37s-7.014 33.008-18.363 44.37c-11.24 11.41-26.866 18.481-44.134 18.481q-1.448 0-2.88-.07l.133.002z"/></svg>