<svg xmlns="http://www.w3.org/2000/svg" viewBox="0 0 1024 1024"><path fill="currentColor" d="M377.809 837.894c-16.204-.566-30.605-7.836-40.589-19.11l-.054-.059c-10.396-10.404-16.822-24.776-16.822-40.643s6.424-30.235 16.822-40.645L567.21 507.393 337.166 277.349c-2.746-6.474-4.334-14.004-4.334-21.905 0-31.765 25.748-57.513 57.513-57.513 10.324 0 20.016 2.723 28.392 7.484l-.286-.149L686.835 473.65c10.396 10.406 16.822 24.773 16.822 40.643s-6.424 30.236-16.822 40.645L418.451 818.721c-10.036 11.334-24.433 18.607-40.543 19.164l-.096.006z"/></svg>