<svg xmlns="http://www.w3.org/2000/svg" viewBox="0 0 1024 1024"><path fill="currentColor" d="M645.785 836.904h-.264c-15.744 0-29.987-6.434-40.247-16.814l-267.57-267.57c-10.36-10.374-16.768-24.697-16.768-40.517s6.404-30.147 16.768-40.517l267.566-265.27c8.804-5.784 19.594-9.224 31.197-9.224 31.667 0 57.335 25.671 57.335 57.335 0 10.424-2.782 20.194-7.64 28.617l.144-.274-229.343 229.343 229.343 229.343c10.36 10.374 16.768 24.697 16.768 40.517s-6.404 30.147-16.768 40.517c-9.987 9.044-23.307 14.584-37.917 14.584q-1.37-.001-2.732-.064l.124.004z"/></svg>