<svg xmlns="http://www.w3.org/2000/svg" viewBox="0 0 1024 1024"><path fill="currentColor" d="M512 724.21h-.293c-17.487 0-33.3-7.139-44.687-18.671l-.006-.006-294.549-297.097c-6.421-9.779-10.246-21.757-10.246-34.639 0-35.163 28.506-63.662 63.662-63.662 11.573 0 22.424 3.091 31.773 8.485l-.306-.164 254.656 254.656L766.66 318.456c9.044-5.23 19.894-8.318 31.469-8.318 35.163 0 63.662 28.506 63.662 63.662 0 12.88-3.82 24.863-10.395 34.879l.149-.244-297.097 297.097c-10.874 11.029-25.782 18.05-42.325 18.671l-.112.002z"/></svg>