<?xml version="1.0" encoding="UTF-8" standalone="no"?>
<!DOCTYPE svg PUBLIC "-//W3C//DTD SVG 1.1//EN" "http://www.w3.org/Graphics/SVG/1.1/DTD/svg11.dtd">
<svg width="100%" height="100%" viewBox="0 0 1024 1024" version="1.1" xmlns="http://www.w3.org/2000/svg" xmlns:xlink="http://www.w3.org/1999/xlink" xml:space="preserve" xmlns:serif="http://www.serif.com/" style="fill-rule:evenodd;clip-rule:evenodd;stroke-linejoin:round;stroke-miterlimit:2;">
    <g transform="matrix(1.024,0,0,1.024,-1.06581e-14,-12.288)">
        <path d="M674.848,137C696.424,137 716.562,147.821 728.471,165.812L864.097,309.181C870.757,319.241 874.321,331.033 874.347,343.097L874.863,825.138C874.9,841.533 868.413,857.267 856.832,868.873C845.253,880.478 829.532,887 813.139,887L187.88,887C171.04,887 154.901,880.254 143.071,868.268C131.241,856.284 124.704,840.059 124.924,823.221C124.887,749.748 124.83,389.777 125,387.977C125.378,383.98 125.287,360.931 125.163,344.021C125.272,331.74 128.939,319.755 135.717,309.515C163.425,267.599 237.914,216.593 272.497,164.348C283.802,147.27 302.916,137 323.396,137L674.848,137ZM200.068,325.477L799.932,325.477L675.818,199.5L324.181,199.5L200.068,325.477ZM187.5,387.977L187.5,824.5L812.5,824.5L812.5,387.977L187.5,387.977ZM500,762L333,595L392,537L458,604L457.023,449.5L541.023,449.5L542,604L608,537L667,595L500,762Z"/>
    </g>
</svg>
