<svg xmlns="http://www.w3.org/2000/svg" viewBox="0 0 1024 1024"><path fill="currentColor" d="M218.4 901.95c-24.15 0-44.1-8.4-60.9-25.2-17.85-17.85-26.25-37.8-26.25-61.95V201.6c0-24.15 8.4-44.1 26.25-61.95 16.8-16.8 36.75-25.2 60.9-25.2h183.75c9.45-26.25 26.25-47.25 48.3-63C472.5 34.65 497.7 27.3 525 27.3s52.5 7.35 74.55 24.15c23.1 15.75 38.85 36.75 48.3 63H831.6c24.15 0 44.1 8.4 61.95 25.2 16.8 17.85 25.2 37.8 25.2 61.95v613.2c0 24.15-8.4 44.1-25.2 61.95-17.85 16.8-37.8 25.2-61.95 25.2zm0-87.15h613.2V201.6H218.4zm88.2-88.2h305.55v-87.15H306.6zm0-174.3h436.8v-88.2H306.6zm0-175.35h436.8V289.8H306.6zM525 169.05c9.45 0 17.85-3.15 23.1-9.45 6.3-6.3 9.45-13.65 9.45-23.1s-3.15-17.85-9.45-24.15c-5.25-6.3-13.65-8.4-23.1-8.4s-16.8 2.1-23.1 8.4-9.45 14.7-9.45 24.15 3.15 16.8 9.45 23.1 13.65 9.45 23.1 9.45M218.4 814.8V201.6z"/></svg>