<?xml version="1.0" encoding="UTF-8" standalone="no"?>
<!DOCTYPE svg PUBLIC "-//W3C//DTD SVG 1.1//EN" "http://www.w3.org/Graphics/SVG/1.1/DTD/svg11.dtd">
<svg width="100%" height="100%" viewBox="0 0 1024 1024" version="1.1" xmlns="http://www.w3.org/2000/svg" xmlns:xlink="http://www.w3.org/1999/xlink" xml:space="preserve" xmlns:serif="http://www.serif.com/" style="fill-rule:evenodd;clip-rule:evenodd;stroke-linejoin:round;stroke-miterlimit:2;">
    <g transform="matrix(0.975238,0,0,0.975238,1.75859e-13,16.384)">
        <path d="M218.4,901.95C194.25,901.95 174.3,893.55 157.5,876.75C139.65,858.9 131.25,838.95 131.25,814.8L131.25,201.6C131.25,177.45 139.65,157.5 157.5,139.65C174.3,122.85 194.25,114.45 218.4,114.45L402.15,114.45C411.6,88.2 428.4,67.2 450.45,51.45C472.5,34.65 497.7,27.3 525,27.3C552.3,27.3 577.5,34.65 599.55,51.45C622.65,67.2 638.4,88.2 647.85,114.45L831.6,114.45C855.75,114.45 875.7,122.85 893.55,139.65C910.35,157.5 918.75,177.45 918.75,201.6L918.75,814.8C918.75,838.95 910.35,858.9 893.55,876.75C875.7,893.55 855.75,901.95 831.6,901.95L218.4,901.95ZM525,145.466C534.45,145.466 542.85,142.316 548.1,136.016C554.4,129.716 557.55,122.366 557.55,112.916C557.55,103.466 554.4,95.066 548.1,88.766C542.85,82.466 534.45,80.366 525,80.366C515.55,80.366 508.2,82.466 501.9,88.766C495.6,95.066 492.45,103.466 492.45,112.916C492.45,122.366 495.6,129.716 501.9,136.016C508.2,142.316 515.55,145.466 525,145.466ZM196.875,836.325L853.125,836.325L853.125,180.075L196.875,180.075L196.875,836.325ZM754.688,409.762L754.688,475.387L295.312,475.387L295.312,409.762L754.688,409.762ZM754.688,278.512L754.688,344.137L295.312,344.137L295.312,278.512L754.688,278.512ZM590.625,672.263L590.625,737.888L295.312,737.888L295.312,672.263L590.625,672.263ZM754.688,541.012L754.688,606.637L295.312,606.637L295.312,541.012L754.688,541.012Z"/>
    </g>
</svg>
