<svg xmlns="http://www.w3.org/2000/svg" viewBox="0 0 1024 1024"><path fill="currentColor" d="M561.548 49.548C561.548 22.183 539.365 0 512 0s-49.548 22.184-49.548 49.548V426.18L136.279 237.864C112.58 224.181 82.277 232.301 68.594 256s-5.563 54.002 18.136 67.684L412.902 512 86.73 700.316C63.031 713.998 54.911 744.302 68.594 768s43.986 31.817 67.685 18.139l326.173-188.32v376.634c0 27.363 22.183 49.547 49.548 49.547s49.548-22.184 49.548-49.547V597.821L887.721 786.14c23.698 13.678 54.001 5.559 67.686-18.139 13.678-23.698 5.559-54.002-18.139-67.684L611.095 512.001l326.173-188.316c23.698-13.682 31.817-43.986 18.139-67.684-13.685-23.698-43.988-31.819-67.686-18.136L561.548 426.18z"/></svg>