<svg xmlns="http://www.w3.org/2000/svg" xml:space="preserve" svgo-fixed viewBox="0 0 1024 1024"><path d="M180 772h-80a36 36 0 0 1 0-73s83-24 83-314c0-202 135-321 329-321 113 0 204 41 259 116L878 73l45 46-119 119h1l-57 57v-1L343 699l-72 73h-1L146 896l-45-45zm540-541c-42-66-114-103-208-103-151 0-256 99-256 257 0 157-11 262-46 314h42zm105 77q7 36 7 77c0 285 88 314 93 314h-1a36 36 0 0 1 0 73H681v1c-16 83-82 129-169 129-83 0-144-41-165-115l87-88h380c-35-52-55-153-55-314v-11zM512 829c47-1 79-15 94-57H419v1c15 41 46 55 93 56"/></svg>