<svg xmlns="http://www.w3.org/2000/svg" viewBox="0 0 1024 1024"><path fill="currentColor" d="M983.875 747.107c-4.979 0-116.724-19.915-116.724-345.747 0-230.128-133.873-373.406-355.151-373.406S156.849 171.232 156.849 401.36c0 331.917-115.617 345.747-115.065 345.747-22.914 0-41.49 18.576-41.49 41.49s18.576 41.49 41.49 41.49h267.193C328.288 925.955 411.831 997.14 512 997.14s183.711-71.186 202.798-165.727l.223-1.325h267.746c22.914 0 41.49-18.576 41.49-41.49s-18.576-41.49-41.49-41.49zM512 913.065c-53.673-.105-99.33-34.318-116.453-82.114l-.271-.865h233.448c-17.395 48.661-63.05 82.874-116.711 82.979zM166.807 747.107c39.83-60.299 73.022-165.958 73.022-345.747s99.575-290.427 272.172-290.427 272.172 105.66 272.172 290.427 33.192 285.448 73.022 345.747z"/></svg>