<?xml version="1.0" encoding="UTF-8" standalone="no"?>
<!DOCTYPE svg PUBLIC "-//W3C//DTD SVG 1.1//EN" "http://www.w3.org/Graphics/SVG/1.1/DTD/svg11.dtd">
<svg width="100%" height="100%" viewBox="0 0 1024 1024" version="1.1" xmlns="http://www.w3.org/2000/svg" xmlns:xlink="http://www.w3.org/1999/xlink" xml:space="preserve" xmlns:serif="http://www.serif.com/" style="fill-rule:evenodd;clip-rule:evenodd;stroke-linejoin:round;stroke-miterlimit:2;">
    <g transform="matrix(0.875032,0,0,0.875032,63.7427,45.5394)">
        <path d="M983.875,747.107L982.767,747.108C1005.68,747.108 1024.26,765.684 1024.26,788.598C1024.26,811.512 1005.68,830.088 982.767,830.088L705.878,830.088L705.655,831.413C686.568,925.954 612.169,978.855 512,978.855C411.831,978.855 338.573,925.955 319.262,830.087L41.784,830.087C18.87,830.087 0.294,811.511 0.294,788.597C0.294,765.683 18.87,747.107 41.784,747.107C41.232,747.107 136.735,719.563 136.735,387.646C136.735,157.518 290.722,21.097 512,21.097C733.278,21.097 877.977,157.518 877.977,387.646C877.977,713.478 978.896,747.107 983.875,747.107ZM512,894.78L512.013,894.78C565.674,894.675 602.186,878.747 619.581,830.086L405.561,830.086L405.832,830.951C422.955,878.747 458.327,894.675 512,894.78ZM166.807,747.107L857.195,747.107C817.365,686.808 794.999,572.413 794.999,387.646C794.999,202.879 684.598,94.237 512.001,94.237C339.404,94.237 219.715,207.857 219.715,387.646C219.715,567.435 206.637,686.808 166.807,747.107Z"/>
    </g>
</svg>
