<?xml version="1.0" encoding="UTF-8" standalone="no"?>
<!DOCTYPE svg PUBLIC "-//W3C//DTD SVG 1.1//EN" "http://www.w3.org/Graphics/SVG/1.1/DTD/svg11.dtd">
<svg width="100%" height="100%" viewBox="0 0 1024 1024" version="1.1" xmlns="http://www.w3.org/2000/svg" xmlns:xlink="http://www.w3.org/1999/xlink" xml:space="preserve" xmlns:serif="http://www.serif.com/" style="fill-rule:evenodd;clip-rule:evenodd;stroke-linejoin:round;stroke-miterlimit:2;">
    <g transform="matrix(0.875032,0,0,0.875032,63.7427,45.5394)">
        <path d="M132.335,830.087L41.784,830.087C18.87,830.087 0.294,811.511 0.294,788.597C0.294,765.683 18.87,747.107 41.784,747.107C41.232,747.107 136.735,719.563 136.735,387.646C136.735,157.518 290.722,21.097 512,21.097C641.952,21.097 745.492,68.148 808.822,153.599L930.613,31.808L982.331,83.526L846.372,219.485C846.464,219.7 846.555,219.915 846.646,220.13L781.801,284.976C781.734,284.736 781.667,284.497 781.599,284.259L318.751,747.107L319.669,747.107L236.689,830.087L235.771,830.087L93.938,971.92L42.22,920.202L132.335,830.087ZM750.138,212.283C702.485,136.187 619.251,94.237 512.001,94.237C339.404,94.237 219.715,207.857 219.715,387.646C219.715,567.435 206.637,686.808 166.807,747.107L215.315,747.107L750.138,212.283ZM870.281,299.932C875.356,327.403 877.977,356.676 877.977,387.646C877.977,713.478 978.896,747.107 983.875,747.107L982.767,747.108C1005.68,747.108 1024.26,765.684 1024.26,788.598C1024.26,811.512 1005.68,830.088 982.767,830.088L705.878,830.088L705.655,831.413C686.568,925.954 612.169,978.855 512,978.855C417.847,978.855 347.47,932.118 323.32,846.893L423.105,747.107L857.195,747.107C817.365,686.808 794.999,572.413 794.999,387.646C794.999,383.519 794.943,379.429 794.834,375.378L870.281,299.932ZM512,894.78L512.013,894.78C565.674,894.675 602.186,878.747 619.581,830.086L405.561,830.086L405.832,830.951C422.955,878.747 458.327,894.675 512,894.78Z"/>
    </g>
</svg>
