<?xml version="1.0" encoding="UTF-8" standalone="no"?>
<!DOCTYPE svg PUBLIC "-//W3C//DTD SVG 1.1//EN" "http://www.w3.org/Graphics/SVG/1.1/DTD/svg11.dtd">
<svg width="100%" height="100%" viewBox="0 0 1024 1024" version="1.1" xmlns="http://www.w3.org/2000/svg" xmlns:xlink="http://www.w3.org/1999/xlink" xml:space="preserve" xmlns:serif="http://www.serif.com/" style="fill-rule:evenodd;clip-rule:evenodd;stroke-linejoin:round;stroke-miterlimit:2;">
    <g transform="matrix(0.841347,0,0,0.874999,81.2308,64.0009)">
        <path d="M848.457,1024C839.094,1023.81 830.424,1021 823.105,1016.28L823.296,1016.39L512,799.304L200.704,1016.39C194.203,1020.41 186.322,1022.79 177.883,1022.79C169.444,1022.79 161.563,1020.41 154.873,1016.28L155.062,1016.39C141.662,1009.38 132.488,995.905 131.661,980.22L131.657,980.113L131.657,146.285C131.657,57.415 203.701,-0.001 292.571,-0.001L731.428,-0.001C820.298,-0.001 892.342,57.415 892.342,146.285L892.342,980.272C892.342,996.918 882.949,1011.37 869.173,1018.62L868.936,1018.73C863.025,1022.04 855.971,1023.99 848.459,1024L848.455,1024L848.457,1024Z" style="fill-rule:nonzero;"/>
    </g>
</svg>
