<?xml version="1.0" encoding="UTF-8" standalone="no"?>
<!DOCTYPE svg PUBLIC "-//W3C//DTD SVG 1.1//EN" "http://www.w3.org/Graphics/SVG/1.1/DTD/svg11.dtd">
<svg width="100%" height="100%" viewBox="0 0 1024 1024" version="1.1" xmlns="http://www.w3.org/2000/svg" xmlns:xlink="http://www.w3.org/1999/xlink" xml:space="preserve" xmlns:serif="http://www.serif.com/" style="fill-rule:evenodd;clip-rule:evenodd;stroke-linejoin:round;stroke-miterlimit:2;">
    <g transform="matrix(0.846918,0,0,0.875019,78.3782,63.9799)">
        <path d="M921.533,0.085L921.531,0.088L921.563,0.088C945.631,0.412 965.084,19.865 965.408,43.965L965.408,980.067C965.084,1004.13 945.631,1023.59 921.531,1023.91C921.531,1023.91 227.116,1024 225.229,1024C135.169,1024 61.787,952.599 58.591,863.027L58.591,146.306C61.15,70.036 132.835,0.023 209.727,0.023C211.118,0.024 921.533,0.085 921.533,0.085ZM889.84,950.86L889.84,804.577C889.84,804.577 227.047,804.565 225.124,804.565C183.495,804.565 134.159,825.279 134.159,877.718C134.159,930.158 183.495,951.205 225.124,951.205C227.047,951.205 889.84,950.86 889.84,950.86ZM889.84,731.436L889.84,73.164C889.84,73.164 211.048,73.171 209.727,73.164C172.775,72.963 129.288,118.042 134.159,146.306L134.159,761.498C149.197,738.431 194.571,729.714 230.593,728.426L889.84,731.436ZM324.221,512.012C299.99,512.012 285.295,500.123 285.295,475.892C285.295,451.661 299.986,438.872 324.221,438.872L697.413,438.872C721.644,438.872 738.704,451.661 738.704,475.892C738.704,500.123 721.648,512.012 697.413,512.012L324.221,512.012ZM324.221,365.728C299.99,365.728 285.295,353.839 285.295,329.608C285.295,305.377 299.986,292.588 324.221,292.588L697.413,292.588C721.644,292.588 738.704,305.377 738.704,329.608C738.704,353.839 721.648,365.728 697.413,365.728L324.221,365.728Z"/>
    </g>
</svg>
