<svg xmlns="http://www.w3.org/2000/svg" viewBox="0 0 1024 1024"><path fill="currentColor" d="M921.533.085H204.851a144 144 0 0 0-4.171-.062c-76.892 0-139.525 61.042-142.084 137.312l-.005.236v725.456c3.196 89.572 76.578 160.974 166.638 160.974q2.83 0 5.636-.094l-.273.005h690.939c24.1-.324 43.553-19.777 43.877-43.845V43.965c-.324-24.1-19.777-43.553-43.845-43.877h-.032zm-43.881 936.073H230.593c-1.635.122-3.546.19-5.469.19-41.629 0-75.733-32.206-78.764-73.058l-.015-.26c3.043-41.116 37.15-73.322 78.779-73.322 1.923 0 3.834.068 5.723.205l-.254-.015h647.059zm0-234.017H230.593c-30.908.035-59.934 8.052-85.138 22.102l.893-.458V137.571c2.714-28.081 26.19-49.857 54.753-49.857q1.981 0 3.925.14l-.175-.011h672.802zM321.859 321.859h380.277c24.235 0 43.877-19.646 43.877-43.877s-19.646-43.877-43.877-43.877H321.859c-24.235 0-43.877 19.646-43.877 43.877s19.646 43.877 43.877 43.877m0 204.767h380.277c24.235 0 43.877-19.646 43.877-43.877s-19.646-43.877-43.877-43.877H321.859c-24.235 0-43.877 19.646-43.877 43.877s19.646 43.877 43.877 43.877"/></svg>