<svg xmlns="http://www.w3.org/2000/svg" viewBox="0 0 1024 1024"><path fill="currentColor" d="M848.457 1024c-9.363-.189-18.033-2.998-25.352-7.723l.191.115L512 799.304l-311.296 217.088c-6.501 4.018-14.382 6.4-22.821 6.4s-16.32-2.381-23.01-6.509l.189.108c-13.4-7.013-22.574-20.486-23.401-36.171l-.004-.107v-819.2c0-88.87 72.044-160.914 160.914-160.914h438.857c88.87 0 160.914 72.044 160.914 160.914v819.359c0 16.646-9.393 31.099-23.169 38.347l-.237.114c-5.911 3.304-12.965 5.254-20.477 5.266h-.004zM512 702.172c.137-.001.3-.003.464-.003a43.7 43.7 0 0 1 24.846 7.706l-.148-.096 267.411 186.075V160.915c0-40.395-32.747-73.142-73.142-73.142H292.574c-40.395 0-73.142 32.747-73.142 73.142v734.939l267.411-186.075c6.916-4.764 15.475-7.609 24.698-7.609q.244 0 .488.003h-.025z"/></svg>