<svg xmlns="http://www.w3.org/2000/svg" viewBox="0 0 1024 1024"><path fill="currentColor" d="M250 887c-31 0-62-8-93-23-30-15-55-35-74-60 18 0 37-8 56-22 18-14 28-35 28-62 0-34 12-64 36-88 24-25 54-37 89-37 34 0 64 12 88 37 25 24 37 54 37 88 0 46-17 85-49 118-33 33-72 49-118 49m0-83c23 0 43-9 59-25s24-36 24-59c0-12-4-21-12-29s-17-12-29-12q-18 0-30 12c-8 8-12 17-12 29 0 16-2 31-6 44-3 13-9 26-15 38 4 1 7 2 11 2zm240-167L375 522l373-373c8-7 17-11 29-12 11 0 21 4 29 12l57 57c8 8 12 18 12 29s-4 21-12 29z"/></svg>