<svg xmlns="http://www.w3.org/2000/svg" viewBox="0 0 1024 1024"><path fill="currentColor" d="M518.376 136.724a13.13 13.13 0 0 0-12.751 0L58.518 385.116c-19.014 10.563-42.991 3.713-53.554-15.301s-3.713-42.991 15.301-53.554L467.372 67.868a91.9 91.9 0 0 1 89.257 0l447.103 248.393c19.017 10.563 25.871 34.54 15.301 53.554-10.562 19.013-34.538 25.864-53.548 15.301zM367.592 350.689c0-21.751 17.633-39.385 39.384-39.385h210.049c21.751 0 39.384 17.633 39.384 39.385s-17.633 39.384-39.384 39.384H406.976c-21.751 0-39.384-17.633-39.384-39.384M196.928 468.841c21.751 0 39.385 17.633 39.385 39.384v262.562c0 21.753-17.633 39.38-39.385 39.38s-39.384-17.627-39.384-39.38V508.225c0-21.751 17.633-39.384 39.384-39.384m210.048 0c21.751 0 39.384 17.633 39.384 39.384v262.562c0 21.753-17.633 39.38-39.384 39.38s-39.385-17.627-39.385-39.38V508.225c0-21.751 17.633-39.384 39.385-39.384m210.048 0c21.751 0 39.385 17.633 39.385 39.384v262.562c0 21.753-17.633 39.38-39.385 39.38s-39.384-17.627-39.384-39.38V508.225c0-21.751 17.633-39.384 39.384-39.384m210.046 0c21.753 0 39.387 17.633 39.387 39.384v262.562c0 21.753-17.635 39.38-39.387 39.38-21.745 0-39.38-17.627-39.38-39.38V508.225c0-21.751 17.635-39.384 39.38-39.384M105.032 928.322c0-21.753 17.633-39.387 39.384-39.387h735.171c21.753 0 39.38 17.635 39.38 39.387s-17.627 39.38-39.38 39.38H144.416c-21.751 0-39.384-17.627-39.384-39.38"/></svg>