<svg xmlns="http://www.w3.org/2000/svg" viewBox="0 0 1024 1024"><path fill="currentColor" d="M512 85.33C276.356 85.33 85.33 276.356 85.33 512S276.356 938.672 512 938.672 938.672 747.645 938.672 512 747.645 85.33 512 85.33M0 512C0 229.23 229.23 0 512 0s512 229.23 512 512-229.23 512-512 512S0 794.77 0 512m511.977-248.901c-137.452 0-248.878 111.427-248.878 248.878s111.427 248.877 248.878 248.877c137.452 0 248.877-111.425 248.877-248.877S649.429 263.099 511.977 263.099M177.77 511.977c0-184.577 149.63-334.207 334.207-334.207S846.182 327.4 846.182 511.977 696.554 846.182 511.977 846.182 177.77 696.554 177.77 511.977m263.099 0c0-39.272 31.836-71.108 71.108-71.108s71.108 31.836 71.108 71.108-31.836 71.108-71.108 71.108-71.108-31.836-71.108-71.108m71.108-156.437c-86.398 0-156.437 70.039-156.437 156.437s70.039 156.437 156.437 156.437 156.437-70.039 156.437-156.437S598.375 355.54 511.977 355.54"/></svg>