<svg xmlns="http://www.w3.org/2000/svg" xml:space="preserve" svgo-fixed="true" viewBox="0 0 1024 1024"><path fill="currentColor" d="M696 315H328c-14 0-26-11-26-26v-79c0-15 12-26 26-26h368c14 0 26 11 26 26v79c0 15-12 26-26 26m26 158v-53c0-15-12-26-26-26h-53c-14 0-26 11-26 26v53c0 14 12 26 26 26h53c14 0 26-12 26-26m-315 0v-53c0-15-12-26-26-26h-53c-14 0-26 11-26 26v53c0 14 12 26 26 26h53c14 0 26-12 26-26m158 0v-53c0-15-12-26-27-26h-52c-15 0-27 11-27 26v53c0 14 12 26 27 26h52c15 0 27-12 27-26m157 170v-52c0-15-12-26-26-26h-53c-14 0-26 11-26 26v52c0 15 12 27 26 27h53c14 0 26-12 26-27m-315 0v-52c0-15-12-26-26-26h-53c-14 0-26 11-26 26v52c0 15 12 27 26 27h53c14 0 26-12 26-27m158 0v-52c0-15-12-26-27-26h-52c-15 0-27 11-27 26v52c0 15 12 27 27 27h52c15 0 27-12 27-27m157 171v-53c0-14-12-26-26-26h-53c-14 0-26 12-26 26v53c0 15 12 26 26 26h53c14 0 26-11 26-26m-157 0v-53c0-14-12-26-27-26H328c-14 0-26 12-26 26v53c0 15 12 26 26 26h210c15 0 27-11 27-26m328 92V118C893 53 840 0 775 0H249c-65 0-118 53-118 118v788c0 65 53 118 118 118h526c65 0 118-53 118-118M775 79c21 0 39 18 39 39v788c0 21-18 39-39 39H249c-21 0-39-18-39-39V118c0-21 18-39 39-39z"/></svg>