<svg xmlns="http://www.w3.org/2000/svg" viewBox="0 0 1024 1024"><path fill="currentColor" d="M695.789 315.083H328.21c-14.704 0-26.255-11.553-26.255-26.255v-78.767c0-14.704 11.553-26.255 26.255-26.255h367.579c14.704 0 26.255 11.553 26.255 26.255v78.767c0 14.704-11.553 26.255-26.255 26.255m26.256 157.534v-52.512c0-14.704-11.553-26.255-26.255-26.255h-52.512c-14.704 0-26.255 11.553-26.255 26.255v52.512c0 14.704 11.553 26.255 26.255 26.255h52.512c14.704 0 26.255-11.553 26.255-26.255m-315.067 0v-52.512c0-14.704-11.553-26.255-26.255-26.255h-52.512c-14.704 0-26.255 11.553-26.255 26.255v52.512c0 14.704 11.553 26.255 26.255 26.255h52.512c14.704 0 26.255-11.553 26.255-26.255m157.534 0v-52.512c0-14.704-11.553-26.255-26.255-26.255h-52.512c-14.704 0-26.255 11.553-26.255 26.255v52.512c0 14.704 11.553 26.255 26.255 26.255h52.512c14.704 0 26.255-11.553 26.255-26.255m157.533 170.661v-52.512c0-14.704-11.553-26.255-26.255-26.255h-52.512c-14.704 0-26.255 11.553-26.255 26.255v52.512c0 14.704 11.553 26.255 26.255 26.255h52.512c14.704 0 26.255-11.553 26.255-26.255m-315.067 0v-52.512c0-14.704-11.553-26.255-26.255-26.255h-52.512c-14.704 0-26.255 11.553-26.255 26.255v52.512c0 14.704 11.553 26.255 26.255 26.255h52.512c14.704 0 26.255-11.553 26.255-26.255m157.534 0v-52.512c0-14.704-11.553-26.255-26.255-26.255h-52.512c-14.704 0-26.255 11.553-26.255 26.255v52.512c0 14.704 11.553 26.255 26.255 26.255h52.512c14.704 0 26.255-11.553 26.255-26.255m157.533 170.661v-52.512c0-14.704-11.553-26.255-26.255-26.255h-52.512c-14.704 0-26.255 11.553-26.255 26.255v52.512c0 14.704 11.553 26.255 26.255 26.255h52.512c14.704 0 26.255-11.553 26.255-26.255m-157.533 0v-52.512c0-14.704-11.553-26.255-26.255-26.255H328.212c-14.704 0-26.255 11.553-26.255 26.255v52.512c0 14.704 11.553 26.255 26.255 26.255h210.045c14.704 0 26.255-11.553 26.255-26.255m328.194 91.895V118.166c0-65.114-53.036-118.15-118.15-118.15H249.443c-65.114 0-118.15 53.036-118.15 118.15v787.668c0 65.114 53.036 118.15 118.15 118.15h525.113c65.114 0 118.15-53.036 118.15-118.15M774.556 78.782c21.529 0 39.383 17.854 39.383 39.383v787.668c0 21.529-17.854 39.383-39.383 39.383H249.443c-21.529 0-39.383-17.854-39.383-39.383V118.165c0-21.529 17.854-39.383 39.383-39.383z"/></svg>