<svg xmlns="http://www.w3.org/2000/svg" viewBox="0 0 1024 1024"><path fill="currentColor" d="M788.745 110.712h-69.186V41.526c0-22.926-18.586-41.512-41.512-41.512S636.535 18.6 636.535 41.526v69.186H387.464V41.526c0-22.926-18.586-41.512-41.512-41.512S304.44 18.6 304.44 41.526v69.186h-69.186c-84.063 0-152.209 68.147-152.209 152.209V871.76c0 84.063 68.147 152.209 152.209 152.209h553.491c84.063 0 152.209-68.147 152.209-152.209V262.921c0-84.063-68.147-152.209-152.209-152.209m-553.49 83.023h69.186v69.186c0 22.926 18.586 41.512 41.512 41.512s41.512-18.586 41.512-41.512v-69.186h249.071v69.186c0 22.926 18.586 41.512 41.512 41.512s41.512-18.586 41.512-41.512v-69.186h69.186c38.21 0 69.186 30.976 69.186 69.186V415.13H166.07V262.921c0-38.21 30.976-69.186 69.186-69.186zm553.49 747.212H235.254c-38.21 0-69.186-30.976-69.186-69.186V498.155H857.93v373.606c0 38.21-30.976 69.186-69.186 69.186z"/></svg>