<svg xmlns="http://www.w3.org/2000/svg" viewBox="0 0 1024 1024"><path fill="currentColor" d="M46.545 1024C20.978 1023.655.344 1003.021 0 977.488V46.545C0 20.839 20.839 0 46.545 0S93.09 20.839 93.09 46.545v930.909c-.345 25.567-20.979 46.201-46.512 46.545zm930.91 0H46.546C20.84 1024 .001 1003.161.001 977.455S20.84 930.91 46.546 930.91h930.909c25.706 0 46.545 20.839 46.545 46.545S1003.161 1024 977.455 1024M263.757 806.788c-25.567-.345-46.201-20.979-46.545-46.512V512c0-25.706 20.839-46.545 46.545-46.545s46.545 20.839 46.545 46.545v248.243c-.345 25.567-20.979 46.201-46.512 46.545zm217.213 0c-25.567-.345-46.201-20.979-46.545-46.512V263.758c0-25.706 20.839-46.545 46.545-46.545s46.545 20.839 46.545 46.545v496.484c-.345 25.567-20.979 46.201-46.512 46.545zm217.212 0c-25.567-.345-46.201-20.979-46.545-46.512V512c0-25.706 20.839-46.545 46.545-46.545s46.545 20.839 46.545 46.545v248.243c-.345 25.567-20.979 46.201-46.512 46.545zm217.211 0c-25.567-.345-46.201-20.979-46.545-46.512V263.758c0-25.706 20.839-46.545 46.545-46.545s46.545 20.839 46.545 46.545v496.484c-.345 25.567-20.979 46.201-46.512 46.545z"/></svg>