<svg xmlns="http://www.w3.org/2000/svg" xml:space="preserve" svgo-fixed="true" viewBox="0 0 1024 1024"><path fill="currentColor" d="M47 1024c-26 0-47-21-47-47V47a47 47 0 0 1 93 0v930c0 26-21 47-46 47m930 0H47a47 47 0 0 1 0-93h930a47 47 0 0 1 0 93M264 807c-26-1-46-21-47-47V512a47 47 0 0 1 93 0v248c0 26-21 46-46 47m217 0c-26-1-46-21-47-47V264a47 47 0 0 1 94 0v496c-1 26-21 46-47 47m217 0c-25-1-46-21-46-47V512a47 47 0 0 1 93 0v248c-1 26-21 46-47 47m217 0c-25-1-46-21-46-47V264a47 47 0 0 1 93 0v496c0 26-21 46-47 47"/></svg>