<svg xmlns="http://www.w3.org/2000/svg" xml:space="preserve" svgo-fixed="true" viewBox="0 0 1024 1024"><path fill="currentColor" d="M47 1024c-26 0-47-21-47-47V47a47 47 0 0 1 93 0v930c0 26-21 47-46 47m930 0H47a47 47 0 0 1 0-93h930a47 47 0 0 1 0 93M636 683q-19-1-33-14L450 516 297 669a46 46 0 0 1-32 13 47 47 0 0 1-34-79l186-186a46 46 0 0 1 66 0l153 153 215-215a46 46 0 0 1 32-13 47 47 0 0 1 34 79L669 669q-13 13-33 14m279-57c-25 0-46-21-46-46V403H698a47 47 0 0 1 0-93h217c26 1 47 21 47 47v223c0 25-21 46-47 46"/></svg>