<svg xmlns="http://www.w3.org/2000/svg" viewBox="0 0 1024 1024"><path fill="currentColor" d="M589.605 64.373V46.369C589.26 20.793 568.618.151 543.075-.194h-.033C242.669 1.6-.137 245.514-.137 546.137c0 98.823 26.237 191.517 72.126 271.496l-1.409-2.663c8.24 13.842 23.126 22.972 40.145 22.972h.221-.012a45.73 45.73 0 0 0 23.186-6.325l-.215.116 18.004-9.313c88.223 122.529 230.468 201.375 391.129 201.375 265.391 0 480.531-215.14 480.531-480.531 0-248.992-189.376-453.753-431.953-478.105l-2.014-.163zm-93.127 31.043v420.93L130.802 726.19c-24.009-53.406-37.995-115.765-37.995-181.391 0-232.603 175.709-424.166 401.636-449.201l2.036-.183zm46.564 835.652c-126.56-.365-238.867-61.07-309.71-154.848l-.712-.982 333.392-191.84c14.165-7.849 23.596-22.711 23.596-39.775q0-.305-.004-.611v.031-384.921c192.214 25.131 339.099 187.876 339.099 384.928 0 213.47-172.379 386.677-385.534 388.018h-.128z"/></svg>