<svg xmlns="http://www.w3.org/2000/svg" viewBox="0 0 1024 1024"><path fill="currentColor" d="M46.545 1024C20.978 1023.655.344 1003.021 0 977.488V46.545C0 20.839 20.839 0 46.545 0S93.09 20.839 93.09 46.545v930.909c-.345 25.567-20.979 46.201-46.512 46.545zm930.91 0H46.546C20.84 1024 .001 1003.161.001 977.455S20.84 930.91 46.546 930.91h930.909c25.706 0 46.545 20.839 46.545 46.545S1003.161 1024 977.455 1024M636.121 682.666h-.217c-12.783 0-24.345-5.222-32.671-13.649L449.938 515.722l-153.29 153.29a46.36 46.36 0 0 1-31.731 12.492c-25.706 0-46.545-20.839-46.545-46.545 0-12.276 4.752-23.441 12.518-31.759l-.025.028 186.182-186.182c8.42-8.41 20.049-13.613 32.892-13.613s24.471 5.201 32.893 13.613l153.29 153.29 215.35-215.35a46.36 46.36 0 0 1 31.731-12.492c25.706 0 46.545 20.839 46.545 46.545 0 12.276-4.752 23.441-12.518 31.759l.025-.028-248.243 248.243c-8.33 8.432-19.892 13.654-32.675 13.654h-.228zm279.272-56.474c-25.567-.345-46.201-20.979-46.545-46.512V403.395H698.182c-25.706 0-46.545-20.839-46.545-46.545s20.839-46.545 46.545-46.545h217.212c25.567.345 46.201 20.979 46.545 46.512v222.831c-.345 25.567-20.979 46.201-46.512 46.545z"/></svg>