<svg xmlns="http://www.w3.org/2000/svg" viewBox="0 0 1024 1024"><path fill="currentColor" d="M863.086 1024H160.915C72.045 1024 .001 951.956.001 863.086V160.915C.001 72.045 72.045.001 160.915.001h518.437c24.237 0 43.886 19.648 43.886 43.886s-19.648 43.886-43.886 43.886H160.915c-40.395 0-73.142 32.747-73.142 73.142v702.171c0 40.395 32.747 73.142 73.142 73.142h702.171c40.395 0 73.142-32.747 73.142-73.142V411.941c0-24.237 19.648-43.886 43.886-43.886S1024 387.703 1024 411.941v451.145c0 88.87-72.044 160.914-160.914 160.914M424.229 702.172c-11.709-.922-21.992-6.372-29.216-14.581l-.041-.048L219.429 512c-2.703-5.532-4.284-12.038-4.284-18.913 0-24.237 19.648-43.886 43.886-43.886a43.7 43.7 0 0 1 19.174 4.4l-.261-.114 144.531 144.531 499.127-495.616c5.532-2.703 12.038-4.284 18.913-4.284 24.237 0 43.886 19.648 43.886 43.886a43.7 43.7 0 0 1-4.4 19.174l.114-.261-526.629 526.629c-7.264 8.256-17.547 13.707-29.107 14.619l-.151.01z"/></svg>