<?xml version="1.0" encoding="UTF-8" standalone="no"?>
<!DOCTYPE svg PUBLIC "-//W3C//DTD SVG 1.1//EN" "http://www.w3.org/Graphics/SVG/1.1/DTD/svg11.dtd">
<svg width="100%" height="100%" viewBox="0 0 1024 1024" version="1.1" xmlns="http://www.w3.org/2000/svg" xmlns:xlink="http://www.w3.org/1999/xlink" xml:space="preserve" xmlns:serif="http://www.serif.com/" style="fill-rule:evenodd;clip-rule:evenodd;stroke-linejoin:round;stroke-miterlimit:2;">
    <g transform="matrix(0.975238,0,0,0.975238,5.32907e-15,16.384)">
        <path d="M918.75,376.95L918.75,836.433C918.75,853.809 911.847,870.474 899.56,882.76C887.274,895.047 870.609,901.95 853.233,901.95L196.458,901.95C160.445,901.95 131.25,872.755 131.25,836.742L131.25,179.344C131.25,143.504 160.304,114.45 196.144,114.45L721.875,114.45L721.875,180.075L196.875,180.075L196.875,836.325L853.125,836.325L853.125,376.95L918.75,376.95ZM457.5,654.45C448.495,653.741 440.587,649.55 435.031,643.237L435,643.2L300,508.2C297.921,503.945 296.705,498.942 296.705,493.655C296.705,475.015 311.815,459.904 330.455,459.904C335.564,459.897 340.607,461.054 345.201,463.288L345,463.201L456.151,574.351L840.001,193.201C844.256,191.122 849.259,189.906 854.546,189.906C873.186,189.906 888.297,205.016 888.297,223.657C888.304,228.765 887.147,233.808 884.913,238.402L885.001,238.201L480,643.202C474.413,649.551 466.505,653.743 457.615,654.445L457.499,654.453L457.5,654.45Z"/>
    </g>
</svg>
