<?xml version="1.0" encoding="UTF-8" standalone="no"?>
<!DOCTYPE svg PUBLIC "-//W3C//DTD SVG 1.1//EN" "http://www.w3.org/Graphics/SVG/1.1/DTD/svg11.dtd">
<svg width="100%" height="100%" viewBox="0 0 1024 1024" version="1.1" xmlns="http://www.w3.org/2000/svg" xmlns:xlink="http://www.w3.org/1999/xlink" xml:space="preserve" xmlns:serif="http://www.serif.com/" style="fill-rule:evenodd;clip-rule:evenodd;stroke-linejoin:round;stroke-miterlimit:2;">
    <g transform="matrix(0.875,0,0,0.875,64,64)">
        <path d="M512,1024C229.231,1024 0,794.769 0,512C0,229.231 229.231,0 512,0C794.769,0 1024,229.231 1024,512C1024,794.769 794.769,1024 512,1024M512,73.143C276.359,73.143 73.143,276.358 73.143,512C73.143,747.642 276.358,950.847 512,950.847C747.642,950.847 950.857,747.642 950.857,512C950.857,276.358 747.642,73.143 512,73.143M512,668.444L511.801,668.444C500.084,668.444 489.485,663.657 481.853,655.932L254.293,428.372C246.922,420.486 242.825,410.08 242.842,399.285C242.842,375.721 261.945,356.618 285.509,356.618C296.762,356.618 306.997,360.974 314.621,368.093L314.596,368.07L512,565.474L709.404,368.07C717.29,360.699 727.696,356.602 738.491,356.619C762.055,356.619 781.158,375.722 781.158,399.286C781.158,410.539 776.802,420.774 769.683,428.398L769.706,428.373L542.15,655.929C534.514,663.658 523.915,668.445 512.198,668.445L511.989,668.445L512,668.445L512,668.444Z" style="fill-rule:nonzero;"/>
    </g>
</svg>
