<svg xmlns="http://www.w3.org/2000/svg" viewBox="0 0 1024 1024"><path fill="currentColor" d="M912.529 772.345h-.279c-16.5 0-31.424-6.74-42.17-17.619L512.001 396.647 153.927 752.318c-9.226 6.061-20.534 9.669-32.685 9.669-33.181 0-60.08-26.899-60.08-60.08 0-10.921 2.914-21.161 8.005-29.985l-.154.291 400.529-400.529c10.869-10.856 25.879-17.571 42.456-17.571s31.587 6.714 42.457 17.571l400.529 400.529c10.856 10.869 17.571 25.879 17.571 42.456s-6.714 31.587-17.571 42.457c-10.467 9.481-24.421 15.283-39.728 15.283q-1.44 0-2.862-.068z"/></svg>