<?xml version="1.0" encoding="UTF-8" standalone="no"?>
<!DOCTYPE svg PUBLIC "-//W3C//DTD SVG 1.1//EN" "http://www.w3.org/Graphics/SVG/1.1/DTD/svg11.dtd">
<svg width="100%" height="100%" viewBox="0 0 1024 1024" version="1.1" xmlns="http://www.w3.org/2000/svg" xmlns:xlink="http://www.w3.org/1999/xlink" xml:space="preserve" xmlns:serif="http://www.serif.com/" style="fill-rule:evenodd;clip-rule:evenodd;stroke-linejoin:round;stroke-miterlimit:2;">
    <g transform="matrix(-1,1.22465e-16,-1.22465e-16,-1,1024,1024)">
        <path d="M198.53,512C198.53,492.103 207.629,474.314 221.89,462.572L593.333,84.221C593.994,83.517 594.67,82.828 595.362,82.154C606.896,70.922 622.646,64 640,64C675.323,64 704,92.677 704,128C704,146.071 696.494,162.402 684.433,174.044L349.802,512.001L683.019,848.631C695.905,860.342 704,877.233 704,896C704,931.323 675.323,960 640,960C623.554,960 608.548,953.783 597.207,943.573C597.123,943.502 597.042,943.429 596.962,943.352C595.169,941.721 593.469,939.99 591.87,938.167L221.909,561.443C207.637,549.701 198.53,531.906 198.53,512Z"/>
    </g>
</svg>
