<svg xmlns="http://www.w3.org/2000/svg" viewBox="0 0 1024 1024"><path fill="currentColor" d="M679.213 992.738h-.292c-17.22 0-32.796-7.035-44.013-18.388L216.869 556.311c-11.33-11.344-18.339-27.01-18.339-44.311s7.007-32.967 18.339-44.313L634.902 49.654a62.46 62.46 0 0 1 42.747-16.828c34.631 0 62.705 28.074 62.705 62.705 0 16.538-6.402 31.58-16.864 42.785l.034-.037-373.722 373.722 373.722 373.722c11.33 11.344 18.339 27.01 18.339 44.311s-7.007 32.967-18.339 44.313c-11.222 11.36-26.798 18.394-44.019 18.394h-.307.016z"/></svg>