<svg xmlns="http://www.w3.org/2000/svg" viewBox="0 0 1024 1024"><path fill="currentColor" d="M512 774.266h-.282c-16.621 0-31.655-6.79-42.481-17.748l-403.49-403.49c-6.608-9.557-10.557-21.395-10.557-34.153 0-33.426 27.098-60.522 60.522-60.522 13.37 0 25.728 4.335 35.742 11.677l-.17-.119 360.715 358.295 360.715-358.295c9.294-6.106 20.686-9.741 32.927-9.741 33.426 0 60.522 27.098 60.522 60.522 0 11.002-2.935 21.318-8.065 30.207l.155-.294L554.768 754.09c-10.561 11.928-25.717 19.583-42.668 20.171l-.102.002z"/></svg>