<svg xmlns="http://www.w3.org/2000/svg" viewBox="0 0 1024 1024"><path fill="currentColor" d="M344.779 992.761h-.292c-17.221 0-32.798-7.035-44.016-18.389l-.006-.006c-11.331-11.345-18.34-27.011-18.34-44.313s7.008-32.969 18.34-44.315l373.739-373.739L300.465 138.26a62.46 62.46 0 0 1-16.829-42.749c0-34.632 28.075-62.708 62.708-62.708 16.539 0 31.582 6.402 42.787 16.865l-.037-.034 418.053 418.053c11.331 11.345 18.34 27.011 18.34 44.313s-7.008 32.969-18.34 44.315L389.094 974.368c-11.223 11.36-26.8 18.395-44.021 18.395h-.307.016z"/></svg>