<?xml version="1.0" encoding="UTF-8" standalone="no"?>
<!DOCTYPE svg PUBLIC "-//W3C//DTD SVG 1.1//EN" "http://www.w3.org/Graphics/SVG/1.1/DTD/svg11.dtd">
<svg width="100%" height="100%" viewBox="0 0 1024 1024" version="1.1" xmlns="http://www.w3.org/2000/svg" xmlns:xlink="http://www.w3.org/1999/xlink" xml:space="preserve" xmlns:serif="http://www.serif.com/" style="fill-rule:evenodd;clip-rule:evenodd;stroke-linejoin:round;stroke-miterlimit:2;">
    <g transform="matrix(0.875,0,0,0.875,64,64)">
        <path d="M512,1024C229.231,1024 0,794.769 0,512C0,229.231 229.231,0 512,0C794.769,0 1024,229.231 1024,512C1024,794.769 794.769,1024 512,1024M512,73.143C276.359,73.143 73.143,276.358 73.143,512C73.143,747.642 276.358,950.847 512,950.847C747.642,950.847 950.857,747.642 950.857,512C950.857,276.358 747.642,73.143 512,73.143M512,356.619L512.199,356.619C523.916,356.619 534.515,361.406 542.147,369.131L769.707,596.691C777.078,604.577 781.175,614.983 781.158,625.778C781.158,649.342 762.055,668.445 738.491,668.445C727.238,668.445 717.003,664.089 709.379,656.97L709.404,656.993L512,459.589L314.596,656.993C306.71,664.364 296.304,668.461 285.509,668.444C261.945,668.444 242.842,649.341 242.842,625.777C242.842,614.524 247.198,604.289 254.317,596.665L254.294,596.69L481.85,369.134C489.486,361.405 500.085,356.618 511.802,356.618L512.011,356.618L512,356.618L512,356.619Z" style="fill-rule:nonzero;"/>
    </g>
</svg>
