<?xml version="1.0" encoding="UTF-8" standalone="no"?>
<!DOCTYPE svg PUBLIC "-//W3C//DTD SVG 1.1//EN" "http://www.w3.org/Graphics/SVG/1.1/DTD/svg11.dtd">
<svg width="100%" height="100%" viewBox="0 0 1024 1024" version="1.1" xmlns="http://www.w3.org/2000/svg" xmlns:xlink="http://www.w3.org/1999/xlink" xml:space="preserve" xmlns:serif="http://www.serif.com/" style="fill-rule:evenodd;clip-rule:evenodd;stroke-linejoin:round;stroke-miterlimit:2;">
    <g transform="matrix(0.875,0,0,0.875,64,64)">
        <path d="M512,1024C229.231,1024 0,794.769 0,512C0,229.231 229.231,0 512,0C794.769,0 1024,229.231 1024,512C1024,794.769 794.769,1024 512,1024M512,73.143C276.359,73.143 73.143,276.358 73.143,512C73.143,747.642 276.358,950.847 512,950.847C747.642,950.847 950.857,747.642 950.857,512C950.857,276.358 747.642,73.143 512,73.143M667.912,512.531L667.912,512.73C667.912,524.447 663.125,535.046 655.4,542.678L427.84,770.238C419.954,777.61 409.548,781.706 398.753,781.689C375.189,781.689 356.086,762.586 356.086,739.022C356.086,727.769 360.442,717.534 367.561,709.91L367.538,709.935L564.942,512.531L367.538,315.127C360.167,307.241 356.071,296.835 356.087,286.04C356.087,262.476 375.19,243.373 398.754,243.373C410.007,243.373 420.242,247.729 427.866,254.848L427.841,254.825L655.397,482.381C663.126,490.017 667.913,500.616 667.913,512.333L667.913,512.542L667.913,512.531L667.912,512.531Z" style="fill-rule:nonzero;"/>
    </g>
</svg>
