<svg xmlns="http://www.w3.org/2000/svg" viewBox="0 0 1024 1024"><path fill="currentColor" d="M466.54 87.771c-31.446 0-56.939 25.492-56.939 56.939v85.746h204.8V144.71c0-31.446-25.492-56.939-56.94-56.939h-90.922zm228.858 13.054h50.659c88.869 0 160.914 72.044 160.914 160.914v601.347c0 88.869-72.046 160.914-160.914 160.914H277.943c-88.871 0-160.914-72.046-160.914-160.914V261.739c0-88.87 72.044-160.914 160.914-160.914h50.659C347.188 42.359 401.916 0 466.538 0h90.922c64.622 0 119.352 42.358 137.936 100.825zm6.774 87.771v79.895c0 27.469-22.268 49.737-49.737 49.737H371.566c-27.47 0-49.737-22.268-49.737-49.737v-79.895h-43.886c-40.396 0-73.143 32.748-73.143 73.143v601.347c0 40.397 32.747 73.143 73.143 73.143h468.114c40.397 0 73.143-32.746 73.143-73.143V261.739c0-40.395-32.746-73.143-73.143-73.143z"/></svg>