<?xml version="1.0" encoding="UTF-8" standalone="no"?>
<!DOCTYPE svg PUBLIC "-//W3C//DTD SVG 1.1//EN" "http://www.w3.org/Graphics/SVG/1.1/DTD/svg11.dtd">
<svg width="100%" height="100%" viewBox="0 0 1024 1024" version="1.1" xmlns="http://www.w3.org/2000/svg" xmlns:xlink="http://www.w3.org/1999/xlink" xml:space="preserve" xmlns:serif="http://www.serif.com/" style="fill-rule:evenodd;clip-rule:evenodd;stroke-linejoin:round;stroke-miterlimit:2;">
    <g transform="matrix(0.875001,0,0,0.875,64,63.9991)">
        <path d="M219.284,801.372L149.485,801.372C72.044,804.8 -1.143,728.871 0,658.287L0,146.287C0,73.417 76.615,1.144 149.485,0.001L654.171,0.001C728.184,0.001 804.571,73.417 804.571,146.287L804.434,220.345L874.514,220.345C963.384,220.345 1024,278.674 1024,367.544L1024,877.715C1024,950.585 949.67,1026.29 874.514,1024L365.714,1024C292.844,1024 219.428,947.157 219.428,877.715L219.284,801.372ZM804.297,294.401L803.656,640.458C803.656,729.328 743.041,801.372 654.171,801.372L293.258,801.372L293.258,874.515C293.258,914.91 326.005,947.657 366.4,947.657L874.514,947.657C914.909,947.657 947.656,914.91 947.656,874.515L947.656,367.543C947.656,327.148 914.909,294.401 874.514,294.401L804.297,294.401ZM149.485,76.343C109.09,76.343 76.343,109.09 76.343,149.485L76.343,651.885C76.343,692.28 109.09,725.027 149.485,725.027L654.171,725.027C694.566,725.027 727.313,692.28 727.313,651.885L727.313,149.485C727.313,109.09 694.566,76.343 654.171,76.343L149.485,76.343Z"/>
    </g>
</svg>
