<svg xmlns="http://www.w3.org/2000/svg" viewBox="0 0 1024 1024"><path fill="currentColor" d="M629.028 789.943H160.914C72.044 789.943 0 717.899 0 629.029V160.915C0 72.045 72.044.001 160.914.001h468.114c88.87 0 160.914 72.044 160.914 160.914v468.114c0 88.87-72.044 160.914-160.914 160.914M160.914 87.772c-40.395 0-73.142 32.747-73.142 73.142v468.114c0 40.395 32.747 73.142 73.142 73.142h468.114c40.395 0 73.142-32.747 73.142-73.142V160.914c0-40.395-32.747-73.142-73.142-73.142zM863.086 1024H394.972c-88.87 0-160.914-72.044-160.914-160.914V746.058h87.771v117.028c0 40.395 32.747 73.142 73.142 73.142h468.114c40.395 0 73.142-32.747 73.142-73.142V394.972c0-40.395-32.747-73.142-73.142-73.142H746.057v-87.771h117.028c88.87 0 160.914 72.044 160.914 160.914v468.114c0 88.87-72.044 160.914-160.914 160.914z"/></svg>