<?xml version="1.0" encoding="UTF-8" standalone="no"?>
<!DOCTYPE svg PUBLIC "-//W3C//DTD SVG 1.1//EN" "http://www.w3.org/Graphics/SVG/1.1/DTD/svg11.dtd">
<svg width="100%" height="100%" viewBox="0 0 1024 1024" version="1.1" xmlns="http://www.w3.org/2000/svg" xmlns:xlink="http://www.w3.org/1999/xlink" xml:space="preserve" xmlns:serif="http://www.serif.com/" style="fill-rule:evenodd;clip-rule:evenodd;stroke-linejoin:round;stroke-miterlimit:2;">
    <g transform="matrix(0.875536,0,0,0.875036,63.4694,63.9816)">
        <path d="M152.737,874.772C129.222,851.264 114.679,818.785 114.679,782.908C114.679,747.031 129.224,714.552 152.737,691.044C158.613,685.674 162.284,677.978 162.284,669.422C162.284,666.277 161.788,663.249 160.87,660.411L160.928,660.618C155.205,650.836 144.794,644.344 132.857,644.234L132.842,644.234C61.15,643.943 2.876,586.899 0.611,515.716L0.606,515.508C0.938,444.02 58.966,386.196 130.501,386.196L131.087,386.197C142.096,385.701 151.412,378.937 155.592,369.409L155.662,369.228C157.38,365.575 158.383,361.295 158.383,356.78C158.393,349.241 155.536,341.974 150.396,336.461C127.128,313.02 112.657,280.819 112.364,245.239L112.364,245.183C112.352,244.512 112.345,243.721 112.345,242.928C112.345,207.8 126.415,175.959 149.228,152.734C149.231,152.731 149.243,152.718 149.246,152.715C172.753,129.211 205.224,114.676 241.092,114.676C276.969,114.676 309.448,129.221 332.956,152.734C339.255,158.746 347.639,162.098 356.347,162.084C359.472,162.084 362.5,161.662 365.375,160.87L365.136,160.926C375.313,155.273 382.31,144.969 383.267,132.964L383.275,132.841L383.275,132.778C383.275,60.863 440.429,2.297 511.793,0.026L512.001,0.021C583.238,0.681 640.733,58.581 640.733,129.911C640.733,130.303 640.731,130.695 640.728,131.086C641.205,142.271 647.652,151.846 656.946,156.751L657.112,156.831C660.11,157.966 663.577,158.623 667.196,158.623C674.787,158.633 682.09,155.679 687.538,150.394C687.539,150.393 687.545,150.388 687.546,150.387C710.986,127.123 743.184,112.655 778.76,112.362L778.816,112.362C779.979,112.324 781.346,112.3 782.719,112.3C817.343,112.3 848.669,126.42 871.254,149.214L871.264,149.224C894.779,172.732 909.322,205.211 909.322,241.088C909.322,276.965 894.777,309.444 871.264,332.952C866.069,339.069 863.222,346.843 863.237,354.868C863.237,358.535 863.818,362.065 864.894,365.373L864.827,365.133C870.48,375.31 880.784,382.307 892.789,383.264L892.912,383.272C964.104,384.209 1021.73,441.012 1023.97,511.79L1023.98,511.998C1023.32,583.235 965.419,640.73 894.089,640.73C893.697,640.73 893.305,640.728 892.914,640.725C881.729,641.202 872.154,647.649 867.249,656.943L867.169,657.109C866.034,660.107 865.377,663.574 865.377,667.193C865.367,674.784 868.321,682.087 873.606,687.535C873.607,687.536 873.612,687.542 873.613,687.543C896.877,710.983 911.345,743.181 911.638,778.757L911.638,778.813C911.65,779.484 911.657,780.275 911.657,781.068C911.657,816.196 897.587,848.037 874.774,871.262C874.771,871.265 874.759,871.278 874.756,871.281C851.249,894.785 818.778,909.32 782.91,909.32C747.033,909.32 714.554,894.775 691.046,871.262C685.598,865.976 678.296,863.021 670.705,863.032C667.085,863.032 663.619,863.689 660.418,864.892L660.62,864.826C650.838,870.549 644.346,880.96 644.236,892.897L644.236,892.912C643.299,964.104 586.496,1021.73 515.718,1023.97L515.51,1023.98L515.511,1023.98C444.022,1023.65 386.195,965.618 386.195,894.082C386.195,893.692 386.197,893.301 386.2,892.911C385.704,881.902 378.94,872.586 369.412,868.406L369.231,868.336C365.578,866.618 361.298,865.615 356.783,865.615C349.244,865.605 341.977,868.462 336.464,873.602C313.023,896.87 280.822,911.341 245.242,911.634L245.186,911.634C244.934,911.635 244.636,911.637 244.338,911.637C208.78,911.637 176.501,897.603 152.737,874.772ZM263.497,205.603C255.763,197.878 245.088,193.102 233.299,193.102C209.69,193.102 190.552,212.252 190.552,235.873C190.552,247.684 195.336,258.378 203.073,266.116C224.36,287.903 237.495,317.745 237.495,350.656C237.495,367.751 233.951,384.02 227.558,398.763L227.86,397.98C209.509,441.213 167.918,471.219 119.188,472.378L119.044,472.381C118.83,472.378 118.616,472.377 118.403,472.377C94.333,472.377 74.702,491.398 73.707,515.238L73.704,515.329C75.639,539.111 95.406,557.677 119.506,557.677C119.756,557.677 120.005,557.674 120.253,557.67C120.26,557.67 120.286,557.67 120.293,557.67C169.43,557.995 211.781,586.746 231.769,628.299L232.092,629.047C237.956,642.773 241.366,658.744 241.366,675.512C241.366,708.846 227.892,739.03 206.097,760.91C206.096,760.911 206.094,760.913 206.094,760.914C198.359,768.654 193.576,779.345 193.576,791.154C193.576,814.775 212.715,833.925 236.323,833.925C248.127,833.925 258.814,829.138 266.549,821.397C288.683,800.224 318.688,787.127 351.748,786.918C351.748,786.918 351.789,786.918 351.789,786.918C352.173,786.914 352.626,786.91 353.08,786.91C369.473,786.91 385.033,790.476 399.027,796.879L398.335,796.595C441.543,814.957 471.533,856.572 472.691,905.329L472.694,905.474C472.691,905.688 472.69,905.901 472.69,906.115C472.69,930.199 491.701,949.841 515.527,950.836L515.618,950.839C539.386,948.903 557.941,929.125 557.941,905.011C557.941,904.761 557.939,904.512 557.935,904.263C557.934,904.257 557.934,904.231 557.934,904.224C558.259,855.059 586.994,812.684 628.524,792.685L629.271,792.361C642.989,786.493 658.951,783.082 675.71,783.082C709.024,783.082 739.191,796.563 761.059,818.371C761.06,818.371 761.062,818.373 761.062,818.374C768.799,826.113 779.484,830.899 791.285,830.899C814.894,830.899 834.032,811.75 834.032,788.128C834.032,776.317 829.248,765.623 821.511,757.885C799.971,736.051 786.667,706.036 786.667,672.915C786.667,655.984 790.142,639.864 796.42,625.234L796.119,626.021C815.487,583.667 857.428,554.749 906.131,554.645L906.146,554.645C906.337,554.648 906.562,554.649 906.788,554.649C930.525,554.649 949.884,535.898 950.878,512.393L950.881,512.302C949.259,488.574 929.623,469.942 905.64,469.942C905.202,469.942 904.765,469.949 904.33,469.961C854.869,468.572 812.61,439.085 792.818,396.943L792.491,396.166C786.74,382.373 783.399,366.351 783.399,349.545C783.399,315.924 796.772,285.429 818.487,263.093C818.491,263.088 818.51,263.07 818.514,263.065C826.235,255.326 831.008,244.645 831.008,232.85C831.008,209.228 811.869,190.078 788.261,190.078C776.457,190.078 765.77,194.865 758.035,202.606C736.52,222.644 707.573,234.941 675.754,234.941C610.37,234.941 557.107,183.011 554.916,118.123L554.911,117.921C554.914,117.73 554.915,117.505 554.915,117.279C554.915,93.528 536.175,74.158 512.684,73.164L512.593,73.161C488.878,74.784 470.257,94.431 470.257,118.428C470.257,118.866 470.263,119.303 470.275,119.739C468.887,169.228 439.417,211.51 397.299,231.313L396.522,231.641C382.737,237.395 366.724,240.738 349.928,240.738C316.326,240.738 285.848,227.358 263.525,205.63C263.52,205.626 263.502,205.608 263.497,205.603ZM512.293,658.28C431.551,658.28 366.096,592.789 366.096,512C366.096,431.211 431.55,365.72 512.293,365.72C593.035,365.72 658.489,431.211 658.489,512C658.489,592.789 593.035,658.28 512.293,658.28ZM512.293,440.608C472.886,440.608 440.941,472.572 440.941,512C440.941,551.428 472.887,583.392 512.293,583.392C551.699,583.392 583.644,551.428 583.644,512C583.644,472.571 551.698,440.608 512.293,440.608Z"/>
    </g>
</svg>
