<svg xmlns="http://www.w3.org/2000/svg" xml:space="preserve" svgo-fixed viewBox="0 0 1024 1024"><path d="M197 829a113 113 0 0 1 0-160 26 26 0 0 0 7-27q-8-14-24-14c-63-1-114-50-116-113 0-62 51-113 114-113q16-2 22-15l2-11q0-10-7-18-31-31-33-79a114 114 0 0 1 32-81 113 113 0 0 1 161 0 30 30 0 0 0 28 7q14-8 16-25c0-63 50-114 113-116a114 114 0 0 1 112 115q2 15 15 22l9 2q10 0 17-7 33-32 80-34a107 107 0 0 1 81 33 113 113 0 0 1 0 160 30 30 0 0 0-5 29v-1q8 15 24 16c63 1 113 51 115 113a114 114 0 0 1-115 113q-15 1-22 14l-2 9q1 10 7 18 32 31 34 79a114 114 0 0 1-33 81 113 113 0 0 1-160 0 26 26 0 0 0-27-5q-14 8-14 24c-1 63-51 113-113 115a114 114 0 0 1-113-115q-2-14-15-21-5-3-11-3-11 1-18 7-32 32-80 34h-1q-48-2-80-33m97-585a37 37 0 0 0-64 26q0 17 11 27a105 105 0 0 1 22 116v-1c-16 38-53 64-95 65h-1c-21 0-38 17-39 38a40 40 0 0 0 41 37c43 0 80 25 97 62h1q8 18 8 41-1 45-31 75a37 37 0 0 0 26 64q17 0 27-11 30-29 74-30h2q21 0 40 8h-1c38 16 64 53 65 95v1c0 21 17 38 38 39a40 40 0 0 0 37-41c0-43 25-80 62-97v-1q18-8 41-8a106 106 0 0 1 75 31 37 37 0 0 0 64-26q0-16-11-27a106 106 0 0 1-22-116v1c16-37 53-63 96-63 21 0 38-16 39-37a40 40 0 0 0-41-37c-43-1-80-27-97-64h-1q-8-18-8-41 1-46 31-76a37 37 0 0 0-26-64q-16 0-27 11-29 28-72 29c-57 0-104-46-106-103 0-21-16-38-37-39a40 40 0 0 0-37 41c-1 43-27 80-64 97v1q-18 8-41 8a108 108 0 0 1-76-31m218 396a128 128 0 1 1 0-256 128 128 0 0 1 0 256m0-190a62 62 0 1 0 0 124 62 62 0 0 0 0-124"/></svg>