<svg xmlns="http://www.w3.org/2000/svg" viewBox="0 0 1024 1024"><path fill="currentColor" d="M736.143 262.827 458.526 376.604c-38.623 15.541-68.655 45.573-83.837 83.191l-.359 1.004-113.777 277.617c-.848 2.097-1.341 4.529-1.341 7.076 0 8.091 4.968 15.023 12.02 17.908l.129.047c2.113.807 4.557 1.275 7.111 1.275s4.997-.467 7.252-1.321l-.141.047L563.2 649.671c38.623-15.541 68.655-45.573 83.837-83.191l.359-1.004 113.777-277.617c.848-2.097 1.341-4.529 1.341-7.076 0-8.091-4.968-15.023-12.02-17.908l-.129-.047c-2.113-.807-4.557-1.275-7.111-1.275s-4.997.467-7.252 1.321zM512 568.889c-31.419 0-56.889-25.471-56.889-56.889s25.471-56.889 56.889-56.889 56.889 25.471 56.889 56.889-25.471 56.889-56.889 56.889M512 1024C229.231 1024 0 794.769 0 512S229.231 0 512 0s512 229.231 512 512-229.231 512-512 512m0-938.667C276.359 85.333 85.333 276.358 85.333 512S276.358 938.667 512 938.667 938.667 747.642 938.667 512 747.642 85.333 512 85.333"/></svg>