<?xml version="1.0" encoding="UTF-8" standalone="no"?>
<!DOCTYPE svg PUBLIC "-//W3C//DTD SVG 1.1//EN" "http://www.w3.org/Graphics/SVG/1.1/DTD/svg11.dtd">
<svg width="100%" height="100%" viewBox="0 0 1024 1024" version="1.1" xmlns="http://www.w3.org/2000/svg" xmlns:xlink="http://www.w3.org/1999/xlink" xml:space="preserve" xmlns:serif="http://www.serif.com/" style="fill-rule:evenodd;clip-rule:evenodd;stroke-linejoin:round;stroke-miterlimit:2;">
    <g transform="matrix(0.909005,0.524814,-0.5,0.866025,112.895,-268.584)">
        <path d="M814.898,683.444L814.938,683.42L814.964,683.404C835.298,671.463 860.983,678.686 872.889,699.672L922.805,791.706L960.794,721.157C972.715,700.144 998.4,692.92 1018.71,704.845L1018.73,704.861C1038.75,717.374 1045.64,744.334 1034.27,765.649L972.859,876.216L968.61,883.941C963.095,893.968 953.495,902.82 943.75,908.004C942.389,908.728 941.009,909.395 939.606,910.005L939.559,909.919L939.514,910.061C938.31,911.031 937.07,911.952 935.791,912.827C926.642,919.093 914.539,923.393 903.508,923.393L895.009,923.393L773.075,923.936C749.808,923.606 731.005,903.87 730.691,879.416L730.691,879.384C731.005,854.962 749.808,835.226 773.106,834.896L850.309,835.639L799.331,744.248C787.97,722.932 794.852,695.973 814.872,683.46L814.898,683.444ZM680.544,439.027L680.459,438.872L743.005,325.214C754.926,304.201 780.612,296.978 800.919,308.903L800.945,308.919C820.965,321.432 827.847,348.391 816.485,369.706L752.863,482.749L796.482,560.764C807.859,582.107 800.977,609.067 780.984,621.564L780.958,621.58C780.942,621.589 780.926,621.598 780.911,621.607C780.896,621.616 780.88,621.626 780.865,621.636L780.839,621.652C760.531,633.577 734.846,626.353 722.925,605.34L680.367,526.682L555.286,527.994C532.019,527.664 513.216,507.928 512.902,483.474L512.902,483.442C513.216,459.02 532.019,439.284 555.317,438.954L680.367,438.928L680.544,439.027ZM460.361,38.732L460.3,38.622C468.437,33.475 477.444,30.963 486.103,31.557C486.484,31.549 486.865,31.545 487.248,31.545L630.43,31.511C653.727,31.841 672.53,51.577 672.845,75.999L672.845,76.031C672.53,100.485 653.727,120.221 630.46,120.551L504.672,119.291L504.644,119.24L504.58,119.346L442.726,234.318C430.82,255.303 405.135,262.527 384.801,250.586L384.775,250.57C364.782,238.073 357.9,211.113 369.276,189.77L440.895,59.634C441.087,59.287 441.281,58.942 441.478,58.6C445.317,50.432 451.893,43.5 460.209,38.678L460.361,38.732ZM844.312,31.416L844.312,31.377L924.574,31.339C947.007,31.339 966.759,52.553 977.976,72.945L1038.68,183.3C1050.05,204.642 1043.17,231.602 1023.18,244.099L1023.15,244.115C1002.82,256.056 977.133,248.832 965.227,227.847L930.983,163.02L910.465,200.322C898.544,221.335 872.859,228.559 852.552,216.633L852.525,216.617C832.506,204.105 825.624,177.145 836.985,155.83L856.442,120.456L817.528,120.456C794.261,120.126 775.458,100.39 775.144,75.936L775.144,75.904C775.458,51.482 794.261,31.746 817.559,31.416L844.312,31.416ZM1180.84,498.104L1127.68,595.23C1115.76,616.242 1090.08,623.466 1069.77,611.541L1069.75,611.525C1049.73,599.012 1042.84,572.052 1054.2,550.737L1099.8,469.929L1046.4,375.415C1035.02,354.072 1041.9,327.112 1061.89,314.616L1061.92,314.6C1082.26,302.658 1107.94,309.882 1119.85,330.867L1173.41,428.255C1189.56,457.603 1192.2,477.452 1180.84,498.104ZM262.257,384.143L275.634,359.824C287.555,338.812 313.24,331.588 333.548,343.513L333.574,343.529C353.593,356.042 360.476,383.002 349.114,404.317L329.657,439.69L368.571,439.69C391.839,440.02 410.642,459.756 410.956,484.21L410.956,484.242C410.642,508.664 391.839,528.4 368.541,528.73L327.505,528.73L363.871,592.271C375.232,613.586 368.35,640.546 348.33,653.059L348.304,653.075C327.997,665 302.312,657.776 290.391,636.764L229.69,526.409C218.473,506.017 210.846,477.455 222.063,457.063L262.225,384.124L262.257,384.143ZM479.047,923.393C456.327,923.393 441.272,911.067 425.129,881.719L371.56,784.331C360.199,763.016 367.081,736.056 387.101,723.544L387.127,723.528C407.434,711.602 433.119,718.826 445.041,739.839L496.321,835.639L585.791,834.598C609.058,834.928 627.861,854.664 628.176,879.118L628.176,879.15C627.861,903.572 609.058,923.308 585.761,923.638L479.047,923.393Z"/>
    </g>
</svg>
