<svg xmlns="http://www.w3.org/2000/svg" xml:space="preserve" svgo-fixed="true" viewBox="0 0 1024 1024"><path d="M64 449V287c0-28 15-54 39-65l105-48 26 64-100 47 97 45-25 64-78-37v92zM370 99l117-55q25-10 50 0l117 55-25 64-117-55-117 55zm446 75 104 49c23 11 38 35 38 63v163h-62v-92l-78 37-25-64 97-45-100-47zm142 483v96c0 25-14 48-35 58l-88 41-25-63 86-40v-92zM673 928l-136 64q-25 11-50 0l-137-64 26-64 104 49V795h64v118l104-49zm-484-75-87-41a68 68 0 0 1-38-62v-93h64v92l86 40zm204-448 119 56 119-56 26 64-113 53v135h-64V522l-113-53z"/></svg>