<?xml version="1.0" encoding="UTF-8" standalone="no"?>
<!DOCTYPE svg PUBLIC "-//W3C//DTD SVG 1.1//EN" "http://www.w3.org/Graphics/SVG/1.1/DTD/svg11.dtd">
<svg width="100%" height="100%" viewBox="0 0 1024 1024" version="1.1" xmlns="http://www.w3.org/2000/svg" xmlns:xlink="http://www.w3.org/1999/xlink" xml:space="preserve" xmlns:serif="http://www.serif.com/" style="fill-rule:evenodd;clip-rule:evenodd;stroke-linejoin:round;stroke-miterlimit:2;">
    <g transform="matrix(0.922059,0,0,0.786844,9.97648,89.5208)">
        <path d="M58.59,456.418L58.59,250.625C58.59,215.06 75.281,182.916 101.025,168.906L214.961,106.9L242.5,188.561L134.033,247.84L239.719,305.598L212.394,386.621L128,340.498L128,456.418L58.59,456.418ZM390.27,11.494L517.768,-57.893C534.809,-67.167 554.101,-67.148 571.131,-57.841L698.548,11.793L671.224,92.815L544.459,23.537L417.695,92.815L390.27,11.494ZM873.743,107.539L986.842,169.349C1011.99,183.092 1028.28,214.533 1028.26,249.299L1028.15,456.418L960.919,456.418L960.919,340.498L876.525,386.621L849.2,305.598L954.886,247.84L846.418,188.561L873.743,107.539ZM1028.01,720.836L1027.94,843.441C1027.92,875.349 1012.99,904.198 989.921,916.865L894.647,969.194L867.595,888.98L960.919,837.978L960.919,720.836L1028.01,720.836ZM719.589,1065.34L571.3,1146.79C554.169,1156.2 534.74,1156.22 517.595,1146.85L369.194,1065.75L396.518,984.726L509.753,1046.61L509.753,897.115L579.166,897.115L579.166,1046.61L692.401,984.726L719.589,1065.34ZM193.999,970.003L99.354,918.278C74.617,904.759 58.59,873.843 58.59,839.646L58.59,720.836L128,720.836L128,837.978L221.323,888.98L193.999,970.003ZM414.913,401.344L544.459,472.143L674.006,401.344L701.33,482.367L579.166,549.131L579.166,720.836L509.753,720.836L509.753,549.131L387.589,482.367L414.913,401.344Z"/>
    </g>
</svg>
