<svg xmlns="http://www.w3.org/2000/svg" viewBox="0 0 1024 1024"><path fill="currentColor" d="M405.716 365.683 512 195.63l106.284 170.053c15.364 24.584 48.35 30.986 71.796 13.934l228.244-165.994-87.669 460.255a14.71 14.71 0 0 1-14.446 11.952H207.791a14.704 14.704 0 0 1-14.444-11.952l-87.668-460.255 228.242 165.994c23.445 17.051 56.431 10.65 71.796-13.934zM554.392 97.005c-19.58-31.328-65.205-31.328-84.784 0L352.642 284.15 79.456 85.47C42.818 58.824-7.532 90.75.945 135.253l105.739 555.132c9.247 48.541 51.689 83.664 101.105 83.664h608.418c49.415 0 91.86-35.123 101.105-83.664l105.743-555.132c8.477-44.503-41.874-76.43-78.512-49.783L671.356 284.15 554.39 97.005zm-395.27 765.262c-24.361 0-44.11 19.749-44.11 44.112s19.749 44.112 44.11 44.112h705.756c24.364 0 44.112-19.749 44.112-44.112s-19.749-44.112-44.112-44.112z"/></svg>