<svg xmlns="http://www.w3.org/2000/svg" xml:space="preserve" svgo-fixed="true" viewBox="0 0 1024 1024"><path d="M512 960c-132 0-280-36-395-87h-1a84 84 0 0 1-52-77V227c0-34 21-63 53-76l-6 2q183-81 401-89 218 8 401 89l-6-2a84 84 0 0 1 53 77v569c0 34-21 63-52 76h-1c-115 51-263 87-395 87m0-832c-131 4-269 39-375 86q-6 2-8 9v39q1 8 7 11c109 40 262 80 376 80s267-40 376-80q7-3 7-11v-39q-2-7-8-9c-106-47-244-82-375-86m383 223c-109 45-255 76-383 76s-274-31-383-76l-1 187c100 35 258 87 384 83 126 4 284-48 384-83zm0 267c-109 45-255 76-383 76s-274-31-383-76v178q0 8 8 11l-6-2c112 49 249 87 381 91 132-4 269-42 381-91l-6 2q8-3 8-11z"/></svg>