<?xml version="1.0" encoding="UTF-8" standalone="no"?>
<!DOCTYPE svg PUBLIC "-//W3C//DTD SVG 1.1//EN" "http://www.w3.org/Graphics/SVG/1.1/DTD/svg11.dtd">
<svg width="100%" height="100%" viewBox="0 0 1024 1024" version="1.1" xmlns="http://www.w3.org/2000/svg" xmlns:xlink="http://www.w3.org/1999/xlink" xml:space="preserve" xmlns:serif="http://www.serif.com/" style="fill-rule:evenodd;clip-rule:evenodd;stroke-linejoin:round;stroke-miterlimit:2;">
    <g transform="matrix(0.954497,0,0,0.875049,23.2964,63.9746)">
        <path d="M512.002,1023.97C374,1023.97 219.158,982.857 97.997,924.898L97.417,924.648C65.02,909.138 42.644,876.049 42.644,837.734C42.644,837.44 42.645,837.144 42.648,836.895L42.648,187.151L42.648,187.106C42.645,186.826 42.644,186.546 42.644,186.266C42.644,147.95 65.018,114.862 97.995,99.102L91.575,101.852C219.157,41.145 360.772,5.154 512.001,0.029L512.001,0.031C512.001,0.03 512.002,0.03 512.003,0.029C663.231,5.154 804.846,41.145 932.428,101.852L926.008,99.102C958.985,114.862 981.359,147.95 981.359,186.266C981.359,186.546 981.358,186.826 981.355,187.106L981.355,187.151L981.355,836.895C981.358,837.144 981.359,837.44 981.359,837.734C981.359,876.049 958.983,909.138 926.586,924.648L926.006,924.898C804.845,982.857 650.003,1023.97 512.002,1023.97ZM512.001,73.168C375.136,78.025 230.164,117.684 119.244,170.947L119.154,170.982C114.662,172.945 111.533,177.15 110.941,182.017L110.941,226.679C110.941,231.848 113.868,236.48 118.296,238.32C231.902,285.127 392.495,330.457 511.999,330.457L512.004,330.457C631.508,330.457 792.101,285.127 905.707,238.32C910.135,236.48 913.062,231.848 913.062,226.679L913.062,182.017C912.47,177.15 909.341,172.945 904.849,170.982L904.759,170.947C793.839,117.684 648.868,78.025 512.001,73.168ZM913.061,328.244C799.21,379.624 645.685,415.14 511.999,415.14C378.313,415.14 224.793,379.624 110.942,328.244L109.895,541.888C214.086,581.547 379.727,640.862 512.001,637.087L512.001,637.09C512.001,637.089 512.002,637.088 512.003,637.087C644.276,640.862 809.917,581.547 914.108,541.888L913.061,328.244ZM913.06,632.66C799.209,684.04 645.687,719.556 512.001,719.556C378.314,719.556 224.794,684.04 110.943,632.66L110.943,836.898C110.957,842.402 114.061,847.181 118.691,849.626L112.776,847.091C229.796,902.799 373.251,945.827 512.001,950.833C650.751,945.827 794.207,902.799 911.227,847.091L905.312,849.626C909.942,847.181 913.046,842.402 913.06,836.898L913.06,632.66Z"/>
    </g>
</svg>
