<svg xmlns="http://www.w3.org/2000/svg" viewBox="0 0 1024 1024"><path fill="currentColor" d="M926.005 99.103C804.844 41.144 663.228 5.155 513.769.077L512 .029C360.772 5.154 219.157 41.145 91.575 101.852l6.42-2.75c-32.977 15.76-55.351 48.848-55.351 87.164q0 .443.004.885v-.045 649.789c-.003.249-.004.545-.004.839 0 38.315 22.376 71.404 54.773 86.914l.58.25c121.161 57.959 262.777 93.948 412.236 99.026l1.769.048c151.228-5.125 292.843-41.116 420.425-101.823l-6.42 2.75c32.977-15.76 55.351-48.848 55.351-87.164q0-.443-.004-.885v.045-649.789c.003-.249.004-.545.004-.839 0-38.315-22.376-71.404-54.773-86.914zm-26.567 442.785c-113.2 55.308-245.67 89.857-385.631 95.145l-1.807.054c-141.767-5.341-274.238-39.89-393.276-97.76l5.838 2.561V328.244c113.851 51.38 246.465 82.977 386.006 86.865l1.431.031c140.973-3.92 273.587-35.517 393.967-89.515l-6.53 2.618zM132.864 174.375c110.92-53.263 240.582-86.42 377.448-91.277L512 83.05c138.75 5.006 268.584 38.151 385.604 93.859l-5.915-2.535c4.63 2.445 7.734 7.224 7.748 12.728v48.156c-113.2 55.308-245.67 89.857-385.631 95.145l-1.807.054c-141.767-5.341-274.238-39.89-393.276-97.76l5.838 2.561v-49.813a13.87 13.87 0 0 1 8.213-11.035zm758.272 675.25c-110.92 53.263-240.582 86.42-377.448 91.277l-1.688.048c-138.75-5.006-268.584-38.151-385.604-93.859l5.915 2.535c-4.63-2.445-7.734-7.224-7.748-12.728V632.66c113.851 51.38 246.465 82.977 386.006 86.865l1.431.031c140.973-3.92 273.587-35.517 393.967-89.515l-6.53 2.618v204.283c0 5.64-3.374 10.492-8.214 12.647l-.088.035z"/></svg>