<svg xmlns="http://www.w3.org/2000/svg" viewBox="0 0 1024 1024"><path fill="currentColor" d="M799.19 390.096 677.286 512 799.19 633.904c15.924 15.924 15.924 42.282 0 58.207-8.237 8.237-18.67 12.081-29.103 12.081s-20.866-3.844-29.103-12.081L619.08 570.207 497.176 692.111c-8.237 8.237-18.67 12.081-29.103 12.081s-20.866-3.844-29.103-12.081c-15.924-15.924-15.924-42.282 0-58.207L560.874 512 438.97 390.096c-15.924-15.924-15.924-42.282 0-58.207s42.282-15.924 58.207 0l121.904 121.904 121.904-121.904c15.924-15.924 42.282-15.924 58.207 0s15.924 42.282 0 58.207zm224.588-152.655V786.56c0 52.715-42.831 96.096-96.096 96.096H272.584c-33.497 0-63.697-17.023-81.27-45.028L10.654 548.243c-13.728-21.965-13.728-50.518 0-73.033l180.66-288.837c17.571-28.005 48.323-45.028 81.27-45.028h655.648c52.715 0 96.096 43.381 96.096 96.096zm-82.368 0c0-7.687-6.04-13.728-13.728-13.728H272.584c-4.942 0-9.335 2.197-11.531 6.589L84.786 512l176.267 281.698c2.745 3.844 7.139 6.589 11.531 6.589h655.648c7.687 0 13.728-6.04 13.728-13.728V237.44z"/></svg>