<svg xmlns="http://www.w3.org/2000/svg" xml:space="preserve" svgo-fixed viewBox="0 0 1024 1024"><path fill="currentColor" d="M799 390 677 512l122 122c16 16 16 42 0 58q-12 12-29 12c-17 0-21-4-29-12L619 570 497 692q-12 12-29 12c-17 0-21-4-29-12a41 41 0 0 1 0-58l122-122-122-122c-16-16-16-42 0-58s42-16 58 0l122 122 122-122c16-16 42-16 58 0s16 42 0 58m225-153v550c0 52-43 96-96 96H273c-34 0-64-17-82-45L11 548a70 70 0 0 1 0-73l180-289c18-28 49-45 82-45h655c53 0 96 44 96 96zm-83 0q-1-12-13-13H273q-8 0-12 6L85 512l176 282q5 6 12 6h655q13-1 14-13z"/></svg>