<svg xmlns="http://www.w3.org/2000/svg" viewBox="0 0 1024 1024"><path fill="currentColor" d="M921.582 789.931H102.419C46.001 789.601.354 743.955.023 687.567V102.418C.353 46 45.999.353 102.387.022h819.194c56.418.33 102.065 45.976 102.396 102.364v585.149c-.33 56.418-45.976 102.065-102.364 102.396h-.032zM102.418 87.791c-8.079 0-14.628 6.55-14.628 14.628v585.117c0 8.079 6.55 14.628 14.628 14.628h819.163c8.079 0 14.628-6.55 14.628-14.628V102.419c0-8.079-6.55-14.628-14.628-14.628zm585.117 936.186H512c-24.105-.325-43.559-19.779-43.884-43.852V746.046c0-24.236 19.648-43.884 43.884-43.884s43.884 19.648 43.884 43.884v190.163h131.651c24.236 0 43.884 19.648 43.884 43.884s-19.648 43.884-43.884 43.884m-175.535 0H336.465c-24.236 0-43.884-19.648-43.884-43.884s19.648-43.884 43.884-43.884H512c24.236 0 43.884 19.648 43.884 43.884s-19.648 43.884-43.884 43.884"/></svg>