<?xml version="1.0" encoding="UTF-8" standalone="no"?>
<!DOCTYPE svg PUBLIC "-//W3C//DTD SVG 1.1//EN" "http://www.w3.org/Graphics/SVG/1.1/DTD/svg11.dtd">
<svg width="100%" height="100%" viewBox="0 0 1024 1024" version="1.1" xmlns="http://www.w3.org/2000/svg" xmlns:xlink="http://www.w3.org/1999/xlink" xml:space="preserve" xmlns:serif="http://www.serif.com/" style="fill-rule:evenodd;clip-rule:evenodd;stroke-linejoin:round;stroke-miterlimit:2;">
    <g transform="matrix(0.87504,0,0,0.875038,63.9799,63.9807)">
        <path d="M468.116,803.645L102.419,803.645C46.001,803.315 0.354,757.669 0.023,701.281L0.023,102.418C0.353,46 45.999,0.353 102.387,0.022L921.581,0.022C977.999,0.352 1023.65,45.998 1023.98,102.386L1023.98,701.249C1023.65,757.667 978.001,803.314 921.613,803.645L555.884,803.645L555.884,949.923L731.418,950.837L731.418,1023.98L292.581,1023.98L292.581,950.837L468.116,950.563L468.116,803.645ZM89.847,727.306L934.152,727.306C942.231,727.306 948.78,720.756 948.78,712.678L948.78,88.705C948.78,80.626 942.23,74.077 934.152,74.077L89.847,74.077C81.768,74.077 75.219,80.627 75.219,88.705L75.219,712.678C75.219,720.757 81.769,727.306 89.847,727.306Z"/>
    </g>
</svg>
