<?xml version="1.0" encoding="UTF-8" standalone="no"?>
<!DOCTYPE svg PUBLIC "-//W3C//DTD SVG 1.1//EN" "http://www.w3.org/Graphics/SVG/1.1/DTD/svg11.dtd">
<svg width="100%" height="100%" viewBox="0 0 1024 1024" version="1.1" xmlns="http://www.w3.org/2000/svg" xmlns:xlink="http://www.w3.org/1999/xlink" xml:space="preserve" xmlns:serif="http://www.serif.com/" style="fill-rule:evenodd;clip-rule:evenodd;stroke-linejoin:round;stroke-miterlimit:2;">
    <g transform="matrix(0.925633,0,0,0.925633,64,25.7082)">
        <path d="M1003.41,461.844L1002.83,461.728L1024,474.756L1020.16,482.782C1013.53,497.671 1011.56,501.742 1010.62,503.72C973.053,578.746 899.19,579.676 864.527,578.746C777.171,797.893 590.593,918.982 338.76,918.982C222.557,918.982 134.154,881.992 74.481,808.943C-4.035,712.863 -4.035,587.819 2.712,547.921L4.573,539.895L699.585,539.895C726.571,540.593 753.441,534.428 777.403,521.982C765.888,503.603 758.908,482.549 757.28,460.914C754.139,421.714 763.212,382.514 783.219,348.781L798.69,325.75L820.791,341.802C859.292,372.86 881.277,407.872 886.162,447.886C927.456,439.86 980.382,445.792 1003.41,461.844ZM560.234,179.652L560.234,279.687L454.499,279.687L454.499,179.652L560.234,179.652ZM560.234,299.694L560.234,399.729L454.499,399.729L454.499,299.694L560.234,299.694ZM435.19,299.694L435.19,399.729L329.455,399.729L329.455,299.694L435.19,299.694ZM310.146,299.694L310.262,399.729L204.527,399.729L204.527,299.694L310.146,299.694ZM185.218,419.736L185.334,519.772L79.6,519.772L79.6,419.736L185.218,419.736ZM310.146,419.736L310.262,519.772L204.527,519.772L204.527,419.736L310.146,419.736ZM435.19,419.736L435.19,519.772L329.455,519.772L329.455,419.736L435.19,419.736ZM560.234,419.736L560.234,519.772L454.499,519.772L454.499,419.736L560.234,419.736ZM685.161,419.736L685.161,519.772L579.427,519.772L579.427,419.736L685.161,419.736Z"/>
    </g>
</svg>
