<svg xmlns="http://www.w3.org/2000/svg" viewBox="0 0 1024 1024"><path fill="currentColor" d="M875.959 1024H148.042C65.479 1020.528-.138 952.752-.138 869.651q0-3.464.151-6.89l-.011.325V687.543c0-24.237 19.648-43.886 43.886-43.886s43.886 19.648 43.886 43.886v175.543a66 66 0 0 0-.255 5.881c0 34.276 25.406 62.617 58.412 67.222l.357.041h729.673c33.364-4.645 58.77-32.987 58.77-67.263a69 69 0 0 0-.274-6.141l.019.261V687.544c0-24.237 19.648-43.886 43.886-43.886s43.886 19.648 43.886 43.886v175.543c.091 1.983.143 4.309.143 6.646 0 82.485-64.648 149.87-146.039 154.251l-.389.016zM512 731.429h-.204c-12.052 0-22.954-4.923-30.804-12.869L246.93 484.498a43.71 43.71 0 0 1-11.778-29.918c0-24.237 19.648-43.886 43.886-43.886 11.575 0 22.102 4.48 29.944 11.803l-.026-.023L512 625.518l203.044-203.044a43.71 43.71 0 0 1 29.918-11.778c24.237 0 43.886 19.648 43.886 43.886 0 11.575-4.48 22.102-11.803 29.944l.023-.026L543.01 718.558c-7.854 7.95-18.756 12.874-30.808 12.874h-.215.011zm0 0c-24.106-.325-43.561-19.78-43.886-43.854V43.887C468.114 19.65 487.762.001 512 .001s43.886 19.648 43.886 43.886v643.657c-.325 24.106-19.78 43.561-43.854 43.886z"/></svg>