<?xml version="1.0" encoding="UTF-8" standalone="no"?>
<!DOCTYPE svg PUBLIC "-//W3C//DTD SVG 1.1//EN" "http://www.w3.org/Graphics/SVG/1.1/DTD/svg11.dtd">
<svg width="100%" height="100%" viewBox="0 0 1024 1024" version="1.1" xmlns="http://www.w3.org/2000/svg" xmlns:xlink="http://www.w3.org/1999/xlink" xml:space="preserve" xmlns:serif="http://www.serif.com/" style="fill-rule:evenodd;clip-rule:evenodd;stroke-linejoin:round;stroke-miterlimit:2;">
    <g transform="matrix(0.739345,0,0,0.738283,133.456,99.9965)">
        <path d="M512,731.429L511.796,731.429C499.744,731.429 488.842,726.506 480.992,718.56L246.93,484.498C239.348,476.387 235.134,465.683 235.152,454.58C235.152,430.343 254.8,410.694 279.038,410.694C290.601,410.694 301.117,415.165 308.956,422.474L468.114,581.632L468.114,43.887C468.114,19.65 487.762,0.001 512,0.001C536.238,0.001 555.886,19.649 555.886,43.887L555.886,581.632L715.044,422.474C723.155,414.892 733.859,410.678 744.962,410.696C769.199,410.696 788.848,430.344 788.848,454.582C788.848,466.145 784.377,476.661 777.068,484.5L543.01,718.558C535.156,726.508 524.254,731.432 512.202,731.432L511.998,731.432L512,731.429ZM1025.08,981.128C1025.08,978.784 1024.78,766.108 1024.78,766.108C1024.78,737.383 1041.3,714.095 1070.03,714.095C1098.76,714.095 1115.28,737.382 1115.28,766.108C1115.28,766.108 1115.45,979.266 1115.45,982.036C1115.45,1079.8 1038.83,1159.66 942.366,1164.85L941.905,1164.87L79.184,1164.87C-18.668,1160.76 -96.436,1080.43 -96.436,981.938C-96.436,979.303 -96.27,766.107 -96.27,766.107C-96.27,737.382 -79.747,714.094 -51.02,714.094C-22.294,714.094 -5.77,737.38 -5.77,766.107C-5.77,766.107 -6.075,978.801 -6.072,981.128C-6.072,1021.75 37.564,1068.88 76.682,1074.34L77.105,1074.39L941.902,1074.39C981.445,1068.89 1025.08,1021.75 1025.08,981.128Z"/>
    </g>
</svg>
