<svg xmlns="http://www.w3.org/2000/svg" viewBox="0 0 1024 1024"><path fill="currentColor" d="M614.393 512c0 56.549-45.842 102.393-102.393 102.393S409.607 568.551 409.607 512c0-56.549 45.842-102.393 102.393-102.393S614.393 455.449 614.393 512m0-409.569c0 56.549-45.842 102.393-102.393 102.393s-102.393-45.842-102.393-102.393C409.607 45.882 455.449.038 512 .038S614.393 45.88 614.393 102.431m0 819.138c0 56.549-45.842 102.393-102.393 102.393S409.607 978.12 409.607 921.569c0-56.549 45.842-102.393 102.393-102.393s102.393 45.842 102.393 102.393"/></svg>