<svg xmlns="http://www.w3.org/2000/svg" viewBox="0 0 1024 1024"><path fill="currentColor" d="M614.379 512c0 56.54-45.835 102.379-102.379 102.379S409.621 568.544 409.621 512c0-56.54 45.835-102.379 102.379-102.379S614.379 455.456 614.379 512m409.507 0c0 56.54-45.835 102.379-102.379 102.379S819.128 568.544 819.128 512c0-56.54 45.835-102.379 102.379-102.379S1023.886 455.456 1023.886 512m-819.018 0c0 56.54-45.835 102.379-102.379 102.379S.11 568.544.11 512c0-56.54 45.835-102.379 102.379-102.379S204.868 455.456 204.868 512"/></svg>