<svg xmlns="http://www.w3.org/2000/svg" xml:space="preserve" svgo-fixed viewBox="0 0 1024 1024"><path d="M10 1270q-9-10-10-24V290q1-14 10-24 10-9 24-10h956q14 1 24 10 10 10 10 24v956q0 14-10 24t-24 10H34q-14 0-24-10m54-950v896h896V320zm832 224c0 18-14 32-32 32H672a32 32 0 0 1 0-64h192c18 0 32 14 32 32m0 288c0 18-14 32-32 32H672a32 32 0 0 1 0-64h192c18 0 32 14 32 32m0-96c0 18-14 32-32 32H672a32 32 0 0 1 0-64h192c18 0 32 14 32 32M448 416c0 18-14 32-32 32H160a32 32 0 0 1 0-64h256c18 0 32 14 32 32m-64 544a64 64 0 1 1 0 128 64 64 0 0 1 0-128m512-320c0 18-14 32-32 32H672a32 32 0 0 1 0-64h192c18 0 32 14 32 32M192 960a64 64 0 1 1 0 128 64 64 0 0 1 0-128m640 0a64 64 0 1 1 0 128 64 64 0 0 1 0-128M128 833V544c0-18 14-32 32-32h384c18 0 32 14 32 32v288c0 18-14 32-32 32H160a32 32 0 0 1-32-31m64-257v131l49-89a32 32 0 0 1 46-11q8 5 14 13l64 112 45-82q11-17 30-16 20-1 31 16l41 76V576zm212 224h76l-40-72-29 54q-4 8-10 12zm-190 0h117l-60-104zm426 160a64 64 0 1 1 0 128 64 64 0 0 1 0-128" style="fill:#2e2bce" transform="translate(0 -256)"/></svg>