<svg xmlns="http://www.w3.org/2000/svg" viewBox="0 0 1024 1024"><path fill="currentColor" d="M921.588 58.527H102.413C45.994 58.858.346 104.504.016 160.893v702.182c.331 56.419 45.977 102.067 102.366 102.397h819.207c56.419-.331 102.067-45.977 102.397-102.366V160.924c-.331-56.419-45.977-102.067-102.366-102.397zm-819.176 87.769h819.175c8.079 0 14.629 6.55 14.629 14.629v90.11L512.001 462.85 87.786 251.035v-90.11c0-8.079 6.55-14.629 14.629-14.629zm819.176 731.408H102.413c-8.079 0-14.629-6.55-14.629-14.629V348.75l404.322 202.454c5.795 2.962 12.643 4.698 19.895 4.698s14.098-1.736 20.147-4.815l-.252.117L936.218 348.75v514.325c0 8.079-6.55 14.629-14.629 14.629z"/></svg>