<?xml version="1.0" encoding="UTF-8" standalone="no"?>
<!DOCTYPE svg PUBLIC "-//W3C//DTD SVG 1.1//EN" "http://www.w3.org/Graphics/SVG/1.1/DTD/svg11.dtd">
<svg width="100%" height="100%" viewBox="0 0 1024 1024" version="1.1" xmlns="http://www.w3.org/2000/svg" xmlns:xlink="http://www.w3.org/1999/xlink" xml:space="preserve" xmlns:serif="http://www.serif.com/" style="fill-rule:evenodd;clip-rule:evenodd;stroke-linejoin:round;stroke-miterlimit:2;">
    <g transform="matrix(0.875026,0,0,0.846799,63.986,78.4394)">
        <path d="M102.413,58.527L921.62,58.527C978.009,58.857 1023.65,104.505 1023.99,160.924L1023.99,863.106C1023.66,919.495 978.008,965.141 921.589,965.472L102.382,965.472C45.993,965.142 0.347,919.494 0.016,863.075L0.016,160.893C0.346,104.504 45.994,58.858 102.413,58.527ZM90.987,134.487C90.986,134.487 90.984,134.487 90.984,134.487C82.906,134.488 76.358,141.038 76.358,149.116L76.358,251.035L512.001,462.85L947.644,251.035L947.644,149.116C947.644,141.037 941.094,134.487 933.015,134.487L90.987,134.487ZM933.017,889.513C941.096,889.513 947.646,882.963 947.646,874.884L947.646,348.75L531.896,551.204L532.148,551.087C526.099,554.166 519.253,555.902 512.001,555.902C504.749,555.902 497.901,554.166 492.106,551.204L76.356,348.75L76.356,874.884C76.356,882.963 82.906,889.513 90.985,889.513L933.017,889.513Z"/>
    </g>
</svg>
