<svg xmlns="http://www.w3.org/2000/svg" viewBox="0 0 1024 1024"><path fill="currentColor" d="M980.247 964.701H43.751c-16.088-.051-30.159-8.633-37.933-21.458l-.111-.198c-3.59-6.323-5.705-13.888-5.705-21.949s2.115-15.627 5.823-22.173l-.117.224L473.955 79.714c8.296-12.379 22.232-20.419 38.044-20.419s29.748 8.039 37.942 20.254l.104.165 468.247 819.433c3.59 6.323 5.705 13.888 5.705 21.949s-2.115 15.627-5.823 22.173l.117-.224c-7.885 13.022-21.958 21.606-38.038 21.657h-.007zm-860.99-87.796h785.486L512 189.751zM512 642.78c-24.113-.325-43.573-19.786-43.898-43.866v-204.89c0-24.244 19.654-43.898 43.898-43.898s43.898 19.654 43.898 43.898v204.858c-.325 24.113-19.786 43.573-43.866 43.898zm0 175.593c-24.113-.325-43.573-19.786-43.898-43.866V745.21c0-24.244 19.654-43.898 43.898-43.898s43.898 19.654 43.898 43.898v29.265c-.325 24.113-19.786 43.573-43.866 43.898z"/></svg>