<?xml version="1.0" encoding="UTF-8" standalone="no"?>
<!DOCTYPE svg PUBLIC "-//W3C//DTD SVG 1.1//EN" "http://www.w3.org/Graphics/SVG/1.1/DTD/svg11.dtd">
<svg width="100%" height="100%" viewBox="0 0 1024 1024" version="1.1" xmlns="http://www.w3.org/2000/svg" xmlns:xlink="http://www.w3.org/1999/xlink" xml:space="preserve" xmlns:serif="http://www.serif.com/" style="fill-rule:evenodd;clip-rule:evenodd;stroke-linejoin:round;stroke-miterlimit:2;">
    <g transform="matrix(0.874999,0,0,0.874999,64.0009,64)">
        <path d="M-0.001,292.572L-0.001,160.914C-0.001,72.044 72.043,0 160.913,0L292.571,0L292.571,73.144L148.807,73.143C107.02,73.143 73.143,107.02 73.143,148.808L73.143,292.572L-0.001,292.572ZM731.428,0L863.086,0C951.955,0 1024,72.044 1024,160.914L1024,292.572L950.856,292.572L950.856,148.808C950.856,107.02 916.981,73.143 875.191,73.143L731.428,73.143L731.428,0ZM1024,731.429L1024,863.086C1024,951.955 951.954,1024 863.086,1024L731.428,1024L731.428,950.856L875.192,950.856C916.982,950.856 950.857,916.981 950.857,875.191L950.857,731.429L1024,731.429ZM292.571,1024L160.915,1024C72.045,1024 0.001,951.955 0.001,863.087L0.001,731.429L73.144,731.429L73.144,875.192C73.144,916.982 107.021,950.857 148.809,950.857L292.571,950.857L292.571,1024Z"/>
    </g>
</svg>
