<svg xmlns="http://www.w3.org/2000/svg" viewBox="0 0 1024 1024"><path fill="currentColor" d="M160.914 87.771c-40.395 0-73.143 32.748-73.143 73.143v175.543c0 24.237-19.648 43.886-43.886 43.886S-.001 360.695-.001 336.457V160.914C-.001 72.044 72.043 0 160.913 0h175.543c24.237 0 43.886 19.648 43.886 43.886s-19.648 43.886-43.886 43.886H160.913zm482.743-43.885C643.657 19.649 663.305 0 687.543 0h175.543C951.955 0 1024 72.044 1024 160.914v175.543c0 24.237-19.646 43.886-43.886 43.886s-43.886-19.648-43.886-43.886V160.914c0-40.395-32.746-73.143-73.143-73.143H687.542c-24.237 0-43.886-19.648-43.886-43.886zM43.886 643.657c24.237 0 43.886 19.648 43.886 43.886v175.543c0 40.397 32.748 73.143 73.143 73.143h175.543c24.237 0 43.886 19.646 43.886 43.886s-19.648 43.886-43.886 43.886H160.915c-88.87 0-160.914-72.046-160.914-160.914V687.544c0-24.237 19.648-43.886 43.886-43.886zm936.228 0c24.24 0 43.886 19.648 43.886 43.886v175.543C1024 951.955 951.954 1024 863.086 1024H687.543c-24.237 0-43.886-19.646-43.886-43.886s19.648-43.886 43.886-43.886h175.543c40.397 0 73.143-32.746 73.143-73.143V687.542c0-24.237 19.646-43.886 43.886-43.886z"/></svg>