<svg xmlns="http://www.w3.org/2000/svg" viewBox="0 0 1024 1024"><path fill="currentColor" d="M1020.3 494.452c-7.019-15.208-167.289-377.277-508.3-377.277h-.472c-34.241 0-67.586 3.836-99.63 11.102l3.004-.573c-18.045 5.713-30.896 22.309-30.896 41.908 0 24.228 19.641 43.869 43.869 43.869 2.026 0 4.02-.137 5.972-.403l-.228.025c23.536-5.148 50.592-8.127 78.334-8.188h.045c244.499 0 384.881 239.819 419.391 307.086-23.064 44.686-47.534 82.99-75.058 118.824l1.357-1.84c-5.75 7.348-9.221 16.722-9.221 26.907 0 24.18 19.562 43.79 43.724 43.869h.007c13.993-.045 26.437-6.635 34.437-16.866l.073-.096c34.924-43.997 66.128-93.737 91.55-146.775l2.039-4.721c2.455-5.422 3.887-11.757 3.887-18.425s-1.431-13.003-4.002-18.713l.117.288zM192.045 130.044a43.7 43.7 0 0 0-29.907-11.773c-24.228 0-43.869 19.641-43.869 43.869 0 11.571 4.479 22.094 11.798 29.933l-.023-.026 53.813 53.813C109.158 314.735 48.464 397.519 5.676 490.262l-1.975 4.776C1.498 500.131.216 506.063.216 512.294s1.282 12.161 3.596 17.545l-.111-.289c7.019 15.208 167.289 377.277 508.3 377.277.681.004 1.487.005 2.294.005 94.711 0 182.793-28.386 256.201-77.116l-1.714 1.069 63.172 63.172c7.936 7.927 18.897 12.83 31.001 12.83s23.064-4.902 31.002-12.83c7.927-7.936 12.83-18.897 12.83-31.001s-4.902-23.064-12.83-31.002zm224.028 350.955 129.268 129.853c-9.942 3.409-21.397 5.378-33.312 5.378-28.107 0-53.656-10.952-72.612-28.824l.052.049c-18.724-18.468-30.323-44.118-30.323-72.478 0-13.277 2.543-25.962 7.167-37.592l-.241.688zM512 819.086c-245.083 0-384.881-240.404-419.391-307.086 39.962-79.399 91.284-146.975 152.768-203.701l.481-.439 104.701 104.701c-17.797 28.341-28.353 62.795-28.353 99.714 0 104.667 84.849 189.516 189.516 189.516 36.919 0 71.373-10.557 100.508-28.817l-.792.463 94.173 94.173c-54.756 32.362-120.666 51.482-191.042 51.482q-1.354 0-2.708-.01l.138.001z"/></svg>