<svg xmlns="http://www.w3.org/2000/svg" xml:space="preserve" svgo-fixed viewBox="0 0 1024 1024"><path fill="currentColor" d="M1020 494c-7-15-167-377-508-377q-52 0-100 11h3a44 44 0 0 0 19 85q35-8 78-8c244 0 385 240 419 307q-34 66-75 119l2-2q-10 11-10 27a44 44 0 0 0 78 27h1q53-67 91-147l2-5a45 45 0 0 0 0-37M192 130a44 44 0 0 0-30-12 44 44 0 0 0-32 74l54 54A773 773 0 0 0 6 490l-2 5a44 44 0 0 0 0 35c7 15 167 377 508 377h2c95 0 183-29 256-77l-1 1 63 63a44 44 0 0 0 75-31q0-19-13-31zm224 351 129 130q-15 5-33 5-43-1-73-29a101 101 0 0 1-23-110v1zm96 338c-245 0-385-240-419-307q60-118 152-204h1l105 105q-28 43-29 99a190 190 0 0 0 290 161h-1l95 95q-84 50-191 51z"/></svg>