<svg xmlns="http://www.w3.org/2000/svg" viewBox="0 0 1024 1024"><path fill="currentColor" d="M512 906.971c-341.139 0-501.467-362.204-508.489-377.417C1.291 524.369 0 518.334 0 512s1.291-12.369 3.623-17.853l-.112.299C10.533 479.233 170.862 117.029 512 117.029s501.467 362.204 508.489 377.417c2.22 5.185 3.511 11.22 3.511 17.554s-1.291 12.369-3.623 17.853l.112-.299C1013.467 544.767 853.138 906.971 512 906.971M92.453 512C126.976 579.292 267.996 819.2 512 819.2S897.024 579.292 931.547 512C897.024 444.708 756.004 204.8 512 204.8S126.976 444.708 92.453 512M512 702.172c-105.028 0-190.172-85.142-190.172-190.172S406.97 321.828 512 321.828c105.028 0 190.172 85.142 190.172 190.172-.332 104.895-85.277 189.84-190.139 190.172zm0-292.572c-56.554 0-102.4 45.845-102.4 102.4S455.445 614.4 512 614.4c56.554 0 102.4-45.845 102.4-102.4-.331-56.421-45.979-102.07-102.369-102.4h-.032z"/></svg>