<svg xmlns="http://www.w3.org/2000/svg" viewBox="0 0 1024 1024"><path fill="currentColor" d="M393.75 606.9c-15.75 0-28.35-5.25-38.85-15.75S339.15 567 339.15 552.3c0-15.75 5.25-28.35 15.75-38.85s23.1-15.75 38.85-15.75 28.35 5.25 38.85 15.75 15.75 23.1 15.75 38.85c0 14.7-5.25 28.35-15.75 38.85s-23.1 15.75-38.85 15.75m262.5 0c-15.75 0-28.35-5.25-38.85-15.75S601.65 567 601.65 552.3c0-15.75 5.25-28.35 15.75-38.85s23.1-15.75 38.85-15.75 28.35 5.25 38.85 15.75 15.75 23.1 15.75 38.85c0 14.7-5.25 28.35-15.75 38.85S672 606.9 656.25 606.9M525 857.85c97.65 0 180.6-33.6 248.85-101.85 67.2-67.2 100.8-150.15 100.8-247.8 0-17.85-1.05-34.65-3.15-51.45-2.1-15.75-6.3-31.5-11.55-47.25-15.75 4.2-30.45 6.3-46.2 8.4s-31.5 3.15-48.3 3.15c-66.15 0-129.15-14.7-187.95-43.05q-88.2-42.525-151.2-119.7c-23.1 57.75-56.7 107.1-99.75 149.1q-64.575 63-151.2 94.5v6.3c0 97.65 33.6 180.6 101.85 247.8 67.2 68.25 150.15 101.85 247.8 101.85m0 88.2q-91.35 0-170.1-34.65c-53.55-23.1-99.75-54.6-139.65-93.45-38.85-39.9-70.35-86.1-93.45-139.65q-34.65-78.75-34.65-170.1c0-60.9 11.55-117.6 34.65-171.15 23.1-52.5 54.6-98.7 93.45-138.6 39.9-38.85 86.1-70.35 139.65-93.45Q433.65 70.35 525 70.35c60.9 0 117.6 11.55 171.15 34.65 52.5 23.1 98.7 54.6 138.6 93.45 38.85 39.9 70.35 86.1 93.45 138.6 23.1 53.55 34.65 110.25 34.65 171.15q0 91.35-34.65 170.1c-23.1 53.55-54.6 99.75-93.45 139.65-39.9 38.85-86.1 70.35-138.6 93.45C642.6 934.5 585.9 946.05 525 946.05M466.2 163.8c30.45 50.4 72.45 91.35 124.95 122.85s110.25 46.2 174.3 46.2c10.5 0 19.95 0 29.4-1.05s19.95-3.15 29.4-4.2c-30.45-51.45-71.4-92.4-123.9-122.85-52.5-31.5-111.3-46.2-175.35-46.2-10.5 0-19.95 0-29.4 1.05s-18.9 2.1-29.4 4.2m-273 234.15q56.7-31.5 97.65-81.9c28.35-33.6 48.3-71.4 63-113.4q-56.7 31.5-97.65 81.9c-28.35 33.6-48.3 71.4-63 113.4"/></svg>