<svg xmlns="http://www.w3.org/2000/svg" xml:space="preserve" svgo-fixed viewBox="0 0 1024 1024"><path fill="currentColor" d="M394 607q-24 0-39-16c-15-16-16-24-16-39q0-22 16-39c16-17 23-15 39-15s28 5 39 15 15 24 15 39a54 54 0 0 1-54 55m262 0q-22 0-39-16c-17-16-15-24-15-39q0-22 15-39c15-17 23-15 39-15s29 5 39 15 16 24 16 39a54 54 0 0 1-55 55M525 858q147 0 249-102 101-101 101-248 0-26-4-51-3-24-11-47a356 356 0 0 1-95 11q-99 0-187-43-89-43-152-120-34 87-99 149-65 63-152 95v6q0 147 102 248 101 102 248 102m0 88q-91 0-170-35-80-34-140-93-59-59-93-140-35-78-35-170a426 426 0 0 1 128-310q60-58 140-93 79-35 170-35a426 426 0 0 1 310 128q59 60 93 139 35 80 35 171 0 92-35 170-34 80-93 140-60 59-139 93-80 35-171 35m-59-782q47 75 125 123c78 48 110 46 174 46l30-1 29-4a339 339 0 0 0-299-169l-29 1zM193 398q57-32 98-82t63-113q-57 31-98 82-41 50-63 113"/></svg>