<svg xmlns="http://www.w3.org/2000/svg" viewBox="0 0 1024 1024"><path fill="currentColor" d="M175.35 857.85c-24.15 0-45.15-8.4-61.95-25.2-16.8-17.85-26.25-37.8-26.25-61.95v-525c0-24.15 9.45-45.15 26.25-61.95s37.8-25.2 61.95-25.2h262.5L525 245.7h349.65c24.15 0 45.15 8.4 61.95 25.2 17.85 17.85 26.25 37.8 26.25 61.95H489.3l-88.2-87.15H175.35v525l105-349.65h747.6L915.6 795.9c-6.3 18.9-16.8 33.6-32.55 45.15s-32.55 16.8-51.45 16.8zm91.35-87.15h564.9l78.75-262.5h-564.9zm0 0 78.75-262.5zm-91.35-437.85V245.7z"/></svg>