<svg xmlns="http://www.w3.org/2000/svg" viewBox="0 0 1024 1024"><path fill="currentColor" d="M93.091 232.729c0-42.56 35.015-77.575 77.575-77.575H304.41l172.25 200.958A46.54 46.54 0 0 0 512 372.366h341.336c42.555 0 77.575 35.016 77.575 77.576v341.333c0 42.562-35.021 77.575-77.575 77.575H170.667c-42.56 0-77.575-35.013-77.575-77.575V232.73zm77.575-170.666C76.694 62.063 0 138.757 0 232.729v558.545c0 93.974 76.694 170.664 170.666 170.664h682.669c93.974 0 170.664-76.69 170.664-170.664V449.941c0-93.973-76.69-170.666-170.664-170.666H533.407L361.157 78.316a46.55 46.55 0 0 0-35.34-16.254H170.665zM512 434.426c25.706 0 46.545 20.839 46.545 46.545v77.576h77.576c25.706 0 46.545 20.839 46.545 46.545s-20.839 46.546-46.545 46.546h-77.576v77.575c0 25.708-20.839 46.547-46.545 46.547s-46.545-20.838-46.545-46.547v-77.575h-77.576c-25.706 0-46.545-20.839-46.545-46.546s20.839-46.545 46.545-46.545h77.576v-77.576c0-25.706 20.839-46.545 46.545-46.545"/></svg>