<svg xmlns="http://www.w3.org/2000/svg" viewBox="0 0 1024 1024"><path fill="currentColor" d="M612.15 683.55h88.2v-88.2h87.15V508.2h-87.15v-87.15h-88.2v87.15H525v87.15h87.15zm-436.8 174.3c-24.15 0-45.15-8.4-61.95-25.2-16.8-17.85-26.25-37.8-26.25-61.95v-525c0-24.15 9.45-45.15 26.25-61.95s37.8-25.2 61.95-25.2h262.5L525 245.7h349.65c24.15 0 45.15 8.4 61.95 25.2 17.85 17.85 26.25 37.8 26.25 61.95V770.7c0 24.15-8.4 44.1-26.25 61.95-16.8 16.8-37.8 25.2-61.95 25.2zm0-87.15h699.3V332.85H489.3l-88.2-87.15H175.35zm0 0v-525z"/></svg>