<svg xmlns="http://www.w3.org/2000/svg" viewBox="0 0 1024 1024"><path fill="currentColor" d="M700.35 508.2v-87.15h87.15v87.15zm0 87.15h-88.2V508.2h88.2zm0 88.2v-88.2h87.15v88.2zM489.3 332.85l-88.2-87.15H175.35v525h436.8v-87.15h88.2v87.15h174.3V332.85h-174.3v88.2h-88.2v-88.2zm-313.95 525c-24.15 0-45.15-8.4-61.95-25.2-16.8-17.85-26.25-37.8-26.25-61.95v-525c0-24.15 9.45-45.15 26.25-61.95s37.8-25.2 61.95-25.2h262.5L525 245.7h349.65c24.15 0 45.15 8.4 61.95 25.2 17.85 17.85 26.25 37.8 26.25 61.95V770.7c0 24.15-8.4 44.1-26.25 61.95-16.8 16.8-37.8 25.2-61.95 25.2zm0-87.15v-525z"/></svg>