<svg xmlns="http://www.w3.org/2000/svg" viewBox="0 0 1024 1024"><path fill="currentColor" d="M82.761 872.006H-.317V262.764a151 151 0 0 1-.017-2.225c0-82.317 66.265-149.157 148.363-150.085l.088-.001h133.48c.27-.006.588-.01.906-.01 12.364 0 23.485 5.331 31.186 13.821l.031.035L461.6 303.194h271.943l.591-.001c82.895 0 150.096 67.2 150.096 150.096q0 1.753-.04 3.497l.003-.173v27.692h-83.078v-27.692a65 65 0 0 0 .021-1.662c0-37.318-30.252-67.57-67.57-67.57H441.663c-12.686-.029-24.015-5.815-31.514-14.885l-.056-.069-147.88-178.895H148.119c-36.362 1.219-65.376 30.988-65.376 67.535q0 .895.023 1.785l-.001-.088zm712.813 41.54H41.221c-14.913-.126-27.961-7.987-35.343-19.762l-.103-.177C2.374 887.716.368 880.649.368 873.114s2.007-14.601 5.513-20.694l-.106.201 187.203-360.006c7.347-13.219 21.185-22.042 37.092-22.155h752.707c14.913.126 27.961 7.987 35.343 19.762l.103.177c3.401 5.891 5.407 12.958 5.407 20.493s-2.007 14.601-5.513 20.694l.106-.201L831.02 891.391c-7.071 12.759-20.17 21.423-35.35 22.151zm-686.228-83.079h661.305l144.002-276.928H253.348z"/></svg>