<svg xmlns="http://www.w3.org/2000/svg" viewBox="0 0 1024 1024"><path fill="currentColor" d="M853.323 961.925H170.678C76.425 961.925.017 885.517.017 791.264V232.736c0-94.253 76.408-170.661 170.661-170.661h155.278c13.934 0 26.476 5.965 35.211 15.48l.032.035 171.903 201.07h320.224c94.253 0 170.661 76.408 170.661 170.661l-.001.655v-.033 341.323c0 94.253-76.408 170.661-170.661 170.661zM170.677 155.163c-42.842 0-77.573 34.731-77.573 77.573v558.528c0 42.842 34.731 77.573 77.573 77.573h682.645c42.842 0 77.573-34.731 77.573-77.573V449.941c0-42.842-34.731-77.573-77.573-77.573H511.999c-14.071-.131-26.67-6.321-35.33-16.085l-.044-.049-171.903-201.07z"/></svg>