<?xml version="1.0" encoding="UTF-8" standalone="no"?>
<!DOCTYPE svg PUBLIC "-//W3C//DTD SVG 1.1//EN" "http://www.w3.org/Graphics/SVG/1.1/DTD/svg11.dtd">
<svg width="100%" height="100%" viewBox="0 0 1024 1024" version="1.1" xmlns="http://www.w3.org/2000/svg" xmlns:xlink="http://www.w3.org/1999/xlink" xml:space="preserve" xmlns:serif="http://www.serif.com/" style="fill-rule:evenodd;clip-rule:evenodd;stroke-linejoin:round;stroke-miterlimit:2;">
    <path d="M175.35,857.85C151.2,857.85 130.2,849.45 113.4,832.65C96.6,814.8 87.15,794.85 87.15,770.7L87.15,245.7C87.15,221.55 96.6,200.55 113.4,183.75C130.2,166.95 151.2,158.55 175.35,158.55L437.85,158.55L525,245.7L874.65,245.7C898.8,245.7 919.8,254.1 936.6,270.9C954.45,288.75 962.85,308.7 962.85,332.85L962.85,770.7C962.85,794.85 954.45,814.8 936.6,832.65C919.8,849.45 898.8,857.85 874.65,857.85L175.35,857.85ZM175.35,383.7L874.65,383.7L874.65,337.85L175.35,337.7L175.35,383.7ZM175.35,383.7L175.35,337.7L175.35,383.7Z" style="fill-rule:nonzero;"/>
</svg>
