<svg xmlns="http://www.w3.org/2000/svg" xml:space="preserve" svgo-fixed="true" viewBox="0 0 1024 1024"><path fill="currentColor" d="M257 306c53-36 123-63 216-68v90a39 39 0 1 0 78 0v-90c92 5 160 31 212 66l4 2-73 73a39 39 0 0 0 56 56l77-77q39 44 63 93c28 54 41 109 48 151l4 28h-89a39 39 0 1 0 0 79h92v66q-1 12-13 13H397l222-222a39 39 0 1 0-56-56L286 788H92q-12-1-13-13v-66h92a39 39 0 1 0 0-79H82q3-33 15-82c17-61 46-132 101-191l76 78a39 39 0 1 0 56-56zm728 364 39-1v-6l-1-17a619 619 0 0 0-62-230c-32-64-81-129-154-178-74-49-170-80-295-80-153 0-262 46-340 114A512 512 0 0 0 21 528 659 659 0 0 0 0 666v3l39 1H0v105c0 50 41 91 92 91h840c51 0 92-41 92-91V669z"/></svg>