<svg xmlns="http://www.w3.org/2000/svg" viewBox="0 0 1024 1024"><path fill="currentColor" d="M257.285 305.786c52.726-36.03 122.418-62.445 215.33-68.273v90.689c0 21.752 17.633 39.385 39.385 39.385s39.385-17.633 39.385-39.385v-90.689c91.282 5.729 159.941 31.318 212 66.023a386 386 0 0 1 3.818 2.584l-73 73.002c-15.381 15.381-15.381 40.318 0 55.698s40.32 15.381 55.695 0l76.968-76.965c26.602 28.86 47.309 60.712 63.444 92.986 27.282 54.559 41.121 109.594 48.069 151.322a570 570 0 0 1 3.964 27.987h-89.008c-21.753 0-39.387 17.633-39.387 39.385s17.635 39.385 39.387 39.385h91.897v65.641c0 7.248-5.881 13.129-13.129 13.129H397.032l221.586-221.587c15.381-15.381 15.381-40.318 0-55.698s-40.317-15.381-55.698 0L285.635 787.69H91.897c-7.251 0-13.128-5.881-13.128-13.129V708.92h91.897c21.752 0 39.385-17.633 39.385-39.385s-17.633-39.385-39.385-39.385H81.658c2.49-21.484 7.104-50.065 15.624-82.056 16.235-60.957 46.035-132.041 100.27-190.689l76.391 77.257c15.293 15.468 40.23 15.608 55.697.314s15.608-40.23.315-55.697l-72.67-73.494zm727.328 363.75c39.387 0 39.387-.021 39.387-.044v-.611l-.022-1.336a238 238 0 0 0-.117-4.629 445 445 0 0 0-.885-16.494c-.995-13.97-2.977-33.671-6.897-57.207-7.812-46.887-23.515-110.005-55.311-173.6-31.876-63.749-80.311-128.696-153.688-177.618-73.633-49.086-170.034-80.461-295.08-80.461-152.822 0-262.455 46.882-339.874 114.805-87.351 76.637-129.989 176.742-150.96 255.482-10.549 39.608-15.823 74.569-18.47 99.74C1.37 640.171.697 650.388.355 657.581c-.171 3.598-.26 6.445-.306 8.463a220 220 0 0 0-.042 2.396l-.006.714-.001.233v.085c0 .015 0 .064 39.385.064H0v105.025c0 50.754 41.144 91.897 91.897 91.897h840.206c50.754 0 91.897-41.143 91.897-91.897V669.492z"/></svg>