<svg xmlns="http://www.w3.org/2000/svg" viewBox="0 0 1024 1024"><path fill="currentColor" d="M512 0C229.231 0 0 229.231 0 512s229.231 512 512 512 512-229.231 512-512S794.769 0 512 0m424.391 469.333H779.378c-21.309-143.377-80.98-269.999-168.128-372.54l.875 1.056c174.421 43.539 304.877 189.937 324.104 369.605l.163 1.879zm-605.867 85.334h362.951c-28.064 140.685-92.065 263.297-182.001 361.829l.527-.585c-89.411-97.947-153.411-220.56-180.673-356.452l-.803-4.792zm0-85.334c28.064-140.685 92.065-263.297 182.001-361.829l-.527.585c89.411 97.947 153.411 220.56 180.673 356.452l.803 4.792zm81.352-371.484c-86.273 101.485-145.944 228.107-166.755 367.427l-.499 4.057H87.609c19.389-181.548 149.845-327.945 321.319-370.86zM87.609 552.96h157.013c21.309 143.377 80.98 269.999 168.128 372.54l-.875-1.056c-173.937-43.335-304.18-188.936-324.092-367.845l-.175-1.933zm524.515 371.484c86.273-101.485 145.944-228.107 166.755-367.427l.499-4.057h157.013c-18.688 182.253-149.359 329.449-321.317 372.565l-2.949.627z"/></svg>