<svg xmlns="http://www.w3.org/2000/svg" xml:space="preserve" svgo-fixed viewBox="0 0 1024 1024"><path fill="currentColor" d="M512 0a512 512 0 1 0 0 1024A512 512 0 0 0 512 0m424 469H779A739 739 0 0 0 611 97l1 1a429 429 0 0 1 324 369zm-605 86h362a750 750 0 0 1-182 361h1a747 747 0 0 1-181-357zm0-86c28-140 92-263 182-361h-1c89 98 153 221 181 357v4zm81-371a735 735 0 0 0-167 367v4H88A429 429 0 0 1 409 98zM88 553h157c21 143 81 270 168 373l-1-2A429 429 0 0 1 88 557v-2zm524 371a735 735 0 0 0 167-367v-4h157a429 429 0 0 1-321 373h-3z"/></svg>