<svg xmlns="http://www.w3.org/2000/svg" viewBox="0 0 1024 1024"><path fill="currentColor" d="M519.75 857.85c3.15 0 5.25 0 8.4-2.1 3.15-1.05 5.25-3.15 6.3-4.2l359.1-359.1c8.4-8.4 15.75-17.85 18.9-29.4 4.2-10.5 6.3-22.05 6.3-32.55 0-11.55-2.1-23.1-6.3-33.6-3.15-10.5-10.5-19.95-18.9-27.3L707.7 183.75c-8.4-9.45-16.8-15.75-28.35-19.95-10.5-3.15-21-5.25-32.55-5.25s-22.05 2.1-33.6 5.25c-10.5 4.2-19.95 10.5-29.4 19.95l-11.55 11.55 80.85 81.9c10.5 10.5 18.9 22.05 24.15 34.65 5.25 13.65 7.35 27.3 7.35 42 0 30.45-10.5 56.7-31.5 77.7C633.15 451.5 606.9 462 576.45 462c-14.7 0-28.35-2.1-42-7.35s-25.2-12.6-35.7-23.1l-81.9-80.85-191.1 191.1c-2.1 2.1-4.2 5.25-5.25 7.35s-2.1 5.25-2.1 8.4c0 5.25 2.1 10.5 7.35 15.75 4.2 4.2 9.45 7.35 14.7 7.35 3.15 0 6.3-1.05 9.45-2.1 2.1-2.1 4.2-3.15 6.3-5.25l148.05-148.05 61.95 60.9-148.05 149.1c-2.1 2.1-3.15 4.2-4.2 7.35-2.1 2.1-2.1 5.25-2.1 7.35q0 9.45 6.3 15.75t15.75 6.3c3.15 0 5.25-1.05 8.4-2.1s5.25-3.15 6.3-4.2l149.1-148.05 60.9 61.95-147 148.05c-2.1 2.1-4.2 4.2-5.25 7.35-1.05 2.1-2.1 5.25-2.1 8.4 0 5.25 3.15 10.5 7.35 14.7 4.2 5.25 9.45 7.35 14.7 7.35 3.15 0 6.3-1.05 8.4-2.1 3.15-1.05 5.25-2.1 7.35-5.25l149.1-147 60.9 60.9-149.1 149.1c-2.1 2.1-3.15 4.2-4.2 7.35-1.05 2.1-2.1 5.25-2.1 7.35 0 6.3 2.1 11.55 7.35 15.75q6.3 6.3 15.75 6.3m-1.05 88.2c-27.3 0-51.45-9.45-71.4-27.3-21-17.85-33.6-39.9-36.75-67.2-25.2-3.15-46.2-13.65-63-30.45s-26.25-37.8-30.45-63c-24.15-3.15-45.15-13.65-61.95-30.45-15.75-17.85-26.25-37.8-29.4-61.95-28.35-4.2-50.4-15.75-68.25-35.7-17.85-21-26.25-45.15-26.25-72.45 0-14.7 3.15-28.35 8.4-42s13.65-25.2 23.1-35.7l254.1-253.05 142.8 143.85c2.1 2.1 4.2 3.15 7.35 4.2 2.1 1.05 5.25 2.1 8.4 2.1 6.3 0 11.55-2.1 16.8-6.3q6.3-6.3 6.3-15.75c0-3.15-1.05-5.25-2.1-8.4s-2.1-5.25-4.2-6.3L435.75 183.75c-8.4-9.45-17.85-15.75-28.35-19.95-10.5-3.15-22.05-5.25-33.6-5.25-10.5 0-22.05 2.1-32.55 5.25-10.5 4.2-21 10.5-29.4 19.95L157.5 338.1c-6.3 7.35-11.55 14.7-16.8 23.1-4.2 9.45-7.35 17.85-8.4 26.25-1.05 9.45-1.05 17.85 0 27.3s4.2 17.85 8.4 25.2L77.7 504c-12.6-16.8-21-35.7-27.3-55.65s-8.4-39.9-6.3-60.9c1.05-19.95 6.3-39.9 14.7-58.8 9.45-19.95 21-36.75 36.75-52.5L249.9 121.8c16.8-16.8 36.75-29.4 57.75-37.8 22.05-9.45 44.1-13.65 66.15-13.65 23.1 0 45.15 4.2 66.15 13.65 22.05 8.4 40.95 21 57.75 37.8l11.55 12.6 12.6-12.6C539.7 105 558.6 92.4 580.65 84c21-9.45 43.05-13.65 66.15-13.65 22.05 0 44.1 4.2 66.15 13.65q31.5 12.6 56.7 37.8l184.8 184.8c16.8 16.8 30.45 36.75 38.85 57.75 8.4 22.05 12.6 44.1 12.6 67.2q0 34.65-12.6 66.15c-8.4 22.05-22.05 40.95-38.85 57.75l-358.05 357c-10.5 10.5-22.05 18.9-35.7 24.15-13.65 6.3-27.3 9.45-42 9.45"/></svg>