<svg xmlns="http://www.w3.org/2000/svg" xml:space="preserve" svgo-fixed="true" viewBox="0 0 1024 1024"><path fill="currentColor" d="M520 858q4 1 8-2l6-4 360-360q13-11 18-29a90 90 0 0 0 0-66q-5-16-18-27L708 184q-12-14-29-20a111 111 0 0 0-66 0q-15 6-29 20l-12 11 81 82q17 16 24 35 9 20 8 42a106 106 0 0 1-109 108q-21 0-42-7c-21-7-25-13-35-23l-82-81-191 191-5 7q-2 3-3 9 0 8 8 15 6 7 14 8l10-2 6-6 148-148 62 61-148 149-4 8q-3 4-2 7 0 9 6 16t16 6l8-2 7-4 149-148 61 62-147 148q-4 3-6 7l-2 8q0 9 8 15a18 18 0 0 0 23 5q4-1 7-5l149-147 61 61-149 149-4 7-2 8q0 9 7 16 6 6 16 6m-1 88q-42 0-72-27-31-27-36-67a105 105 0 0 1-94-94q-36-5-62-30-24-26-29-62-43-7-69-36-26-31-26-72a115 115 0 0 1 32-78l254-253 143 144 7 4 8 2q10 0 17-6 6-7 6-16l-2-9q-1-5-4-6L436 184q-13-14-29-20-16-5-33-5-16 0-33 5-16 6-29 20L158 338q-10 11-17 23-7 15-9 26v28q2 15 9 25l-63 64q-18-26-28-56c-10-30-8-40-6-61a167 167 0 0 1 52-111l154-154q26-26 58-38a166 166 0 0 1 132 0q33 12 58 38l11 12 13-12q27-26 59-38 31-14 66-14 33 0 66 14 31 13 57 38l184 185a175 175 0 0 1 52 125q0 34-13 66-13 33-39 57L596 912q-15 16-35 25-21 9-42 9"/></svg>