<svg xmlns="http://www.w3.org/2000/svg" viewBox="0 0 1024 1024"><path fill="currentColor" d="M512 966.541c-12.142-.011-23.132-4.94-31.084-12.902L83.853 555.402C32.017 502.549.025 430.074.025 350.126s31.993-152.425 83.874-205.324l-.045.047c52.537-52.531 125.112-85.022 205.276-85.022s152.739 32.491 205.277 85.023l17.595 15.249 16.423-16.423c52.328-52.883 124.914-85.631 205.15-85.631l.752.001h-.038c.384-.001.839-.003 1.294-.003 79.947 0 152.3 32.511 204.559 85.034l.012.012c51.836 52.853 83.828 125.328 83.828 205.276s-31.993 152.425-83.874 205.324l.045-.047L543.09 951.879c-7.714 8.616-18.706 14.16-30.998 14.66l-.087.003zM289.714 145.434c-.436-.003-.953-.005-1.468-.005-55.496 0-105.759 22.406-142.235 58.666l.01-.01c-36.735 36.902-59.445 87.793-59.445 143.987s22.71 107.086 59.452 143.994l-.007-.007L512 860.384l365.392-367.151c36.877-36.837 59.687-87.747 59.687-143.987s-22.81-107.15-59.686-143.985l-.001-.001c-36.111-36.238-86.066-58.659-141.257-58.659q-.975 0-1.949.01l.099-.001c-.436-.003-.953-.005-1.468-.005-55.496 0-105.759 22.406-142.235 58.666l-47.497 47.497c-8.08 7.677-19.03 12.4-31.084 12.4s-23.006-4.723-31.104-12.418l.019.018-47.507-47.507c-36.581-36.947-87.314-59.823-143.391-59.823h-.32.016z"/></svg>