<svg xmlns="http://www.w3.org/2000/svg" viewBox="0 0 1024 1024"><path fill="currentColor" d="M876.353 155.475C784.993 64.491 658.979 8.242 519.828 8.242s-265.163 56.249-356.542 147.25l-72.854 72.854V53.095c0-24.945-20.222-45.168-45.168-45.168S.096 28.149.096 53.095V338.56c0 25.067 20.15 45.426 45.135 45.766h286.096c24.945 0 45.168-20.222 45.168-45.168s-20.222-45.168-45.168-45.168H150.656l76.485-74.678C302.093 144.507 405.558 98.25 519.829 98.25s217.736 46.257 292.695 121.07l-.007-.007c372.786 402.897-180.671 958.161-585.375 585.375-8.171-8.161-19.456-13.21-31.918-13.21s-23.747 5.048-31.92 13.21c-8.309 8.103-13.464 19.409-13.464 31.918s5.155 23.815 13.454 31.91l.01.008c91.243 91.243 217.293 147.678 356.525 147.678 278.462 0 504.201-225.739 504.201-504.201 0-139.231-56.434-265.282-147.678-356.525zM512 256.049c-24.81.335-44.833 20.358-45.168 45.135v210.815c.011 12.468 5.073 23.753 13.248 31.918L632.447 692.67c8.084 8.182 19.304 13.25 31.708 13.25h.222-.011c21.988-3.292 38.658-22.048 38.658-44.696 0-10.97-3.91-21.026-10.413-28.851l.059.073-137.31-137.31V301.215c-.294-24.201-19.326-43.864-43.245-45.162l-.116-.006z"/></svg>