<svg xmlns="http://www.w3.org/2000/svg" viewBox="0 0 1024 1024"><path fill="currentColor" d="M980.714 497.352h-.195a43.16 43.16 0 0 1-26.275-8.867l.106.077-442.349-331.615L69.652 488.562c-7.252 5.487-16.423 8.788-26.365 8.788-24.268 0-43.942-19.674-43.942-43.942 0-14.326 6.856-27.052 17.467-35.074l.11-.08L485.636 66.718c7.252-5.487 16.423-8.788 26.365-8.788s19.113 3.301 26.475 8.868l-.11-.08 468.714 351.536c9.942 8.121 16.239 20.379 16.239 34.109a43.74 43.74 0 0 1-7.548 24.634l.099-.154c-7.474 11.934-20.322 19.902-35.068 20.503l-.085.003zM863.536 966.067H160.465c-24.136-.325-43.617-19.805-43.942-43.91V365.528c0-24.268 19.674-43.942 43.942-43.942s43.942 19.674 43.942 43.942v512.656h615.187V365.528c0-24.268 19.674-43.942 43.942-43.942s43.942 19.674 43.942 43.942v556.598c-.325 24.136-19.805 43.617-43.91 43.942zm-234.358 0c-24.136-.325-43.617-19.805-43.942-43.91V555.942H438.762v366.183c0 24.268-19.674 43.942-43.942 43.942s-43.942-19.674-43.942-43.942V512c.325-24.136 19.805-43.617 43.91-43.942h234.389c24.136.325 43.617 19.805 43.942 43.91v410.157c-.325 24.136-19.805 43.617-43.91 43.942z"/></svg>