<svg xmlns="http://www.w3.org/2000/svg" xml:space="preserve" svgo-fixed="true" viewBox="0 0 1024 1024"><path d="M263 989q-55 1-93-38-39-38-39-93 0-54 39-93 37-38 93-38a117 117 0 0 1 53 12l62-77q-31-35-42-77-12-42-5-85l-89-31q-19 29-48 44-28 18-63 17-54 1-92-39-39-38-39-92 0-55 39-93 38-38 92-38a129 129 0 0 1 132 131v8l88 31a209 209 0 0 1 141-102v-94q-43-14-70-47-28-34-28-81-1-54 39-93 37-38 92-38a129 129 0 0 1 131 131q0 46-28 81-28 33-70 47v94q45 8 83 36 37 27 58 66l89-31v-8q0-55 38-93t93-38a129 129 0 0 1 131 131q0 54-38 92-38 40-93 39-34 1-64-17-29-15-46-44l-90 31q8 43-5 84-11 42-42 78l62 76q13-6 25-8 13-3 29-3 54 0 93 38 38 39 38 93 0 56-38 93-39 38-93 38-55 1-93-38-39-38-39-93 0-22 8-42 6-20 19-37l-62-78a194 194 0 0 1-193 0l-60 78q12 17 18 37 8 20 8 42 0 56-38 93-39 38-93 38M131 442q19 0 32-13 12-11 12-30a43 43 0 0 0-44-44 43 43 0 0 0-44 44q0 19 13 30 13 13 31 13m132 460a43 43 0 0 0 44-44q0-18-13-31-12-12-31-12-20 0-32 12t-13 31a43 43 0 0 0 45 44m262-743a43 43 0 0 0 44-45 43 43 0 0 0-44-44 43 43 0 0 0-44 44 43 43 0 0 0 44 45m0 480q46 0 78-31 31-31 31-78 0-45-31-77-32-32-78-32t-78 32q-31 32-31 77 0 47 31 78 32 31 78 31m263 263a43 43 0 0 0 44-44q0-18-13-31-12-12-31-12-20 0-32 12t-13 31a43 43 0 0 0 45 44m131-460q19 0 31-13 13-11 13-30a43 43 0 0 0-44-44 43 43 0 0 0-44 44q0 19 12 30 13 13 32 13" style="fill-rule:nonzero" transform="translate(0 41)scale(.97524)"/></svg>