<?xml version="1.0" encoding="UTF-8" standalone="no"?>
<!DOCTYPE svg PUBLIC "-//W3C//DTD SVG 1.1//EN" "http://www.w3.org/Graphics/SVG/1.1/DTD/svg11.dtd">
<svg width="100%" height="100%" viewBox="0 0 1024 1024" version="1.1" xmlns="http://www.w3.org/2000/svg" xmlns:xlink="http://www.w3.org/1999/xlink" xml:space="preserve" xmlns:serif="http://www.serif.com/" style="fill-rule:evenodd;clip-rule:evenodd;stroke-linejoin:round;stroke-miterlimit:2;">
    <g transform="matrix(0.975238,0,0,0.975238,0,41.0015)">
        <path d="M262.5,989.1C225.75,989.1 195.3,976.5 170.1,951.3C143.85,926.1 131.25,894.6 131.25,857.85C131.25,822.15 143.85,790.65 170.1,765.45C195.3,739.2 225.75,726.6 262.5,726.6C273,726.6 282.45,727.65 290.85,729.75C299.25,731.85 307.65,735 316.05,739.2L378,661.5C358.05,638.4 343.35,613.2 336,584.85C327.6,556.5 325.5,528.15 330.75,499.8L241.5,469.35C228.9,488.25 214.2,502.95 194.25,513.45C175.35,525 154.35,530.25 131.25,530.25C94.5,530.25 64.05,517.65 38.85,491.4C12.6,466.2 0,434.7 0,399C0,362.25 12.6,331.8 38.85,305.55C64.05,280.35 94.5,267.75 131.25,267.75C168,267.75 198.45,280.35 224.7,305.55C249.9,331.8 262.5,362.25 262.5,399L262.5,407.4L350.7,437.85C365.4,411.6 385.35,389.55 409.5,371.7C433.65,352.8 462,341.25 492.45,336L492.45,241.5C464.1,233.1 439.95,217.35 422.1,195.3C403.2,172.2 393.75,144.9 393.75,114.45C393.75,77.7 406.35,47.25 432.6,21C457.8,-4.2 488.25,-16.8 525,-16.8C561.75,-16.8 592.2,-4.2 618.45,21C643.65,47.25 656.25,77.7 656.25,114.45C656.25,144.9 646.8,172.2 627.9,195.3C609,217.35 585.9,233.1 557.55,241.5L557.55,336C588,341.25 616.35,352.8 640.5,371.7C664.65,389.55 684.6,411.6 699.3,437.85L787.5,407.4L787.5,399C787.5,362.25 800.1,331.8 826.35,305.55C851.55,280.35 882,267.75 918.75,267.75C955.5,267.75 985.95,280.35 1012.2,305.55C1037.4,331.8 1050,362.25 1050,399C1050,434.7 1037.4,466.2 1012.2,491.4C985.95,517.65 955.5,530.25 918.75,530.25C895.65,530.25 874.65,525 854.7,513.45C835.8,502.95 820.05,488.25 808.5,469.35L719.25,499.8C724.5,528.15 722.4,556.5 714,583.8C706.65,612.15 691.95,638.4 672,661.5L733.95,738.15C742.35,733.95 750.75,731.85 759.15,729.75C767.55,727.65 777,726.6 787.5,726.6C824.25,726.6 854.7,739.2 880.95,765.45C906.15,790.65 918.75,822.15 918.75,857.85C918.75,894.6 906.15,926.1 880.95,951.3C854.7,976.5 824.25,989.1 787.5,989.1C750.75,989.1 720.3,976.5 695.1,951.3C668.85,926.1 656.25,894.6 656.25,857.85C656.25,843.15 658.35,829.5 663.6,815.85C667.8,802.2 674.1,790.65 682.5,779.1L620.55,701.4C590.1,718.2 558.6,726.6 525,726.6C490.35,726.6 458.85,718.2 428.4,701.4L367.5,779.1C375.9,790.65 382.2,802.2 386.4,815.85C391.65,829.5 393.75,843.15 393.75,857.85C393.75,894.6 381.15,926.1 355.95,951.3C329.7,976.5 299.25,989.1 262.5,989.1M131.25,442.05C143.85,442.05 154.35,437.85 162.75,429.45C171.15,421.05 175.35,411.6 175.35,399C175.35,386.4 171.15,375.9 162.75,367.5C154.35,359.1 143.85,354.9 131.25,354.9C118.65,354.9 108.15,359.1 99.75,367.5C91.35,375.9 87.15,386.4 87.15,399C87.15,411.6 91.35,421.05 99.75,429.45C108.15,437.85 118.65,442.05 131.25,442.05M262.5,901.95C275.1,901.95 285.6,897.75 294,889.35C302.4,880.95 306.6,870.45 306.6,857.85C306.6,845.25 302.4,835.8 294,827.4C285.6,819 275.1,814.8 262.5,814.8C249.9,814.8 239.4,819 231,827.4C222.6,835.8 218.4,845.25 218.4,857.85C218.4,870.45 222.6,880.95 231,889.35C239.4,897.75 249.9,901.95 262.5,901.95M525,158.55C537.6,158.55 548.1,154.35 556.5,145.95C564.9,137.55 569.1,127.05 569.1,114.45C569.1,101.85 564.9,91.35 556.5,82.95C548.1,74.55 537.6,70.35 525,70.35C512.4,70.35 501.9,74.55 493.5,82.95C485.1,91.35 480.9,101.85 480.9,114.45C480.9,127.05 485.1,137.55 493.5,145.95C501.9,154.35 512.4,158.55 525,158.55M525,639.45C555.45,639.45 581.7,628.95 602.7,607.95C623.7,586.95 634.2,560.7 634.2,530.25C634.2,499.8 623.7,473.55 602.7,452.55C581.7,431.55 555.45,421.05 525,421.05C494.55,421.05 468.3,431.55 447.3,452.55C426.3,473.55 415.8,499.8 415.8,530.25C415.8,560.7 426.3,586.95 447.3,607.95C468.3,628.95 494.55,639.45 525,639.45M787.5,901.95C800.1,901.95 810.6,897.75 819,889.35C827.4,880.95 831.6,870.45 831.6,857.85C831.6,845.25 827.4,835.8 819,827.4C810.6,819 800.1,814.8 787.5,814.8C774.9,814.8 764.4,819 756,827.4C747.6,835.8 743.4,845.25 743.4,857.85C743.4,870.45 747.6,880.95 756,889.35C764.4,897.75 774.9,901.95 787.5,901.95M918.75,442.05C931.35,442.05 941.85,437.85 950.25,429.45C958.65,421.05 962.85,411.6 962.85,399C962.85,386.4 958.65,375.9 950.25,367.5C941.85,359.1 931.35,354.9 918.75,354.9C906.15,354.9 895.65,359.1 887.25,367.5C878.85,375.9 874.65,386.4 874.65,399C874.65,411.6 878.85,421.05 887.25,429.45C895.65,437.85 906.15,442.05 918.75,442.05" style="fill-rule:nonzero;"/>
    </g>
</svg>
