<svg xmlns="http://www.w3.org/2000/svg" viewBox="0 0 1024 1024"><path fill="currentColor" d="M218.4 901.95c-24.15 0-44.1-8.4-60.9-25.2-17.85-17.85-26.25-37.8-26.25-61.95V201.6c0-24.15 8.4-44.1 26.25-61.95 16.8-16.8 36.75-25.2 60.9-25.2h219.45v87.15H218.4v613.2h613.2V580.65l87.15 87.15v147c0 24.15-8.4 44.1-25.2 61.95-17.85 16.8-37.8 25.2-61.95 25.2zm44.1-175.35 131.25-174.3 98.7 131.25L623.7 508.2l163.8 218.4zm680.4-157.5L807.45 433.65c-15.75 10.5-31.5 17.85-49.35 23.1s-35.7 7.35-55.65 7.35c-54.6 0-99.75-18.9-137.55-56.7-38.85-38.85-57.75-85.05-57.75-139.65S527.1 165.9 564.9 128.1c38.85-38.85 85.05-57.75 139.65-57.75s100.8 18.9 139.65 57.75c37.8 37.8 56.7 85.05 56.7 139.65 0 19.95-2.1 38.85-8.4 56.7q-7.875 26.775-22.05 50.4L1003.8 508.2zM704.55 376.95c30.45 0 56.7-10.5 77.7-31.5s31.5-47.25 31.5-77.7-10.5-56.7-31.5-77.7-47.25-31.5-77.7-31.5-56.7 10.5-77.7 31.5-31.5 47.25-31.5 77.7 10.5 56.7 31.5 77.7 47.25 31.5 77.7 31.5"/></svg>