<svg xmlns="http://www.w3.org/2000/svg" viewBox="0 0 1024 1024"><path fill="currentColor" d="M218.4 901.95c-24.15 0-44.1-8.4-60.9-25.2-17.85-17.85-26.25-37.8-26.25-61.95V201.6c0-24.15 8.4-44.1 26.25-61.95 16.8-16.8 36.75-25.2 60.9-25.2h613.2c24.15 0 44.1 8.4 61.95 25.2 16.8 17.85 25.2 37.8 25.2 61.95v613.2c0 24.15-8.4 44.1-25.2 61.95-17.85 16.8-37.8 25.2-61.95 25.2zm0-87.15h613.2V201.6H218.4zm44.1-88.2h525L623.7 508.2 492.45 683.55l-98.7-131.25zm-44.1 88.2V201.6zm153.3-393.75c18.9 0 33.6-6.3 47.25-19.95 12.6-12.6 18.9-28.35 18.9-46.2s-6.3-33.6-19.95-46.2c-12.6-12.6-27.3-18.9-46.2-18.9-17.85 0-33.6 6.3-46.2 18.9s-18.9 28.35-18.9 46.2 6.3 33.6 18.9 46.2c12.6 13.65 28.35 19.95 46.2 19.95"/></svg>