<svg xmlns="http://www.w3.org/2000/svg" xml:space="preserve" svgo-fixed viewBox="0 0 1024 1024"><path fill="currentColor" d="M218 902q-36 0-60-25a83 83 0 0 1-27-62V202q0-36 27-62 24-26 60-26h220v88H218v613h614V581l87 87v147a86 86 0 0 1-87 87zm45-175 131-175 98 132 132-176 164 219zm680-158L807 434a176 176 0 0 1-105 30q-80 0-137-57-58-58-58-139c0-81 20-102 58-140q58-58 140-58c82 0 100 19 139 58q57 57 57 140 1 30-9 56-7 27-22 51l134 133zM705 377q45 0 77-32c32-32 32-47 32-77s-11-57-32-78-47-31-77-31-57 10-78 31-32 47-32 78 11 56 32 77 47 32 78 32"/></svg>