<svg xmlns="http://www.w3.org/2000/svg" viewBox="0 0 1024 1024"><path fill="currentColor" d="M863.086 58.514H160.915C72.045 58.514.001 130.558.001 219.428v585.143c0 88.87 72.044 160.914 160.914 160.914h702.171c88.87 0 160.914-72.044 160.914-160.914V219.428c0-88.87-72.044-160.914-160.914-160.914m-702.172 87.771h702.171c40.395 0 73.142 32.747 73.142 73.142v479.232L777.069 539.501c-7.493-7.993-18.119-12.974-29.908-12.974q-1.511 0-2.992.108l.133-.008c-12.88.772-24.239 6.708-32.137 15.744l-.047.055-75.483 90.697-269.166-269.166c-7.488-7.945-18.081-12.89-29.83-12.89q-.624 0-1.244.018l.06-.001c-12.88.772-24.239 6.708-32.137 15.744l-.047.055L87.768 624.931V219.427c0-40.395 32.747-73.142 73.142-73.142zM87.772 804.571v-42.716l251.612-301.934L580.463 701 433.007 876.543H160.906c-39.984 0-72.475-32.083-73.133-71.911zm775.314 73.144H547.109l201.874-242.249 184.32 184.32c-6.765 33.136-35.591 57.744-70.197 57.929z"/></svg>