<svg xmlns="http://www.w3.org/2000/svg" viewBox="0 0 1024 1024"><path fill="currentColor" d="M862.966 979.954H161.035C72.195 979.954.176 907.935.176 819.095V468.129c0-24.229 19.642-43.871 43.871-43.871s43.871 19.642 43.871 43.871v350.966a68 68 0 0 0-.021 1.755c0 40.382 32.736 73.117 73.117 73.117h701.952c40.382 0 73.117-32.736 73.117-73.117V469.884c0-24.229 19.642-43.871 43.871-43.871s43.871 19.642 43.871 43.871V820.85c-.991 88.083-72.627 159.104-160.849 159.104h-.011zM512 702.107h-.13c-110.716 0-202.222-82.245-216.757-188.973l-.126-1.134H44.047l-.326.001c-24.229 0-43.871-19.642-43.871-43.871 0-8.677 2.52-16.767 6.867-23.575l-.106.177L224.795 93.766c17.362-29.96 49.275-49.789 85.818-49.789q1.94 0 3.862.074l-.185-.005h395.422c40.382.115 75.22 23.729 91.572 57.882l.265.613 215.844 347.456c2.498 5.344 3.955 11.604 3.955 18.204 0 23.357-18.253 42.45-41.273 43.795l-.119.005h-250.94c-14.66 107.862-106.167 190.107-216.883 190.107h-.138.007zM123.014 426.013h213.504c24.229 0 43.871 19.642 43.871 43.871v12.869c0 72.687 58.925 131.612 131.612 131.612s131.612-58.925 131.612-131.612v-12.869c0-24.229 19.642-43.871 43.871-43.871h213.504L725.505 141.731c-4.679-8.189-9.36-11.698-15.208-11.698H314.291a15.8 15.8 0 0 0-13.412 8.109l-.041.081z"/></svg>