<svg xmlns="http://www.w3.org/2000/svg" xml:space="preserve" svgo-fixed viewBox="0 0 1024 1024"><path fill="currentColor" d="M863 980H161C72 980 0 908 0 819V468a44 44 0 0 1 88 0v353c0 40 33 73 73 73h702c40 0 73-33 73-73V470a44 44 0 0 1 88 0v351c-1 88-73 159-161 159M512 702c-111 0-202-82-217-189v-1H44a44 44 0 0 1-37-67L225 94c17-30 49-50 86-50h399c40 0 75 24 91 58l1 1 215 347q4 8 4 18c0 24-18 43-41 44H729a219 219 0 0 1-217 190M123 426h214c24 0 43 20 43 44v13a132 132 0 0 0 264 0v-13c0-24 19-44 43-44h214L726 142q-7-12-16-12H314a16 16 0 0 0-13 8z"/></svg>