<svg xmlns="http://www.w3.org/2000/svg" viewBox="0 0 1024 1024"><path fill="currentColor" d="M306.6 595.35c-24.15 0-45.15-8.4-61.95-25.2-16.8-17.85-26.25-37.8-26.25-61.95s9.45-45.15 26.25-61.95 37.8-25.2 61.95-25.2 44.1 8.4 61.95 25.2c16.8 16.8 25.2 37.8 25.2 61.95s-8.4 44.1-25.2 61.95c-17.85 16.8-37.8 25.2-61.95 25.2m0 175.35c-73.5 0-135.45-25.2-185.85-76.65C69.3 642.6 44.1 580.65 44.1 508.2c0-73.5 25.2-135.45 76.65-185.85 50.4-51.45 112.35-76.65 185.85-76.65 48.3 0 92.4 11.55 132.3 35.7s71.4 55.65 94.5 95.55h385.35L1050 508.2 853.65 704.55l-88.2-65.1-87.15 65.1-93.45-65.1H533.4c-23.1 38.85-54.6 71.4-94.5 95.55-39.9 23.1-84 35.7-132.3 35.7m0-87.15q61.425 0 107.1-37.8c31.5-24.15 51.45-55.65 61.95-93.45h136.5l64.05 44.1 89.25-66.15 77.7 59.85 81.9-81.9L882 464.1H475.65c-10.5-37.8-30.45-69.3-61.95-93.45q-45.675-37.8-107.1-37.8c-48.3 0-89.25 17.85-123.9 51.45-34.65 34.65-51.45 75.6-51.45 123.9s16.8 89.25 51.45 123.9c34.65 33.6 75.6 51.45 123.9 51.45"/></svg>