<svg xmlns="http://www.w3.org/2000/svg" xml:space="preserve" svgo-fixed viewBox="0 0 1024 1024"><path fill="currentColor" d="M307 595q-38 0-62-25-26-27-27-62c-1-35 10-45 27-62s37-25 62-25 44 8 62 25q25 26 25 62c0 36-9 44-25 62a86 86 0 0 1-62 25m0 176q-111 1-186-77-77-77-77-186 0-110 77-186 75-76 186-76 72 0 132 35c60 35 71 56 94 96h386l131 131-196 197-89-66-87 66-93-66h-52q-34 59-94 96-60 35-132 36m0-87q61 0 107-38 46-36 62-94h136l64 44 89-66 78 60 82-82-43-44H476q-16-57-62-93-46-38-107-38-73 1-124 51-52 52-52 124c0 72 17 89 52 124q51 52 124 52"/></svg>