<svg xmlns="http://www.w3.org/2000/svg" viewBox="0 0 1024 1024"><path fill="currentColor" d="M480.9 726.6H306.6c-60.9 0-112.35-21-155.4-64.05-42-42-64.05-93.45-64.05-154.35s22.05-112.35 64.05-154.35c43.05-43.05 94.5-64.05 155.4-64.05h174.3v87.15H306.6c-36.75 0-68.25 12.6-93.45 37.8-25.2 26.25-37.8 56.7-37.8 93.45s12.6 67.2 37.8 92.4c25.2 26.25 56.7 38.85 93.45 38.85h174.3zM349.65 552.3v-88.2h350.7v88.2zM569.1 726.6v-87.15h174.3c36.75 0 68.25-12.6 93.45-38.85 25.2-25.2 37.8-55.65 37.8-92.4s-12.6-67.2-37.8-93.45c-25.2-25.2-56.7-37.8-93.45-37.8H569.1V289.8h174.3c60.9 0 112.35 21 155.4 64.05 42 42 64.05 93.45 64.05 154.35S940.8 620.55 898.8 662.55c-43.05 43.05-94.5 64.05-155.4 64.05z"/></svg>