<svg xmlns="http://www.w3.org/2000/svg" xml:space="preserve" svgo-fixed viewBox="0 0 1024 1024"><path fill="currentColor" d="M967 561H252a49 49 0 1 1 0-98h715a49 49 0 1 1 0 98m0-293H252a49 49 0 1 1 0-97h715a49 49 0 1 1 0 97m0 585H252a49 49 0 1 1 0-97h715a49 49 0 1 1 0 97M57 284a65 65 0 0 1-25-4q-12-6-21-14a65 65 0 0 1-19-46v-1q1-27 19-46a61 61 0 0 1 21-13 64 64 0 0 1 50 0q12 5 21 13 19 19 19 46v1q-1 28-19 46l-21 14q-11 4-24 4zm0 293q-14 0-25-5-12-5-21-14a65 65 0 0 1-19-46q1-28 19-46a75 75 0 0 1 21-14 64 64 0 0 1 38-5l12 4 11 6 10 8q19 18 19 47c0 36-29 65-65 65m0 293a65 65 0 0 1-25-5q-12-6-21-14a75 75 0 0 1-14-21v-1a60 60 0 0 1 0-50v1q6-12 14-22a65 65 0 0 1 71-13q12 5 21 13a75 75 0 0 1 14 21v1a60 60 0 0 1 0 50v-1q-6 13-14 22a65 65 0 0 1-46 19"/></svg>