<svg xmlns="http://www.w3.org/2000/svg" viewBox="0 0 1024 1024"><path fill="currentColor" d="M967.082 560.759H251.955c-26.929 0-48.759-21.83-48.759-48.759s21.83-48.759 48.759-48.759h715.127c26.929 0 48.759 21.83 48.759 48.759s-21.83 48.759-48.759 48.759m0-292.552H251.955c-26.929 0-48.759-21.83-48.759-48.759s21.83-48.759 48.759-48.759h715.127c26.929 0 48.759 21.83 48.759 48.759s-21.83 48.759-48.759 48.759m0 585.104H251.955c-26.929 0-48.759-21.83-48.759-48.759s21.83-48.759 48.759-48.759h715.127c26.929 0 48.759 21.83 48.759 48.759s-21.83 48.759-48.759 48.759M56.918 284.46a64.842 64.842 0 0 1-25.141-4.706l.436.155c-8.191-4.021-15.246-8.79-21.551-14.388l.098.085C-.893 253.86-8.094 237.683-8.094 219.823q0-.199.002-.396v.02c.258-17.936 7.392-34.155 18.879-46.185l-.024.026a60.5 60.5 0 0 1 21.038-13.514l.416-.139c7.303-3.084 15.795-4.877 24.704-4.877s17.401 1.792 25.134 5.036l-.428-.16c8.326 3.279 15.455 7.903 21.477 13.674l-.023-.021c11.461 12.002 18.595 28.224 18.853 46.107v.05l.002.376c0 17.859-7.201 34.037-18.859 45.786l.005-.005a94.8 94.8 0 0 1-20.899 14.055l-.555.248c-7.082 2.883-15.3 4.556-23.909 4.556q-.42 0-.84-.005h.043zm0 292.552c-8.949-.111-17.424-2.014-25.124-5.363l.419.163c-8.262-3.501-15.357-8.097-21.513-13.706l.059.053C-.894 546.413-8.095 530.236-8.095 512.376q0-.199.002-.396v.02c.258-17.936 7.392-34.155 18.879-46.185l-.024.026a74.7 74.7 0 0 1 20.966-13.467l.488-.186c8.019-3.808 17.424-6.032 27.348-6.032 3.658 0 7.245.302 10.739.882l-.379-.052 11.702 3.901 11.702 5.851a103 103 0 0 1 9.837 7.878l-.085-.076c11.672 12.226 18.854 28.826 18.854 47.102q0 .188-.002.376v-.02c0 35.905-29.107 65.012-65.012 65.012zm0 292.552a64.842 64.842 0 0 1-25.141-4.706l.436.155c-8.191-4.021-15.246-8.79-21.551-14.388l.098.085a74.7 74.7 0 0 1-13.467-20.966l-.186-.488c-3.296-7.27-5.216-15.763-5.216-24.704s1.92-17.436 5.371-25.089l-.155.385c3.501-8.262 8.097-15.357 13.706-21.513l-.053.059c11.733-11.582 27.863-18.736 45.663-18.736 9.098 0 17.76 1.87 25.624 5.245l-.424-.162c8.326 3.279 15.455 7.903 21.477 13.674l-.023-.021a74.7 74.7 0 0 1 13.467 20.966l.186.488c3.296 7.27 5.216 15.763 5.216 24.704s-1.92 17.436-5.371 25.089l.155-.385c-3.501 8.262-8.097 15.357-13.706 21.513l.053-.059c-11.746 11.653-27.923 18.854-45.783 18.854q-.199 0-.396-.002h.02z"/></svg>