<?xml version="1.0" encoding="UTF-8" standalone="no"?>
<!DOCTYPE svg PUBLIC "-//W3C//DTD SVG 1.1//EN" "http://www.w3.org/Graphics/SVG/1.1/DTD/svg11.dtd">
<svg width="100%" height="100%" viewBox="0 0 1024 1024" version="1.1" xmlns="http://www.w3.org/2000/svg" xmlns:xlink="http://www.w3.org/1999/xlink" xml:space="preserve" xmlns:serif="http://www.serif.com/" style="fill-rule:evenodd;clip-rule:evenodd;stroke-linejoin:round;stroke-miterlimit:2;">
    <g transform="matrix(1,0,0,1,279.6,0)">
        <path d="M393.75,332.85L507.9,332.85C532.05,332.85 553.05,341.25 569.85,359.1C586.65,375.9 595.05,396.9 595.05,421.05L595.05,857.85C595.05,882 586.65,903 569.85,919.8C553.05,937.65 532.05,946.05 507.9,946.05L-17.1,946.05C-41.25,946.05 -61.2,937.65 -79.05,919.8C-95.85,903 -104.25,882 -104.25,857.85L-104.25,421.05C-104.25,396.9 -95.85,375.9 -79.05,359.1C-61.2,341.25 -41.25,332.85 -17.1,332.85L306.6,332.85L306.6,245.7C306.6,184.8 327.6,133.35 370.65,91.35C412.65,48.3 464.1,27.3 525,27.3C585.9,27.3 637.35,48.3 679.35,91.35C722.4,133.35 743.4,184.8 743.4,245.7L743.4,332.85L656.25,332.85L656.25,245.7C656.25,208.95 643.65,178.5 618.45,152.25C592.2,127.05 561.75,114.45 525,114.45C488.25,114.45 457.8,127.05 432.6,152.25C406.35,178.5 393.75,208.95 393.75,245.7L393.75,332.85ZM-17.1,857.85L507.9,857.85L507.9,421.05L-17.1,421.05L-17.1,857.85ZM245.4,726.6C221.25,726.6 201.3,718.2 183.45,701.4C166.65,683.55 158.25,663.6 158.25,639.45C158.25,615.3 166.65,594.3 183.45,577.5C201.3,560.7 221.25,552.3 245.4,552.3C269.55,552.3 290.55,560.7 307.35,577.5C324.15,594.3 332.55,615.3 332.55,639.45C332.55,663.6 324.15,683.55 307.35,701.4C290.55,718.2 269.55,726.6 245.4,726.6Z"/>
    </g>
</svg>
