<svg xmlns="http://www.w3.org/2000/svg" viewBox="0 0 1024 1024"><path fill="currentColor" d="M262.5 946.05c-24.15 0-44.1-8.4-61.95-26.25-16.8-16.8-25.2-37.8-25.2-61.95v-436.8c0-24.15 8.4-45.15 25.2-61.95 17.85-17.85 37.8-26.25 61.95-26.25h44.1V245.7c0-60.9 21-112.35 64.05-154.35C412.65 48.3 464.1 27.3 525 27.3s112.35 21 154.35 64.05c43.05 42 64.05 93.45 64.05 154.35v87.15h44.1c24.15 0 45.15 8.4 61.95 26.25 16.8 16.8 25.2 37.8 25.2 61.95v436.8c0 24.15-8.4 45.15-25.2 61.95-16.8 17.85-37.8 26.25-61.95 26.25zm0-88.2h525v-436.8h-525zM525 726.6c24.15 0 45.15-8.4 61.95-25.2 16.8-17.85 25.2-37.8 25.2-61.95s-8.4-45.15-25.2-61.95-37.8-25.2-61.95-25.2-44.1 8.4-61.95 25.2c-16.8 16.8-25.2 37.8-25.2 61.95s8.4 44.1 25.2 61.95c17.85 16.8 37.8 25.2 61.95 25.2M393.75 332.85h262.5V245.7c0-36.75-12.6-67.2-37.8-93.45-26.25-25.2-56.7-37.8-93.45-37.8s-67.2 12.6-92.4 37.8c-26.25 26.25-38.85 56.7-38.85 93.45zm-131.25 525v-436.8z"/></svg>