<svg xmlns="http://www.w3.org/2000/svg" viewBox="0 0 1024 1024"><path fill="currentColor" d="M746.049.019c-153.498 0-277.933 124.435-277.933 277.933v131.652H160.927C72.06 409.604.019 481.645.019 570.512v292.56c0 88.867 72.041 160.908 160.908 160.908h409.585c88.867 0 160.908-72.041 160.908-160.908v-292.56c0-88.867-72.041-160.908-160.908-160.908h-14.628V277.952c0-105.024 85.139-190.165 190.165-190.165s190.165 85.139 190.165 190.165c0 24.236 19.648 43.884 43.884 43.884s43.884-19.648 43.884-43.884C1023.982 124.454 899.547.019 746.049.019M643.652 570.513v292.56c0 40.394-32.746 73.14-73.14 73.14H160.927c-40.394 0-73.14-32.746-73.14-73.14v-292.56c0-40.394 32.746-73.14 73.14-73.14h409.585c40.394 0 73.14 32.746 73.14 73.14"/></svg>