<svg xmlns="http://www.w3.org/2000/svg" viewBox="0 0 1024 1024"><path fill="currentColor" d="M804.555 409.605h-14.628v-131.65C789.927 124.46 665.495.027 511.999.027S234.071 124.459 234.071 277.955v131.65h-14.628c-88.865 0-160.905 72.04-160.905 160.905v292.555c0 88.865 72.04 160.905 160.905 160.905h585.111c88.865 0 160.905-72.04 160.905-160.905V570.51c0-88.865-72.04-160.905-160.905-160.905zm-482.716-131.65c0-105.022 85.138-190.161 190.161-190.161s190.161 85.138 190.161 190.161v131.65H321.84zm555.855 585.111c0 40.393-32.745 73.138-73.138 73.138H219.445c-40.393 0-73.138-32.745-73.138-73.138V570.511c0-40.393 32.745-73.138 73.138-73.138h585.111c40.393 0 73.138 32.745 73.138 73.138z"/></svg>