<svg xmlns="http://www.w3.org/2000/svg" viewBox="0 0 1024 1024"><path fill="currentColor" d="M277.943 0c24.237 0 43.886 19.648 43.886 43.886v73.143h146.286V43.886C468.115 19.649 487.763 0 512.001 0s43.886 19.648 43.886 43.886v73.143h146.286V43.886C702.173 19.649 721.821 0 746.059 0c24.24 0 43.886 19.648 43.886 43.886v73.143h14.629c56.554 0 102.4 45.846 102.4 102.4v14.629h73.143c24.24 0 43.886 19.648 43.886 43.886s-19.646 43.886-43.886 43.886h-73.143v146.286h73.143c24.24 0 43.886 19.648 43.886 43.886s-19.646 43.886-43.886 43.886h-73.143v146.286h73.143c24.24 0 43.886 19.648 43.886 43.886 0 24.24-19.646 43.886-43.886 43.886h-73.143v14.629c0 56.554-45.846 102.4-102.4 102.4h-14.629v73.143c0 24.24-19.646 43.886-43.886 43.886-24.237 0-43.886-19.646-43.886-43.886v-73.143H555.887v73.143c0 24.24-19.648 43.886-43.886 43.886s-43.886-19.646-43.886-43.886v-73.143H321.829v73.143c0 24.24-19.648 43.886-43.886 43.886s-43.886-19.646-43.886-43.886v-73.143h-14.629c-56.554 0-102.4-45.846-102.4-102.4v-14.629H43.885c-24.237 0-43.886-19.646-43.886-43.886 0-24.237 19.648-43.886 43.886-43.886h73.143V555.888H43.885c-24.237 0-43.886-19.648-43.886-43.886s19.648-43.886 43.886-43.886h73.143V321.83H43.885c-24.237 0-43.886-19.648-43.886-43.886s19.648-43.886 43.886-43.886h73.143v-14.629c0-56.554 45.846-102.4 102.4-102.4h14.629V43.886C234.057 19.649 253.705 0 277.943 0m-58.514 204.8c-8.079 0-14.629 6.549-14.629 14.629v585.143c0 8.082 6.549 14.629 14.629 14.629h585.143c8.082 0 14.629-6.546 14.629-14.629V219.429c0-8.079-6.546-14.629-14.629-14.629z"/></svg>