<svg xmlns="http://www.w3.org/2000/svg" xml:space="preserve" svgo-fixed viewBox="0 0 1024 1024"><path fill="currentColor" d="M278 0c24 0 44 20 44 44v73h146V44a44 44 0 0 1 88 0v73h146V44a44 44 0 0 1 88 0v73h15c56 0 102 46 102 102v15h73a44 44 0 1 1 0 88h-73v146h73a44 44 0 1 1 0 88h-73v146h73a44 44 0 1 1 0 88h-73v15c0 56-46 102-102 102h-15v73a44 44 0 1 1-88 0v-73H556v73a44 44 0 1 1-88 0v-73H322v73a44 44 0 1 1-88 0v-73h-15c-56 0-102-46-102-102v-15H44a44 44 0 1 1 0-88h73V556H44a44 44 0 0 1 0-88h73V322H44a44 44 0 0 1 0-88h73v-15c0-56 46-102 102-102h15V44c0-24 20-44 44-44m-59 205q-13 1-14 14v586q1 13 14 14h586q13-1 14-14V219q-1-13-14-14z"/></svg>