<svg xmlns="http://www.w3.org/2000/svg" viewBox="0 0 1024 1024"><path fill="currentColor" d="M746.047.023H277.954c-56.418.33-102.065 45.976-102.396 102.364v819.195c.33 56.418 45.976 102.065 102.364 102.396h468.125c56.418-.33 102.065-45.976 102.396-102.364V102.419C848.113 46.001 802.467.354 746.079.023zm14.627 921.559c0 8.079-6.55 14.628-14.628 14.628H277.953c-8.079 0-14.628-6.55-14.628-14.628V102.419c0-8.079 6.55-14.628 14.628-14.628h468.093c8.079 0 14.628 6.55 14.628 14.628zM512 658.28c-48.472 0-87.768 39.295-87.768 87.768s39.295 87.768 87.768 87.768 87.768-39.295 87.768-87.768S560.473 658.28 512 658.28m0 87.767"/></svg>