<svg xmlns="http://www.w3.org/2000/svg" viewBox="0 0 1024 1024"><path fill="currentColor" d="M517.309 1022.789a517 517 0 0 1-66.885-4.41l2.595.278C219.439 987.378 36.618 804.558 5.632 573.643l-.291-2.662C2.482 550.627.851 527.112.851 503.22c0-246.048 172.971-451.698 403.948-501.981l3.392-.62c4.828-1.146 10.369-1.803 16.065-1.803 24.13 0 45.508 11.78 58.7 29.904l.144.209c8.716 12.084 13.937 27.19 13.937 43.519 0 14.447-4.091 27.937-11.173 39.378l.187-.321c-26.726 45.102-42.523 99.41-42.523 157.408a315 315 0 0 0 3.823 49.03l-.228-1.77c21.13 133.311 125.031 237.216 256.587 258.114l1.758.228c14.358 2.386 30.902 3.749 47.766 3.749 57.921 0 112.086-16.086 158.27-44.036l-1.366.768c10.914-6.566 24.086-10.453 38.167-10.453 16.715 0 32.146 5.473 44.609 14.724l-.202-.143c18.334 13.09 30.142 34.293 30.142 58.257 0 5.696-.669 11.235-1.926 16.546l.097-.484c-49.878 235.319-255.888 409.342-502.54 409.342l-1.235-.001h.064zM394.034 99.12C215.098 152.927 86.978 316.198 86.978 509.395c0 236.171 191.454 427.623 427.623 427.623 193.197 0 356.468-128.116 409.491-304.027l.784-3.028c-50.869 25.361-110.807 40.205-174.212 40.205-197.518 0-361.392-144.047-392.301-332.818l-.31-2.3c-2.962-18.244-4.655-39.278-4.655-60.703 0-63.794 15.005-124.084 41.678-177.535l-1.042 2.307z"/></svg>