<?xml version="1.0" encoding="UTF-8" standalone="no"?>
<!DOCTYPE svg PUBLIC "-//W3C//DTD SVG 1.1//EN" "http://www.w3.org/Graphics/SVG/1.1/DTD/svg11.dtd">
<svg width="100%" height="100%" viewBox="0 0 1024 1024" version="1.1" xmlns="http://www.w3.org/2000/svg" xmlns:xlink="http://www.w3.org/1999/xlink" xml:space="preserve" xmlns:serif="http://www.serif.com/" style="fill-rule:evenodd;clip-rule:evenodd;stroke-linejoin:round;stroke-miterlimit:2;">
    <g transform="matrix(3.82728e-17,0.625043,-0.625043,3.82728e-17,832.022,191.978)">
        <path d="M510.626,204.815C426.489,204.076 358.411,135.541 358.411,51.231C358.411,-33.537 427.232,-102.358 512,-102.358C596.768,-102.358 665.589,-33.537 665.589,51.231C665.589,135.541 597.511,204.076 513.374,204.815C512.917,204.821 512.459,204.824 512,204.824C511.541,204.824 511.083,204.821 510.626,204.815ZM513.374,819.185C597.511,819.924 665.589,888.459 665.589,972.769C665.589,1057.54 596.768,1126.36 512,1126.36C427.232,1126.36 358.411,1057.54 358.411,972.769C358.411,888.459 426.489,819.924 510.626,819.185C511.083,819.179 511.541,819.176 512,819.176C512.459,819.176 512.917,819.179 513.374,819.185ZM512,358.411C596.768,358.411 665.589,427.232 665.589,512C665.589,596.768 596.768,665.589 512,665.589C427.232,665.589 358.411,596.768 358.411,512C358.411,427.232 427.232,358.411 512,358.411Z"/>
    </g>
</svg>
