<svg xmlns="http://www.w3.org/2000/svg" viewBox="0 0 1024 1024"><path fill="currentColor" d="M525 857.85c-24.15 0-44.1-8.4-61.95-25.2-16.8-17.85-25.2-37.8-25.2-61.95s8.4-45.15 25.2-61.95c17.85-16.8 37.8-25.2 61.95-25.2s45.15 8.4 61.95 25.2 25.2 37.8 25.2 61.95-8.4 44.1-25.2 61.95c-16.8 16.8-37.8 25.2-61.95 25.2m0-262.5c-24.15 0-44.1-8.4-61.95-25.2-16.8-17.85-25.2-37.8-25.2-61.95s8.4-45.15 25.2-61.95c17.85-16.8 37.8-25.2 61.95-25.2s45.15 8.4 61.95 25.2 25.2 37.8 25.2 61.95-8.4 44.1-25.2 61.95c-16.8 16.8-37.8 25.2-61.95 25.2m0-262.5c-24.15 0-44.1-8.4-61.95-25.2-16.8-17.85-25.2-37.8-25.2-61.95s8.4-45.15 25.2-61.95c17.85-16.8 37.8-25.2 61.95-25.2s45.15 8.4 61.95 25.2 25.2 37.8 25.2 61.95-8.4 44.1-25.2 61.95c-16.8 16.8-37.8 25.2-61.95 25.2"/></svg>