<svg xmlns="http://www.w3.org/2000/svg" viewBox="0 0 1024 1024"><path fill="currentColor" d="M480.9 832.65V533.4L218.4 381.15v300.3zm88.2 0 262.5-151.2v-300.3L569.1 533.4zm-88.2 100.8-305.55-176.4c-13.65-7.35-25.2-17.85-32.55-31.5-7.35-12.6-11.55-27.3-11.55-43.05V333.9c0-15.75 4.2-30.45 11.55-43.05 7.35-13.65 18.9-24.15 32.55-32.55L480.9 82.95c14.7-8.4 28.35-12.6 44.1-12.6q23.625 0 44.1 12.6L874.65 258.3c14.7 8.4 25.2 18.9 32.55 32.55 7.35 12.6 11.55 27.3 11.55 43.05v348.6c0 15.75-4.2 30.45-11.55 43.05-7.35 13.65-17.85 24.15-32.55 31.5L569.1 933.45q-20.475 12.6-44.1 12.6c-15.75 0-29.4-4.2-44.1-12.6m219.45-577.5 84-48.3L525 158.55l-85.05 48.3zM525 457.8l85.05-49.35L350.7 258.3l-85.05 49.35z"/></svg>