<?xml version="1.0" encoding="UTF-8" standalone="no"?>
<!DOCTYPE svg PUBLIC "-//W3C//DTD SVG 1.1//EN" "http://www.w3.org/Graphics/SVG/1.1/DTD/svg11.dtd">
<svg width="100%" height="100%" viewBox="0 0 1024 1024" version="1.1" xmlns="http://www.w3.org/2000/svg" xmlns:xlink="http://www.w3.org/1999/xlink" xml:space="preserve" xmlns:serif="http://www.serif.com/" style="fill-rule:evenodd;clip-rule:evenodd;stroke-linejoin:round;stroke-miterlimit:2;">
    <g transform="matrix(0.922059,0,0,0.726123,9.97648,116.584)">
        <path d="M1027.94,843.441C1027.92,875.349 1012.99,904.198 989.921,916.865L571.3,1146.79C554.169,1156.2 534.74,1156.22 517.595,1146.85L99.354,918.278C74.617,904.759 58.59,873.843 58.59,839.646L58.59,250.625C58.59,215.06 75.281,182.916 101.025,168.906L517.768,-57.893C534.809,-67.167 554.101,-67.148 571.131,-57.841L986.842,169.349C1011.99,183.092 1028.28,214.533 1028.26,249.299L1027.94,843.441ZM509.753,549.131L128,340.498L128,837.978L509.753,1046.61L509.753,549.131ZM579.166,549.131L579.166,1046.61L960.919,837.978L960.919,340.498L579.166,549.131ZM822.099,816.278L822.099,510.621L891.509,472.578L891.509,778.234L822.099,816.278ZM683.279,892.365L683.279,586.709L752.689,548.665L752.689,854.321L683.279,892.365ZM544.459,23.537L134.033,247.84L544.459,472.143L954.886,247.84L544.459,23.537Z"/>
    </g>
</svg>
