<?xml version="1.0" encoding="UTF-8" standalone="no"?>
<!DOCTYPE svg PUBLIC "-//W3C//DTD SVG 1.1//EN" "http://www.w3.org/Graphics/SVG/1.1/DTD/svg11.dtd">
<svg width="100%" height="100%" viewBox="0 0 1024 1024" version="1.1" xmlns="http://www.w3.org/2000/svg" xmlns:xlink="http://www.w3.org/1999/xlink" xml:space="preserve" xmlns:serif="http://www.serif.com/" style="fill-rule:evenodd;clip-rule:evenodd;stroke-linejoin:round;stroke-miterlimit:2;">
    <g transform="matrix(0.909005,0.524814,-0.5,0.866025,112.895,-268.584)">
        <path d="M910.141,915.045L493.078,915.045C480.372,915.045 442.246,912.617 425.22,881.664C425.22,881.664 222.724,513.058 221.897,510.663C212.83,495.87 212.675,474.241 223.02,455.433L440.444,60.155C450.926,41.099 469.18,30.396 486.103,31.557C486.484,31.549 486.865,31.545 487.248,31.545L924.574,31.339C947.007,31.339 966.759,52.553 977.976,72.945L1173.41,428.255C1189.56,457.603 1192.2,477.452 1180.84,498.104L968.61,883.941C963.095,893.968 953.495,902.82 943.75,908.004C934.005,913.188 923.296,915.423 910.141,915.045ZM504.455,119.291L328.668,438.872L680.459,438.872L856.336,119.125L504.455,119.291ZM680.459,526.626L326.47,526.626L491.858,827.304C492.264,827.295 845.84,827.291 845.84,827.291L680.459,526.626ZM922.805,791.706L1099.8,469.929L929.857,160.972L752.863,482.749L922.805,791.706ZM831.657,518.579C820.114,497.594 826.965,470.757 846.957,458.642C866.95,446.526 892.516,453.714 904.06,474.702L947.951,554.495C959.493,575.48 952.642,602.317 932.65,614.432C912.658,626.548 887.091,619.36 875.547,598.372L831.657,518.579ZM901.523,375.799C889.98,354.814 896.831,327.977 916.823,315.862C936.816,303.746 962.382,310.934 973.926,331.922L1017.82,411.715C1029.36,432.7 1022.51,459.537 1002.52,471.652C982.524,483.768 956.957,476.58 945.413,455.592L901.523,375.799Z"/>
    </g>
</svg>
