<svg xmlns="http://www.w3.org/2000/svg" xml:space="preserve" svgo-fixed="true" viewBox="0 0 1024 1024"><path d="M0 990V34q1-14 10-24Q20 1 34 0h956q14 1 24 10 10 10 10 24v956q-1 14-10 24-10 10-24 10H34q-14 0-24-10-9-10-10-24M64 64v128h896V64zm896 896V256H64v704zM192 768a64 64 0 1 1 0 128 64 64 0 0 1 0-128m704-416c0 18-14 32-32 32H672a32 32 0 0 1 0-64h192c18 0 32 14 32 32m0 96c0 18-14 32-32 32H672a32 32 0 0 1 0-64h192c18 0 32 14 32 32M404 768a64 64 0 1 1 0 128 64 64 0 0 1 0-128M128 641V352c0-18 14-32 32-32h384c18 0 32 14 32 32v288c0 18-14 32-32 32H160a32 32 0 0 1-32-31m64-257v131l49-89a32 32 0 0 1 46-11q8 5 14 13l64 112 45-82q11-17 30-16 20-1 31 16l41 76V384zm210 224h78l-40-72zm-188 0h117l-60-104zm618 160a64 64 0 1 1 0 128 64 64 0 0 1 0-128m-212 0a64 64 0 1 1 0 128 64 64 0 0 1 0-128m276-224c0 18-14 32-32 32H672a32 32 0 0 1 0-64h192c18 0 32 14 32 32m0 96c0 18-14 32-32 32H672a32 32 0 0 1 0-64h192c18 0 32 14 32 32M416 96a32 32 0 1 1 0 64 32 32 0 0 1 0-64m480 32c0 18-14 32-32 32H608a32 32 0 0 1 0-64h256c18 0 32 14 32 32M160 96a32 32 0 1 1 0 64 32 32 0 0 1 0-64m128 0a32 32 0 1 1 0 64 32 32 0 0 1 0-64"/></svg>