<svg xmlns="http://www.w3.org/2000/svg" viewBox="0 0 1024 1024"><path fill="currentColor" d="M516.624.063h-7.266C259.004.063 41.019 184.36 1.385 432.071c-5.284 33.028 3.963 67.377 26.423 93.139 21.799 25.762 52.844 40.295 85.874 40.295h3.963c114.938 0 201.471 28.405 256.958 83.892 56.148 56.148 83.892 144.002 83.231 260.922 0 33.028 14.533 64.075 39.634 85.874 21.137 18.496 48.222 28.405 75.304 27.744 5.945 0 11.89 0 17.835-1.321 250.354-40.295 435.971-261.583 432.669-515.239C1019.313 231.922 792.08 4.028 515.964.065zm58.79 924.789c-3.963 0-9.247-.661-13.211-3.963-1.982-1.982-5.284-5.284-5.284-9.908.661-144.663-36.991-256.299-112.295-331.603-74.643-74.643-184.958-112.956-326.978-112.956h-3.963c-5.284 0-8.588-3.302-10.57-5.284-1.321-1.982-5.284-6.606-3.963-13.211C131.518 248.438 307.227 99.15 509.359 99.15h5.945c218.647 3.302 406.246 190.242 409.548 409.548 2.643 204.775-147.306 383.786-348.777 416.154zm-199.489-609.7c0 36.331-29.725 66.716-66.716 66.716s-66.716-29.725-66.716-66.716 29.725-66.716 66.716-66.716 66.716 29.725 66.716 66.716m199.489-83.231c0 36.331-29.725 66.716-66.716 66.716s-66.716-29.725-66.716-66.716 29.725-66.716 66.716-66.716 66.716 29.725 66.716 66.716m66.716 83.231c0-36.331 29.725-66.716 66.716-66.716s66.716 29.725 66.716 66.716-29.725 66.716-66.716 66.716-66.716-29.725-66.716-66.716m216.004 199.491c0 36.331-29.725 66.716-66.716 66.716s-66.716-29.725-66.716-66.716 29.725-66.716 66.716-66.716 66.716 29.725 66.716 66.716m-83.231 199.489c0 36.331-29.725 66.716-66.716 66.716s-66.716-29.725-66.716-66.716 29.725-66.716 66.716-66.716 66.716 29.725 66.716 66.716"/></svg>