<svg xmlns="http://www.w3.org/2000/svg" xml:space="preserve" svgo-fixed="true" viewBox="0 0 1024 1024"><path fill="currentColor" d="M517 0h-8A517 517 0 0 0 1 432c-5 33 4 67 27 93q35 40 86 41h4q173 0 257 83 83 86 83 261a114 114 0 0 0 115 114l18-1a517 517 0 0 0 432-516A518 518 0 0 0 516 0zm58 925q-6 0-13-4-4-3-5-10 1-218-112-332-113-112-327-113h-4q-9-1-11-5c-1-2-5-6-4-13A418 418 0 0 1 509 99h6c219 3 407 190 410 410 2 204-147 383-349 416zM376 315c0 36-30 67-67 67s-67-30-67-67 30-67 67-67 67 30 67 67m199-83c0 36-29 67-66 67s-67-30-67-67 30-67 67-67 66 30 66 67m67 83c0-36 30-67 67-67s67 30 67 67-30 67-67 67-67-30-67-67m216 200c0 36-30 66-67 66s-66-29-66-66 29-67 66-67 67 30 67 67m-83 199c0 36-30 67-67 67s-67-30-67-67 30-67 67-67 67 30 67 67"/></svg>