<svg xmlns="http://www.w3.org/2000/svg" viewBox="0 0 1024 1024"><path fill="currentColor" d="M45.313 1022.421c-.136.001-.296.003-.456.003-11.964 0-22.806-4.803-30.702-12.588l.006.006C5.913 1001.693.805 990.381.805 977.876q.001-2.102.19-4.155l-.013.176 18.572-230.049c.852-11.108 5.734-20.935 13.169-28.147l662.6-662.6c34.079-31.973 80.059-51.615 130.628-51.615q3.145 0 6.267.101l-.303-.008c52.335.418 99.758 21.108 134.873 54.592l-.079-.074c34.783 35.688 56.235 84.513 56.235 138.348 0 50.427-18.822 96.457-49.825 131.448l.181-.208L310.112 991.27c-7.185 7.16-16.72 11.966-27.348 13.161l-.211.02-233.044 20.968zm59.907-255.21-12.581 164.15 164.15-14.978 653.004-654.202c15.132-17.82 24.333-41.087 24.333-66.503 0-56.908-46.133-103.043-103.043-103.043q-.511 0-1.021.006h.052a93 93 0 0 0-6.112-.194c-25.163 0-48.075 9.635-65.249 25.419l.069-.063zM727.071 84.852"/></svg>