<svg xmlns="http://www.w3.org/2000/svg" viewBox="0 0 1024 1024"><path fill="currentColor" d="M512 1024C229.231 1024 0 794.769 0 512S229.231 0 512 0s512 229.231 512 512-229.231 512-512 512m0-938.667C276.359 85.333 85.333 276.358 85.333 512S276.358 938.667 512 938.667 938.667 747.642 938.667 512 747.642 85.333 512 85.333m0 696.89c-23.436-.316-42.351-19.231-42.667-42.636V284.446c0-23.564 19.103-42.667 42.667-42.667s42.667 19.103 42.667 42.667v455.111c-.316 23.436-19.231 42.351-42.636 42.667H512zm227.556-227.556H284.445c-23.564 0-42.667-19.103-42.667-42.667s19.103-42.667 42.667-42.667h455.111c23.564 0 42.667 19.103 42.667 42.667s-19.103 42.667-42.667 42.667"/></svg>