<?xml version="1.0" encoding="UTF-8" standalone="no"?>
<!DOCTYPE svg PUBLIC "-//W3C//DTD SVG 1.1//EN" "http://www.w3.org/Graphics/SVG/1.1/DTD/svg11.dtd">
<svg width="100%" height="100%" viewBox="0 0 1024 1024" version="1.1" xmlns="http://www.w3.org/2000/svg" xmlns:xlink="http://www.w3.org/1999/xlink" xml:space="preserve" xmlns:serif="http://www.serif.com/" style="fill-rule:evenodd;clip-rule:evenodd;stroke-linejoin:round;stroke-miterlimit:2;">
    <g transform="matrix(5.2754e-17,0.861538,-0.861538,5.2754e-17,1189.63,-210.608)">
        <path d="M754.558,1238L581.863,1238C553.746,1238 530.519,1228.22 509.737,1207.44C490.178,1187.88 480.398,1164.65 480.398,1136.53L480.398,1046.63C372.343,1031.26 289.143,938.271 289.143,826C289.143,713.729 372.343,620.737 480.398,605.371L480.398,515.466C480.398,487.349 490.178,464.122 509.737,443.34C530.519,423.78 553.746,414 581.863,414L656.386,414C678.741,314.547 767.665,240.156 873.826,240.156C979.988,240.156 1068.91,314.547 1091.27,414L1202.93,414C1231.05,414 1254.28,423.78 1275.06,443.34C1294.62,464.122 1304.4,487.349 1304.4,515.466L1304.4,714.951C1284.7,702.929 1261.56,696 1236.81,696C1165.06,696 1106.81,754.251 1106.81,826C1106.81,897.749 1165.06,956 1236.81,956C1261.56,956 1284.7,949.071 1304.4,937.049L1304.4,1136.53C1304.4,1164.65 1294.62,1187.88 1275.06,1207.44C1254.28,1228.22 1231.05,1238 1202.93,1238L995.416,1238C1001.59,1222.87 1004.99,1206.32 1004.99,1188.99C1004.99,1117.24 946.736,1058.99 874.987,1058.99C803.238,1058.99 744.987,1117.24 744.987,1188.99C744.987,1206.32 748.388,1222.87 754.558,1238ZM581.863,935.626L581.863,1136.53L658.349,1136.53C681.961,1038.81 770.053,966.13 874.987,966.13C979.921,966.13 1068.01,1038.81 1091.62,1136.53L1202.93,1136.53L1202.93,1046.29C1095.99,1029.95 1013.96,937.481 1013.96,826C1013.96,714.519 1095.99,622.047 1202.93,605.707L1202.93,515.466L992.794,515.466C999.886,499.419 1003.83,481.673 1003.83,463.013C1003.83,391.264 945.575,333.013 873.826,333.013C802.077,333.013 743.826,391.264 743.826,463.013C743.826,481.673 747.766,499.419 754.858,515.466L581.863,515.466L581.863,716.374C561.68,703.478 537.707,696 512,696C440.251,696 382,754.251 382,826C382,897.749 440.251,956 512,956C537.707,956 561.68,948.522 581.863,935.626Z"/>
    </g>
</svg>
