<svg xmlns="http://www.w3.org/2000/svg" xml:space="preserve" svgo-fixed viewBox="0 0 1024 1024"><path d="M64 480V338q0-37 26-63 25-24 61-25h169v-37q-31-36-32-85a128 128 0 1 1 224 85v37h169a87 87 0 0 1 87 88v142h43q36-31 85-32a128 128 0 1 1-85 224h-43v201a87 87 0 0 1-87 87H448V823a64 64 0 1 0-64 0v137H151q-36 0-61-25a84 84 0 0 1-26-62V544h137a64 64 0 1 0 0-64zm320-160H128v96h43q36-31 85-32a128 128 0 1 1-85 224h-43v288h192v-43q-31-36-32-85a128 128 0 1 1 224 85v43h192V608h137a64 64 0 1 0 0-64H704V320H448V183a64 64 0 1 0-64 0z"/></svg>