<?xml version="1.0" encoding="UTF-8" standalone="no"?>
<!DOCTYPE svg PUBLIC "-//W3C//DTD SVG 1.1//EN" "http://www.w3.org/Graphics/SVG/1.1/DTD/svg11.dtd">
<svg width="100%" height="100%" viewBox="0 0 1024 1024" version="1.1" xmlns="http://www.w3.org/2000/svg" xmlns:xlink="http://www.w3.org/1999/xlink" xml:space="preserve" xmlns:serif="http://www.serif.com/" style="fill-rule:evenodd;clip-rule:evenodd;stroke-linejoin:round;stroke-miterlimit:2;">
    <g transform="matrix(1,0,0,1,-59.046,46.8178)">
        <path d="M123.046,433.182L123.046,290.689C123.046,266.465 131.472,246.454 149.375,228.55C166.226,211.699 186.24,203.273 210.466,203.273L379.046,203.273L379.046,165.811C359.134,143.245 347.046,113.614 347.046,81.182C347.046,10.537 404.401,-46.818 475.046,-46.818C545.691,-46.818 603.046,10.537 603.046,81.182C603.046,113.614 590.958,143.245 571.046,165.811L571.046,203.273L739.629,203.273C763.853,203.273 783.864,211.699 801.768,228.55C818.62,246.454 827.046,266.465 827.046,290.689L827.046,433.182L870.417,433.182C892.983,413.27 922.614,401.182 955.046,401.182C1025.69,401.182 1083.05,458.537 1083.05,529.182C1083.05,599.827 1025.69,657.182 955.046,657.182C922.614,657.182 892.983,645.094 870.417,625.182L827.046,625.182L827.046,825.762C827.046,849.988 818.62,870.002 801.768,887.905C783.864,904.756 763.853,913.182 739.629,913.182L507.046,913.182L507.046,776.609C526.17,765.536 539.046,744.851 539.046,721.182C539.046,685.86 510.369,657.182 475.046,657.182C439.723,657.182 411.046,685.86 411.046,721.182C411.046,744.851 423.922,765.536 443.046,776.609L443.046,913.182L210.466,913.182C186.24,913.182 166.226,904.756 149.375,887.905C131.472,870.002 123.046,849.988 123.046,825.762L123.046,497.182L259.619,497.182C270.692,516.306 291.377,529.182 315.046,529.182C350.369,529.182 379.046,500.505 379.046,465.182C379.046,429.86 350.369,401.182 315.046,401.182C291.377,401.182 270.692,414.058 259.619,433.182L123.046,433.182ZM443.046,273.182L187.046,273.182L187.046,369.182L230.417,369.182C252.983,349.27 282.614,337.182 315.046,337.182C385.691,337.182 443.046,394.537 443.046,465.182C443.046,535.827 385.691,593.182 315.046,593.182C282.614,593.182 252.983,581.094 230.417,561.182L187.046,561.182L187.046,849.182L379.046,849.182L379.046,805.811C359.134,783.245 347.046,753.614 347.046,721.182C347.046,650.537 404.401,593.182 475.046,593.182C545.691,593.182 603.046,650.537 603.046,721.182C603.046,753.614 590.958,783.245 571.046,805.811L571.046,849.182L763.046,849.182L763.046,561.182L899.619,561.182C910.692,580.306 931.377,593.182 955.046,593.182C990.369,593.182 1019.05,564.505 1019.05,529.182C1019.05,493.86 990.369,465.182 955.046,465.182C931.377,465.182 910.692,478.058 899.619,497.182L763.046,497.182L763.046,273.182L507.046,273.182L507.046,136.609C526.17,125.536 539.046,104.851 539.046,81.182C539.046,45.86 510.369,17.182 475.046,17.182C439.723,17.182 411.046,45.86 411.046,81.182C411.046,104.851 423.922,125.536 443.046,136.609L443.046,273.182Z"/>
    </g>
</svg>
