<svg xmlns="http://www.w3.org/2000/svg" viewBox="0 0 1024 1024"><path fill="currentColor" d="M561.547.023v462.433h462.433V.023zm363.34 363.339H660.64V99.115h264.247zM.023 462.454h462.433V.021H.023zM99.116 99.116h264.247v264.247H99.116zM.023 1023.98h462.433V561.547H.023zm99.093-363.34h264.247v264.247H99.116zm462.431-99.093h115.609v115.609H561.547zm231.217 0h115.609v115.609H792.764zM677.156 677.156h115.609v115.609H677.156zm231.215 0h115.609v115.609H908.371zM561.547 792.764h115.609v115.609H561.547zm231.217 0h115.609v115.609H792.764zM677.156 908.371h115.609v115.609H677.156zm231.215 0h115.609v115.609H908.371z"/></svg>