<svg xmlns="http://www.w3.org/2000/svg" viewBox="0 0 1024 1024"><path fill="currentColor" d="M525 946.05q-91.35 0-170.1-34.65c-53.55-23.1-99.75-54.6-139.65-93.45-38.85-39.9-70.35-86.1-93.45-139.65q-34.65-78.75-34.65-170.1c0-60.9 11.55-117.6 34.65-171.15 23.1-52.5 54.6-98.7 93.45-138.6 39.9-38.85 86.1-70.35 139.65-93.45Q433.65 70.35 525 70.35c60.9 0 117.6 11.55 171.15 34.65 52.5 23.1 98.7 54.6 138.6 93.45 38.85 39.9 70.35 86.1 93.45 138.6 23.1 53.55 34.65 110.25 34.65 171.15q0 91.35-34.65 170.1c-23.1 53.55-54.6 99.75-93.45 139.65-39.9 38.85-86.1 70.35-138.6 93.45C642.6 934.5 585.9 946.05 525 946.05m0-88.2c97.65 0 180.6-33.6 248.85-101.85 67.2-67.2 100.8-150.15 100.8-247.8q0-146.475-100.8-248.85Q671.475 158.55 525 158.55c-97.65 0-180.6 33.6-247.8 100.8-68.25 68.25-101.85 151.2-101.85 248.85S208.95 688.8 277.2 756c67.2 68.25 150.15 101.85 247.8 101.85"/></svg>