<svg xmlns="http://www.w3.org/2000/svg" xml:space="preserve" svgo-fixed viewBox="0 0 1024 1024"><path fill="currentColor" d="m247 422 86 36q15-30 31-59c16-29 23-38 36-57l-61-12zm155 90 125 124q47-17 99-53c52-36 67-52 99-82q75-77 119-170 43-94 38-172-79-7-173 37-95 43-170 120-47 46-83 98-34 53-54 98m195-71a82 82 0 0 1-25-61q1-37 25-62c24-25 38-25 62-25q38 0 63 25 26 25 26 62 0 36-26 61-25 25-63 25-36 0-62-25m21 352 92-93-12-61q-28 20-57 36l-59 31zM961 79q20 132-26 257T775 574l21 110q4 20-2 42c-6 22-12 26-22 36L588 946l-91-216-187-187-215-91 182-184q15-16 37-22 21-8 43-2l108 22q114-116 239-161 124-47 257-26M172 683q38-40 94-39 54-2 93 37 38 39 38 94-2 55-39 93-28 27-91 48-64 19-178 34 16-113 36-176 19-65 47-91m62 60q-11 12-22 40c-11 28-12 39-15 59q29-4 58-15 30-10 40-22 14-12 15-31t-13-32q-12-12-31-12t-32 13"/></svg>