<svg xmlns="http://www.w3.org/2000/svg" viewBox="0 0 1024 1024"><path fill="currentColor" d="m246.75 422.1 86.1 35.7c9.45-19.95 21-39.9 31.5-58.8s23.1-37.8 35.7-56.7l-60.9-12.6zm155.4 90.3L527.1 636.3c30.45-11.55 64.05-29.4 98.7-53.55s67.2-51.45 98.7-81.9q75.6-77.175 119.7-170.1c28.35-63 40.95-119.7 37.8-172.2q-78.75-6.3-173.25 37.8-94.5 42.525-170.1 119.7c-31.5 30.45-58.8 63-82.95 97.65-23.1 35.7-40.95 68.25-53.55 98.7m195.3-71.4c-16.8-16.8-25.2-36.75-25.2-60.9 0-25.2 8.4-45.15 25.2-61.95s37.8-25.2 61.95-25.2q37.8 0 63 25.2c16.8 16.8 25.2 36.75 25.2 61.95 0 24.15-8.4 44.1-25.2 60.9q-25.2 25.2-63 25.2c-24.15 0-45.15-8.4-61.95-25.2m21 351.75 91.35-92.4-11.55-60.9c-18.9 12.6-37.8 25.2-57.75 35.7-18.9 10.5-37.8 21-58.8 30.45zm342.3-714C974.4 166.95 966 252 934.5 336c-30.45 82.95-84 162.75-159.6 238.35l21 109.2c3.15 13.65 2.1 28.35-2.1 42s-11.55 26.25-22.05 36.75L588 946.05l-91.35-216.3-186.9-186.9L94.5 451.5l182.7-183.75c9.45-10.5 22.05-17.85 36.75-22.05 13.65-4.2 28.35-5.25 43.05-2.1l108.15 22.05C540.75 189 620.55 135.45 703.5 105c82.95-31.5 169.05-40.95 257.25-26.25M172.2 682.5c25.2-26.25 56.7-38.85 93.45-38.85 36.75-1.05 67.2 11.55 93.45 37.8 25.2 25.2 37.8 56.7 37.8 93.45-1.05 36.75-13.65 67.2-38.85 93.45q-28.35 26.775-91.35 47.25c-43.05 12.6-101.85 24.15-177.45 34.65 10.5-75.6 22.05-134.4 35.7-176.4q18.9-64.575 47.25-91.35m61.95 60.9c-7.35 7.35-14.7 21-22.05 39.9s-12.6 38.85-14.7 58.8c18.9-3.15 38.85-8.4 57.75-14.7 19.95-7.35 32.55-14.7 39.9-22.05 9.45-8.4 13.65-18.9 14.7-31.5q1.575-18.9-12.6-31.5-12.6-12.6-31.5-12.6c-12.6 0-23.1 5.25-31.5 13.65"/></svg>