<svg xmlns="http://www.w3.org/2000/svg" viewBox="0 0 1024 1024"><path fill="currentColor" d="M218.4 901.95c-36.75 0-63-16.8-78.75-49.35-15.75-33.6-11.55-64.05 11.55-92.4l242.55-296.1V201.6h-44.1c-11.55 0-22.05-4.2-30.45-12.6s-12.6-18.9-12.6-30.45q0-18.9 12.6-31.5c8.4-8.4 18.9-12.6 30.45-12.6h350.7c12.6 0 22.05 4.2 30.45 12.6q12.6 12.6 12.6 31.5c0 11.55-4.2 22.05-12.6 30.45s-17.85 12.6-30.45 12.6h-44.1v262.5L898.8 760.2c24.15 28.35 27.3 58.8 11.55 92.4-15.75 32.55-42 49.35-78.75 49.35zm0-87.15h613.2L569.1 494.55V201.6h-88.2v292.95z"/></svg>