<svg xmlns="http://www.w3.org/2000/svg" viewBox="0 0 1024 1024"><path fill="currentColor" d="M440.071 880.415C196.876 880.415-.273 683.266-.273 440.071S196.876-.273 440.071-.273s440.344 197.149 440.344 440.344c-.332 243.061-197.282 440.011-440.311 440.344zm0-792.384c-193.781 0-350.872 157.09-350.872 350.872s157.09 350.872 350.872 350.872c193.781 0 350.872-157.09 350.872-350.872 0-193.781-157.09-350.872-350.872-350.872m539.757 935.656h-.204c-12.045 0-22.94-4.92-30.785-12.862l-241.52-241.52a43.69 43.69 0 0 1-11.771-29.899c0-24.222 19.636-43.859 43.859-43.859 11.568 0 22.088 4.478 29.926 11.795l-.026-.023 241.516 241.516c7.925 7.934 12.827 18.892 12.827 30.993s-4.901 23.059-12.827 30.995c-7.849 7.945-18.744 12.866-30.789 12.866h-.215.011zm-394.73-540.926H292.705c-24.222 0-43.859-19.636-43.859-43.859s19.636-43.859 43.859-43.859h292.393c24.222 0 43.859 19.636 43.859 43.859s-19.636 43.859-43.859 43.859"/></svg>