<svg xmlns="http://www.w3.org/2000/svg" viewBox="0 0 1024 1024"><path fill="currentColor" d="M998.721 25.279C983.411 10.073 962.316.678 939.026.678a84.6 84.6 0 0 0-26.795 4.325l.597-.173L57.997 289.968C23.664 301.092-.725 332.786-.725 370.178c0 32.269 18.165 60.295 44.829 74.41l.459.221 354.67 175.29 175.29 355.84c14.186 27.601 42.466 46.16 75.08 46.16h6.136c34.71-2.632 63.306-26.111 73.46-57.839l.162-.591 289.228-852.494c2.939-8.121 4.642-17.492 4.642-27.261 0-22.937-9.373-43.685-24.499-58.622l-.01-.01zM94.226 370.599l746.151-248.912-414.27 414.27zm559.758 559.175L488.044 597.89l414.27-414.27z"/></svg>