<svg xmlns="http://www.w3.org/2000/svg" viewBox="0 0 1024 1024"><path fill="currentColor" d="M1023.969 301.19V120.495c0-33.265-26.967-60.232-60.232-60.232H60.263C26.998 60.263.031 87.23.031 120.495V301.19c0 33.265 26.967 60.232 60.232 60.232-33.265 0-60.232 26.967-60.232 60.232v180.695c0 33.265 26.967 60.232 60.232 60.232-33.265 0-60.232 26.967-60.232 60.232v180.695c0 33.265 26.967 60.232 60.232 60.232h903.474c33.265 0 60.232-26.967 60.232-60.232V722.813c0-33.265-26.967-60.232-60.232-60.232 33.265 0 60.232-26.967 60.232-60.232V421.654c0-33.265-26.967-60.232-60.232-60.232 33.265 0 60.232-26.967 60.232-60.232m-60.232 602.315H60.263V722.81h903.474zm0-301.158H60.263V421.652h903.474zm0-301.157H60.263V120.495h903.474zm-752.895-90.348c0 24.949-20.225 45.174-45.174 45.174s-45.174-20.225-45.174-45.174 20.225-45.174 45.174-45.174 45.174 20.225 45.174 45.174m150.579 0c0 24.949-20.225 45.174-45.174 45.174s-45.174-20.225-45.174-45.174 20.225-45.174 45.174-45.174 45.174 20.225 45.174 45.174M210.842 512c0 24.949-20.225 45.174-45.174 45.174S120.494 536.949 120.494 512s20.225-45.174 45.174-45.174 45.174 20.225 45.174 45.174m150.579 0c0 24.949-20.225 45.174-45.174 45.174S271.073 536.949 271.073 512s20.225-45.174 45.174-45.174 45.174 20.225 45.174 45.174M210.842 813.158c0 24.949-20.225 45.174-45.174 45.174s-45.174-20.225-45.174-45.174 20.225-45.174 45.174-45.174 45.174 20.225 45.174 45.174m150.579 0c0 24.949-20.225 45.174-45.174 45.174s-45.174-20.225-45.174-45.174 20.225-45.174 45.174-45.174 45.174 20.225 45.174 45.174"/></svg>