<?xml version="1.0" encoding="UTF-8" standalone="no"?>
<!DOCTYPE svg PUBLIC "-//W3C//DTD SVG 1.1//EN" "http://www.w3.org/Graphics/SVG/1.1/DTD/svg11.dtd">
<svg width="100%" height="100%" viewBox="0 0 1024 1024" version="1.1" xmlns="http://www.w3.org/2000/svg" xmlns:xlink="http://www.w3.org/1999/xlink" xml:space="preserve" xmlns:serif="http://www.serif.com/" style="fill-rule:evenodd;clip-rule:evenodd;stroke-linejoin:round;stroke-miterlimit:2;">
    <g transform="matrix(1.05321,0,0,1.05321,-14.605,-27.2439)">
        <path d="M669.999,329.701C690.976,329.701 710.556,340.221 722.135,357.713L853.999,556.923C860.474,566.704 863.939,578.169 863.965,589.899L864.466,816.454C864.502,832.394 858.195,847.692 846.936,858.976C835.678,870.259 820.393,876.6 804.454,876.6L196.536,876.6C180.163,876.6 164.472,870.041 152.97,858.388C141.468,846.736 135.113,830.961 135.326,814.59C135.29,743.155 135.235,635.284 135.4,633.534C135.768,629.648 135.679,607.238 135.559,590.797C135.665,578.857 139.23,567.204 145.82,557.248C172.76,516.495 245.183,407.086 278.807,356.29C289.798,339.686 308.382,329.701 328.294,329.701L669.999,329.701ZM196.167,633.534L196.167,815.833L803.833,815.833L803.833,633.534L196.167,633.534ZM591.15,694.3C607.919,694.3 621.533,707.914 621.533,724.683C621.533,741.452 607.919,755.067 591.15,755.067C574.381,755.067 560.767,741.452 560.767,724.683C560.767,707.914 574.381,694.3 591.15,694.3ZM712.683,694.3C729.452,694.3 743.066,707.914 743.066,724.683C743.066,741.452 729.452,755.067 712.683,755.067C695.914,755.067 682.3,741.452 682.3,724.683C682.3,707.914 695.914,694.3 712.683,694.3ZM208.386,572.767L791.614,572.767L670.942,390.467L329.057,390.467L208.386,572.767Z"/>
    </g>
</svg>
