<?xml version="1.0" encoding="UTF-8" standalone="no"?>
<!DOCTYPE svg PUBLIC "-//W3C//DTD SVG 1.1//EN" "http://www.w3.org/Graphics/SVG/1.1/DTD/svg11.dtd">
<svg width="100%" height="100%" viewBox="0 0 1024 1024" version="1.1" xmlns="http://www.w3.org/2000/svg" xmlns:xlink="http://www.w3.org/1999/xlink" xml:space="preserve" xmlns:serif="http://www.serif.com/" style="fill-rule:evenodd;clip-rule:evenodd;stroke-linejoin:round;stroke-miterlimit:2;">
    <g transform="matrix(1.05321,0,0,1.05321,-14.605,-27.2439)">
        <path d="M125,804C125,804 124.752,609.477 125,606.856C125.612,600.385 127.753,593.962 131.537,588.132L302.864,324.187C312.478,309.376 329.909,302.697 346.22,306.052L651.198,306.052C667.509,302.697 684.94,309.376 694.554,324.187C694.554,324.187 849.968,562.257 851,563.228C867,584.026 875,599.228 875,622.228L875,804C875,827 867,846 851,863C834,879 815,887 792,887L208,887C185,887 166,879 150,863C133,846 125,827 125,804ZM359.894,389.386L262.631,539.228L734.787,539.228L637.524,389.386L359.894,389.386ZM208,623.391L208,804L792,804L791.511,622.228L208,623.391ZM697.689,672.462C718.65,672.462 735.668,689.48 735.668,710.441C735.668,731.403 718.65,748.42 697.689,748.42C676.727,748.42 659.709,731.403 659.709,710.441C659.709,689.48 676.727,672.462 697.689,672.462ZM579.953,672.462C600.914,672.462 617.932,689.48 617.932,710.441C617.932,731.403 600.914,748.42 579.953,748.42C558.992,748.42 541.974,731.403 541.974,710.441C541.974,689.48 558.992,672.462 579.953,672.462Z"/>
    </g>
</svg>
