<svg xmlns="http://www.w3.org/2000/svg" xml:space="preserve" svgo-fixed viewBox="0 0 1024 1024"><path fill="currentColor" d="M1024 301V120c0-33-27-60-60-60H60C27 60 0 87 0 120v181c0 33 27 60 60 60-33 0-60 27-60 61v180c0 34 27 61 60 61-33 0-60 27-60 60v181c0 33 27 60 60 60h904c33 0 60-27 60-60V723c0-33-27-60-60-60 33 0 60-27 60-61V422c0-34-27-61-60-61 33 0 60-27 60-60m-60 603H60V723h904zm0-302H60V422h904zm0-301H60V120h904zm-753-90a45 45 0 1 1-91 0 45 45 0 0 1 91 0m150 0a45 45 0 1 1-90 0 45 45 0 0 1 90 0M211 512a45 45 0 1 1-91 0 45 45 0 0 1 91 0m150 0a45 45 0 1 1-90 0 45 45 0 0 1 90 0M211 813a45 45 0 1 1-91 0 45 45 0 0 1 91 0m150 0a45 45 0 1 1-90 0 45 45 0 0 1 90 0"/></svg>