<svg xmlns="http://www.w3.org/2000/svg" viewBox="0 0 1024 1024"><path fill="currentColor" d="M512 1023.233a50.7 50.7 0 0 1-16.713-3.034l.353.112C201.216 887.325.018 596.262.018 258.203c0-25.218 1.12-50.181 3.311-74.828l-.228 3.185c1.091-20.259 15.977-36.738 35.376-40.276l.266-.038C208.814 119.974 361.934 70.557 503.145.712l-9.257 4.14c5.319-2.475 11.548-3.917 18.114-3.917s12.794 1.442 18.385 4.03l-.271-.112c131.953 65.702 285.069 115.119 446.231 140.248l8.916 1.146c19.665 3.576 34.547 20.055 35.634 40.204l.003.11c1.964 21.462 3.084 46.42 3.084 71.642 0 338.056-201.194 629.119-490.377 759.984l-5.245 2.124c-4.86 1.783-10.476 2.845-16.326 2.921h-.034zM88.991 226.293c-.817 12.916-1.282 28.011-1.282 43.216 0 292.016 171.793 543.905 419.826 660.115l4.464 1.881c252.498-118.092 424.293-369.981 424.293-661.997 0-15.204-.465-30.297-1.384-45.268l.1 2.056c-158.673-27.438-300.659-73.974-432.589-137.992l9.58 4.192C389.647 152.318 247.662 198.855 98.63 224.899z"/></svg>