<svg xmlns="http://www.w3.org/2000/svg" viewBox="0 0 1024 1024"><path fill="currentColor" d="M863.075 1023.984H687.537c-24.237 0-43.884-19.648-43.884-43.884s19.648-43.884 43.884-43.884h175.538a66 66 0 0 0 5.881.255c34.275 0 62.615-25.405 67.22-58.41l.041-.357V148.053c-4.645-33.363-32.986-58.768-67.261-58.768a69 69 0 0 0-6.141.274l.261-.019H687.538c-24.237 0-43.884-19.648-43.884-43.884s19.648-43.884 43.884-43.884h175.538c1.958-.089 4.255-.14 6.565-.14 83.099 0 150.872 65.615 154.335 147.863l.011.313v726.14c-3.472 82.56-71.246 148.176-154.344 148.176q-3.464 0-6.89-.151l.325.011zM453.487 789.935h-.204c-12.052 0-22.953-4.923-30.803-12.869l-.004-.004c-7.929-7.939-12.835-18.903-12.835-31.011s4.904-23.072 12.835-31.013L625.514 512 422.476 308.962a43.7 43.7 0 0 1-11.777-29.917c0-24.237 19.648-43.884 43.884-43.884 11.575 0 22.101 4.48 29.943 11.802l-.026-.023 234.051 234.051c7.929 7.939 12.835 18.903 12.835 31.011s-4.904 23.072-12.835 31.013L484.5 777.066c-7.854 7.95-18.755 12.873-30.807 12.873h-.215.011zm234.051-234.051H43.9C19.663 555.884.016 536.236.016 512s19.648-43.884 43.884-43.884h643.638c24.237 0 43.884 19.648 43.884 43.884s-19.648 43.884-43.884 43.884"/></svg>