<svg xmlns="http://www.w3.org/2000/svg" viewBox="0 0 1024 1024"><path fill="currentColor" d="M336.515 1023.832H161.03c-1.958.089-4.254.14-6.563.14-83.075 0-150.827-65.596-154.289-147.819l-.011-.313V148.161C3.638 65.625 71.392.029 154.465.029q3.463 0 6.888.151l-.325-.011h175.485c24.229 0 43.871 19.642 43.871 43.871s-19.642 43.871-43.871 43.871H161.028a66 66 0 0 0-5.879-.255c-34.265 0-62.596 25.397-67.2 58.393l-.041.356v729.434c4.644 33.353 32.976 58.751 67.241 58.751q3.105-.001 6.139-.274l-.26.019h175.485c24.229 0 43.871 19.642 43.871 43.871s-19.642 43.871-43.871 43.871zm409.466-233.98h-.204c-12.048 0-22.946-4.922-30.794-12.865l-.004-.004c-7.927-7.937-12.831-18.898-12.831-31.002s4.903-23.065 12.831-31.003L917.957 512 714.979 309.022c-8.602-8.031-13.963-19.438-13.963-32.097 0-24.229 19.642-43.871 43.871-43.871 12.66 0 24.066 5.362 32.073 13.937l.023.026 233.981 233.981c7.927 7.937 12.831 18.898 12.831 31.002s-4.903 23.065-12.831 31.003L776.983 776.984c-7.852 7.948-18.75 12.869-30.798 12.869h-.215zm233.98-233.981H336.515c-24.229 0-43.871-19.642-43.871-43.871s19.642-43.871 43.871-43.871h643.446c24.229 0 43.871 19.642 43.871 43.871s-19.642 43.871-43.871 43.871"/></svg>