<svg xmlns="http://www.w3.org/2000/svg" viewBox="0 0 1024 1024"><path fill="currentColor" d="M299.298 14.597c-4.624-4.624-9.908-7.927-15.853-10.57-11.89-5.284-25.762-5.284-37.652 0-5.945 2.643-11.229 5.945-15.853 10.57L64.799 179.738c-19.156 19.156-19.156 50.863 0 70.02s50.863 19.156 70.02 0l80.588-80.588v805.226c0 27.083 22.46 49.542 49.542 49.542s49.542-22.46 49.542-49.542V169.17l80.588 80.588c9.908 9.908 22.46 14.533 35.009 14.533s25.101-4.624 35.009-14.533c19.156-19.156 19.156-50.863 0-70.02L299.956 14.597zm672.453 910.255L858.795 608.443c-11.229-28.405-36.991-46.899-66.057-46.899s-54.826 18.496-66.057 48.222L614.386 924.854c-9.247 25.762 3.963 54.167 29.725 63.414s54.167-3.963 63.414-29.725l18.496-51.524h134.094l18.496 51.524c7.266 20.478 26.423 33.028 46.899 33.028 5.284 0 11.229-.661 16.515-2.643 25.762-9.247 38.973-37.652 29.725-63.414zm-210.72-116.92 31.707-88.515 31.707 88.515zM632.883 415.558c12.551 29.064 38.973 46.899 69.359 46.899h206.756c27.083 0 49.542-22.46 49.542-49.542s-22.46-49.542-49.542-49.542H751.124l186.279-193.544c22.46-23.78 29.064-58.79 15.853-89.176-12.551-29.064-38.973-46.899-69.359-46.899H678.463c-27.083 0-49.542 22.46-49.542 49.542s22.46 49.542 49.542 49.542h157.874l-186.94 194.866c-22.46 23.78-28.405 58.13-15.853 88.515z"/></svg>