<svg xmlns="http://www.w3.org/2000/svg" xml:space="preserve" svgo-fixed="true" viewBox="0 0 1024 1024"><path fill="currentColor" d="m394 774-80 81V50c0-27-23-50-50-50s-49 23-49 50v805l-81-81c-19-19-51-19-70 0s-19 51 0 70l165 165a51 51 0 0 0 35 15q10 0 19-4 12-5 16-11l165-165c20-19 20-51 0-70s-50-19-70 0m250-314c26 9 54-4 64-30l18-51h134l19 51a50 50 0 0 0 63 30c26-9 39-37 30-63L859 81c-11-29-37-47-66-47s-55 18-66 48L614 397c-9 26 4 54 30 63zm180-181h-63l32-88zm129 329a75 75 0 0 0-70-46H678c-27 0-50 22-50 49s23 50 50 50h158L649 855a82 82 0 0 0-16 89c12 29 39 47 69 47h207c27 0 50-23 50-50s-23-49-50-49H751l186-194c23-24 29-59 16-89z"/></svg>