<svg xmlns="http://www.w3.org/2000/svg" xml:space="preserve" svgo-fixed="true" viewBox="0 0 1024 1024"><path fill="currentColor" d="M190 966q-17-1-31-13L13 806c-17-17-17-45 0-62s45-17 62 0l115 116 115-116c17-17 45-17 62 0s17 45 0 62L221 953q-14 12-31 13m0 0c-24 0-44-20-44-44V102c0-24 20-44 44-44s44 20 44 44v820c0 24-20 44-44 44m790-147H512c-24 0-44-20-44-44s20-44 44-44h468c24 0 44 20 44 44s-20 44-44 44M746 468H512c-24 0-44-20-44-44s20-44 44-44h234c24 0 44 20 44 44s-20 44-44 44M629 293H512c-24 0-44-20-44-44s20-44 44-44h117c24 0 44 20 44 44s-20 44-44 44m234 351H512c-24 0-44-20-44-44s20-44 44-44h351c24 0 44 20 44 44s-20 44-44 44"/></svg>