<svg xmlns="http://www.w3.org/2000/svg" xml:space="preserve" svgo-fixed viewBox="0 0 1024 1024"><path fill="currentColor" d="M336 293q-17 0-31-13L190 164 75 280c-17 17-45 17-62 0s-17-45 0-62L159 71c17-17 45-17 62 0l146 147c17 17 17 45 0 62q-13 12-31 13M190 966c-24 0-44-20-44-44V102c0-24 20-44 44-44s44 20 44 44v820c0 24-20 44-44 44m790-147H512c-24 0-44-20-44-44s20-44 44-44h468c24 0 44 20 44 44s-20 44-44 44M746 468H512c-24 0-44-20-44-44s20-44 44-44h234c24 0 44 20 44 44s-20 44-44 44M629 293H512c-24 0-44-20-44-44s20-44 44-44h117c24 0 44 20 44 44s-20 44-44 44m234 351H512c-24 0-44-20-44-44s20-44 44-44h351c24 0 44 20 44 44s-20 44-44 44"/></svg>