<svg xmlns="http://www.w3.org/2000/svg" viewBox="0 0 1024 1024"><path fill="currentColor" d="M315.813 14.597c-4.624-4.624-9.908-7.927-15.853-10.57-11.89-5.284-25.762-5.284-37.652 0-5.945 2.643-11.229 5.945-15.853 10.57L81.314 179.738c-19.156 19.156-19.156 50.863 0 70.02s50.863 19.156 70.02 0l80.588-80.588v805.226c0 27.083 22.46 49.542 49.542 49.542s49.542-22.46 49.542-49.542V169.17l80.588 80.588c9.908 9.908 22.46 14.533 35.009 14.533s25.101-4.624 35.009-14.533c19.156-19.156 19.156-50.863 0-70.02L316.471 14.597zM766.977 159.26l25.762-13.872v268.189c0 27.083 22.46 49.542 49.542 49.542s49.542-22.46 49.542-49.542V119.626c0-34.35-18.496-64.735-48.881-78.606-26.423-12.551-56.808-9.247-80.588 7.927l-42.936 23.78c-23.78 13.211-32.368 43.597-19.156 67.377s42.936 32.368 67.377 19.156zm42.276 402.282c-81.91 0-148.627 66.716-148.627 148.627s66.716 148.627 148.627 148.627c11.229 0 21.799-1.321 32.368-3.963-15.192 21.799-39.634 36.991-66.716 36.991h-31.707c-27.083 0-49.542 22.46-49.542 49.542s22.46 49.542 49.542 49.542h31.707c95.121 0 177.031-77.286 181.654-172.407 1.321-21.137 1.321-45.579 1.321-75.304v-33.028c0-81.91-66.716-148.627-148.627-148.627m-49.542 148.627c0-27.083 22.46-49.542 49.542-49.542s49.542 22.46 49.542 49.542-22.46 49.542-49.542 49.542-49.542-22.46-49.542-49.542"/></svg>