<svg xmlns="http://www.w3.org/2000/svg" viewBox="0 0 1024 1024"><path fill="currentColor" d="m410.934 774.244-80.588 80.588V49.606c0-27.083-22.46-49.542-49.542-49.542s-49.542 22.46-49.542 49.542v805.226l-80.588-80.588c-19.156-19.156-50.863-19.156-70.02 0s-19.156 50.863 0 70.02l165.141 165.141c4.624 4.624 9.908 7.927 15.853 10.57s12.551 3.963 19.156 3.963 12.551-1.321 19.156-3.963c5.945-2.643 11.229-5.945 15.853-10.57l165.141-165.141c19.156-19.156 19.156-50.863 0-70.02s-50.863-19.156-70.02 0m432.008-204.775c-26.423-12.551-56.808-9.247-80.588 7.927l-42.936 23.78c-23.78 13.211-32.368 43.597-19.156 67.377s43.597 32.368 67.377 19.156l25.762-13.872v268.189c0 27.083 22.46 49.542 49.542 49.542s49.542-22.46 49.542-49.542V648.075c0-34.35-18.496-64.735-48.881-78.606zM809.253 33.093c-81.91 0-148.627 66.716-148.627 148.627s66.716 148.627 148.627 148.627c11.229 0 21.799-1.321 32.368-3.963-15.192 21.799-39.634 36.991-66.716 36.991h-31.707c-27.083 0-49.542 22.46-49.542 49.542s22.46 49.542 49.542 49.542h31.707c95.121 0 177.031-77.286 181.654-172.407 1.321-21.137 1.321-45.579 1.321-75.304V181.72c0-81.91-66.716-148.627-148.627-148.627m-49.542 148.626c0-27.083 22.46-49.542 49.542-49.542s49.542 22.46 49.542 49.542-22.46 49.542-49.542 49.542-49.542-22.46-49.542-49.542"/></svg>