<svg xmlns="http://www.w3.org/2000/svg" xml:space="preserve" svgo-fixed viewBox="0 0 1024 1024"><path fill="currentColor" d="m394 774-80 81V50c0-27-23-50-50-50s-49 23-49 50v805l-81-81c-19-19-51-19-70 0s-19 51 0 70l165 165a51 51 0 0 0 35 15 50 50 0 0 0 35-15l165-165c20-19 20-51 0-70s-50-19-70 0m578 151L859 608c-11-28-37-46-66-46s-55 18-66 48L614 925a49 49 0 1 0 94 34l18-52h134l19 52a50 50 0 0 0 63 30c26-9 39-38 30-63zM761 808l32-89 31 89zM633 416c12 29 39 46 69 46h207c27 0 50-22 50-49s-23-50-50-50H751l186-193c23-24 29-59 16-89a75 75 0 0 0-69-47H678c-27 0-49 22-49 49s22 50 49 50h158L649 328a82 82 0 0 0-15 88z"/></svg>