<svg xmlns="http://www.w3.org/2000/svg" xml:space="preserve" svgo-fixed="true" viewBox="0 0 1024 1024"><path fill="currentColor" d="m411 774-81 81V50c0-27-22-50-49-50s-50 23-50 50v805l-80-81c-19-19-51-19-70 0s-20 51 0 70l165 165a51 51 0 0 0 35 15q10 0 19-4c9-4 11-6 16-11l165-165c19-19 19-51 0-70s-51-19-70 0m356-615 26-14v269c0 27 22 49 49 49s50-22 50-49V120c0-35-19-65-49-79-26-13-57-9-81 8l-43 24a49 49 0 1 0 48 87zm42 403a149 149 0 0 0 0 297q17 0 33-4a83 83 0 0 1-67 37h-32c-27 0-49 22-49 49s22 50 49 50h32c95 0 177-77 182-172l1-76v-33c0-82-67-148-149-148m-49 148c0-27 22-49 49-49s50 22 50 49-23 50-50 50-49-23-49-50"/></svg>