<svg xmlns="http://www.w3.org/2000/svg" viewBox="0 0 1024 1024"><path fill="currentColor" d="M190.135 965.536c-11.119 0-22.237-4.097-31.016-12.875L12.817 806.359c-16.971-16.971-16.971-45.061 0-62.032s45.061-16.971 62.032 0l115.285 115.285 115.285-115.285c16.971-16.971 45.061-16.971 62.032 0s16.971 45.061 0 62.032L221.149 952.661c-8.778 8.778-19.898 12.875-31.016 12.875zm0 0c-23.993 0-43.891-19.898-43.891-43.891v-819.29c0-23.993 19.898-43.891 43.891-43.891s43.891 19.898 43.891 43.891v819.29c0 23.993-19.898 43.891-43.891 43.891m790.031-672.989H512c-23.993 0-43.891-19.898-43.891-43.891s19.898-43.891 43.891-43.891h468.166c23.993 0 43.891 19.898 43.891 43.891s-19.898 43.891-43.891 43.891M746.084 643.672H512c-23.993 0-43.891-19.898-43.891-43.891S488.007 555.89 512 555.89h234.084c23.993 0 43.891 19.898 43.891 43.891s-19.898 43.891-43.891 43.891M629.041 819.234H512c-23.993 0-43.891-19.898-43.891-43.891s19.898-43.891 43.891-43.891h117.041c23.993 0 43.891 19.898 43.891 43.891s-19.898 43.891-43.891 43.891m234.084-351.125H512c-23.993 0-43.891-19.898-43.891-43.891s19.898-43.891 43.891-43.891h351.125c23.993 0 43.891 19.898 43.891 43.891s-19.898 43.891-43.891 43.891"/></svg>