<svg xmlns="http://www.w3.org/2000/svg" xml:space="preserve" svgo-fixed viewBox="0 0 1024 1024"><path fill="currentColor" d="M316 15q-7-7-16-11-19-7-38 0-9 4-16 11L81 180c-19 19-19 51 0 70s51 19 70 0l81-81v805c0 27 22 50 49 50s50-23 50-50V169l81 81q15 14 35 14c20 0 25-4 35-14 19-19 19-51 0-70zm527 554c-26-12-57-9-81 8l-43 24c-23 13-32 44-19 68s44 32 68 19l25-14v268c0 27 23 50 50 50s49-23 49-50V648c0-34-18-65-48-79zM809 33a149 149 0 0 0 0 297q17 0 33-4a83 83 0 0 1-67 37h-32c-27 0-49 23-49 50s22 49 49 49h32c95 0 177-77 182-172l1-75v-33c0-82-67-149-149-149m-49 149c0-27 22-50 49-50s50 23 50 50-23 49-50 49-49-22-49-49"/></svg>