<svg xmlns="http://www.w3.org/2000/svg" xml:space="preserve" svgo-fixed="true" viewBox="0 0 1024 1024"><path fill="currentColor" d="m411 774-81 81V50c0-27-22-50-49-50s-50 23-50 50v805l-80-81c-19-19-51-19-70 0s-20 51 0 70l165 165a51 51 0 0 0 35 15 50 50 0 0 0 35-15l165-165c19-19 19-51 0-70s-51-19-70 0m432-205c-26-12-57-9-81 8l-43 24c-23 13-32 44-19 68s44 32 68 19l25-14v268c0 27 23 50 50 50s49-23 49-50V648c0-34-18-65-48-79zM809 33a149 149 0 0 0 0 297q17 0 33-4a83 83 0 0 1-67 37h-32c-27 0-49 23-49 50s22 49 49 49h32c95 0 177-77 182-172l1-75v-33c0-82-67-149-149-149m-49 149c0-27 22-50 49-50s50 23 50 50-23 49-50 49-49-22-49-49"/></svg>