<svg xmlns="http://www.w3.org/2000/svg" viewBox="0 0 1024 1024"><path fill="currentColor" d="M512 161.684c44.648 0 80.842-36.195 80.842-80.843S556.648-.001 512-.001s-80.842 36.194-80.842 80.842 36.194 80.843 80.842 80.843M161.684 512c0 44.648-36.195 80.842-80.843 80.842S-.001 556.648-.001 512s36.194-80.842 80.842-80.842 80.843 36.194 80.843 80.842M1024 512c0 44.648-36.191 80.842-80.845 80.842-44.646 0-80.837-36.194-80.837-80.842s36.191-80.842 80.837-80.842c44.654 0 80.845 36.194 80.845 80.842M592.842 943.155c0 44.654-36.195 80.845-80.843 80.845s-80.842-36.191-80.842-80.845c0-44.646 36.194-80.837 80.842-80.837s80.843 36.191 80.843 80.837M149.971 264.301c31.571 31.571 82.757 31.571 114.328 0s31.571-82.757 0-114.328-82.757-31.571-114.328 0-31.571 82.757 0 114.328m724.057 609.727c-31.568 31.568-82.754 31.568-114.33 0-31.568-31.576-31.568-82.761 0-114.33 31.576-31.572 82.761-31.572 114.33 0 31.568 31.568 31.568 82.754 0 114.33m-724.057 0c31.571 31.568 82.757 31.568 114.328 0 31.571-31.576 31.571-82.761 0-114.33-31.571-31.572-82.757-31.572-114.328 0-31.571 31.568-31.571 82.754 0 114.33"/></svg>