<svg xmlns="http://www.w3.org/2000/svg" xml:space="preserve" svgo-fixed viewBox="0 0 1024 1024"><path fill="currentColor" d="M803 1001a41 41 0 0 1-20-5L512 854 241 996q-9 5-20 5a42 42 0 0 1-24-8 42 42 0 0 1-17-41l53-302L12 437a42 42 0 0 1-10-44q9-24 34-28l303-44L475 46a44 44 0 0 1 74 0l136 275 303 44q25 4 34 28l2 14q-1 17-12 30L791 650l52 302 1 7q-1 22-17 34-10 8-24 8M512 765q11 0 20 4l215 112-41-240-1-7q1-18 13-30l174-168-241-36q-21-4-31-22v-1L512 159 404 378q-10 19-31 23l-241 35 174 168q13 12 13 30l-1 7-41 242 215-112q9-5 20-6z"/></svg>