<svg xmlns="http://www.w3.org/2000/svg" viewBox="0 0 1024 1024"><path fill="currentColor" d="M802.661 1001.092a40.63 40.63 0 0 1-19.772-5.137l.207.106L512 853.526 240.904 996.061c-5.737 3.14-12.567 4.986-19.829 4.986a41.72 41.72 0 0 1-24.452-7.867l.124.085c-10.58-7.82-17.366-20.248-17.366-34.262 0-2.509.217-4.966.634-7.355l-.037.254 52.543-301.84L12.289 436.538C4.712 428.953.024 418.479.024 406.909c0-4.8.807-9.412 2.291-13.706l-.089.295c4.841-15.028 17.641-26.148 33.311-28.48l.227-.028 302.957-44.158 135.828-274.45C482.294 33.553 496.16 25.106 512 25.106s29.706 8.446 37.341 21.08l.11.195 135.828 274.45 302.957 44.158c15.896 2.359 28.697 13.479 33.457 28.215l.081.292c1.397 4 2.204 8.611 2.204 13.411 0 11.569-4.686 22.045-12.265 29.63L791.481 650.061l51.984 301.84c.38 2.135.597 4.593.597 7.101 0 14.014-6.786 26.444-17.251 34.181l-.115.081c-6.725 4.703-15.021 7.598-23.979 7.824l-.056.001zM512 764.651c7.119.088 13.834 1.727 19.85 4.594l-.287-.123 215.201 111.792-40.805-239.795c-.368-2.129-.579-4.58-.579-7.081 0-11.813 4.698-22.528 12.328-30.38l-.01.01 174.396-167.689-240.912-35.774c-13.783-2.252-25.168-10.868-31.19-22.677l-.111-.241-107.88-217.995-107.88 218.555c-6.135 12.049-17.52 20.666-31.056 22.884l-.246.033-240.912 35.215 174.396 167.689c7.619 7.842 12.317 18.557 12.317 30.37a44 44 0 0 1-.614 7.338l.035-.257-40.805 241.472 215.201-111.792c5.628-3.296 12.279-5.497 19.381-6.135z"/></svg>