<svg xmlns="http://www.w3.org/2000/svg" viewBox="0 0 1024 1024"><path fill="currentColor" d="M512 806.395c-162.589 0-294.395-131.804-294.395-294.395S349.409 217.605 512 217.605c162.589 0 294.395 131.804 294.395 294.395-.29 162.471-131.922 294.103-294.366 294.395zm0-511.991c-120.176 0-217.596 97.422-217.596 217.596S391.826 729.596 512 729.596c120.176 0 217.596-97.422 217.596-217.596-.29-120.058-97.538-217.306-217.567-217.596zm0-140.799c-21.092-.285-38.115-17.308-38.399-38.371V38.408C473.601 17.202 490.792.009 512 .009s38.399 17.191 38.399 38.399v76.799c-.285 21.092-17.308 38.115-38.371 38.399H512zm0 870.385c-21.092-.285-38.115-17.308-38.399-38.371v-76.826c0-21.206 17.191-38.399 38.399-38.399s38.399 17.191 38.399 38.399v76.799c-.285 21.092-17.308 38.115-38.371 38.399zm473.591-473.591h-76.799c-21.206 0-38.399-17.191-38.399-38.399s17.191-38.399 38.399-38.399h76.799c21.206 0 38.399 17.191 38.399 38.399s-17.191 38.399-38.399 38.399m-870.385 0H38.407C17.201 550.399.008 533.208.008 512s17.191-38.399 38.399-38.399h76.799c21.206 0 38.399 17.191 38.399 38.399s-17.191 38.399-38.399 38.399m115.198-281.595c-10.245-.806-19.244-5.574-25.564-12.757l-.035-.043-55.808-51.2c-7.14-7.14-11.557-17.006-11.557-27.903 0-21.794 17.667-39.461 39.461-39.461 10.897 0 20.763 4.417 27.903 11.557l51.2 55.808c6.068 6.763 9.778 15.747 9.778 25.599s-3.711 18.837-9.81 25.635l.031-.035c-6.356 7.223-15.355 11.995-25.469 12.791zm617.463 617.459h-.178c-10.545 0-20.084-4.307-26.953-11.261l-.003-.003-52.736-55.808c-2.366-4.842-3.748-10.533-3.748-16.548 0-21.206 17.191-38.399 38.399-38.399a38.2 38.2 0 0 1 16.778 3.85l-.227-.099 55.808 51.2c6.939 6.946 11.231 16.541 11.231 27.135s-4.291 20.189-11.231 27.136c-6.701 7.568-16.317 12.423-27.072 12.798l-.065.001zm-54.271-617.459c-10.245-.806-19.244-5.574-25.564-12.757l-.035-.043c-6.068-6.763-9.778-15.747-9.778-25.599s3.711-18.837 9.81-25.635l-.031.035 51.2-55.808c7.14-7.14 17.006-11.557 27.903-11.557 21.794 0 39.461 17.667 39.461 39.461 0 10.897-4.417 20.763-11.557 27.903l-55.808 51.2c-6.356 7.223-15.355 11.995-25.469 12.791l-.131.009zM176.133 886.263h-.178c-10.545 0-20.084-4.307-26.953-11.261l-.003-.003c-6.939-6.946-11.231-16.541-11.231-27.135s4.291-20.189 11.231-27.136l55.808-52.736c4.842-2.366 10.533-3.748 16.548-3.748 21.206 0 38.399 17.191 38.399 38.399a38.2 38.2 0 0 1-3.85 16.778l.099-.227-51.2 55.808c-6.876 6.978-16.43 11.301-26.992 11.301q-.886 0-1.761-.042l.082.003z"/></svg>