<svg xmlns="http://www.w3.org/2000/svg" xml:space="preserve" svgo-fixed viewBox="0 0 1024 1024"><path fill="currentColor" d="M512 806a294 294 0 1 1 0-588 294 294 0 0 1 0 588m0-512a218 218 0 1 0 0 436 218 218 0 0 0 0-436m0-140c-21-1-38-18-38-39V38a38 38 0 0 1 76 0v77c0 21-17 38-38 39m0 870c-21 0-38-17-38-38v-77a38 38 0 0 1 76 0v77c0 21-17 38-38 38m474-474h-77a38 38 0 0 1 0-76h77a38 38 0 0 1 0 76m-871 0H38a38 38 0 0 1 0-76h77a38 38 0 0 1 0 76m115-281q-15-2-25-13l-56-51a39 39 0 0 1 28-68q17 1 28 12l51 56a38 38 0 0 1 0 51q-9 11-25 13zm618 617q-16 0-27-11l-53-56q-3-7-4-16c0-22 17-39 39-39l16 4 56 51a38 38 0 0 1 0 54q-11 13-27 13m-54-617q-17-2-26-13a38 38 0 0 1 0-51l51-56a39 39 0 0 1 68 28q-1 17-12 28l-56 51q-9 11-25 13M176 886q-16 0-27-11a38 38 0 0 1 0-54l56-53q7-4 16-4c22 0 39 17 39 39l-4 16-51 56q-11 11-27 11z"/></svg>