<svg xmlns="http://www.w3.org/2000/svg" viewBox="0 0 1024 1024"><path fill="currentColor" d="M863.07.023H160.93C104.512.353 58.865 45.999 58.534 102.387v819.195c.33 56.418 45.976 102.065 102.364 102.396H863.07c56.418-.33 102.065-45.976 102.396-102.364V102.419C965.136 46.001 919.49.354 863.102.023zm14.629 921.559c0 8.079-6.55 14.628-14.628 14.628h-702.14c-8.079 0-14.628-6.55-14.628-14.628V102.419c0-8.079 6.55-14.628 14.628-14.628h702.14c8.079 0 14.628 6.55 14.628 14.628zM512 658.28c-48.472 0-87.768 39.295-87.768 87.768s39.295 87.768 87.768 87.768 87.768-39.295 87.768-87.768S560.473 658.28 512 658.28m0 87.767"/></svg>