<?xml version="1.0" encoding="UTF-8" standalone="no"?><!DOCTYPE svg PUBLIC "-//W3C//DTD SVG 1.1//EN" "http://www.w3.org/Graphics/SVG/1.1/DTD/svg11.dtd"><svg width="100%" height="100%" viewBox="0 0 1024 1024" version="1.1" xmlns="http://www.w3.org/2000/svg" xmlns:xlink="http://www.w3.org/1999/xlink" xml:space="preserve" xmlns:serif="http://www.serif.com/" style="fill-rule:evenodd;clip-rule:evenodd;stroke-linejoin:round;stroke-miterlimit:2;"><path d="M530.184,959.998c-32.577,0 -65.153,-12.351 -89.867,-37.053l-363.96,-363.227c-7.863,-7.859 -12.357,-18.526 -12.357,-29.754l-0,-423.859c-0,-23.016 19.097,-42.105 42.125,-42.105l423.498,-0c11.232,-0 21.905,4.491 29.768,12.351l363.96,363.789c48.865,49.404 48.865,129.684 0,179.088l-303.862,303.719c-24.713,24.701 -57.29,37.053 -89.867,37.053l0.562,-0.002Zm-402.184,-447.998l371.854,371.438c16.851,16.279 43.811,16.279 60.098,-0l323.862,-323.72c16.288,-16.28 16.288,-43.228 0,-60.069l-371.814,-371.649l-384,-0l0,384Zm192,-126.317c-35.328,-0 -64,-29.049 -64,-64.842c0,-35.793 28.671,-64.841 64,-64.841c35.329,-0 64,29.048 64,64.841c0,35.793 -28.671,64.842 -64,64.842" style="fill-rule:nonzero;"/></svg>