<svg xmlns="http://www.w3.org/2000/svg" viewBox="0 0 1024 1024"><path fill="currentColor" d="M532.53 1023.985c-37.212 0-74.423-14.115-102.654-42.345L14.129 566.535C5.147 557.553.014 545.363.014 532.531V48.135C.014 21.831 21.828.016 48.133.016h483.756c12.831 0 25.022 5.132 34.004 14.115L981.64 429.878c55.818 56.46 55.818 148.206 0 204.666L634.542 981.642c-28.229 28.229-65.442 42.345-102.654 42.345zM96.253 512.642l401.632 400.991c19.248 18.605 50.044 18.605 68.649 0l347.098-347.098c18.605-18.605 18.605-49.402 0-68.649L512 96.254H96.253v415.747zm191.193-144.999c-44.269 0-80.198-35.928-80.198-80.198s35.928-80.198 80.198-80.198 80.198 35.928 80.198 80.198-35.928 80.198-80.198 80.198"/></svg>