<?xml version="1.0" encoding="UTF-8" standalone="no"?><!DOCTYPE svg PUBLIC "-//W3C//DTD SVG 1.1//EN" "http://www.w3.org/Graphics/SVG/1.1/DTD/svg11.dtd"><svg width="100%" height="100%" viewBox="0 0 1024 1024" version="1.1" xmlns="http://www.w3.org/2000/svg" xmlns:xlink="http://www.w3.org/1999/xlink" xml:space="preserve" xmlns:serif="http://www.serif.com/" style="fill-rule:evenodd;clip-rule:evenodd;stroke-linejoin:round;stroke-miterlimit:2;"><path d="M624.364,128c10.43,-0 20.341,4.17 27.642,11.469l337.963,337.804c45.375,45.875 45.375,120.421 -0,166.296l-282.158,282.025c-22.947,22.936 -53.198,34.406 -83.448,34.406l0.522,-0.002c-22.409,0 -44.818,-6.294 -64.26,-18.882c-19.443,12.59 -41.853,18.884 -64.262,18.884l0.522,-0.002c-30.25,0 -60.499,-11.468 -83.448,-34.406l-337.963,-337.282c-7.301,-7.298 -11.474,-17.203 -11.474,-27.629l-0,-393.583c-0,-21.373 17.733,-39.098 39.116,-39.098l521.248,-0Zm-496.364,416l340.722,344.906c15.647,15.117 40.681,15.117 55.805,0l300.729,-300.596c15.124,-15.117 15.124,-40.141 0,-55.779l-344.256,-340.531l-353,-0l-0,352Zm443.988,-356.571l289.981,289.844c45.375,45.875 45.375,120.421 -0,166.296l-253.4,253.28c14.627,6.399 32.258,3.752 43.958,-7.943l300.729,-300.596c15.124,-15.117 15.124,-40.141 0,-55.779l-345.256,-345.102l-36.012,-0Zm-270.274,239.276c-32.804,0 -59.428,-26.973 -59.428,-60.209c-0,-33.237 26.623,-60.21 59.428,-60.21c32.805,-0 59.429,26.973 59.429,60.21c-0,33.236 -26.624,60.209 -59.429,60.209Z" style="fill-rule:nonzero;"/></svg>