<svg xmlns="http://www.w3.org/2000/svg" viewBox="0 0 1024 1024"><path fill="currentColor" d="M988.652 422.661 673.337 107.346c-7.357-7.357-17.342-11.562-27.852-11.562H39.029c-21.546 0-39.414 17.868-39.414 39.414v414.113c0 10.51 4.204 20.495 11.562 27.852l315.315 314.789c23.123 23.123 53.604 35.735 86.186 35.735s63.589-12.613 86.186-35.735l11.562-11.562c2.103 4.204 4.204 8.409 7.883 11.562 23.649 23.649 55.18 35.735 86.186 35.735s62.537-12.087 86.712-35.735L988.129 595.03c47.297-47.297 47.297-124.549 0-172.373zM443.681 836.249c-8.409 8.409-18.919 12.613-30.481 12.613s-22.598-4.73-30.481-12.613L78.44 533.021V174.612h358.409l303.753 303.753c16.816 16.816 16.816 44.144 0 60.961L443.68 836.248zm489.265-296.921L636.024 836.25c-16.816 16.816-44.67 16.816-61.486 0-3.679-3.679-7.357-5.78-12.087-7.883l233.333-233.333c47.297-47.823 47.297-125.075 0-172.373L547.736 174.613h80.931L932.42 478.366c16.816 16.816 16.816 44.144 0 60.961zM314.928 328.067c0 36.261-29.429 65.69-65.69 65.69s-65.69-29.429-65.69-65.69 29.429-65.69 65.69-65.69 65.69 29.429 65.69 65.69"/></svg>