<svg xmlns="http://www.w3.org/2000/svg" xml:space="preserve" svgo-fixed="true" viewBox="0 0 1024 1024"><path d="M624 128q17 0 28 11l338 338c45 46 45 121 0 167L708 926q-36 34-84 34h1q-35 0-64-19-30 19-65 19h1c-30 0-61-11-84-34L75 588q-11-11-11-27V167c0-21 18-39 39-39zM128 544l341 345c15 15 40 15 56 0l300-301c15-15 15-40 0-55L481 192H128zm444-357 290 290c45 46 45 121 0 167L609 897c14 6 32 4 44-8l300-301c15-15 15-40 0-55L608 187zM302 427c-33 0-60-27-60-61 0-33 27-60 60-60s59 27 59 60c0 34-26 61-59 61" style="fill-rule:nonzero"/></svg>