<?xml version="1.0" encoding="UTF-8" standalone="no"?><!DOCTYPE svg PUBLIC "-//W3C//DTD SVG 1.1//EN" "http://www.w3.org/Graphics/SVG/1.1/DTD/svg11.dtd"><svg width="100%" height="100%" viewBox="0 0 1024 1024" version="1.1" xmlns="http://www.w3.org/2000/svg" xmlns:xlink="http://www.w3.org/1999/xlink" xml:space="preserve" xmlns:serif="http://www.serif.com/" style="fill-rule:evenodd;clip-rule:evenodd;stroke-linejoin:round;stroke-miterlimit:2;"><path d="M960,629.145c-0,-29.331 -23.814,-53.145 -53.145,-53.145l-277.71,0c-29.331,0 -53.145,23.814 -53.145,53.145l0,277.71c0,29.331 23.814,53.145 53.145,53.145l277.71,0c29.331,0 53.145,-23.814 53.145,-53.145l-0,-277.71Zm-512,0c0,-29.331 -23.814,-53.145 -53.145,-53.145l-277.71,0c-29.331,0 -53.145,23.814 -53.145,53.145l0,277.71c0,29.331 23.814,53.145 53.145,53.145l277.71,0c29.331,0 53.145,-23.814 53.145,-53.145l0,-277.71Zm448,10.855l-256,0l-0,256l256,0l0,-256Zm-512,0l-256,0l0,256l256,0l0,-256Zm64,-522.855c0,-29.331 -23.814,-53.145 -53.145,-53.145l-277.71,0c-29.331,0 -53.145,23.814 -53.145,53.145l0,277.71c0,29.331 23.814,53.145 53.145,53.145l277.71,0c29.331,0 53.145,-23.814 53.145,-53.145l0,-277.71Zm512,0c-0,-29.331 -23.814,-53.145 -53.145,-53.145l-277.71,0c-29.331,0 -53.145,23.814 -53.145,53.145l0,277.71c0,29.331 23.814,53.145 53.145,53.145l277.71,0c29.331,0 53.145,-23.814 53.145,-53.145l-0,-277.71Zm-576,10.855l-256,0l0,256l256,0l0,-256Zm512,0l-256,0l-0,256l256,0l0,-256Z"/></svg>