<svg xmlns="http://www.w3.org/2000/svg" xml:space="preserve" svgo-fixed viewBox="0 0 1024 1024"><path d="M960 629c0-29-24-53-53-53H629c-29 0-53 24-53 53v278c0 29 24 53 53 53h278c29 0 53-24 53-53zm-512 0c0-29-24-53-53-53H117c-29 0-53 24-53 53v278c0 29 24 53 53 53h278c29 0 53-24 53-53zm448 11H640v256h256zm-512 0H128v256h256zm64-523c0-29-24-53-53-53H117c-29 0-53 24-53 53v278c0 29 24 53 53 53h278c29 0 53-24 53-53zm512 0c0-29-24-53-53-53H629c-29 0-53 24-53 53v278c0 29 24 53 53 53h278c29 0 53-24 53-53zm-576 11H128v256h256zm512 0H640v256h256z"/></svg>