<svg xmlns="http://www.w3.org/2000/svg" viewBox="0 0 1024 1024"><path fill="currentColor" d="M325.818 465.455H139.636C62.517 465.455 0 402.937 0 325.819V139.637C0 62.518 62.518.001 139.636.001h186.182c77.119 0 139.636 62.518 139.636 139.636v186.182c0 77.119-62.518 139.636-139.636 139.636M139.636 93.091c-25.567.345-46.201 20.979-46.545 46.512v186.215c.345 25.567 20.979 46.201 46.512 46.545h186.215c25.567-.345 46.201-20.979 46.545-46.512V139.636c-.345-25.567-20.979-46.201-46.512-46.545h-.033zM325.818 1024H139.636C62.517 1024 0 961.482 0 884.364V698.182c0-77.119 62.518-139.636 139.636-139.636h186.182c77.119 0 139.636 62.518 139.636 139.636v186.182c0 77.119-62.518 139.636-139.636 139.636M139.636 651.636c-25.567.345-46.201 20.979-46.545 46.512v186.215c.345 25.567 20.979 46.201 46.512 46.545h186.215c25.567-.345 46.201-20.979 46.545-46.512V698.181c-.345-25.567-20.979-46.201-46.512-46.545h-.033zm744.728-186.181H698.182c-77.119 0-139.636-62.518-139.636-139.636V139.637C558.546 62.518 621.064.001 698.182.001h186.182C961.483.001 1024 62.519 1024 139.637v186.182c0 77.119-62.518 139.636-139.636 139.636M698.182 93.091c-25.567.345-46.201 20.979-46.545 46.512v186.215c.345 25.567 20.979 46.201 46.512 46.545h186.215c25.567-.345 46.201-20.979 46.545-46.512V139.636c-.345-25.567-20.979-46.201-46.512-46.545h-.033zM884.364 1024H698.182c-77.119 0-139.636-62.518-139.636-139.636V698.182c0-77.119 62.518-139.636 139.636-139.636h186.182c77.119 0 139.636 62.518 139.636 139.636v186.182C1024 961.483 961.482 1024 884.364 1024M698.182 651.636c-25.567.345-46.201 20.979-46.545 46.512v186.215c.345 25.567 20.979 46.201 46.512 46.545h186.215c25.567-.345 46.201-20.979 46.545-46.512V698.181c-.345-25.567-20.979-46.201-46.512-46.545h-.033z"/></svg>