<svg xmlns="http://www.w3.org/2000/svg" viewBox="0 0 1024 1024"><path fill="currentColor" d="M921.588 906.96H102.413C45.994 906.629.346 860.983.016 804.594V658.281c.325-24.105 19.78-43.559 43.853-43.884h.032c56.552 0 102.397-45.844 102.397-102.397S100.454 409.603 43.901 409.603C19.796 409.278.342 389.823.017 365.75V219.437C.348 163.018 45.994 117.37 102.383 117.04H921.59c56.419.331 102.067 45.977 102.397 102.366v146.313c-.325 24.105-19.78 43.559-43.853 43.884h-.032c-56.552 0-102.397 45.844-102.397 102.397s45.844 102.397 102.397 102.397c24.105.325 43.559 19.78 43.884 43.853v146.313c-.331 56.419-45.977 102.067-102.366 102.397zM87.785 696.9v107.664c0 8.079 6.55 14.629 14.629 14.629h819.175c8.079 0 14.629-6.55 14.629-14.629V696.9c-84.233-20.753-145.724-95.646-145.724-184.9s61.489-164.147 144.417-184.627l1.306-.273V219.436c0-8.079-6.55-14.629-14.629-14.629H102.413c-8.079 0-14.629 6.55-14.629 14.629V327.1c84.233 20.753 145.724 95.646 145.724 184.9S172.019 676.147 89.091 696.627z"/></svg>