<svg xmlns="http://www.w3.org/2000/svg" viewBox="0 0 1024 1024"><path fill="currentColor" d="M512 1024C229.231 1024 0 794.769 0 512S229.231 0 512 0s512 229.231 512 512-229.231 512-512 512m0-938.667C276.359 85.333 85.333 276.358 85.333 512S276.358 938.667 512 938.667 938.667 747.642 938.667 512 747.642 85.333 512 85.333m-170.667 640h-.199c-11.717 0-22.316-4.787-29.948-12.512l-.004-.004c-7.709-7.719-12.479-18.379-12.479-30.151s4.768-22.432 12.479-30.152l341.333-341.333a42.5 42.5 0 0 1 29.087-11.451c23.564 0 42.667 19.103 42.667 42.667 0 11.253-4.356 21.488-11.475 29.112l.023-.025-341.333 341.333c-7.636 7.729-18.235 12.516-29.952 12.516h-.209.011zm341.334 0h-.199c-11.717 0-22.316-4.787-29.948-12.512L311.183 371.484a42.5 42.5 0 0 1-11.451-29.087c0-23.564 19.103-42.667 42.667-42.667 11.253 0 21.488 4.356 29.112 11.475l-.025-.023 341.333 341.333c7.709 7.719 12.479 18.379 12.479 30.151s-4.768 22.432-12.479 30.152c-7.636 7.729-18.235 12.516-29.952 12.516h-.209.011z"/></svg>