<svg xmlns="http://www.w3.org/2000/svg" viewBox="0 0 1024 1024"><path fill="currentColor" d="m586.932 512 312.455-312.455c10.394-9.708 16.875-23.488 16.875-38.79 0-29.283-23.737-53.02-53.02-53.02-15.299 0-29.084 6.481-38.759 16.841l-.027.029L512.001 437.06 199.546 124.605a52.8 52.8 0 0 0-36.145-14.228c-29.283 0-53.02 23.737-53.02 53.02 0 13.985 5.412 26.701 14.261 36.174l-.027-.029L437.07 511.997 124.615 824.452c-9.582 9.589-15.504 22.839-15.504 37.468s5.926 27.874 15.504 37.469c9.589 9.582 22.839 15.504 37.468 15.504s27.874-5.926 37.469-15.504l312.455-312.455 312.455 312.455c9.589 9.582 22.839 15.504 37.468 15.504s27.874-5.926 37.469-15.504c9.582-9.589 15.504-22.839 15.504-37.468s-5.926-27.874-15.504-37.469z"/></svg>