<svg xmlns="http://www.w3.org/2000/svg" viewBox="0 0 1024 1024"><path fill="currentColor" d="M393.75 704.55c-30.45 0-56.7-10.5-77.7-31.5s-31.5-47.25-31.5-77.7 10.5-56.7 31.5-77.7 47.25-31.5 77.7-31.5 56.7 10.5 77.7 31.5 31.5 47.25 31.5 77.7-10.5 56.7-31.5 77.7-47.25 31.5-77.7 31.5M218.4 946.05c-24.15 0-44.1-8.4-60.9-26.25-17.85-16.8-26.25-37.8-26.25-61.95V245.7c0-24.15 8.4-45.15 26.25-61.95 16.8-16.8 36.75-25.2 60.9-25.2h44.1v-88.2h87.15v88.2h350.7v-88.2h87.15v88.2h44.1c24.15 0 44.1 8.4 61.95 25.2 16.8 16.8 25.2 37.8 25.2 61.95v612.15c0 24.15-8.4 45.15-25.2 61.95-17.85 17.85-37.8 26.25-61.95 26.25zm0-88.2h613.2v-436.8H218.4zm0-525h613.2V245.7H218.4zm0 0V245.7z"/></svg>