<?xml version="1.0" encoding="UTF-8" standalone="no"?><!DOCTYPE svg PUBLIC "-//W3C//DTD SVG 1.1//EN" "http://www.w3.org/Graphics/SVG/1.1/DTD/svg11.dtd"><svg width="100%" height="100%" viewBox="0 0 1024 1024" version="1.1" xmlns="http://www.w3.org/2000/svg" xmlns:xlink="http://www.w3.org/1999/xlink" xml:space="preserve" xmlns:serif="http://www.serif.com/" style="fill-rule:evenodd;clip-rule:evenodd;stroke-linejoin:round;stroke-miterlimit:2;"><path d="M704.828,767.999c140.921,-0.458 255.172,-114.991 255.172,-255.999c-0,-141.29 -114.71,-256 -256,-256l-384,-0c-141.29,0 -256,114.71 -256,256c0,141.29 114.71,256 256,256l384,0l0.828,-0.001Zm-384.828,-447.999l384,0l0.621,0.001c105.69,0.343 191.379,86.243 191.379,191.999c0,105.968 -86.032,192 -192,192l-384,0c-105.968,0 -192,-86.032 -192,-192c0,-105.756 85.689,-191.656 191.379,-191.999l0.621,-0.001Zm0,64c-70.645,0 -128,57.355 -128,128c0,70.645 57.355,128 128,128c70.645,0 128,-57.355 128,-128c0,-70.645 -57.355,-128 -128,-128Z"/></svg>