<svg xmlns="http://www.w3.org/2000/svg" viewBox="0 0 1024 1024"><path fill="currentColor" d="M306.6 770.7c-73.5 0-135.45-25.2-185.85-76.65C69.3 642.6 44.1 580.65 44.1 508.2c0-73.5 25.2-135.45 76.65-185.85 50.4-51.45 112.35-76.65 185.85-76.65h436.8c73.5 0 135.45 25.2 185.85 76.65 51.45 50.4 76.65 112.35 76.65 185.85 0 72.45-25.2 134.4-76.65 185.85-50.4 51.45-112.35 76.65-185.85 76.65zm0-87.15h436.8c48.3 0 89.25-17.85 123.9-51.45 34.65-34.65 51.45-75.6 51.45-123.9s-16.8-89.25-51.45-123.9c-34.65-33.6-75.6-51.45-123.9-51.45H306.6c-48.3 0-89.25 17.85-123.9 51.45-34.65 34.65-51.45 75.6-51.45 123.9s16.8 89.25 51.45 123.9c34.65 33.6 75.6 51.45 123.9 51.45m0-44.1c35.7 0 67.2-12.6 92.4-38.85 26.25-25.2 38.85-55.65 38.85-92.4S425.25 441 399 414.75c-25.2-25.2-56.7-37.8-92.4-37.8-36.75 0-68.25 12.6-93.45 37.8-25.2 26.25-37.8 56.7-37.8 93.45s12.6 67.2 37.8 92.4c25.2 26.25 56.7 38.85 93.45 38.85"/></svg>