<svg xmlns="http://www.w3.org/2000/svg" xml:space="preserve" svgo-fixed viewBox="0 0 1024 1024"><path fill="currentColor" d="M980 319H44a44 44 0 0 1 0-88h936a44 44 0 0 1 0 88m-208 705H243c-75 0-136-58-140-132V278a44 44 0 0 1 87 0v614c0 24 28 44 59 44h519c33 0 59-20 59-44V278a47 47 0 1 1 94 0v614c-4 74-65 132-140 132zm7-761zc-24 0-43-19-43-43v-88c0-24-28-44-59-44H349c-32 0-58 20-58 44v88a44 44 0 0 1-88 0v-88C208 58 269 0 344 0h6-1 333c75 0 136 58 141 132v88c0 24-20 44-44 44zM408 804c-24 0-44-19-44-43V496a44 44 0 0 1 88 0v265c0 24-20 43-44 43m208 0c-24 0-44-19-44-43V496a44 44 0 0 1 88 0v264c0 24-20 44-44 44"/></svg>