<svg xmlns="http://www.w3.org/2000/svg" viewBox="0 0 1024 1024"><path fill="currentColor" d="M979.856 319.009H44.142C19.918 319.009.28 299.371.28 275.147s19.638-43.862 43.862-43.862h935.714c24.224 0 43.862 19.638 43.862 43.862s-19.638 43.862-43.862 43.862M771.66 1023.718H252.339c-2.865.208-6.208.328-9.577.328-74.752 0-135.856-58.437-140.12-132.119l-.018-.377V278.073c0-24.224 19.638-43.862 43.862-43.862s43.862 19.638 43.862 43.862V891.55c0 23.977 27.486 44.447 58.483 44.447h519.321c32.75 0 58.483-20.468 58.483-44.447V278.073c0-26.162 21.208-47.37 47.37-47.37s47.37 21.208 47.37 47.37V891.55c-4.282 74.06-65.385 132.496-140.136 132.496q-5.056-.001-10.022-.352l.445.025zm7.018-760.266c-.175.003-.382.004-.589.004-23.9 0-43.276-19.376-43.276-43.276q0-.31.004-.62v.032-87.138c0-23.977-28.071-44.447-58.483-44.447H349.419c-32.166 0-58.483 20.468-58.483 44.447v87.138c0 24.224-19.638 43.862-43.862 43.862s-43.862-19.638-43.862-43.862v-87.138C207.909 58.432 269.095.176 343.887.176q2.917 0 5.806.118l-.276-.008h325.161a137 137 0 0 1 7.28-.188c74.82 0 136.023 58.3 140.66 131.951l.021.407v87.138c.003.174.004.38.004.585 0 24.224-19.638 43.862-43.862 43.862h-.004zM407.901 804.41c-24.092-.325-43.537-19.769-43.862-43.83V495.625c0-24.224 19.638-43.862 43.862-43.862s43.862 19.638 43.862 43.862v264.339c.003.174.004.38.004.585 0 24.224-19.638 43.862-43.862 43.862zm208.198 0c-24.224 0-43.862-19.638-43.862-43.862V495.624c0-24.224 19.638-43.862 43.862-43.862s43.862 19.638 43.862 43.862v264.343c0 24.342-19.568 44.112-43.83 44.443z"/></svg>