<?xml version="1.0" encoding="UTF-8" standalone="no"?><!DOCTYPE svg PUBLIC "-//W3C//DTD SVG 1.1//EN" "http://www.w3.org/Graphics/SVG/1.1/DTD/svg11.dtd"><svg width="100%" height="100%" viewBox="0 0 1024 1024" version="1.1" xmlns="http://www.w3.org/2000/svg" xmlns:xlink="http://www.w3.org/1999/xlink" xml:space="preserve" xmlns:serif="http://www.serif.com/" style="fill-rule:evenodd;clip-rule:evenodd;stroke-linejoin:round;stroke-miterlimit:2;"><path d="M512.001,99.999l0.15,0c8.911,0 16.971,3.635 22.775,9.501l173.053,172.804c5.606,5.989 8.721,13.891 8.708,22.088c-0,17.894 -14.527,32.401 -32.447,32.401c-8.549,-0 -16.324,-3.301 -22.12,-8.697l-117.672,-117.504l-0,397.008c-0,17.894 -14.527,32.4 -32.447,32.4c-17.921,0 -32.447,-14.505 -32.447,-32.4l-0,-397.008l-117.673,117.504c-5.997,5.597 -13.911,8.708 -22.12,8.695c-17.919,0 -32.447,-14.506 -32.447,-32.4c0,-8.537 3.306,-16.301 8.71,-22.088l173.05,-172.801c5.806,-5.869 13.867,-9.505 22.777,-9.505l0.151,0l-0.001,0.002Zm379.343,724.348c-0,-1.731 -0.222,-158.746 -0.222,-158.746c-0,-21.207 12.214,-38.4 33.455,-38.4c21.242,-0 35.423,17.192 35.423,38.4c-0,0 -1.842,157.371 -1.842,159.416c0,72.177 -56.648,131.137 -127.968,134.968l-0.341,0.015l-637.849,0c-72.346,-3.034 -129.843,-62.34 -129.843,-135.055c-0,-1.946 0.122,-159.345 0.122,-159.345c0,-21.207 12.216,-38.4 33.456,-38.4c21.238,-0 33.455,17.192 33.455,38.4c-0,0 -0.226,157.029 -0.223,158.747c-0,29.99 32.262,64.785 61.183,68.816l0.313,0.037l639.384,0c29.235,-4.06 61.497,-38.863 61.497,-68.853Z"/></svg>