<svg xmlns="http://www.w3.org/2000/svg" viewBox="0 0 1024 1024"><path fill="currentColor" d="M875.959 1024H148.042C65.479 1020.528-.138 952.752-.138 869.651q0-3.464.151-6.89l-.011.325V687.543c0-24.237 19.648-43.886 43.886-43.886s43.886 19.648 43.886 43.886v175.543a66 66 0 0 0-.255 5.881c0 34.276 25.406 62.617 58.412 67.222l.357.041h729.673c33.364-4.645 58.77-32.987 58.77-67.263a69 69 0 0 0-.274-6.141l.019.261V687.544c0-24.237 19.648-43.886 43.886-43.886s43.886 19.648 43.886 43.886v175.543c.091 1.983.143 4.309.143 6.646 0 82.485-64.648 149.87-146.039 154.251l-.389.016zM746.058 321.828h-.204c-12.052 0-22.954-4.923-30.804-12.869L512.002 105.911 308.958 308.955a43.71 43.71 0 0 1-29.918 11.778c-24.237 0-43.886-19.648-43.886-43.886 0-11.575 4.48-22.102 11.803-29.944l-.023.026L480.992 12.871C488.931 4.941 499.896.036 512.004.036s23.073 4.904 31.013 12.835l234.058 234.058c7.93 7.939 12.835 18.904 12.835 31.012s-4.904 23.073-12.835 31.013c-7.854 7.95-18.756 12.874-30.808 12.874h-.215.011zM512 731.429c-24.106-.325-43.561-19.78-43.886-43.854V43.887C468.114 19.65 487.762.001 512 .001s43.886 19.648 43.886 43.886v643.657c-.325 24.106-19.78 43.561-43.854 43.886z"/></svg>