<svg xmlns="http://www.w3.org/2000/svg" xml:space="preserve" svgo-fixed="true" viewBox="0 0 1024 1024"><path d="M416 609q93-39 224-37c127 0 234 23 301 86 47 44 76 108 79 200a32 32 0 0 1-64 2q-4-105-59-155c-57-54-149-69-257-69s-200 15-257 69q-55 50-59 155a32 32 0 0 1-64-2c3-92 32-156 79-200a236 236 0 0 1 77-49m73-171a191 191 0 0 1-23-198 192 192 0 1 1 23 198m151-246a128 128 0 1 0 0 256 128 128 0 0 0 0-256M265 644q-85 13-138 61-55 50-59 155a32 32 0 0 1-64-2c3-92 32-156 79-200 53-50 131-75 223-83a11 11 0 0 1 8 20 279 279 0 0 0-49 49m167-175a19 19 0 0 1-7 28q-34 18-73 18c-88 0-160-72-160-161a161 161 0 0 1 205-156 14 14 0 0 1 8 19l-10 30q-6 14-21 12-10-3-22-3c-53 0-96 44-96 98 0 53 43 97 96 97q23 0 43-10c8-4 19-1 23 7z" style="fill:#2e2bce"/></svg>