<svg xmlns="http://www.w3.org/2000/svg" viewBox="0 0 1024 1024"><path fill="currentColor" d="M512 528.516c-136.816 0-247.725-110.91-247.725-247.725S375.185 33.066 512 33.066c136.816 0 247.725 110.91 247.725 247.725 0 136.816-110.91 247.725-247.725 247.725m0-396.361c-82.088 0-148.635 66.547-148.635 148.635S429.912 429.425 512 429.425s148.635-66.547 148.635-148.635S594.088 132.155 512 132.155m462.421 858.78c-27.214-.367-49.178-22.331-49.545-49.509v-.036c0-128.817-70.024-214.696-412.876-214.696S99.124 812.573 99.124 941.39c0 27.363-22.182 49.545-49.545 49.545S.034 968.753.034 941.39C.034 627.604 358.74 627.604 512 627.604s511.966 0 511.966 313.786c-.367 27.214-22.331 49.178-49.509 49.545z"/></svg>