<svg xmlns="http://www.w3.org/2000/svg" viewBox="0 0 1024 1024"><path fill="currentColor" d="M617.025 525.129c-108.758 0-196.923-88.165-196.923-196.923s88.165-196.923 196.923-196.923 196.923 88.165 196.923 196.923-88.165 196.923-196.923 196.923m0-315.077c-65.254 0-118.154 52.9-118.154 118.154s52.9 118.154 118.154 118.154 118.154-52.9 118.154-118.154-52.9-118.154-118.154-118.154m367.59 682.666c-21.633-.292-39.093-17.751-39.385-39.356v-.028c0-102.4-55.664-170.667-328.206-170.667s-328.206 68.267-328.206 170.667c0 21.751-17.633 39.385-39.385 39.385s-39.385-17.633-39.385-39.385c0-249.436 285.145-249.436 406.975-249.436s406.975 0 406.975 249.436c-.292 21.633-17.751 39.093-39.356 39.385zM318.753 567.664h-16.804c-80.61-8.022-143.044-75.489-143.044-157.538 0-87.412 70.862-158.273 158.273-158.273 5.362 0 10.663.267 15.888.788l-.66-.053c21.012.932 37.694 18.192 37.694 39.348 0 21.751-17.633 39.385-39.385 39.385-2.183 0-4.326-.177-6.414-.519l.228.031a74 74 0 0 0-7.607-.378c-18.98 0-36.35 6.897-49.738 18.321l.107-.089c-15.663 12.706-26.198 31.205-28.33 52.186l-.027.326c-.273 2.455-.43 5.301-.43 8.183 0 40.775 31.191 74.267 71.015 77.915l.306.022c2.052.186 4.437.293 6.848.293 15.535 0 30.039-4.409 42.331-12.043l-.342.198c5.898-3.695 13.065-5.886 20.742-5.886 21.812 0 39.494 17.682 39.494 39.494 0 14.133-7.424 26.533-18.586 33.511l-.166.097c-23.058 14.912-51.098 24.022-81.222 24.678l-.174.002zM39.385 853.333C17.752 853.041.292 835.582 0 813.977v-.028c0-141.785 37.809-236.308 223.179-236.308 21.751 0 39.385 17.633 39.385 39.385s-17.633 39.385-39.385 39.385c-123.406 0-144.41 39.385-144.41 157.538-.292 21.633-17.751 39.093-39.356 39.385z"/></svg>