<svg xmlns="http://www.w3.org/2000/svg" viewBox="0 0 1024 1024"><path fill="currentColor" d="M512 556.52c-122.938 0-222.599-99.66-222.599-222.599S389.061 111.322 512 111.322s222.599 99.66 222.599 222.599S634.939 556.52 512 556.52m0-356.158c-73.762 0-133.559 59.797-133.559 133.559S438.238 467.48 512 467.48s133.559-59.797 133.559-133.559S585.762 200.362 512 200.362m415.518 771.676c-24.454-.33-44.19-20.066-44.52-44.488v-.032c0-115.751-62.922-192.919-370.998-192.919s-370.998 77.168-370.998 192.919c0 24.587-19.932 44.52-44.52 44.52s-44.52-19.932-44.52-44.52c0-281.959 322.323-281.959 460.038-281.959s460.038 0 460.038 281.959c-.33 24.454-20.066 44.19-44.488 44.52zm0-311.638c-24.454-.33-44.19-20.066-44.52-44.488v-207.79c0-24.587 19.932-44.52 44.52-44.52s44.52 19.932 44.52 44.52V615.88c-.33 24.454-20.066 44.19-44.488 44.52zm103.878-103.88H823.638c-24.587 0-44.52-19.932-44.52-44.52s19.932-44.52 44.52-44.52h207.758c24.587 0 44.52 19.932 44.52 44.52s-19.932 44.52-44.52 44.52"/></svg>