<svg xmlns="http://www.w3.org/2000/svg" xml:space="preserve" svgo-fixed="true" viewBox="0 0 1024 1024"><path fill="currentColor" d="M525 684q82 0 140-58 56-58 57-140c1-82-20-101-57-140q-58-56-140-56c-82 0-101 19-140 57q-56 58-56 139c0 81 19 101 56 140q58 58 140 58m0-79q-49 0-84-35-33-35-34-84c-1-49 12-61 34-84q35-33 84-33c49 0 61 11 84 33q35 35 35 84c0 49-12 61-35 84s-51 35-84 35m0 210A511 511 0 0 1 44 486a509 509 0 0 1 481-327 510 510 0 0 1 481 327 509 509 0 0 1-481 329m0-88q125 1 227-66 104-64 158-175a426 426 0 0 0-385-240q-122 0-227 65c-105 65-122 102-158 175a426 426 0 0 0 385 241"/></svg>