<svg xmlns="http://www.w3.org/2000/svg" xml:space="preserve" svgo-fixed viewBox="0 0 1024 1024"><path fill="currentColor" d="m705 565-65-63q11-52-29-97c-40-45-60-42-102-34l-63-64q19-8 38-13 19-4 41-4 82 0 140 56a194 194 0 0 1 52 181q-4 19-12 38m139 137-63-60a462 462 0 0 0 129-156 431 431 0 0 0-508-222l-67-69q44-19 91-28 47-8 99-8 165 0 294 91a411 411 0 0 1 187 236q-25 65-66 120-41 56-96 96m22 270L683 791q-39 11-77 17A514 514 0 0 1 44 487a509 509 0 0 1 138-196L61 167l62-61 804 804zM243 351q-31 29-58 62-27 34-45 73a431 431 0 0 0 385 241l43-2 42-7-39-42-23 5q-11 2-23 3-82-1-140-58-56-58-56-140l1-23 5-23z"/></svg>