<svg xmlns="http://www.w3.org/2000/svg" viewBox="0 0 1024 1024"><path fill="currentColor" d="M525 683.55c54.6 0 100.8-19.95 139.65-57.75 37.8-38.85 57.75-85.05 57.75-139.65s-19.95-100.8-57.75-139.65C625.8 308.7 579.6 289.8 525 289.8s-100.8 18.9-139.65 56.7c-37.8 38.85-56.7 85.05-56.7 139.65s18.9 100.8 56.7 139.65c38.85 37.8 85.05 57.75 139.65 57.75m0-78.75c-32.55 0-60.9-11.55-84-34.65-22.05-23.1-33.6-51.45-33.6-84s11.55-60.9 33.6-84c23.1-22.05 51.45-33.6 84-33.6s60.9 11.55 84 33.6c23.1 23.1 34.65 51.45 34.65 84s-11.55 60.9-34.65 84-51.45 34.65-84 34.65m0 210c-106.05 0-203.7-30.45-290.85-89.25C147 665.7 82.95 585.9 44.1 486.15 82.95 386.4 147 306.6 234.15 246.75c87.15-58.8 184.8-88.2 290.85-88.2s203.7 29.4 290.85 88.2C903 306.6 967.05 386.4 1005.9 486.15 967.05 585.9 903 665.7 815.85 725.55 728.7 784.35 631.05 814.8 525 814.8m0-88.2c82.95 0 158.55-21 226.8-65.1 69.3-43.05 121.8-101.85 158.55-175.35-36.75-73.5-89.25-132.3-158.55-175.35-68.25-43.05-143.85-65.1-226.8-65.1-81.9 0-157.5 22.05-226.8 65.1S176.4 412.65 139.65 486.15c36.75 73.5 89.25 132.3 158.55 175.35 69.3 44.1 144.9 65.1 226.8 65.1"/></svg>