<svg xmlns="http://www.w3.org/2000/svg" viewBox="0 0 1024 1024"><path fill="currentColor" d="m704.55 564.9-64.05-63c7.35-34.65-3.15-67.2-29.4-96.6s-59.85-42-101.85-34.65l-63-64.05q18.9-7.875 37.8-12.6c12.6-3.15 26.25-4.2 40.95-4.2 54.6 0 100.8 18.9 139.65 56.7 37.8 38.85 57.75 85.05 57.75 139.65 0 14.7-2.1 28.35-5.25 40.95-2.1 12.6-7.35 25.2-12.6 37.8M844.2 702.45l-63-60.9c27.3-21 52.5-44.1 73.5-69.3 22.05-25.2 39.9-53.55 55.65-86.1-36.75-73.5-89.25-132.3-157.5-175.35S609 245.7 525 245.7c-21 0-42 1.05-61.95 4.2-21 3.15-40.95 7.35-60.9 13.65l-67.2-68.25q44.1-18.9 91.35-28.35c31.5-5.25 64.05-8.4 98.7-8.4 110.25 0 207.9 30.45 294 91.35s149.1 139.65 186.9 236.25q-25.2 64.575-66.15 119.7c-27.3 36.75-58.8 69.3-95.55 96.6m22.05 269.85L682.5 790.65c-25.2 7.35-51.45 13.65-76.65 17.85-26.25 4.2-53.55 6.3-80.85 6.3-110.25 0-207.9-30.45-294-91.35S82.95 582.75 44.1 486.15C58.8 447.3 78.75 411.6 101.85 378c23.1-32.55 50.4-61.95 79.8-88.2L60.9 166.95l61.95-60.9 804.3 804.3zm-623.7-621.6c-21 18.9-39.9 39.9-57.75 61.95-17.85 23.1-32.55 47.25-45.15 73.5 36.75 73.5 89.25 132.3 157.5 175.35C365.4 705.6 441 726.6 525 726.6c14.7 0 28.35-1.05 43.05-2.1 13.65-2.1 27.3-4.2 42-6.3l-38.85-42c-8.4 2.1-15.75 4.2-23.1 5.25s-14.7 2.1-23.1 2.1c-54.6 0-100.8-19.95-139.65-57.75-37.8-38.85-56.7-85.05-56.7-139.65 0-8.4 0-15.75 1.05-23.1s3.15-14.7 5.25-23.1z"/></svg>