<?xml version="1.0" encoding="UTF-8" standalone="no"?>
<!DOCTYPE svg PUBLIC "-//W3C//DTD SVG 1.1//EN" "http://www.w3.org/Graphics/SVG/1.1/DTD/svg11.dtd">
<svg width="100%" height="100%" viewBox="0 0 1024 1024" version="1.1" xmlns="http://www.w3.org/2000/svg" xmlns:xlink="http://www.w3.org/1999/xlink" xml:space="preserve" xmlns:serif="http://www.serif.com/" style="fill-rule:evenodd;clip-rule:evenodd;stroke-linejoin:round;stroke-miterlimit:2;">
    <g transform="matrix(1,0,0,1,13,-6)">
        <path d="M855.036,232.061C886.479,275.612 905,328.995 905,386.644C905,387.02 904.999,387.396 904.998,387.772C904.999,388.15 905,388.528 905,388.907C905,537.423 784.423,658 635.907,658C610.159,658 585.251,654.371 561.666,647.603L363.287,845.982L343.133,862.435L320.608,874.288L296.691,881.378L272.152,883.731L247.614,881.378L223.697,874.288L201.172,862.435L181.018,845.982L164.565,825.828L152.712,803.303L145.622,779.385L143.269,754.847L145.622,730.309L152.712,706.392L164.565,683.866L181.018,663.712C181.018,663.712 378.203,466.527 378.203,466.527C370.798,441.946 366.814,415.888 366.814,388.907C366.814,240.391 487.391,119.814 635.907,119.814C649.187,119.814 662.242,120.783 675.008,122.649C680.002,123.379 684.864,124.541 689.552,126.101C728.619,133.718 764.644,149.815 795.607,172.382L640.899,327.09L700.453,386.644L855.036,232.061ZM818.058,362.099L686.879,493.278L531.536,337.935L662.715,206.756C653.963,205.476 645.012,204.814 635.907,204.814C534.303,204.814 451.814,287.303 451.814,388.907C451.814,424.385 461.871,457.532 479.288,485.65L241.122,723.816C223.984,740.954 223.984,768.74 241.122,785.878C258.259,803.015 286.046,803.015 303.183,785.878L541.883,547.178C569.41,563.577 601.567,573 635.907,573C737.511,573 820,490.511 820,388.907C820,379.802 819.338,370.851 818.058,362.099Z"/>
    </g>
</svg>
