<?xml version="1.0" encoding="UTF-8" standalone="no"?><!DOCTYPE svg PUBLIC "-//W3C//DTD SVG 1.1//EN" "http://www.w3.org/Graphics/SVG/1.1/DTD/svg11.dtd"><svg width="100%" height="100%" viewBox="0 0 1024 1024" version="1.1" xmlns="http://www.w3.org/2000/svg" xmlns:xlink="http://www.w3.org/1999/xlink" xml:space="preserve" xmlns:serif="http://www.serif.com/" style="fill-rule:evenodd;clip-rule:evenodd;stroke-linejoin:round;stroke-miterlimit:2;"><path d="M320,749.255l-162.274,162.274l-45.255,-45.255l162.274,-162.274l-146.745,0l0,-64l256,0l0,256l-64,0l0,-146.745Zm384,-0l0,146.745l-64,0l0,-256l256,0l0,64l-146.745,0l162.274,162.274l-45.255,45.255l-162.274,-162.274Zm-320,-365.255l-256,0l0,-64l146.745,0l-162.274,-162.274l45.255,-45.255l162.274,162.274l0,-146.745l64,0l0,256Zm365.255,-64l146.745,0l0,64l-256,0l0,-256l64,0l0,146.745l162.274,-162.274l45.255,45.255l-162.274,162.274Z" style="fill-rule:nonzero;"/></svg>